<?xml version="1.0" encoding="UTF-8" standalone="no"?><!DOCTYPE svg PUBLIC "-//W3C//DTD SVG 1.1//EN" "http://www.w3.org/Graphics/SVG/1.1/DTD/svg11.dtd"><svg width="100%" height="100%" viewBox="0 0 861 637" version="1.1" xmlns="http://www.w3.org/2000/svg" xmlns:xlink="http://www.w3.org/1999/xlink" xml:space="preserve" xmlns:serif="http://www.serif.com/" style="fill-rule:evenodd;clip-rule:evenodd;stroke-linejoin:round;stroke-miterlimit:2;"><g id="LOGO-APE_2027_vert_left" serif:id="LOGO APE_2027_vert_left"><g id="LOGO-APE_2027" serif:id="LOGO APE_2027"><g><g><path d="M860.772,395.769l0,6.878c0,13.919 -11.301,25.22 -25.22,25.22l-802.008,0c-13.919,0 -25.22,-11.301 -25.22,-25.22l0,-6.878c0,-13.919 11.301,-25.22 25.22,-25.22l802.008,0c13.919,0 25.22,11.301 25.22,25.22Z" style="fill:#f192ae;"/><path d="M726.766,419.764c-5.548,0 -10.234,-1.867 -14.056,-5.597c-3.825,-3.73 -5.734,-8.463 -5.734,-14.194c0,-5.734 1.909,-10.47 5.734,-14.197c3.822,-3.733 8.508,-5.597 14.056,-5.597c5.551,0 10.224,1.863 14.03,5.597c3.806,3.727 5.708,8.463 5.708,14.197c0,5.731 -1.903,10.464 -5.708,14.194c-3.806,3.73 -8.479,5.597 -14.03,5.597Zm-0.026,-5.734c3.897,0 7.08,-1.29 9.55,-3.871c2.466,-2.577 3.701,-5.974 3.701,-10.185c0,-4.215 -1.235,-7.601 -3.701,-10.162c-2.469,-2.561 -5.653,-3.842 -9.55,-3.842c-3.897,0 -7.08,1.281 -9.55,3.842c-2.466,2.561 -3.701,5.947 -3.701,10.162c0,4.212 1.235,7.608 3.701,10.185c2.469,2.581 5.653,3.871 9.55,3.871Zm40.865,-33.349c6.236,0 11.22,1.755 14.95,5.263c3.73,3.504 5.594,8.24 5.594,14.194c0,5.957 -1.863,10.653 -5.594,14.089c-3.73,3.432 -8.715,5.148 -14.95,5.148l-12.638,0l0,-38.694l12.638,0Zm-6.291,33.85l6.291,0c4.49,0 7.952,-1.281 10.385,-3.842c2.43,-2.561 3.645,-6.078 3.645,-10.552c0,-4.47 -1.215,-7.978 -3.645,-10.519c-2.433,-2.545 -5.895,-3.815 -10.385,-3.815l-6.291,0l0,28.728Zm46.822,4.844l-14.587,-38.694l6.792,0l11.413,32.124l11.525,-32.124l6.737,0l-14.531,38.694l-7.349,0Z" style="fill:#fff;"/></g><g><g><g><path d="M634.38,63.934c-5.059,0.125 -8.486,-2.233 -10.135,-5.399c-2.645,-5.08 -0.721,-12.406 6.713,-15.368c6.646,-2.649 14.649,-3.455 21.655,-4.609c30.398,-5.006 50.286,-9.429 86.164,-3.142c5.633,0.988 9.423,2.438 11.63,4.059c1.682,1.235 2.506,2.604 2.653,3.961c0.149,1.383 -0.394,2.806 -1.642,4.149c-1.631,1.755 -4.534,3.419 -8.495,4.699c-0.125,0.04 -0.257,0.053 -0.388,0.038c-36.224,-4.207 -62.156,0.407 -87.456,8.704c-1.307,1.246 -2.138,3.306 -2.66,5.729c-0.86,3.997 -0.829,8.969 -0.298,13.265c0.351,2.842 0.92,5.388 1.606,7.15c0.378,0.971 0.74,1.69 1.174,1.967c3.418,2.18 10.186,2.627 16.755,2.074c22.472,-1.879 44.738,-2.785 67.084,-5.271c4.21,-0.47 7.734,-0.238 9.849,1.526c2.142,1.786 3.036,5.207 1.532,11.366c-0.07,0.287 -0.274,0.522 -0.548,0.633c-3.681,1.488 -7.082,2.282 -10.303,2.737c-29.667,4.213 -59.511,3.583 -89.312,9.018c-0.337,1.201 -0.266,2.738 -0.035,4.371c1.471,10.446 2.101,20.822 7.016,29.428c11.36,19.888 36.196,13.761 52.153,1.318c6.334,-4.94 12.443,-11.979 17.574,-18.174c1.277,-1.539 2.449,-3.171 3.425,-5.01c0.159,-0.3 0.471,-0.487 0.81,-0.487c2.399,0 4.281,-0.007 5.812,0.207c1.703,0.239 3.009,0.749 4.12,1.755c1.388,1.257 2.48,3.353 3.607,6.918c0.09,0.285 0.036,0.595 -0.145,0.833c-7.198,9.439 -14.562,16.275 -22.605,23.663c-8.303,7.625 -21.009,16.909 -33.853,21.055c-8.723,2.816 -17.511,3.26 -25.081,-0.641c-11.623,-5.999 -17.906,-13.615 -22.528,-22.911c-12.677,-25.483 -15.404,-53.612 -8.856,-79.801c0.87,-3.476 2.091,-6.868 3.006,-9.81Zm0.371,-0.932l0.621,0.83c0.068,-0.221 0.133,-0.439 0.197,-0.654l-0.172,-0.221c-0.218,0.02 -0.433,0.035 -0.645,0.046Zm-0.27,0.011c0.007,0.116 0.036,0.226 0.082,0.326l0.099,-0.333c-0.061,0.003 -0.121,0.005 -0.181,0.007Zm-260.73,57.957c0.088,0.271 0.192,0.571 0.306,0.872c1.879,4.941 7.091,15.986 7.883,17.645c5.365,11.267 13.922,23.79 21.967,32.181c2.417,2.521 4.206,3.901 5.142,4.905c0.55,0.59 0.847,1.108 0.941,1.591c0.139,0.71 -0.08,1.445 -0.944,2.324c-0.875,0.891 -2.557,2.081 -5.2,4.05c-2.841,2.119 -4.644,2.874 -6.374,2.64c-1.677,-0.227 -3.359,-1.448 -5.992,-3.611c-15.155,-12.444 -32.766,-39.851 -37.007,-59.415c-13.317,3.325 -45.443,3.181 -55.708,1.007c-28.445,27.104 -45.673,63.601 -85.309,63.993c-0.652,0.006 -16.389,1.883 -16.151,-3.804c0.024,-0.582 1.82,-6.765 10.064,-9.174c1.293,-0.378 25.006,-4.982 54.772,-42.168c28.199,-35.228 55.325,-75.813 69.941,-100.879c2.192,-3.76 3.871,-6.071 5.273,-7.207c1.199,-0.971 2.272,-1.19 3.284,-0.895c0.907,0.264 1.815,1.011 2.744,2.245c1.186,1.575 2.489,3.995 4.171,7.03c5.703,10.299 17.16,40.609 21.425,58.337c0.466,1.936 0.889,4.243 1.708,6.293c0.745,1.865 1.813,3.522 3.653,4.348c2.249,1.009 5.311,1.402 8.743,1.488c5.329,0.133 11.53,-0.495 17.085,-0.93c2.619,-0.205 5.116,0.046 6.918,0.796c1.378,0.574 2.372,1.443 2.841,2.573c0.725,1.744 0.213,4.309 -2.746,7.676c-0.426,0.484 -1.256,0.999 -2.424,1.472c-2.364,0.958 -6.239,1.876 -10.513,2.636c-6.345,1.129 -13.574,1.919 -17.952,2.028c-0.994,0.025 -1.853,0.006 -2.542,-0.048Zm-28.691,-15.339c1.436,0.043 2.548,0.017 3.393,-0.135c0.626,-0.113 1.074,-0.27 1.344,-0.595c0.39,-0.469 0.386,-1.188 0.276,-2.219c-0.241,-2.244 -1.204,-5.664 -2.244,-10.792c-1.959,-9.673 -5.816,-22.537 -9.606,-28.842c-0.631,-1.049 -1.138,-1.773 -1.577,-2.222c-0.131,-0.134 -0.25,-0.238 -0.365,-0.31c-0.049,-0.031 -0.085,-0.067 -0.127,-0.063c-0.074,0.006 -0.122,0.077 -0.191,0.143c-0.127,0.121 -0.252,0.275 -0.383,0.454c-0.627,0.857 -1.328,2.185 -2.376,3.597c-1.008,1.361 -2.423,3.42 -4.083,5.862c-4.351,6.395 -16.641,21.248 -20.62,30.068c-0.78,1.729 -1.244,3.195 -1.181,4.285c0.021,0.369 0.103,0.681 0.304,0.908c0.203,0.23 0.514,0.357 0.923,0.423c11.729,1.877 24.517,-0.92 36.515,-0.564Zm95.936,70.443c-5.016,0.376 -9.899,0.739 -13.686,-0.129c-2.732,-0.627 -4.917,-1.883 -6.285,-4.114c-1.41,-2.3 -1.954,-5.702 -1.149,-10.694c0.385,-2.37 1.008,-4.378 1.905,-6.204c2.934,-5.964 6.005,-8.772 9.469,-9.267c3.424,-0.489 7.369,1.311 12.2,4.939c1.82,1.369 3.373,2.996 4.773,5.213c2.808,4.449 3.731,8.205 2.66,11.484c-1.059,3.243 -4.117,6.097 -9.563,8.686c-0.102,0.049 -0.212,0.078 -0.325,0.086Zm68.522,-44.651c-2.159,0.404 -4.368,1.728 -7.559,2.999c-1.46,5.608 0.375,15.897 2.543,23.895c1.144,4.226 3.199,6.507 4.994,10.34c1.871,3.994 1.622,6.914 0.344,9.004c-1.876,3.068 -6.171,4.406 -9.951,4.669c-2.179,0.152 -3.479,0.157 -4.474,-0.283c-1.043,-0.461 -1.823,-1.394 -2.815,-3.325c-6.387,-12.444 -12.071,-28.063 -10.446,-41.978l-8.765,-1.583c-0.242,-0.044 -0.456,-0.182 -0.594,-0.385l-8,-11.693c-0.184,-0.269 -0.212,-0.615 -0.072,-0.91c0.139,-0.295 0.424,-0.493 0.749,-0.522c5.435,-0.48 11.776,-0.187 16.837,-2.132c0.081,-6.481 1.321,-27.889 3.511,-43.206c0.987,-6.907 2.189,-12.591 3.537,-15.198c0.703,-1.36 1.087,-2.465 1.195,-3.365c0.085,-0.713 -0.008,-1.265 -0.289,-1.678c-0.279,-0.41 -0.728,-0.667 -1.267,-0.843c-0.668,-0.219 -1.464,-0.306 -2.323,-0.316c-2.496,-0.029 -5.479,0.604 -7.605,1.056c-5.034,1.07 -9.947,3.366 -14.213,6.131c-0.399,0.258 -0.929,0.17 -1.221,-0.204c-9.229,-11.792 -8.572,-26.806 5.307,-28.983c38.912,-6.098 80.647,9.252 114.109,29.513c9.183,5.558 15.202,13.331 14.741,21.407c-0.308,5.408 -3.495,11.017 -10.716,16.224c-23.659,17.066 -48.007,25.855 -77.556,31.366Zm0.552,-18.079c14.905,-3.419 28.622,-5.611 39.927,-9.175c11.048,-3.483 19.774,-8.262 24.939,-16.933c1.687,-5.342 -1.215,-10.014 -5.836,-13.87c-8.572,-7.148 -40.295,-19.897 -57.649,-20.292c-1.909,-0.044 -2.635,1.27 -3.079,3.184c-0.555,2.392 -0.637,5.651 -1.151,9.058c-2.17,14.387 -4.059,25.851 -3.72,38.294c0.104,3.881 -0.119,6.621 0.002,8.435c0.058,0.872 0.127,1.48 0.547,1.806c0.355,0.275 0.9,0.305 1.695,0.255c1.057,-0.067 2.461,-0.336 4.324,-0.762Zm80.1,63.664c-5.497,1.26 -10.1,-0.105 -13.031,-3.266c-2.898,-3.126 -4.189,-8.068 -2.963,-14.134c0.75,-3.721 2.185,-6.509 4.495,-9.174c3.05,-3.523 4.987,-4.985 7.062,-5.148c2.031,-0.16 4.296,0.972 8.103,2.992c2.855,1.512 5.127,3.123 7.086,5.537c3.442,4.243 4.199,8.403 3.176,12.024c-1.509,5.342 -7.012,9.584 -13.928,11.168Zm176.619,-0.934c-2.409,0.181 -4.566,0.929 -6.549,1.26c-4.952,0.82 -9.121,-0.796 -11.775,-4.012c-2.608,-3.16 -3.762,-7.912 -2.64,-13.505c0.561,-2.799 1.514,-5.077 2.933,-7.188c3.258,-4.842 5.907,-6.935 8.798,-7.17c2.838,-0.231 6.03,1.38 10.508,4.318c2.294,1.507 4.177,3.279 5.842,5.869c2.644,4.105 3.24,7.586 2.577,10.515c-0.987,4.356 -4.836,7.559 -9.353,9.818c-0.107,0.053 -0.223,0.085 -0.342,0.094Z" style="fill:#f192ae;"/></g></g><path d="M772.473,57.804c-0.004,-0.002 -0.013,-0.005 -0.013,-0.005c-2.105,-0.871 -3.908,-2.078 -5.417,-3.619c-1.503,-1.531 -2.684,-3.351 -3.534,-5.462c-0.838,-2.082 -1.265,-4.35 -1.265,-6.806c0,-2.416 0.449,-4.67 1.339,-6.768c0.891,-2.101 2.111,-3.919 3.652,-5.458c1.54,-1.54 3.358,-2.759 5.457,-3.65c2.099,-0.894 4.353,-1.343 6.77,-1.343c2.494,0 4.774,0.437 6.844,1.295c2.1,0.866 3.907,2.07 5.43,3.607l0.002,0.002c1.522,1.54 2.706,3.355 3.544,5.459l0.001,0.002c0.82,2.063 1.24,4.322 1.24,6.776c0,2.416 -0.449,4.67 -1.339,6.768c-0.889,2.096 -2.105,3.917 -3.643,5.469c-1.543,1.561 -3.365,2.789 -5.468,3.681c-2.098,0.89 -4.352,1.339 -6.768,1.339c-2.489,0 -4.765,-0.435 -6.832,-1.287Zm-1.905,-24.779c-1.118,1.115 -1.996,2.438 -2.643,3.961c-0.648,1.526 -0.964,3.168 -0.964,4.925c0,1.819 0.303,3.502 0.924,5.044c0.609,1.513 1.448,2.823 2.526,3.921l0.002,0.002c1.071,1.094 2.356,1.943 3.85,2.561c1.524,0.629 3.206,0.934 5.042,0.934c1.757,0 3.399,-0.317 4.925,-0.964c1.521,-0.645 2.841,-1.528 3.957,-2.656l0.002,-0.002c1.121,-1.132 2.004,-2.464 2.652,-3.992c0.648,-1.526 0.964,-3.168 0.964,-4.925c0,-1.821 -0.297,-3.5 -0.906,-5.031c-0.597,-1.496 -1.433,-2.792 -2.515,-3.887c-1.087,-1.097 -2.379,-1.949 -3.878,-2.566l-0.004,-0.002c-1.523,-0.631 -3.205,-0.936 -5.04,-0.936c-1.756,0 -3.397,0.317 -4.922,0.966l-0.003,0.001c-1.524,0.647 -2.848,1.526 -3.966,2.645l-0.002,0.002Zm16.111,16.356c0,0.152 -0.023,0.283 -0.057,0.396l-0.004,0.014l-0.071,0.141l-0.098,0.113c-0.078,0.071 -0.188,0.135 -0.336,0.18c-0.147,0.044 -0.361,0.084 -0.641,0.115l-0.005,0.001c-0.257,0.025 -0.617,0.041 -1.077,0.041c-0.381,0 -0.702,-0.016 -0.96,-0.041l-0.005,-0.001c-0.293,-0.032 -0.532,-0.089 -0.719,-0.168c-0.222,-0.09 -0.395,-0.214 -0.524,-0.363c-0.123,-0.14 -0.228,-0.334 -0.298,-0.584l-0.86,-2.767c-0.307,-0.949 -0.671,-1.621 -1.124,-2.002c-0.434,-0.365 -1.092,-0.527 -1.963,-0.527l-0.682,0l0,5.374c0,0.403 -0.166,0.686 -0.481,0.867l-0.002,0.001c-0.209,0.118 -0.718,0.21 -1.533,0.21c-0.824,0 -1.35,-0.082 -1.588,-0.198l-0.006,-0.003c-0.358,-0.182 -0.536,-0.472 -0.536,-0.877l0,-14.428c0,-0.608 0.162,-1.087 0.464,-1.455l0.001,-0.002c0.317,-0.383 0.804,-0.599 1.469,-0.599l4.185,0c1.135,0 2.116,0.111 2.939,0.327c0.856,0.224 1.562,0.558 2.123,0.993c0.58,0.449 1.008,0.999 1.282,1.649c0.267,0.636 0.403,1.346 0.403,2.135c0,1.407 -0.395,2.483 -1.158,3.243c-0.521,0.523 -1.162,0.94 -1.925,1.249c0.316,0.193 0.622,0.426 0.918,0.699l0.002,0.002c0.581,0.543 1.101,1.351 1.547,2.433l0.004,0.01l1.016,2.66l0.006,0.018c0.203,0.617 0.295,1 0.295,1.145Zm-5.166,-11.066c0,-0.267 -0.038,-0.516 -0.114,-0.749c-0.071,-0.208 -0.196,-0.389 -0.372,-0.547c-0.196,-0.173 -0.464,-0.303 -0.8,-0.4c-0.374,-0.109 -0.851,-0.158 -1.432,-0.158l-1.542,0l-0,3.946l1.466,0c1.078,0 1.829,-0.163 2.229,-0.564c0.381,-0.381 0.564,-0.893 0.564,-1.527Z" style="fill:#f192ae;"/></g><path d="M161.743,124.028c13.247,7.717 23.22,18.718 23.459,34.914l0,0.022c-0.112,31.53 -36.233,46.834 -59.065,30.012c-4.348,-2.667 -8.309,-6.383 -11.572,-11.27l-0.012,-0.019c-2.522,-3.939 -4.784,-8.077 -7.038,-12.211c-2.599,12.922 -7.394,22.794 -19.044,31.422l-0.033,0.024c-15.177,10.446 -32.646,8.498 -44.565,-0.4c-14.04,-8.837 -21.856,-26.689 -12.597,-46.164l0.018,-0.036c4.646,-8.967 11.949,-17.135 19.13,-24.521c-11.605,0.357 -23.728,0.186 -33.104,-5.307c-5.849,-2.777 -10.831,-7.287 -14.264,-14.54l-0.008,-0.017c-6.703,-14.775 -2.014,-31.939 10.808,-41.783l0.035,-0.026c14.285,-10.15 27.842,-8.913 40.977,-3.285c4.183,1.623 8.322,3.736 12.425,6.106c-5.563,-17.634 -8.505,-33.532 2.667,-50.645l0.023,-0.034c10.52,-14.952 27.86,-19.099 42.033,-14.477c14.322,3.646 26.118,15.973 25.753,35.089l-0.001,0.04c-0.368,6.934 -2.334,14.196 -4.338,21.16c15.059,-10.2 30.157,-17.291 49.34,-10.417l0.039,0.015c0.495,0.197 0.979,0.407 1.462,0.623c0.3,0.102 0.601,0.206 0.905,0.316l0.038,0.015c18.774,7.557 28.434,28.453 20.606,47.356l-0.007,0.017c-4.911,11.362 -13.77,16.691 -24.016,19.095c-9.987,2.343 -21.307,1.872 -31.432,1.626l-0.004,-0l-0.3,-0.009c3.521,2.919 7.722,5.038 11.678,7.308l0.007,0.004Zm-115.28,68.931c7.638,4.712 17.329,6.359 26.783,3.653c20.801,-6.837 26.753,-24.073 28.877,-43.474c0.643,-3.754 4.96,-3.114 5.681,0.337c6.881,11.556 11.275,24.332 21.351,31.811c2.91,1.743 6.26,3.084 10.206,3.897c31.046,5.444 51.359,-30.207 29.753,-53.621c-6.728,-6.886 -16.438,-11.56 -24.843,-16.24c-4.585,-3.875 -3.413,-7.615 2.378,-8.699c8.147,0.353 16.367,0.202 24.514,-0.006c36.347,-2.047 39.628,-45.494 11.242,-58.028c-2.093,-0.755 -4.335,-1.349 -6.731,-1.76c-17.74,-2.417 -33.463,7.994 -46.679,18.899c-1.033,0.829 -2.702,0.938 -3.881,0.336c-1.257,-0.643 -1.902,-2.112 -1.439,-3.824c5.127,-16.606 12.668,-36.744 0.019,-51.718c-3.693,-4.052 -8.181,-6.892 -13.007,-8.521c-9.085,-2.312 -19.085,-0.479 -27.174,5.53c-20.695,16.576 -15.193,41.055 -7.074,62.251c1.749,4.543 -3.788,2.496 -5.546,1.273c-5.585,-3.837 -11.123,-7.361 -16.837,-9.88c-8.609,-3.359 -17.679,-4.265 -27.964,-0.405c-23.194,9.664 -25.66,40.588 -5.676,52.229c1.951,0.911 4.079,1.652 6.396,2.195c10.055,2.017 22.753,1.038 32.905,0.144c3.077,-0.557 5.052,2.096 3.219,4.287c-11.87,10.832 -27.266,26.02 -28.813,42.795c-0.625,11.242 4.487,20.652 12.343,26.54Zm45.923,-108.607c8.286,-4.412 17.595,1.758 20.785,13.777c3.188,12.021 -0.945,25.348 -9.234,29.76c-8.288,4.414 -17.595,-1.756 -20.785,-13.777c-3.188,-12.018 0.945,-25.348 9.234,-29.76Zm60.275,51.411c26.24,15.167 10.732,49.215 -14.706,43.542c-12.029,-2.681 -14.438,-10.336 -20.198,-20.398c-5.506,-9.617 -8.701,-19.086 -8.64,-26.083l0.64,-0.425l1.052,-0.789l0.99,-0.844l0.928,-0.884l0.873,-0.928l0.819,-0.961l0.763,-0.996l0.714,-1.025l0.662,-1.053l0.613,-1.077l0.57,-1.101l0.518,-1.123l0.005,-0.013c3.63,-0.262 8.421,0.767 14.515,3.434c6.789,2.975 13.429,6.994 19.881,10.726Zm8.478,-28.617c-7.567,0.366 -15.442,0.9 -22.93,0.454c-6.876,-0.409 -12.353,-1.685 -16.433,-3.834c-0.062,-3.077 -0.471,-6.186 -1.254,-9.223c-0.526,-2.043 -1.193,-3.943 -1.987,-5.7c3.442,-6.218 10.748,-12.739 21.925,-19.567c6.634,-4.051 12.893,-7.432 20.798,-7.548c34.412,-0.505 33.813,43.782 -0.119,45.419Zm-40.722,-61.16c-2.34,7.001 -4.629,14.33 -7.729,21.009c-1.757,3.783 -3.645,6.98 -5.666,9.598c-4.707,-3.065 -10.299,-3.693 -15.819,-1.181c-1.647,0.75 -3.203,1.737 -4.648,2.928c-4.425,-5.105 -7.895,-13.404 -10.403,-24.903c-1.583,-7.258 -2.646,-13.97 0.058,-21.2c11.775,-31.479 54.709,-17.629 44.207,13.748Zm-81.32,69.154c-32.399,-0.231 -32.786,-45.784 0.078,-46.734c7.546,-0.218 13.51,2.991 19.83,6.879c9.334,5.741 15.828,11.37 19.482,16.884l-0.19,0.414l-0.475,1.138l-0.432,1.157l-0.391,1.179l-0.345,1.196l-0.304,1.207l-0.261,1.217l-0.222,1.232l-0.176,1.247l-0.137,1.257l-0.093,1.261l-0.05,1.274l-0.009,1.282l0.037,1.284l0.081,1.29l0.078,0.804c-3.769,2.029 -8.636,3.37 -14.605,4.021c-7.155,0.775 -14.672,0.564 -21.898,0.51Zm9.002,33.358c9.887,-12.499 21.471,-23.04 30.691,-26.316l0.101,0.218l0.581,1.129l0.624,1.099l0.669,1.064l0.71,1.026l0.754,0.99l0.797,0.95l0.838,0.907l0.886,0.865l0.927,0.818l0.971,0.769l1.015,0.713l1.063,0.662l1.103,0.599l1.142,0.533l1.183,0.464l1.218,0.388l1.248,0.307l0.442,0.079c0.485,4.981 0.27,11.372 -0.826,19.395c-1.029,7.538 -2.377,14.383 -7.606,20.546c-22.772,26.843 -60.021,-0.055 -38.532,-27.202Z" style="fill:#f192ae;"/><path d="M22.503,268.736l48.866,0l0,13.287l-33.712,0l0,16.252l31.516,0l0,13.067l-31.516,0l0,20.974l33.712,0l0,13.287l-48.866,0l0,-76.867Zm120.509,0l15.154,0l0,80.711l-54.686,-51.501l0,47.658l-15.154,0l0,-80.711l54.686,51.501l0,-47.658Zm33.319,0l26.135,0c8.053,0 15.099,1.574 21.139,4.722c6.04,3.148 10.743,7.595 14.111,13.342c3.368,5.747 5.051,12.537 5.051,20.37c0,7.833 -1.684,14.623 -5.051,20.37c-3.368,5.747 -8.071,10.194 -14.111,13.342c-6.04,3.148 -13.086,4.722 -21.139,4.722l-26.135,0l0,-76.867Zm16.032,62.592l9.554,0c3.368,0 6.552,-0.458 9.554,-1.373c3.001,-0.915 5.637,-2.361 7.906,-4.338c2.269,-1.977 4.045,-4.484 5.326,-7.522c1.281,-3.038 1.922,-6.68 1.922,-10.926c0,-4.246 -0.641,-7.888 -1.922,-10.926c-1.281,-3.038 -3.056,-5.545 -5.326,-7.522c-2.269,-1.977 -4.905,-3.422 -7.906,-4.338c-3.001,-0.915 -6.186,-1.373 -9.554,-1.373l-9.554,0l0,48.317Zm59.674,-24.158c0,-5.857 1.025,-11.219 3.075,-16.087c2.05,-4.868 4.905,-9.096 8.565,-12.683c3.66,-3.587 7.961,-6.351 12.903,-8.291c4.941,-1.94 10.304,-2.91 16.087,-2.91c5.857,0 11.237,0.97 16.142,2.91c4.905,1.94 9.206,4.704 12.903,8.291c3.697,3.587 6.552,7.815 8.565,12.683c2.013,4.868 3.02,10.231 3.02,16.087c0,5.783 -1.007,11.146 -3.02,16.087c-2.013,4.941 -4.832,9.242 -8.455,12.903c-3.624,3.66 -7.906,6.497 -12.848,8.51c-4.941,2.013 -10.377,3.02 -16.307,3.02c-5.93,0 -11.365,-1.007 -16.307,-3.02c-4.941,-2.013 -9.242,-4.85 -12.903,-8.51c-3.66,-3.66 -6.479,-7.961 -8.455,-12.903c-1.977,-4.941 -2.965,-10.304 -2.965,-16.087Zm16.581,0c0,4.905 1.025,9.261 3.075,13.067c2.05,3.807 4.868,6.808 8.455,9.004c3.587,2.196 7.76,3.294 12.518,3.294c4.758,0 8.931,-1.098 12.518,-3.294c3.587,-2.196 6.387,-5.198 8.401,-9.004c2.013,-3.807 3.02,-8.163 3.02,-13.067c0,-4.905 -0.988,-9.261 -2.965,-13.067c-1.977,-3.807 -4.758,-6.808 -8.346,-9.004c-3.587,-2.196 -7.797,-3.294 -12.628,-3.294c-4.758,0 -8.931,1.098 -12.518,3.294c-3.587,2.196 -6.406,5.198 -8.455,9.004c-2.05,3.807 -3.075,8.163 -3.075,13.067Zm95.252,-4.722l-4.941,43.156l-16.362,0l11.42,-80.711l32.175,49.634l32.175,-49.634l11.42,80.711l-16.362,0l-4.941,-43.156l-22.292,36.018l-22.292,-36.018Zm79.659,-33.712l48.866,0l0,13.287l-33.712,0l0,16.252l31.516,0l0,13.067l-31.516,0l0,20.974l33.712,0l0,13.287l-48.866,0l0,-76.867Zm58.136,14.166l0,-14.166l57.102,0l0,14.166l-20.754,0l0,62.702l-15.703,0l0,-62.702l-20.644,0Zm67.47,-14.166l25.805,0c6.076,0 11.237,1.025 15.483,3.075c4.246,2.05 7.504,4.905 9.773,8.565c2.269,3.66 3.404,7.943 3.404,12.848c0,4.832 -1.135,9.096 -3.404,12.793c-2.269,3.697 -5.527,6.57 -9.773,8.62c-0.956,0.462 -1.959,0.871 -3.009,1.229l20.798,29.737l-18.558,0l-17.967,-27.892l-6.85,0l0,27.892l-15.703,0l0,-76.867Zm15.703,36.457l9.114,0c2.782,0 5.179,-0.458 7.193,-1.373c2.013,-0.915 3.569,-2.233 4.667,-3.953c1.098,-1.72 1.647,-3.788 1.647,-6.204c0,-2.416 -0.549,-4.484 -1.647,-6.204c-1.098,-1.72 -2.654,-3.038 -4.667,-3.953c-2.013,-0.915 -4.411,-1.373 -7.193,-1.373l-9.114,0l0,23.06Zm53.854,-36.457l15.923,0l0,76.867l-15.923,0l0,-76.867Zm29.585,38.434c0,-5.857 1.025,-11.219 3.075,-16.087c2.05,-4.868 4.905,-9.096 8.565,-12.683c3.66,-3.587 7.961,-6.351 12.903,-8.291c4.941,-1.94 10.304,-2.91 16.087,-2.91c5.857,0 11.237,0.97 16.142,2.91c4.905,1.94 9.206,4.704 12.903,8.291c3.697,3.587 6.552,7.815 8.565,12.683c2.013,4.868 3.02,10.231 3.02,16.087c0,5.783 -1.007,11.146 -3.02,16.087c-2.013,4.941 -4.832,9.242 -8.455,12.903c-3.624,3.66 -7.906,6.497 -12.848,8.51c-4.941,2.013 -10.377,3.02 -16.307,3.02c-5.93,0 -11.365,-1.007 -16.307,-3.02c-4.941,-2.013 -9.242,-4.85 -12.903,-8.51c-3.66,-3.66 -6.479,-7.961 -8.455,-12.903c-1.977,-4.941 -2.965,-10.304 -2.965,-16.087Zm16.581,0c0,4.905 1.025,9.261 3.075,13.067c2.05,3.807 4.868,6.808 8.455,9.004c3.587,2.196 7.76,3.294 12.518,3.294c4.758,0 8.931,-1.098 12.518,-3.294c3.587,-2.196 6.387,-5.198 8.401,-9.004c2.013,-3.807 3.02,-8.163 3.02,-13.067c0,-4.905 -0.988,-9.261 -2.965,-13.067c-1.977,-3.807 -4.758,-6.808 -8.346,-9.004c-3.587,-2.196 -7.797,-3.294 -12.628,-3.294c-4.758,0 -8.931,1.098 -12.518,3.294c-3.587,2.196 -6.406,5.198 -8.455,9.004c-2.05,3.807 -3.075,8.163 -3.075,13.067Zm85.04,12.628c1.611,2.855 3.386,5.344 5.326,7.467c1.94,2.123 4.081,3.77 6.424,4.941c2.343,1.171 4.868,1.757 7.577,1.757c3.148,0 5.71,-0.805 7.687,-2.416c1.977,-1.611 2.965,-3.807 2.965,-6.589c0,-2.416 -0.604,-4.356 -1.812,-5.82c-1.208,-1.464 -3.001,-2.764 -5.381,-3.898c-2.379,-1.135 -5.289,-2.361 -8.73,-3.679c-1.83,-0.659 -3.935,-1.556 -6.314,-2.69c-2.379,-1.135 -4.63,-2.599 -6.753,-4.392c-2.123,-1.794 -3.88,-3.99 -5.271,-6.589c-1.391,-2.599 -2.086,-5.728 -2.086,-9.389c0,-4.392 1.116,-8.181 3.349,-11.365c2.233,-3.185 5.271,-5.637 9.114,-7.357c3.843,-1.72 8.144,-2.581 12.903,-2.581c4.905,0 9.133,0.824 12.683,2.471c3.551,1.647 6.515,3.734 8.895,6.259c2.379,2.526 4.228,5.143 5.545,7.851l-12.299,6.808c-1.025,-1.83 -2.251,-3.496 -3.679,-4.996c-1.428,-1.501 -3.056,-2.709 -4.887,-3.624c-1.83,-0.915 -3.917,-1.373 -6.259,-1.373c-3.075,0 -5.381,0.714 -6.918,2.141c-1.537,1.428 -2.306,3.093 -2.306,4.996c0,1.903 0.622,3.569 1.867,4.996c1.245,1.428 3.148,2.782 5.71,4.063c2.562,1.281 5.783,2.581 9.663,3.898c2.489,0.878 4.887,1.977 7.193,3.294c2.306,1.318 4.392,2.91 6.259,4.777c1.867,1.867 3.331,4.063 4.392,6.589c1.062,2.526 1.592,5.436 1.592,8.73c0,3.734 -0.732,7.064 -2.196,9.993c-1.464,2.928 -3.477,5.399 -6.04,7.412c-2.562,2.013 -5.436,3.551 -8.62,4.612c-3.185,1.062 -6.534,1.592 -10.048,1.592c-4.685,0 -9.059,-0.897 -13.122,-2.69c-4.063,-1.794 -7.595,-4.228 -10.597,-7.302c-3.001,-3.075 -5.344,-6.406 -7.028,-9.993l11.201,-7.906Zm60.772,-51.062l15.923,0l0,76.867l-15.923,0l0,-76.867Z" style="fill:#fff;"/><g><path d="M33.35,242.946l21.811,0l-0.648,-7.604l-20.455,0l-0.707,7.604Zm10.788,-18.156l5.836,13.382l-0.354,2.535l4.952,10.198l11.318,0l-21.752,-43.858l-21.693,43.858l11.259,0l5.129,-10.611l-0.472,-2.181l5.777,-13.323Z" style="fill:#fff;fill-rule:nonzero;"/><path d="M75.617,236.403l-6.956,5.011c0.943,1.965 2.26,3.773 3.95,5.423c1.69,1.651 3.684,2.957 5.983,3.92c2.299,0.963 4.785,1.444 7.457,1.444c1.926,0 3.802,-0.285 5.63,-0.855c1.827,-0.57 3.458,-1.405 4.893,-2.505c1.434,-1.1 2.574,-2.466 3.419,-4.097c0.845,-1.631 1.267,-3.488 1.267,-5.571c0,-1.729 -0.275,-3.262 -0.825,-4.598c-0.55,-1.336 -1.307,-2.515 -2.27,-3.537c-0.963,-1.022 -2.073,-1.896 -3.331,-2.623c-1.258,-0.727 -2.613,-1.366 -4.068,-1.916c-1.926,-0.668 -3.566,-1.297 -4.922,-1.886c-1.356,-0.589 -2.397,-1.238 -3.124,-1.945c-0.727,-0.707 -1.091,-1.533 -1.091,-2.476c0,-0.904 0.373,-1.66 1.12,-2.27c0.747,-0.609 1.827,-0.914 3.242,-0.914c1.061,0 2.053,0.206 2.977,0.619c0.924,0.413 1.768,0.982 2.535,1.71c0.766,0.727 1.444,1.582 2.034,2.564l7.604,-4.244c-0.707,-1.415 -1.729,-2.81 -3.065,-4.185c-1.336,-1.375 -3.016,-2.515 -5.04,-3.419c-2.024,-0.904 -4.411,-1.356 -7.162,-1.356c-2.672,0 -5.099,0.462 -7.28,1.385c-2.181,0.924 -3.91,2.27 -5.188,4.038c-1.277,1.768 -1.916,3.871 -1.916,6.308c0,2.044 0.373,3.783 1.12,5.217c0.747,1.434 1.69,2.653 2.83,3.655c1.14,1.002 2.348,1.818 3.625,2.446c1.277,0.629 2.407,1.12 3.39,1.474c2.004,0.747 3.616,1.415 4.834,2.004c1.218,0.589 2.103,1.208 2.653,1.857c0.55,0.648 0.825,1.503 0.825,2.564c0,1.258 -0.472,2.25 -1.415,2.977c-0.943,0.727 -2.142,1.091 -3.596,1.091c-1.375,0 -2.682,-0.295 -3.92,-0.884c-1.238,-0.589 -2.378,-1.434 -3.419,-2.535c-1.041,-1.1 -1.975,-2.397 -2.8,-3.891Z" style="fill:#fff;fill-rule:nonzero;"/><path d="M113.344,236.403l-6.956,5.011c0.943,1.965 2.26,3.773 3.95,5.423c1.69,1.651 3.684,2.957 5.983,3.92c2.299,0.963 4.785,1.444 7.457,1.444c1.926,0 3.802,-0.285 5.63,-0.855c1.827,-0.57 3.458,-1.405 4.893,-2.505c1.434,-1.1 2.574,-2.466 3.419,-4.097c0.845,-1.631 1.267,-3.488 1.267,-5.571c0,-1.729 -0.275,-3.262 -0.825,-4.598c-0.55,-1.336 -1.307,-2.515 -2.27,-3.537c-0.963,-1.022 -2.073,-1.896 -3.331,-2.623c-1.258,-0.727 -2.613,-1.366 -4.068,-1.916c-1.926,-0.668 -3.566,-1.297 -4.922,-1.886c-1.356,-0.589 -2.397,-1.238 -3.124,-1.945c-0.727,-0.707 -1.091,-1.533 -1.091,-2.476c0,-0.904 0.373,-1.66 1.12,-2.27c0.747,-0.609 1.827,-0.914 3.242,-0.914c1.061,0 2.053,0.206 2.977,0.619c0.924,0.413 1.768,0.982 2.535,1.71c0.766,0.727 1.444,1.582 2.034,2.564l7.604,-4.244c-0.707,-1.415 -1.729,-2.81 -3.065,-4.185c-1.336,-1.375 -3.016,-2.515 -5.04,-3.419c-2.024,-0.904 -4.411,-1.356 -7.162,-1.356c-2.672,0 -5.099,0.462 -7.28,1.385c-2.181,0.924 -3.91,2.27 -5.188,4.038c-1.277,1.768 -1.916,3.871 -1.916,6.308c0,2.044 0.373,3.783 1.12,5.217c0.747,1.434 1.69,2.653 2.83,3.655c1.14,1.002 2.348,1.818 3.625,2.446c1.277,0.629 2.407,1.12 3.39,1.474c2.004,0.747 3.616,1.415 4.834,2.004c1.218,0.589 2.103,1.208 2.653,1.857c0.55,0.648 0.825,1.503 0.825,2.564c0,1.258 -0.472,2.25 -1.415,2.977c-0.943,0.727 -2.142,1.091 -3.596,1.091c-1.375,0 -2.682,-0.295 -3.92,-0.884c-1.238,-0.589 -2.378,-1.434 -3.419,-2.535c-1.041,-1.1 -1.975,-2.397 -2.8,-3.891Z" style="fill:#fff;fill-rule:nonzero;"/><path d="M154.727,230.272c0,-2.437 0.481,-4.588 1.444,-6.455c0.963,-1.867 2.319,-3.331 4.068,-4.392c1.749,-1.061 3.802,-1.592 6.16,-1.592c2.397,0 4.461,0.531 6.19,1.592c1.729,1.061 3.065,2.525 4.009,4.392c0.943,1.867 1.415,4.018 1.415,6.455c0,2.437 -0.481,4.588 -1.444,6.455c-0.963,1.867 -2.319,3.331 -4.068,4.392c-1.749,1.061 -3.783,1.592 -6.101,1.592c-2.358,0 -4.411,-0.531 -6.16,-1.592c-1.749,-1.061 -3.105,-2.525 -4.068,-4.392c-0.963,-1.867 -1.444,-4.018 -1.444,-6.455Zm-10.552,0c0,3.183 0.54,6.111 1.621,8.783c1.081,2.672 2.613,4.991 4.598,6.956c1.985,1.965 4.333,3.488 7.044,4.569c2.712,1.081 5.698,1.621 8.96,1.621c3.223,0 6.19,-0.54 8.901,-1.621c2.712,-1.081 5.06,-2.604 7.044,-4.569c1.985,-1.965 3.517,-4.284 4.598,-6.956c1.081,-2.672 1.621,-5.6 1.621,-8.783c0,-3.183 -0.55,-6.091 -1.651,-8.725c-1.1,-2.633 -2.653,-4.912 -4.657,-6.838c-2.004,-1.926 -4.352,-3.409 -7.044,-4.451c-2.692,-1.041 -5.63,-1.562 -8.813,-1.562c-3.144,0 -6.072,0.521 -8.783,1.562c-2.712,1.041 -5.07,2.525 -7.074,4.451c-2.004,1.926 -3.566,4.205 -4.686,6.838c-1.12,2.633 -1.68,5.541 -1.68,8.725Z" style="fill:#fff;fill-rule:nonzero;"/><path d="M204.303,230.272c0,-2.554 0.57,-4.736 1.71,-6.543c1.14,-1.808 2.643,-3.183 4.51,-4.126c1.867,-0.943 3.92,-1.415 6.16,-1.415c1.965,0 3.694,0.246 5.188,0.737c1.493,0.491 2.83,1.159 4.009,2.004c1.179,0.845 2.22,1.739 3.124,2.682l0,-10.729c-1.651,-1.297 -3.458,-2.319 -5.423,-3.065c-1.965,-0.747 -4.461,-1.12 -7.487,-1.12c-3.301,0 -6.347,0.511 -9.137,1.533c-2.79,1.022 -5.188,2.496 -7.192,4.421c-2.004,1.926 -3.557,4.205 -4.657,6.838c-1.1,2.633 -1.651,5.561 -1.651,8.783c0,3.223 0.55,6.15 1.651,8.783c1.1,2.633 2.653,4.912 4.657,6.838c2.004,1.926 4.402,3.399 7.192,4.421c2.79,1.022 5.836,1.533 9.137,1.533c3.026,0 5.522,-0.373 7.487,-1.12c1.965,-0.747 3.773,-1.768 5.423,-3.065l0,-10.729c-0.904,0.943 -1.945,1.827 -3.124,2.653c-1.179,0.825 -2.515,1.493 -4.009,2.004c-1.493,0.511 -3.223,0.766 -5.188,0.766c-2.24,0 -4.293,-0.472 -6.16,-1.415c-1.867,-0.943 -3.37,-2.329 -4.51,-4.156c-1.14,-1.827 -1.71,-3.999 -1.71,-6.514Z" style="fill:#fff;fill-rule:nonzero;"/><rect x="238.022" y="209.639" width="10.139" height="41.265" style="fill:#fff;fill-rule:nonzero;"/><path d="M264.255,242.946l21.811,0l-0.648,-7.604l-20.455,0l-0.707,7.604Zm10.788,-18.156l5.836,13.382l-0.354,2.535l4.952,10.198l11.318,0l-21.752,-43.858l-21.693,43.858l11.259,0l5.129,-10.611l-0.472,-2.181l5.777,-13.323Z" style="fill:#fff;fill-rule:nonzero;"/><path d="M300.98,218.541l16.388,0l-19.218,32.363l33.071,0l0,-8.548l-17.39,0l19.512,-32.717l-32.363,0l0,8.901Z" style="fill:#fff;fill-rule:nonzero;"/><rect x="339.415" y="209.639" width="10.139" height="41.265" style="fill:#fff;fill-rule:nonzero;"/><path d="M367.357,230.272c0,-2.437 0.481,-4.588 1.444,-6.455c0.963,-1.867 2.319,-3.331 4.068,-4.392c1.749,-1.061 3.802,-1.592 6.16,-1.592c2.397,0 4.461,0.531 6.19,1.592c1.729,1.061 3.065,2.525 4.009,4.392c0.943,1.867 1.415,4.018 1.415,6.455c0,2.437 -0.481,4.588 -1.444,6.455c-0.963,1.867 -2.319,3.331 -4.068,4.392c-1.749,1.061 -3.783,1.592 -6.101,1.592c-2.358,0 -4.411,-0.531 -6.16,-1.592c-1.749,-1.061 -3.105,-2.525 -4.068,-4.392c-0.963,-1.867 -1.444,-4.018 -1.444,-6.455Zm-10.552,0c0,3.183 0.54,6.111 1.621,8.783c1.081,2.672 2.613,4.991 4.598,6.956c1.985,1.965 4.333,3.488 7.044,4.569c2.712,1.081 5.698,1.621 8.96,1.621c3.223,0 6.19,-0.54 8.901,-1.621c2.712,-1.081 5.06,-2.604 7.044,-4.569c1.985,-1.965 3.517,-4.284 4.598,-6.956c1.081,-2.672 1.621,-5.6 1.621,-8.783c0,-3.183 -0.55,-6.091 -1.651,-8.725c-1.1,-2.633 -2.653,-4.912 -4.657,-6.838c-2.004,-1.926 -4.352,-3.409 -7.044,-4.451c-2.692,-1.041 -5.63,-1.562 -8.813,-1.562c-3.144,0 -6.072,0.521 -8.783,1.562c-2.712,1.041 -5.07,2.525 -7.074,4.451c-2.004,1.926 -3.566,4.205 -4.686,6.838c-1.12,2.633 -1.68,5.541 -1.68,8.725Z" style="fill:#fff;fill-rule:nonzero;"/><path d="M436.918,209.639l0,23.226l-28.473,-25.289l0,43.328l9.55,0l0,-23.226l28.532,25.289l0,-43.328l-9.609,0Z" style="fill:#fff;fill-rule:nonzero;"/><path d="M462.738,250.904l20.809,0l0,-8.194l-20.809,0l0,8.194Zm0,-33.071l20.809,0l0,-8.194l-20.809,0l0,8.194Zm0,15.386l19.63,0l0,-8.017l-19.63,0l0,8.017Zm-6.602,-23.58l0,41.265l9.55,0l0,-41.265l-9.55,0Z" style="fill:#fff;fill-rule:nonzero;"/><path d="M524.612,209.639l0,41.265l9.962,0l0,-41.265l-9.962,0Zm6.249,8.194l8.076,0c2.004,0 3.576,0.452 4.716,1.356c1.14,0.904 1.71,2.22 1.71,3.95c0,1.69 -0.57,2.987 -1.71,3.891c-1.14,0.904 -2.712,1.356 -4.716,1.356l-8.076,0l0,8.194l8.076,0c3.498,0 6.435,-0.54 8.813,-1.621c2.378,-1.081 4.176,-2.633 5.394,-4.657c1.218,-2.024 1.827,-4.411 1.827,-7.162c0,-2.83 -0.609,-5.246 -1.827,-7.251c-1.218,-2.004 -3.016,-3.547 -5.394,-4.628c-2.378,-1.081 -5.315,-1.621 -8.813,-1.621l-8.076,0l0,8.194Z" style="fill:#fff;fill-rule:nonzero;"/><path d="M572.479,232.217l11.613,18.687l11.672,0l-12.91,-18.687l-10.375,0Zm-10.257,-22.578l0,41.265l9.962,0l0,-41.265l-9.962,0Zm6.249,8.43l8.076,0c1.336,0 2.486,0.216 3.449,0.648c0.963,0.432 1.7,1.051 2.211,1.857c0.511,0.806 0.766,1.778 0.766,2.918c0,1.14 -0.255,2.112 -0.766,2.918c-0.511,0.806 -1.248,1.415 -2.211,1.827c-0.963,0.413 -2.112,0.619 -3.449,0.619l-8.076,0l0,7.722l8.783,0c3.537,0 6.484,-0.57 8.842,-1.71c2.358,-1.14 4.146,-2.721 5.364,-4.745c1.218,-2.024 1.827,-4.352 1.827,-6.986c0,-2.672 -0.609,-5.021 -1.827,-7.044c-1.218,-2.024 -3.006,-3.606 -5.364,-4.745c-2.358,-1.14 -5.305,-1.71 -8.842,-1.71l-8.783,0l0,8.43Z" style="fill:#fff;fill-rule:nonzero;"/><path d="M609.44,230.272c0,-2.437 0.481,-4.588 1.444,-6.455c0.963,-1.867 2.319,-3.331 4.068,-4.392c1.749,-1.061 3.802,-1.592 6.16,-1.592c2.397,0 4.461,0.531 6.19,1.592c1.729,1.061 3.065,2.525 4.009,4.392c0.943,1.867 1.415,4.018 1.415,6.455c0,2.437 -0.481,4.588 -1.444,6.455c-0.963,1.867 -2.319,3.331 -4.068,4.392c-1.749,1.061 -3.783,1.592 -6.101,1.592c-2.358,0 -4.411,-0.531 -6.16,-1.592c-1.749,-1.061 -3.105,-2.525 -4.068,-4.392c-0.963,-1.867 -1.444,-4.018 -1.444,-6.455Zm-10.552,0c0,3.183 0.54,6.111 1.621,8.783c1.081,2.672 2.613,4.991 4.598,6.956c1.985,1.965 4.333,3.488 7.044,4.569c2.712,1.081 5.698,1.621 8.96,1.621c3.223,0 6.19,-0.54 8.901,-1.621c2.712,-1.081 5.06,-2.604 7.044,-4.569c1.985,-1.965 3.517,-4.284 4.598,-6.956c1.081,-2.672 1.621,-5.6 1.621,-8.783c0,-3.183 -0.55,-6.091 -1.651,-8.725c-1.1,-2.633 -2.653,-4.912 -4.657,-6.838c-2.004,-1.926 -4.352,-3.409 -7.044,-4.451c-2.692,-1.041 -5.63,-1.562 -8.813,-1.562c-3.144,0 -6.072,0.521 -8.783,1.562c-2.712,1.041 -5.07,2.525 -7.074,4.451c-2.004,1.926 -3.566,4.205 -4.686,6.838c-1.12,2.633 -1.68,5.541 -1.68,8.725Z" style="fill:#fff;fill-rule:nonzero;"/><path d="M670.983,235.99l10.965,0c-0.354,1.061 -0.835,2.053 -1.444,2.977c-0.609,0.924 -1.346,1.729 -2.211,2.417c-0.865,0.688 -1.906,1.218 -3.124,1.592c-1.218,0.373 -2.574,0.56 -4.068,0.56c-2.437,0 -4.588,-0.54 -6.455,-1.621c-1.867,-1.081 -3.34,-2.613 -4.421,-4.598c-1.081,-1.985 -1.621,-4.333 -1.621,-7.044c0,-2.751 0.56,-5.079 1.68,-6.986c1.12,-1.906 2.623,-3.37 4.51,-4.392c1.886,-1.022 3.989,-1.533 6.308,-1.533c2.397,0 4.392,0.54 5.983,1.621c1.592,1.081 2.859,2.446 3.802,4.097l8.842,-4.598c-1.297,-1.926 -2.839,-3.625 -4.628,-5.099c-1.788,-1.474 -3.842,-2.623 -6.16,-3.449c-2.319,-0.825 -4.932,-1.238 -7.84,-1.238c-3.262,0 -6.288,0.511 -9.078,1.533c-2.79,1.022 -5.227,2.476 -7.31,4.362c-2.083,1.886 -3.694,4.156 -4.834,6.809c-1.14,2.653 -1.71,5.61 -1.71,8.872c0,3.262 0.56,6.239 1.68,8.931c1.12,2.692 2.682,5.011 4.686,6.956c2.004,1.945 4.382,3.439 7.133,4.48c2.751,1.041 5.777,1.562 9.078,1.562c3.498,0 6.602,-0.619 9.314,-1.857c2.712,-1.238 4.971,-2.957 6.779,-5.158c1.808,-2.201 3.144,-4.736 4.009,-7.604c0.865,-2.869 1.199,-5.954 1.002,-9.255l-20.868,0l0,7.663Z" style="fill:#fff;fill-rule:nonzero;"/><path d="M705.999,250.904l20.809,0l0,-8.194l-20.809,0l0,8.194Zm0,-33.071l20.809,0l0,-8.194l-20.809,0l0,8.194Zm0,15.386l19.63,0l0,-8.017l-19.63,0l0,8.017Zm-6.602,-23.58l0,41.265l9.55,0l0,-41.265l-9.55,0Z" style="fill:#fff;fill-rule:nonzero;"/><path d="M731.701,218.541l11.318,0l0,32.363l9.962,0l0,-32.363l11.377,0l0,-8.901l-32.658,0l0,8.901Z" style="fill:#fff;fill-rule:nonzero;"/><path d="M767.424,218.541l11.318,0l0,32.363l9.962,0l0,-32.363l11.377,0l0,-8.901l-32.658,0l0,8.901Z" style="fill:#fff;fill-rule:nonzero;"/><path d="M810.752,230.272c0,-2.437 0.481,-4.588 1.444,-6.455c0.963,-1.867 2.319,-3.331 4.068,-4.392c1.749,-1.061 3.802,-1.592 6.16,-1.592c2.397,0 4.461,0.531 6.19,1.592c1.729,1.061 3.065,2.525 4.009,4.392c0.943,1.867 1.415,4.018 1.415,6.455c0,2.437 -0.481,4.588 -1.444,6.455c-0.963,1.867 -2.319,3.331 -4.068,4.392c-1.749,1.061 -3.783,1.592 -6.101,1.592c-2.358,0 -4.411,-0.531 -6.16,-1.592c-1.749,-1.061 -3.105,-2.525 -4.068,-4.392c-0.963,-1.867 -1.444,-4.018 -1.444,-6.455Zm-10.552,0c0,3.183 0.54,6.111 1.621,8.783c1.081,2.672 2.613,4.991 4.598,6.956c1.985,1.965 4.333,3.488 7.044,4.569c2.712,1.081 5.698,1.621 8.96,1.621c3.223,0 6.19,-0.54 8.901,-1.621c2.712,-1.081 5.06,-2.604 7.044,-4.569c1.985,-1.965 3.517,-4.284 4.598,-6.956c1.081,-2.672 1.621,-5.6 1.621,-8.783c0,-3.183 -0.55,-6.091 -1.651,-8.725c-1.1,-2.633 -2.653,-4.912 -4.657,-6.838c-2.004,-1.926 -4.352,-3.409 -7.044,-4.451c-2.692,-1.041 -5.63,-1.562 -8.813,-1.562c-3.144,0 -6.072,0.521 -8.783,1.562c-2.712,1.041 -5.07,2.525 -7.074,4.451c-2.004,1.926 -3.566,4.205 -4.686,6.838c-1.12,2.633 -1.68,5.541 -1.68,8.725Z" style="fill:#fff;fill-rule:nonzero;"/></g></g></g><g><path d="M50.937,505.381l-15.129,0l-4.675,10.618l-7.799,0l20.056,-43.594l20.114,43.594l-7.858,0l-4.708,-10.618Zm-13.12,-5.899l11.18,0l-5.608,-13.096l-5.572,13.096Zm33.075,3.185c0.899,1.612 1.867,3.008 2.903,4.188c1.036,1.18 2.189,2.104 3.46,2.773c1.271,0.669 2.668,1.003 4.193,1.003c1.877,0 3.401,-0.511 4.574,-1.534c1.173,-1.022 1.759,-2.36 1.759,-4.011c0,-1.494 -0.362,-2.704 -1.085,-3.628c-0.723,-0.924 -1.749,-1.711 -3.079,-2.36c-1.329,-0.649 -2.854,-1.288 -4.574,-1.917c-1.016,-0.354 -2.15,-0.836 -3.401,-1.445c-1.251,-0.61 -2.443,-1.376 -3.577,-2.301c-1.134,-0.924 -2.072,-2.065 -2.815,-3.421c-0.743,-1.357 -1.114,-2.999 -1.114,-4.926c0,-2.202 0.567,-4.139 1.701,-5.811c1.134,-1.671 2.668,-2.979 4.603,-3.923c1.935,-0.944 4.134,-1.416 6.597,-1.416c2.424,0 4.535,0.442 6.333,1.327c1.798,0.885 3.323,1.996 4.574,3.333c1.251,1.337 2.209,2.733 2.873,4.188l-5.571,3.185c-0.547,-1.022 -1.212,-1.976 -1.994,-2.861c-0.782,-0.885 -1.691,-1.593 -2.727,-2.124c-1.036,-0.531 -2.238,-0.796 -3.606,-0.796c-1.916,0 -3.323,0.442 -4.222,1.327c-0.899,0.885 -1.349,1.917 -1.349,3.097c0,1.062 0.323,2.015 0.968,2.861c0.645,0.846 1.652,1.642 3.02,2.389c1.368,0.747 3.147,1.514 5.336,2.301c1.251,0.433 2.492,0.983 3.724,1.652c1.231,0.669 2.346,1.494 3.343,2.478c0.997,0.983 1.808,2.153 2.434,3.51c0.626,1.357 0.938,2.94 0.938,4.749c0,1.927 -0.381,3.657 -1.144,5.191c-0.762,1.534 -1.789,2.822 -3.079,3.864c-1.29,1.042 -2.746,1.848 -4.369,2.419c-1.622,0.57 -3.313,0.855 -5.073,0.855c-2.385,0 -4.603,-0.482 -6.656,-1.445c-2.052,-0.964 -3.851,-2.251 -5.395,-3.864c-1.544,-1.612 -2.766,-3.362 -3.665,-5.25l5.16,-3.657Zm33.954,0c0.899,1.612 1.867,3.008 2.903,4.188c1.036,1.18 2.189,2.104 3.46,2.773c1.271,0.669 2.668,1.003 4.193,1.003c1.877,0 3.401,-0.511 4.574,-1.534c1.173,-1.022 1.759,-2.36 1.759,-4.011c0,-1.494 -0.362,-2.704 -1.085,-3.628c-0.723,-0.924 -1.749,-1.711 -3.079,-2.36c-1.329,-0.649 -2.854,-1.288 -4.574,-1.917c-1.016,-0.354 -2.15,-0.836 -3.401,-1.445c-1.251,-0.61 -2.443,-1.376 -3.577,-2.301c-1.134,-0.924 -2.072,-2.065 -2.815,-3.421c-0.743,-1.357 -1.114,-2.999 -1.114,-4.926c0,-2.202 0.567,-4.139 1.701,-5.811c1.134,-1.671 2.668,-2.979 4.603,-3.923c1.935,-0.944 4.134,-1.416 6.597,-1.416c2.424,0 4.535,0.442 6.333,1.327c1.798,0.885 3.323,1.996 4.574,3.333c1.251,1.337 2.209,2.733 2.873,4.188l-5.571,3.185c-0.547,-1.022 -1.212,-1.976 -1.994,-2.861c-0.782,-0.885 -1.691,-1.593 -2.727,-2.124c-1.036,-0.531 -2.238,-0.796 -3.606,-0.796c-1.916,0 -3.323,0.442 -4.222,1.327c-0.899,0.885 -1.349,1.917 -1.349,3.097c0,1.062 0.323,2.015 0.968,2.861c0.645,0.846 1.652,1.642 3.02,2.389c1.368,0.747 3.147,1.514 5.336,2.301c1.251,0.433 2.492,0.983 3.724,1.652c1.231,0.669 2.346,1.494 3.343,2.478c0.997,0.983 1.808,2.153 2.434,3.51c0.626,1.357 0.938,2.94 0.938,4.749c0,1.927 -0.381,3.657 -1.144,5.191c-0.762,1.534 -1.789,2.822 -3.079,3.864c-1.29,1.042 -2.746,1.848 -4.369,2.419c-1.622,0.57 -3.313,0.855 -5.073,0.855c-2.385,0 -4.603,-0.482 -6.656,-1.445c-2.052,-0.964 -3.851,-2.251 -5.395,-3.864c-1.544,-1.612 -2.766,-3.362 -3.665,-5.25l5.16,-3.657Zm28.91,-7.315c0,-3.107 0.528,-5.958 1.583,-8.554c1.056,-2.596 2.551,-4.847 4.486,-6.754c1.935,-1.907 4.203,-3.402 6.802,-4.483c2.6,-1.081 5.405,-1.622 8.415,-1.622c3.088,0 5.923,0.541 8.503,1.622c2.58,1.081 4.838,2.576 6.773,4.483c1.935,1.907 3.431,4.159 4.486,6.754c1.056,2.596 1.583,5.447 1.583,8.554c0,3.067 -0.528,5.919 -1.583,8.554c-1.056,2.635 -2.541,4.916 -4.457,6.843c-1.916,1.927 -4.164,3.431 -6.744,4.513c-2.58,1.081 -5.434,1.622 -8.562,1.622c-3.049,0 -5.874,-0.541 -8.474,-1.622c-2.6,-1.081 -4.858,-2.586 -6.773,-4.513c-1.916,-1.927 -3.401,-4.208 -4.457,-6.843c-1.056,-2.635 -1.583,-5.486 -1.583,-8.554Zm7.33,0c0,2.832 0.606,5.348 1.818,7.551c1.212,2.202 2.864,3.942 4.955,5.221c2.092,1.278 4.486,1.917 7.184,1.917c2.737,0 5.151,-0.639 7.242,-1.917c2.092,-1.278 3.734,-3.018 4.926,-5.221c1.192,-2.202 1.789,-4.719 1.789,-7.551c0,-2.832 -0.586,-5.358 -1.759,-7.58c-1.173,-2.222 -2.805,-3.962 -4.897,-5.221c-2.092,-1.258 -4.525,-1.888 -7.301,-1.888c-2.698,0 -5.092,0.629 -7.184,1.888c-2.092,1.258 -3.743,2.999 -4.955,5.221c-1.212,2.222 -1.818,4.749 -1.818,7.58Zm47.265,0c0,2.91 0.655,5.457 1.965,7.639c1.31,2.183 3.02,3.884 5.131,5.103c2.111,1.219 4.418,1.829 6.92,1.829c1.955,0 3.724,-0.256 5.307,-0.767c1.583,-0.511 3.001,-1.209 4.252,-2.094c1.251,-0.885 2.346,-1.898 3.284,-3.038l0,8.318c-1.681,1.416 -3.528,2.497 -5.542,3.244c-2.013,0.747 -4.525,1.121 -7.535,1.121c-3.01,0 -5.815,-0.511 -8.415,-1.534c-2.6,-1.022 -4.858,-2.497 -6.773,-4.424c-1.916,-1.927 -3.411,-4.198 -4.486,-6.813c-1.075,-2.615 -1.613,-5.476 -1.613,-8.583c0,-3.146 0.538,-6.027 1.613,-8.642c1.075,-2.615 2.57,-4.877 4.486,-6.784c1.916,-1.907 4.173,-3.382 6.773,-4.424c2.6,-1.042 5.405,-1.563 8.415,-1.563c3.01,0 5.522,0.374 7.535,1.121c2.013,0.747 3.861,1.848 5.542,3.303l0,8.259c-0.938,-1.101 -2.033,-2.094 -3.284,-2.979c-1.251,-0.885 -2.668,-1.583 -4.252,-2.094c-1.583,-0.511 -3.352,-0.767 -5.307,-0.767c-2.502,0 -4.809,0.6 -6.92,1.799c-2.111,1.199 -3.821,2.891 -5.131,5.073c-1.31,2.183 -1.965,4.749 -1.965,7.698Zm35.361,-20.646l7.037,0l0,41.293l-7.037,0l0,-41.293Zm39.332,30.675l-15.129,0l-4.675,10.618l-7.799,0l20.056,-43.594l20.114,43.594l-7.858,0l-4.708,-10.618Zm-13.12,-5.899l11.18,0l-5.608,-13.096l-5.572,13.096Zm28.384,-18.346l0,-6.43l30.142,0l-20.701,35.04l19.117,0l0,6.253l-30.376,0l20.583,-34.863l-18.765,0Zm35.713,-6.43l7.037,0l0,41.293l-7.037,0l0,-41.293Zm13.781,20.646c0,-3.107 0.528,-5.958 1.583,-8.554c1.056,-2.596 2.551,-4.847 4.486,-6.754c1.935,-1.907 4.203,-3.402 6.802,-4.483c2.6,-1.081 5.405,-1.622 8.415,-1.622c3.088,0 5.923,0.541 8.503,1.622c2.58,1.081 4.838,2.576 6.773,4.483c1.935,1.907 3.431,4.159 4.486,6.754c1.056,2.596 1.583,5.447 1.583,8.554c0,3.067 -0.528,5.919 -1.583,8.554c-1.056,2.635 -2.541,4.916 -4.457,6.843c-1.916,1.927 -4.164,3.431 -6.744,4.513c-2.58,1.081 -5.434,1.622 -8.562,1.622c-3.049,0 -5.874,-0.541 -8.474,-1.622c-2.6,-1.081 -4.858,-2.586 -6.773,-4.513c-1.916,-1.927 -3.401,-4.208 -4.457,-6.843c-1.056,-2.635 -1.583,-5.486 -1.583,-8.554Zm7.33,0c0,2.832 0.606,5.348 1.818,7.551c1.212,2.202 2.864,3.942 4.955,5.221c2.092,1.278 4.486,1.917 7.184,1.917c2.737,0 5.151,-0.639 7.242,-1.917c2.092,-1.278 3.734,-3.018 4.926,-5.221c1.192,-2.202 1.789,-4.719 1.789,-7.551c0,-2.832 -0.586,-5.358 -1.759,-7.58c-1.173,-2.222 -2.805,-3.962 -4.897,-5.221c-2.092,-1.258 -4.525,-1.888 -7.301,-1.888c-2.698,0 -5.092,0.629 -7.184,1.888c-2.092,1.258 -3.743,2.999 -4.955,5.221c-1.212,2.222 -1.818,4.749 -1.818,7.58Zm72.071,-20.646l6.802,0l0,43.358l-29.966,-29.79l0,27.725l-6.802,0l0,-43.358l29.966,29.79l0,-27.725Zm15.951,0l24.981,0l0,6.135l-18.179,0l0,10.028l17.006,0l0,6.017l-17.006,0l0,12.978l18.179,0l0,6.135l-24.981,0l0,-41.293Zm-365.456,58.99l6.802,0l0,43.358l-29.966,-29.79l0,27.725l-6.802,0l0,-43.358l29.966,29.79l0,-27.725Zm39.156,30.675l-15.129,0l-4.675,10.618l-7.799,0l20.056,-43.594l20.114,43.594l-7.858,0l-4.708,-10.618Zm-13.12,-5.899l11.18,0l-5.608,-13.096l-5.572,13.096Zm28.384,-18.346l0,-6.43l30.142,0l-20.701,35.04l19.117,0l0,6.253l-30.376,0l20.583,-34.863l-18.765,0Zm35.713,-6.43l7.037,0l0,41.293l-7.037,0l0,-41.293Zm13.781,20.646c0,-3.107 0.528,-5.958 1.583,-8.554c1.056,-2.596 2.551,-4.847 4.486,-6.754c1.935,-1.907 4.203,-3.402 6.802,-4.483c2.6,-1.081 5.405,-1.622 8.415,-1.622c3.088,0 5.923,0.541 8.503,1.622c2.58,1.081 4.838,2.576 6.773,4.483c1.935,1.907 3.431,4.159 4.486,6.754c1.056,2.596 1.583,5.447 1.583,8.554c0,3.067 -0.528,5.919 -1.583,8.554c-1.056,2.635 -2.541,4.916 -4.457,6.843c-1.916,1.927 -4.164,3.431 -6.744,4.513c-2.58,1.081 -5.434,1.622 -8.562,1.622c-3.049,0 -5.874,-0.541 -8.474,-1.622c-2.6,-1.081 -4.858,-2.586 -6.773,-4.513c-1.916,-1.927 -3.401,-4.208 -4.457,-6.843c-1.056,-2.635 -1.583,-5.486 -1.583,-8.554Zm7.33,0c0,2.832 0.606,5.348 1.818,7.551c1.212,2.202 2.864,3.942 4.955,5.221c2.092,1.278 4.486,1.917 7.184,1.917c2.737,0 5.151,-0.639 7.242,-1.917c2.092,-1.278 3.734,-3.018 4.926,-5.221c1.192,-2.202 1.789,-4.719 1.789,-7.551c0,-2.832 -0.586,-5.358 -1.759,-7.58c-1.173,-2.222 -2.805,-3.962 -4.897,-5.221c-2.092,-1.258 -4.525,-1.888 -7.301,-1.888c-2.698,0 -5.092,0.629 -7.184,1.888c-2.092,1.258 -3.743,2.999 -4.955,5.221c-1.212,2.222 -1.818,4.749 -1.818,7.58Zm72.071,-20.646l6.802,0l0,43.358l-29.966,-29.79l0,27.725l-6.802,0l0,-43.358l29.966,29.79l0,-27.725Zm39.156,30.675l-15.129,0l-4.675,10.618l-7.799,0l20.056,-43.594l20.114,43.594l-7.858,0l-4.708,-10.618Zm-13.12,-5.899l11.18,0l-5.608,-13.096l-5.572,13.096Zm30.378,-24.776l6.92,0l0,35.04l16.302,0l0,6.253l-23.222,0l0,-41.293Zm28.207,0l24.981,0l0,6.135l-18.179,0l0,10.028l17.006,0l0,6.017l-17.006,0l0,12.978l18.179,0l0,6.135l-24.981,0l0,-41.293Zm51.077,0l13.253,0c4.183,0 7.858,0.855 11.025,2.566c3.167,1.711 5.639,4.11 7.418,7.197c1.779,3.087 2.668,6.715 2.668,10.884c0,4.169 -0.889,7.797 -2.668,10.884c-1.779,3.087 -4.252,5.486 -7.418,7.197c-3.167,1.711 -6.842,2.566 -11.025,2.566l-13.253,0l0,-41.293Zm7.096,34.745l5.981,0c2.033,0 3.909,-0.305 5.63,-0.914c1.72,-0.61 3.216,-1.494 4.486,-2.655c1.271,-1.16 2.267,-2.625 2.991,-4.395c0.723,-1.77 1.085,-3.815 1.085,-6.135c0,-2.32 -0.362,-4.365 -1.085,-6.135c-0.723,-1.77 -1.72,-3.244 -2.991,-4.424c-1.271,-1.18 -2.766,-2.065 -4.486,-2.655c-1.72,-0.59 -3.597,-0.885 -5.63,-0.885l-5.981,0l0,28.197Zm34.012,-34.745l7.037,0l0,41.293l-7.037,0l0,-41.293Zm-390.086,58.99l12.373,0c3.01,0 5.61,0.521 7.799,1.563c2.189,1.042 3.9,2.517 5.131,4.424c1.231,1.907 1.847,4.178 1.847,6.813c0,2.635 -0.616,4.916 -1.847,6.843c-1.231,1.927 -2.942,3.412 -5.131,4.454c-2.189,1.042 -4.789,1.563 -7.799,1.563l-5.454,0l0,15.632l-6.92,0l0,-41.293Zm6.92,19.526l5.454,0c2.385,0 4.3,-0.57 5.747,-1.711c1.446,-1.14 2.17,-2.812 2.17,-5.014c0,-2.202 -0.723,-3.864 -2.17,-4.985c-1.446,-1.121 -3.362,-1.681 -5.747,-1.681l-5.454,0l0,13.391Zm46.076,11.149l-15.129,0l-4.675,10.618l-7.799,0l20.056,-43.594l20.114,43.594l-7.858,0l-4.708,-10.618Zm-13.12,-5.899l11.18,0l-5.608,-13.096l-5.572,13.096Zm28.384,-18.346l0,-6.43l30.142,0l-20.701,35.04l19.117,0l0,6.253l-30.376,0l20.583,-34.863l-18.765,0Zm35.713,-6.43l7.037,0l0,41.293l-7.037,0l0,-41.293Zm16.127,0l24.981,0l0,6.135l-18.179,0l0,10.028l17.006,0l0,6.017l-17.006,0l0,12.978l18.179,0l0,6.135l-24.981,0l0,-41.293Zm63.451,0l6.802,0l0,43.358l-29.966,-29.79l0,27.725l-6.802,0l0,-43.358l29.966,29.79l0,-27.725Zm11.846,6.43l0,-6.43l28.617,0l0,6.43l-10.849,0l0,34.863l-6.92,0l0,-34.863l-10.849,0Zm33.66,-6.43l7.037,0l0,41.293l-7.037,0l0,-41.293Z" style="fill:#f192ae;"/><path d="M290.271,592.686l14.66,0c4.496,0 8.386,0.846 11.67,2.537c3.284,1.691 5.825,4.07 7.623,7.138c1.798,3.067 2.698,6.725 2.698,10.972c0,4.208 -0.899,7.855 -2.698,10.943c-1.798,3.087 -4.339,5.476 -7.623,7.167c-3.284,1.691 -7.174,2.537 -11.67,2.537l-14.66,0l0,-41.293Zm10.204,32.444l4.105,0c1.564,0 3.079,-0.197 4.545,-0.59c1.466,-0.393 2.756,-1.042 3.87,-1.947c1.114,-0.905 2.004,-2.114 2.668,-3.628c0.665,-1.514 0.997,-3.392 0.997,-5.634c0,-2.242 -0.332,-4.119 -0.997,-5.634c-0.665,-1.514 -1.554,-2.723 -2.668,-3.628c-1.114,-0.905 -2.404,-1.553 -3.87,-1.947c-1.466,-0.393 -2.981,-0.59 -4.545,-0.59l-4.105,0l0,23.596Zm54.739,0.885l-13.089,0l-3.826,7.964l-11.201,0l21.58,-43.889l21.639,43.889l-11.259,0l-3.844,-7.964Zm-11.087,-7.61l9.13,0l-4.578,-10.559l-4.552,10.559Zm30.471,-25.72l9.91,0l0,32.739l16.478,0l0,8.554l-26.389,0l0,-41.293Zm45.389,41.293l18.296,-19.054c1.095,-1.219 2.043,-2.32 2.844,-3.303c0.801,-0.983 1.407,-1.956 1.818,-2.92c0.41,-0.964 0.616,-1.996 0.616,-3.097c0,-0.629 -0.117,-1.258 -0.352,-1.888c-0.235,-0.629 -0.586,-1.19 -1.056,-1.681c-0.469,-0.492 -1.056,-0.885 -1.759,-1.18c-0.704,-0.295 -1.525,-0.442 -2.463,-0.442c-1.251,0 -2.355,0.315 -3.313,0.944c-0.958,0.629 -1.681,1.514 -2.17,2.655c-0.489,1.14 -0.733,2.458 -0.733,3.952l-9.735,0c0,-2.949 0.606,-5.643 1.818,-8.082c1.212,-2.438 3.04,-4.385 5.483,-5.84c2.443,-1.455 5.424,-2.183 8.943,-2.183c2.541,0 4.789,0.383 6.744,1.15c1.955,0.767 3.587,1.789 4.897,3.067c1.31,1.278 2.297,2.684 2.961,4.218c0.665,1.534 0.997,3.087 0.997,4.66c0,2.242 -0.547,4.296 -1.642,6.164c-1.095,1.868 -2.522,3.569 -4.281,5.103l-9.559,8.613l16.42,0l0,9.143l-34.775,0Zm39.642,-20.646c0,-4.483 0.713,-8.318 2.14,-11.503c1.427,-3.185 3.431,-5.634 6.011,-7.344c2.58,-1.711 5.551,-2.566 8.914,-2.566c3.479,0 6.499,0.855 9.06,2.566c2.561,1.711 4.535,4.159 5.923,7.344c1.388,3.185 2.082,7.02 2.082,11.503c0,4.483 -0.694,8.318 -2.082,11.503c-1.388,3.185 -3.362,5.634 -5.923,7.344c-2.561,1.711 -5.581,2.566 -9.06,2.566c-3.362,0 -6.333,-0.855 -8.914,-2.566c-2.58,-1.711 -4.584,-4.159 -6.011,-7.344c-1.427,-3.185 -2.14,-7.02 -2.14,-11.503Zm9.559,0c0,1.927 0.176,3.687 0.528,5.28c0.352,1.593 0.86,2.949 1.525,4.07c0.665,1.121 1.456,1.986 2.375,2.596c0.919,0.61 1.945,0.914 3.079,0.914c1.134,0 2.16,-0.305 3.079,-0.914c0.919,-0.61 1.71,-1.475 2.375,-2.596c0.665,-1.121 1.173,-2.478 1.525,-4.07c0.352,-1.593 0.528,-3.353 0.528,-5.28c0,-1.927 -0.176,-3.687 -0.528,-5.28c-0.352,-1.593 -0.86,-2.949 -1.525,-4.07c-0.665,-1.121 -1.456,-1.986 -2.375,-2.596c-0.919,-0.61 -1.945,-0.914 -3.079,-0.914c-1.134,0 -2.16,0.305 -3.079,0.914c-0.919,0.61 -1.71,1.475 -2.375,2.596c-0.665,1.121 -1.173,2.478 -1.525,4.07c-0.352,1.593 -0.528,3.353 -0.528,5.28Zm29.262,0c0,-4.483 0.713,-8.318 2.14,-11.503c1.427,-3.185 3.431,-5.634 6.011,-7.344c2.58,-1.711 5.551,-2.566 8.914,-2.566c3.479,0 6.499,0.855 9.06,2.566c2.561,1.711 4.535,4.159 5.923,7.344c1.388,3.185 2.082,7.02 2.082,11.503c0,4.483 -0.694,8.318 -2.082,11.503c-1.388,3.185 -3.362,5.634 -5.923,7.344c-2.561,1.711 -5.581,2.566 -9.06,2.566c-3.362,0 -6.333,-0.855 -8.914,-2.566c-2.58,-1.711 -4.584,-4.159 -6.011,-7.344c-1.427,-3.185 -2.14,-7.02 -2.14,-11.503Zm9.559,0c0,1.927 0.176,3.687 0.528,5.28c0.352,1.593 0.86,2.949 1.525,4.07c0.665,1.121 1.456,1.986 2.375,2.596c0.919,0.61 1.945,0.914 3.079,0.914c1.134,0 2.16,-0.305 3.079,-0.914c0.919,-0.61 1.71,-1.475 2.375,-2.596c0.665,-1.121 1.173,-2.478 1.525,-4.07c0.352,-1.593 0.528,-3.353 0.528,-5.28c0,-1.927 -0.176,-3.687 -0.528,-5.28c-0.352,-1.593 -0.86,-2.949 -1.525,-4.07c-0.665,-1.121 -1.456,-1.986 -2.375,-2.596c-0.919,-0.61 -1.945,-0.914 -3.079,-0.914c-1.134,0 -2.16,0.305 -3.079,0.914c-0.919,0.61 -1.71,1.475 -2.375,2.596c-0.665,1.121 -1.173,2.478 -1.525,4.07c-0.352,1.593 -0.528,3.353 -0.528,5.28Zm46.847,-6.79c0.993,-0.31 2.228,-0.465 3.703,-0.465c1.525,0 3.04,0.305 4.545,0.914c1.505,0.61 2.873,1.494 4.105,2.655c1.231,1.16 2.209,2.566 2.932,4.218c0.723,1.652 1.085,3.52 1.085,5.604c0,3.382 -0.753,6.223 -2.258,8.524c-1.505,2.301 -3.519,4.031 -6.04,5.191c-2.522,1.16 -5.307,1.74 -8.356,1.74c-3.088,0 -5.894,-0.58 -8.415,-1.74c-2.522,-1.16 -4.535,-2.891 -6.04,-5.191c-1.505,-2.301 -2.258,-5.142 -2.258,-8.524c0,-2.202 0.459,-4.247 1.378,-6.135c0.919,-1.888 2.043,-3.657 3.372,-5.309l11.846,-15.16l12.549,0l-12.147,13.679Zm-7.205,12.925c0,1.416 0.303,2.645 0.909,3.687c0.606,1.042 1.427,1.848 2.463,2.419c1.036,0.57 2.219,0.855 3.548,0.855c1.29,0 2.453,-0.285 3.489,-0.855c1.036,-0.57 1.857,-1.376 2.463,-2.419c0.606,-1.042 0.909,-2.271 0.909,-3.687c0,-1.376 -0.303,-2.596 -0.909,-3.657c-0.606,-1.062 -1.427,-1.888 -2.463,-2.478c-1.036,-0.59 -2.199,-0.885 -3.489,-0.885c-1.329,0 -2.512,0.295 -3.548,0.885c-1.036,0.59 -1.857,1.416 -2.463,2.478c-0.606,1.062 -0.909,2.281 -0.909,3.657Z" style="fill:#fff;"/></g></g></svg>