<?xml version="1.0" encoding="UTF-8" standalone="no"?>
<!DOCTYPE svg PUBLIC "-//W3C//DTD SVG 1.1//EN" "http://www.w3.org/Graphics/SVG/1.1/DTD/svg11.dtd">
<svg width="100%" height="100%" viewBox="0 0 1357 462" version="1.1" xmlns="http://www.w3.org/2000/svg" xmlns:xlink="http://www.w3.org/1999/xlink" xml:space="preserve" xmlns:serif="http://www.serif.com/" style="fill-rule:evenodd;clip-rule:evenodd;stroke-linejoin:round;stroke-miterlimit:2;">
    <g transform="matrix(1,0,0,1,-1074.492083,-883.335)">
        <g transform="matrix(4.166667,0,0,4.166667,0,0)">
            <g id="LOGO-DrMax" serif:id="LOGO DrMax">
                <g transform="matrix(1,0,0,1,313.2114,213.275)">
                    <path d="M0,108.118C-29.808,108.118 -54.059,83.867 -54.059,54.059C-54.059,24.25 -29.808,0 0,0L214.911,0C244.719,0 268.969,24.25 268.969,54.059C268.969,83.867 244.719,108.118 214.911,108.118L0,108.118Z" style="fill:white;fill-rule:nonzero;"/>
                </g>
                <g transform="matrix(1,0,0,1,528.1221,322.6674)">
                    <path d="M0,-110.667L-214.911,-110.667C-245.421,-110.667 -270.244,-85.844 -270.244,-55.334C-270.244,-24.823 -245.421,0 -214.911,0L0,0C30.511,0 55.333,-24.823 55.333,-55.334C55.333,-85.844 30.511,-110.667 0,-110.667M0,-108.118C29.105,-108.118 52.784,-84.439 52.784,-55.334C52.784,-26.228 29.105,-2.549 0,-2.549L-214.911,-2.549C-244.016,-2.549 -267.695,-26.228 -267.695,-55.334C-267.695,-84.439 -244.016,-108.118 -214.911,-108.118L0,-108.118" style="fill:rgb(178,180,182);fill-rule:nonzero;"/>
                </g>
                <g transform="matrix(1,0,0,1,544.9414,250.1736)">
                    <path d="M0,-10.18L-7.914,-10.18L-7.914,-18.095C-7.914,-20.901 -10.197,-23.184 -13.004,-23.184C-15.811,-23.184 -18.094,-20.901 -18.094,-18.095L-18.094,-10.18L-26.008,-10.18C-28.814,-10.18 -31.098,-7.897 -31.098,-5.091C-31.098,-2.284 -28.814,0 -26.008,0L-18.094,0L-18.094,7.914C-18.094,10.72 -15.811,13.004 -13.004,13.004C-10.197,13.004 -7.914,10.72 -7.914,7.914L-7.914,0L0,0C2.807,0 5.09,-2.284 5.09,-5.091C5.09,-7.897 2.807,-10.18 0,-10.18" style="fill:rgb(113,191,68);fill-rule:nonzero;"/>
                </g>
                <g transform="matrix(1,0,0,1,315.9453,252.5828)">
                    <path d="M-0.257,-10.116C15.353,-10.116 26.273,-4.522 26.273,15.273C26.273,34.408 15.031,41.077 -0.257,41.077L-14.775,41.078C-15.649,41.078 -16.357,40.27 -16.357,39.273L-16.357,-8.31C-16.357,-9.307 -15.649,-10.116 -14.775,-10.116L-0.257,-10.116ZM0,30.962C10.719,30.962 13.692,25.684 13.692,15.493C13.692,5.302 10.804,0.024 0,0.024L-4.067,0.024L-4.067,30.962L0,30.962ZM41.531,7.868C45.822,1.043 52.857,1.747 56.554,3.14C57.126,3.356 57.43,3.978 57.237,4.558L54.89,11.591C54.63,12.37 53.802,12.778 53.011,12.557C47.345,10.975 41.531,14.047 41.531,23.721L41.531,39.273C41.531,40.27 40.823,41.078 39.948,41.078L31.961,41.078C31.088,41.078 30.38,40.27 30.38,39.273L30.38,4.816C30.38,3.819 31.088,3.011 31.961,3.011L39.948,3.011C40.823,3.011 41.531,3.819 41.531,4.816L41.531,7.868ZM121.905,39.519C121.996,40.516 121.362,41.078 120.488,41.078L111.891,41.078C111.017,41.078 110.235,40.516 110.144,39.519L107.309,8.372L98.732,39.519C98.506,40.332 98.136,41.078 97.191,41.078L89.78,41.078C88.884,41.078 88.465,40.332 88.239,39.519L79.662,8.372L76.333,39.519C76.242,40.516 75.46,41.078 74.586,41.078L66.483,41.078C65.609,41.078 64.975,40.516 65.067,39.519L69.427,-8.275C69.519,-9.272 70.301,-10.081 71.175,-10.081L82.99,-10.081C83.864,-10.081 84.797,-9.272 85.073,-8.275L93.486,22.033L101.898,-8.275C102.174,-9.272 103.107,-10.081 103.981,-10.081L115.796,-10.081C116.67,-10.081 117.452,-9.272 117.544,-8.275L121.905,39.519ZM59.486,36.039C59.486,39.179 57.052,41.724 54.049,41.724C51.047,41.724 48.613,39.179 48.613,36.039C48.613,32.899 51.047,30.354 54.049,30.354C57.052,30.354 59.486,32.899 59.486,36.039ZM204.562,39.287C205.192,40.074 204.834,41.078 203.864,41.078L194.355,41.078C193.36,41.073 192.707,40.594 192.122,39.788L185.363,30.45L178.602,39.788C178.018,40.594 177.363,41.073 176.37,41.078L166.861,41.078C165.889,41.078 165.532,40.074 166.162,39.287L179.084,21.504L166.659,4.433C166.162,3.708 166.518,3.012 167.521,3.011L176.94,3.011C177.943,3.01 178.532,3.154 179.263,4.15L185.363,12.56L191.461,4.15C192.192,3.154 192.781,3.01 193.785,3.011L203.204,3.011C204.207,3.012 204.562,3.708 204.065,4.433L191.639,21.504L204.562,39.287ZM153.268,41.115C152.285,41.115 151.489,40.319 151.489,39.336L151.489,35.103L151.343,35.103C148.361,39.868 144.723,41.994 139.339,41.994C131.845,41.994 125.151,38.256 125.151,29.971C125.151,18.314 137.737,16.921 144.723,16.921C146.833,16.921 149.16,17.141 150.834,17.434C150.762,12.229 146.905,10.836 142.176,10.836C138.308,10.836 134.588,11.452 131.168,13.146C130.739,13.359 130.085,12.887 130.073,12.408L129.904,5.747C129.89,5.149 130.249,4.597 130.809,4.386C135.185,2.741 139.782,2.038 145.014,2.038C154.691,2.038 163.057,6.218 163.057,17.874L163.057,39.417C163.057,40.355 162.297,41.115 161.36,41.115L153.268,41.115ZM142.758,33.197C147.705,33.197 150.834,28.652 150.834,24.179C149.16,24.106 147.269,23.959 145.305,23.959C140.866,23.959 137.374,25.352 137.374,29.018C137.374,31.657 139.702,33.197 142.758,33.197Z" style="fill:rgb(237,28,36);"/>
                </g>
            </g>
        </g>
    </g>
</svg>
