<?xml version="1.0" encoding="UTF-8" standalone="no"?>
<!DOCTYPE svg PUBLIC "-//W3C//DTD SVG 1.1//EN" "http://www.w3.org/Graphics/SVG/1.1/DTD/svg11.dtd">
<svg width="100%" height="100%" viewBox="0 0 185 222" version="1.1" xmlns="http://www.w3.org/2000/svg" xmlns:xlink="http://www.w3.org/1999/xlink" xml:space="preserve" xmlns:serif="http://www.serif.com/" style="fill-rule:evenodd;clip-rule:evenodd;stroke-linejoin:round;stroke-miterlimit:2;">
    <g transform="matrix(1,0,0,1,-3492.668621,-7865.448893)">
        <g transform="matrix(1.683502,0,0,1.683502,-21.822759,-75.937766)">
            <g id="gemar-logo" transform="matrix(0.614401,0,0,0.614401,2087.60788,4716.875247)">
                <path d="M59.917,199.19C56.233,199.19 53.629,198.967 51.721,198.483C49.974,198.047 48.381,197.379 46.985,196.493L5.71,196.493L5.71,59.353C1.92,53.772 0,46.801 0,38.629C0,33.024 1.041,27.949 3.096,23.546C3.855,21.927 4.734,20.384 5.71,18.958L5.71,0.502L177.931,0.502L177.931,196.493L72.071,196.493C71.118,196.921 70.141,197.303 69.16,197.632C66.088,198.668 62.979,199.19 59.917,199.19Z" style="fill:white;fill-rule:nonzero;"/>
                <path d="M130.033,31.933C132.434,34.101 133.707,37.332 133.845,41.622L102.064,41.622C102.432,37.099 104.129,33.812 107.167,31.76C110.212,29.709 114.081,28.683 118.806,28.683C123.883,28.683 127.63,29.768 130.033,31.933ZM89.836,75.179C96.247,79.743 104.899,82.485 115.729,83.464C111.154,85.491 106.45,88.204 101.62,91.648C99.369,87.863 96.271,84.991 92.301,83.038C88.328,81.09 83.75,80.11 78.571,80.11C73.76,80.11 69.372,80.919 65.402,82.537C61.433,84.152 56.218,87.842 52.936,90.776L52.95,85.713C52.967,85.711 55.766,83.002 65.447,78.631C69.271,77.074 73.494,76.285 78.101,76.228L78.101,56.334C79.388,64.203 83.263,70.498 89.836,75.179ZM54.327,178.249C56.374,177.697 59.377,177.215 63.343,176.798C67.301,176.381 70.981,176.054 74.385,175.819L74.385,189.694C73.396,190.41 72.327,191.061 71.176,191.639L70.969,191.735L70.965,191.735C69.898,192.258 68.772,192.728 67.573,193.133C64.987,194.003 62.439,194.432 59.917,194.432C56.747,194.432 54.421,194.25 52.93,193.872C51.437,193.5 50.155,192.917 49.084,192.121C48.904,191.997 48.75,191.865 48.591,191.735L48.534,191.735C47.717,191.068 47.178,190.374 46.944,189.651C46.664,188.781 46.531,187.656 46.531,186.272C46.531,184.177 47.192,182.491 48.522,181.204C49.195,180.553 50.018,179.983 50.987,179.49C51.954,179 53.059,178.585 54.327,178.249ZM78.094,5.26L173.057,5.26L173.057,191.734L127.606,191.734L127.606,167.077C130.479,166.234 133.168,165.634 135.666,165.28C138.171,164.925 141.053,164.748 144.31,164.748C145.749,164.748 147.557,164.819 149.716,164.96C151.878,165.091 156.189,165.537 156.189,165.537L156.189,145.907C155.426,145.834 151.849,145.881 151.053,145.881C147.913,145.881 143.819,146.408 140.091,147.526C136.363,148.642 129.475,153.281 127.606,156.255L127.606,150.422L104.736,150.422L104.736,191.734L99.298,191.734L99.298,161.865C99.387,138.254 73.018,138.752 58.698,138.752C52.675,138.752 46.665,139.157 40.671,139.949C34.677,140.75 30.347,141.44 27.688,142.023L27.688,157.826C27.688,157.826 37.945,153.74 53.472,153.134C60.378,153.134 65.609,153.852 69.162,155.284C72.712,156.718 74.487,159.312 74.487,163.058L74.487,163.425C67.069,163.778 59.9,164.335 53,165.079C46.091,165.835 40.301,167.092 35.637,168.862C30.925,170.639 27.284,173.066 24.717,176.138C22.149,179.212 20.869,183.172 20.869,188.022C20.869,189.311 21.008,190.543 21.236,191.734L10.585,191.734L10.585,83.784C15.764,85.246 21.447,86.176 27.635,86.576L27.635,137.551C30.634,136.977 35.819,135.365 52.938,134.58L52.938,101.323C54.808,100.384 56.913,99.484 59.248,98.637C61.587,97.791 63.999,97.365 66.483,97.365C69.562,97.365 71.968,97.692 73.669,98.343C75.374,98.993 76.653,100.027 77.492,101.44C78.337,102.86 78.851,104.706 79.035,106.971C79.218,109.237 79.318,111.986 79.318,115.215L79.318,135.135C93.154,137.268 100.894,142.857 104.62,148.372L104.62,101.323C107.523,99.908 109.976,98.891 111.989,98.284C113.999,97.671 116.056,97.365 118.167,97.365C121.301,97.365 123.73,97.692 125.456,98.343C127.186,98.993 128.449,100.027 129.25,101.44C130.087,102.86 130.591,104.694 130.757,106.943C130.917,109.19 131.002,111.946 131.002,115.215L131.002,147.182C134.002,145.384 136.749,144.084 139.238,143.302C143.378,142.001 147.19,141.319 150.688,141.26C151.588,141.248 152.603,141.257 153.74,141.271C154.703,141.29 155.539,141.324 156.309,141.376L156.309,105.128C156.309,97.049 154.101,90.859 149.692,86.564C147.837,84.761 145.614,83.36 143.046,82.312C147.459,81.464 157.838,78.253 162.756,76.596L162.756,60.06C162.756,60.06 148.289,65.558 142.739,67.143C136.982,68.729 132.82,69.518 127.632,69.518C119.431,69.518 113.221,68.16 109.003,65.447C104.791,62.733 102.497,58.82 102.136,53.7L158.397,53.7L158.397,46.486C158.397,36.564 155.262,28.959 149.012,23.671C142.746,18.384 133.41,15.741 120.986,15.741C107.519,15.741 96.913,18.851 89.18,25.063C83.012,30.021 79.346,36.413 78.1,44.182L78.1,34.285L27.87,34.285L27.87,51.607L49.521,51.607L49.521,69.621C48.457,69.708 47.283,69.77 46.001,69.807C44.716,69.848 43.541,69.874 42.472,69.874C30.084,69.874 20.722,67.189 14.382,61.83C8.044,56.469 4.875,48.74 4.875,38.627C4.875,33.678 5.76,29.314 7.532,25.524C9.303,21.74 11.718,18.621 14.778,16.163C17.982,13.629 21.598,11.745 25.632,10.517C29.666,9.292 34.162,8.676 39.113,8.676C43.328,8.676 47.326,9.142 51.09,10.062C54.86,10.989 58.146,12.096 60.966,13.376C63.397,14.466 78.094,21.173 78.094,21.173L78.094,5.26Z" style="fill:rgb(0,168,169);"/>
                <g transform="matrix(0.309738,0,0,0.309738,11.501069,201.626909)">
                    <path d="M480.436,25.341C480.167,24.589 479.837,23.65 479.446,22.523C479.052,21.394 478.595,20.057 478.067,18.507C477.541,16.955 476.924,15.175 476.215,13.168C475.507,11.158 474.689,8.885 473.756,6.347C473.537,5.761 473.61,5.197 473.975,4.655C474.341,4.116 474.858,3.775 475.519,3.635C476.177,3.471 476.794,3.547 477.37,3.863C477.946,4.18 478.318,4.643 478.49,5.254C479.591,7.769 480.477,10.072 481.152,12.162C481.826,14.253 482.477,16.31 483.115,18.33C483.139,18.257 483.285,17.946 483.555,17.396C483.823,16.844 484.169,16.143 484.582,15.298C484.999,14.452 485.478,13.507 486.014,12.461C486.552,11.416 487.108,10.366 487.684,9.309C488.26,8.252 488.844,7.235 489.446,6.261C490.043,5.285 490.616,4.439 491.152,3.721C491.69,3.005 492.181,2.471 492.621,2.118C493.06,1.765 493.413,1.684 493.683,1.872C494.295,2.787 494.667,3.628 494.804,4.392C494.937,5.155 494.906,5.923 494.711,6.7C494.513,7.475 494.181,8.28 493.704,9.113C493.225,9.947 492.68,10.881 492.069,11.916C491.237,13.326 490.431,14.64 489.645,15.863C488.865,17.083 488.179,18.254 487.594,19.368C487.006,20.484 486.552,21.567 486.232,22.611C485.918,23.655 485.793,24.719 485.866,25.801C485.866,25.964 485.886,26.092 485.923,26.187C485.959,26.281 485.964,26.381 485.942,26.486C485.918,26.594 485.866,26.71 485.793,26.839C485.72,26.969 485.575,27.14 485.355,27.351C485.132,27.562 484.859,27.739 484.527,27.879C484.198,28.021 483.856,28.113 483.503,28.159C483.143,28.208 482.802,28.197 482.475,28.125C482.141,28.056 481.868,27.927 481.647,27.739C481.33,27.433 480.925,26.634 480.436,25.341L480.472,25.376L480.472,25.272L480.436,25.341ZM0,19.835C-0.28,17.251 -0.54,14.675 -0.784,12.106C-1.033,9.541 -1.275,6.965 -1.519,4.38C-1.624,3.272 -1.766,2.138 -1.941,0.981C-2.116,-0.176 -2.2,-1.292 -2.2,-2.364C-2.2,-2.902 -2.116,-3.458 -1.941,-4.027C-1.766,-4.599 -1.502,-5.118 -1.15,-5.587C-0.801,-6.059 -0.393,-6.452 0.081,-6.772C0.55,-7.089 1.102,-7.25 1.733,-7.25C2.536,-7.25 3.346,-6.997 4.169,-6.495C4.989,-5.992 5.487,-5.336 5.662,-4.53C5.769,-4.061 5.854,-3.449 5.926,-2.693C5.996,-1.939 6.046,-1.159 6.086,-0.352C6.119,0.454 6.136,1.241 6.136,2.014L6.136,3.977C6.136,6.494 6.004,9.02 5.743,11.554C5.478,14.087 5.21,16.614 4.928,19.131C7.687,18.827 10.471,18.676 13.265,18.676C15.257,18.676 17.242,18.726 19.217,18.827C21.187,18.929 23.173,19.029 25.164,19.131C25.377,19.131 25.9,19.155 26.739,19.206C27.579,19.256 28.458,19.347 29.387,19.482C30.312,19.617 31.141,19.801 31.876,20.036C32.61,20.271 32.975,20.557 32.975,20.892C32.975,21.229 32.849,21.529 32.584,21.798C32.324,22.067 32.008,22.293 31.641,22.478C31.274,22.662 30.897,22.814 30.515,22.932C30.131,23.049 29.814,23.143 29.572,23.207C29.083,23.342 28.59,23.442 28.1,23.511C27.614,23.579 27.123,23.644 26.633,23.712C25.412,23.879 24.204,24.054 23.019,24.239C21.828,24.424 20.639,24.599 19.451,24.769L7.655,26.429L3.093,27.085C2.5,27.085 1.887,27.018 1.259,26.883C0.631,26.749 0.06,26.53 -0.443,26.229C-0.952,25.926 -1.368,25.54 -1.701,25.072C-2.034,24.599 -2.2,24.047 -2.2,23.407C-2.2,22.67 -2.008,21.982 -1.624,21.345C-1.242,20.709 -0.699,20.203 0,19.835ZM42.103,19.773C41.709,20.784 41.342,21.813 41.001,22.858C40.661,23.904 40.242,24.908 39.756,25.87C39.631,26.131 39.491,26.399 39.332,26.681C39.173,26.965 38.983,27.222 38.761,27.456C38.543,27.691 38.297,27.89 38.028,28.056C37.76,28.22 37.464,28.302 37.149,28.302C36.829,28.302 36.561,28.226 36.343,28.072C36.121,27.921 35.941,27.72 35.808,27.475C35.673,27.228 35.573,26.97 35.514,26.7C35.455,26.43 35.426,26.165 35.426,25.904C35.426,25.624 35.519,25.119 35.715,24.391C35.912,23.662 36.168,22.792 36.488,21.784C36.806,20.773 37.175,19.651 37.588,18.417C38.007,17.184 38.438,15.94 38.889,14.682C39.346,13.425 39.802,12.186 40.268,10.963C40.733,9.744 41.159,8.631 41.551,7.635C41.944,6.635 42.299,5.782 42.619,5.078C42.934,4.374 43.169,3.892 43.314,3.634C43.582,3.188 43.958,2.758 44.433,2.348C44.909,1.939 45.444,1.731 46.027,1.731C46.348,1.731 46.617,1.807 46.838,1.961C47.056,2.113 47.239,2.314 47.39,2.56C47.533,2.807 47.635,3.072 47.699,3.352C47.758,3.634 47.789,3.905 47.789,4.163C47.789,4.327 47.777,4.48 47.755,4.622C47.73,4.763 47.691,4.916 47.644,5.078C47.691,5.149 47.831,5.485 48.066,6.083C48.298,6.684 48.587,7.452 48.928,8.391C49.27,9.33 49.658,10.399 50.085,11.598C50.51,12.797 50.943,14.018 51.368,15.264C51.796,16.509 52.214,17.729 52.616,18.928C53.019,20.126 53.382,21.214 53.699,22.188C54.019,23.164 54.275,23.974 54.47,24.621C54.667,25.266 54.764,25.646 54.764,25.766C54.764,26.212 54.624,26.588 54.342,26.892C54.062,27.198 53.685,27.35 53.221,27.35C52.657,27.35 52.162,27.176 51.735,26.823C51.31,26.47 50.929,26.036 50.597,25.518C50.268,25.001 49.983,24.462 49.735,23.898C49.492,23.334 49.296,22.853 49.151,22.453C48.659,22.429 48.097,22.323 47.462,22.137C46.824,21.948 46.181,21.711 45.532,21.431C44.883,21.149 44.257,20.862 43.643,20.566C43.032,20.273 42.52,20.011 42.103,19.773ZM45.48,10.503C45.21,11.302 44.702,12.908 44.397,13.696C44.089,14.483 43.792,15.276 43.497,16.075C44.134,16.404 44.783,16.698 45.444,16.956C46.104,17.213 47.35,17.471 48.037,17.729C47.644,16.672 45.821,11.584 45.48,10.503ZM62.582,14.079C62.582,13.166 62.539,12.256 62.452,11.353C62.369,10.452 62.326,9.554 62.326,8.663C62.326,8.544 62.33,8.447 62.343,8.364C62.356,8.283 62.378,8.194 62.399,8.099C62.058,7.914 61.793,7.655 61.608,7.326C61.427,6.997 61.337,6.657 61.337,6.305C61.337,5.508 61.729,4.897 62.51,4.477C63.682,3.89 65.032,3.461 66.545,3.193C68.066,2.924 69.481,2.789 70.804,2.789C71.367,2.789 72.071,2.823 72.915,2.894C73.757,2.965 74.652,3.086 75.594,3.264C76.534,3.437 77.485,3.667 78.437,3.947C79.391,4.228 80.242,4.581 80.986,4.999C81.734,5.423 82.346,5.908 82.822,6.459C83.299,7.008 83.54,7.648 83.54,8.372C83.54,8.864 83.425,9.34 83.19,9.793C82.958,10.251 82.656,10.666 82.288,11.042C81.922,11.415 81.512,11.749 81.059,12.042C80.609,12.334 80.161,12.587 79.72,12.798C80.479,13.033 81.273,13.306 82.106,13.624C82.938,13.941 83.697,14.341 84.384,14.823C85.067,15.304 85.629,15.873 86.069,16.531C86.513,17.191 86.731,17.977 86.731,18.894C86.731,19.504 86.633,20.092 86.437,20.655C86.238,21.217 85.967,21.746 85.612,22.241C85.259,22.734 84.837,23.163 84.346,23.526C83.856,23.891 83.304,24.168 82.695,24.357C82.059,24.543 81.171,24.718 80.033,24.886C78.897,25.048 77.617,25.19 76.196,25.306C74.78,25.426 73.29,25.53 71.738,25.625C70.185,25.718 68.675,25.794 67.208,25.855C65.739,25.912 64.397,25.953 63.172,25.976C61.947,26 60.956,26.01 60.197,26.01C59.365,26.01 58.7,25.772 58.197,25.287C57.695,24.806 57.445,24.168 57.445,23.369C57.445,22.922 57.555,22.511 57.773,22.135C57.995,21.758 58.361,21.547 58.879,21.501C59.441,21.454 60.022,21.436 60.619,21.447C61.223,21.461 61.814,21.466 62.399,21.466C62.451,20.222 62.492,18.991 62.525,17.773C62.565,16.553 62.582,15.323 62.582,14.079ZM67.246,16.707L67.281,18.541C67.281,19.034 67.267,19.529 67.246,20.021C67.22,20.513 67.109,20.997 66.914,21.466C67.208,21.466 67.758,21.471 68.564,21.481C69.374,21.495 70.301,21.488 71.354,21.466C72.408,21.443 73.508,21.4 74.657,21.343C75.807,21.284 76.867,21.189 77.831,21.061C78.8,20.931 79.606,20.748 80.255,20.513C80.903,20.279 81.241,19.985 81.265,19.632L81.265,19.387C81.265,18.94 81.073,18.553 80.692,18.223C80.313,17.895 79.831,17.626 79.244,17.413C78.66,17.202 77.997,17.031 77.264,16.903C76.528,16.773 75.821,16.673 75.134,16.603C74.447,16.531 73.813,16.493 73.228,16.48C72.638,16.468 72.185,16.461 71.87,16.461C71.086,16.461 70.313,16.48 69.559,16.515C68.798,16.55 68.026,16.615 67.246,16.707ZM66.251,7.862C66.447,8.497 66.601,9.147 66.711,9.819C66.824,10.488 66.914,11.165 66.986,11.844L67.168,11.844C67.613,11.799 68.038,11.746 68.457,11.687C68.87,11.627 69.298,11.587 69.74,11.564C70.228,11.54 70.932,11.498 71.849,11.441C72.766,11.381 73.685,11.258 74.601,11.069C75.518,10.881 76.316,10.588 76.987,10.189C77.662,9.789 77.997,9.227 77.997,8.497C77.997,8.193 77.805,7.956 77.43,7.793C77.049,7.629 76.606,7.509 76.106,7.44C75.603,7.371 75.117,7.335 74.638,7.335L73.627,7.335C72.382,7.335 71.145,7.38 69.926,7.475C68.701,7.57 67.476,7.698 66.251,7.862ZM110.95,11.14C111.856,13.089 112.445,14.93 112.715,16.656C112.983,18.383 112.974,19.945 112.692,21.343C112.41,22.74 111.886,23.939 111.118,24.935C110.346,25.935 109.367,26.669 108.179,27.141C106.992,27.61 105.622,27.779 104.07,27.65C102.515,27.522 100.835,27.022 99.022,26.153C97.876,25.612 96.851,25.055 95.959,24.479C95.068,23.904 94.29,23.164 93.63,22.259C92.968,21.356 92.413,20.199 91.961,18.787C91.504,17.378 91.146,15.568 90.878,13.361C91.096,10.941 91.586,8.856 92.345,7.107C93.105,5.355 94.035,3.981 95.135,2.983C96.236,1.983 97.455,1.38 98.805,1.169C100.149,0.958 101.531,1.174 102.951,1.819C104.37,2.468 105.771,3.558 107.155,5.097C108.537,6.635 109.8,8.65 110.95,11.14ZM97.848,18.258C99.099,19.881 100.256,21.019 101.318,21.678C102.38,22.334 103.332,22.652 104.162,22.63C104.991,22.605 105.717,22.318 106.326,21.765C106.937,21.215 107.414,20.538 107.758,19.739C108.101,18.941 108.319,18.082 108.416,17.166C108.514,16.25 108.469,15.416 108.27,14.665C108.246,14.665 108.156,14.471 107.994,14.084C107.836,13.696 107.611,13.219 107.317,12.655C107.027,12.093 106.677,11.482 106.271,10.823C105.871,10.168 105.421,9.555 104.932,8.991C104.44,8.427 103.911,7.957 103.335,7.581C102.759,7.204 102.154,7.007 101.517,6.981C101.027,6.912 100.529,6.981 100.016,7.194C99.5,7.407 99.009,7.746 98.549,8.214C98.083,8.685 97.682,9.268 97.355,9.96C97.025,10.652 96.803,11.428 96.692,12.285C96.582,13.143 96.611,14.077 96.788,15.087C96.957,16.098 97.31,17.154 97.848,18.258ZM121.006,3.352C121.178,3.352 121.337,3.364 121.486,3.388C121.631,3.411 121.78,3.445 121.925,3.494C122.489,3.445 123.043,3.411 123.593,3.388C124.143,3.364 124.702,3.352 125.265,3.352C126.293,3.352 127.386,3.404 128.55,3.511C129.71,3.615 130.867,3.803 132.015,4.075C133.167,4.345 134.268,4.71 135.321,5.166C136.371,5.625 137.3,6.201 138.108,6.893C138.918,7.587 139.558,8.408 140.035,9.361C140.514,10.313 140.751,11.422 140.751,12.692C140.751,13.888 140.366,14.876 139.596,15.65C138.824,16.426 137.881,17.044 136.769,17.502C135.653,17.959 134.48,18.294 133.247,18.506C132.012,18.717 130.927,18.846 129.997,18.893C130.317,19.198 130.77,19.656 131.358,20.266C131.943,20.877 132.591,21.566 133.299,22.329C134.012,23.091 134.736,23.891 135.482,24.724C136.229,25.558 136.904,26.357 137.501,27.122C138.103,27.885 138.598,28.572 138.99,29.182C139.378,29.793 139.575,30.239 139.575,30.523C139.575,30.732 139.499,30.874 139.336,30.947C139.179,31.016 139.004,31.051 138.807,31.051C138.414,31.051 138.035,30.968 137.667,30.805C137.3,30.639 136.959,30.462 136.639,30.277C135.906,29.829 135.188,29.324 134.493,28.76C133.799,28.196 133.107,27.669 132.42,27.176C130.901,26.024 129.4,24.885 127.907,23.756C126.412,22.63 124.919,21.488 123.432,20.337C123.406,20.55 123.354,21.014 123.281,21.73C123.209,22.448 123.098,23.206 122.953,24.001C122.802,24.802 122.629,25.513 122.42,26.134C122.21,26.757 121.963,27.068 121.669,27.068C121.42,27.068 121.216,26.973 121.046,26.786C120.87,26.6 120.716,26.376 120.584,26.117C120.448,25.859 120.346,25.595 120.273,25.325C120.2,25.055 120.136,24.837 120.09,24.671C119.967,24.226 119.894,23.756 119.868,23.263C119.846,22.768 119.809,22.287 119.757,21.818C119.659,20.831 119.566,19.857 119.467,18.893C119.368,17.93 119.27,16.956 119.173,15.968L118.585,9.837L118.289,6.77C118.289,6.395 118.353,6.009 118.472,5.606C118.597,5.21 118.775,4.845 119.007,4.514C119.242,4.187 119.522,3.911 119.851,3.687C120.18,3.464 120.567,3.352 121.006,3.352ZM123.982,7.616C124.053,8.815 124.087,10.014 124.087,11.212C124.087,11.681 124.084,12.157 124.072,12.636C124.058,13.12 124.041,13.608 124.015,14.1C124.873,14.03 125.836,14.008 126.916,14.03C127.992,14.055 129.075,14.036 130.163,13.977C131.251,13.92 132.297,13.8 133.299,13.624C134.306,13.447 135.172,13.136 135.906,12.692C135.807,11.963 135.527,11.334 135.06,10.806C134.596,10.276 134.026,9.83 133.337,9.465C132.65,9.102 131.894,8.815 131.064,8.604C130.23,8.391 129.386,8.221 128.53,8.092C127.672,7.962 126.848,7.862 126.054,7.792C125.257,7.722 124.567,7.663 123.982,7.616ZM135.944,12.655L135.944,12.692L135.979,12.655L135.944,12.655ZM152.528,19.775C152.135,20.784 151.767,21.813 151.426,22.858C151.085,23.904 150.668,24.908 150.181,25.871C150.058,26.131 149.916,26.399 149.758,26.681C149.596,26.964 149.409,27.222 149.186,27.456C148.97,27.691 148.722,27.89 148.452,28.056C148.184,28.22 147.89,28.302 147.575,28.302C147.254,28.302 146.985,28.226 146.769,28.073C146.546,27.921 146.366,27.72 146.235,27.475C146.098,27.229 145.999,26.97 145.941,26.7C145.88,26.43 145.851,26.165 145.851,25.906C145.851,25.624 145.944,25.119 146.14,24.392C146.337,23.662 146.593,22.794 146.913,21.784C147.233,20.773 147.6,19.651 148.013,18.417C148.432,17.186 148.864,15.94 149.314,14.682C149.771,13.427 150.229,12.186 150.693,10.963C151.158,9.744 151.585,8.633 151.976,7.635C152.371,6.635 152.723,5.784 153.045,5.08C153.358,4.374 153.594,3.891 153.739,3.635C154.007,3.187 154.384,2.76 154.856,2.348C155.336,1.939 155.868,1.731 156.453,1.731C156.773,1.731 157.041,1.807 157.263,1.961C157.481,2.115 157.666,2.314 157.813,2.56C157.958,2.807 158.062,3.071 158.126,3.352C158.185,3.635 158.216,3.905 158.216,4.163C158.216,4.327 158.202,4.48 158.179,4.621C158.155,4.763 158.115,4.916 158.07,5.08C158.115,5.151 158.257,5.485 158.493,6.085C158.723,6.683 159.013,7.453 159.354,8.391C159.695,9.332 160.084,10.401 160.51,11.6C160.937,12.797 161.368,14.018 161.795,15.264C162.22,16.509 162.641,17.73 163.04,18.927C163.445,20.126 163.808,21.214 164.123,22.19C164.443,23.164 164.699,23.974 164.896,24.621C165.092,25.266 165.191,25.648 165.191,25.766C165.191,26.212 165.05,26.587 164.769,26.892C164.487,27.198 164.111,27.352 163.648,27.352C163.082,27.352 162.587,27.176 162.162,26.823C161.734,26.472 161.354,26.036 161.022,25.518C160.695,25.003 160.408,24.462 160.16,23.897C159.916,23.335 159.721,22.853 159.575,22.453C159.086,22.429 158.522,22.325 157.885,22.136C157.25,21.948 156.605,21.713 155.958,21.432C155.31,21.149 154.682,20.862 154.067,20.567C153.459,20.273 152.947,20.01 152.528,19.775ZM155.685,11.316C155.417,12.115 155.126,12.908 154.823,13.696C154.516,14.483 154.216,15.276 153.922,16.075C154.559,16.404 155.208,16.698 155.868,16.955C156.529,17.213 157.73,17.63 158.416,17.89C158.024,16.833 156.026,12.397 155.685,11.316ZM185.266,8.532C185.415,10.082 185.487,11.634 185.487,13.184C185.487,14.971 185.392,16.756 185.211,18.541C185.025,20.328 184.839,22.101 184.643,23.862C184.617,24.002 184.571,24.357 184.498,24.921C184.422,25.483 184.318,26.064 184.181,26.663C184.05,27.263 183.882,27.803 183.687,28.286C183.491,28.766 183.273,29.007 183.029,29.007C182.782,29.007 182.573,28.912 182.403,28.727C182.232,28.538 182.086,28.32 181.964,28.073C181.841,27.827 181.737,27.575 181.651,27.317C181.566,27.059 181.51,26.845 181.483,26.682C181.388,26.329 181.31,25.883 181.247,25.341C181.187,24.803 181.13,24.25 181.085,23.688C181.033,23.122 180.985,22.57 180.934,22.03C180.888,21.489 180.85,21.032 180.824,20.655C180.626,18.659 180.427,16.673 180.222,14.701C180.014,12.725 179.822,10.741 179.651,8.747C179.651,8.721 179.659,8.705 179.668,8.693C179.68,8.679 179.689,8.662 179.689,8.639C178.123,8.617 176.535,8.558 174.935,8.463C173.333,8.368 171.774,8.158 170.256,7.828C169.718,7.71 169.325,7.472 169.082,7.107C168.839,6.742 168.716,6.301 168.716,5.783C168.716,5.245 168.872,4.733 169.194,4.251C169.51,3.77 169.988,3.528 170.623,3.528C170.963,3.528 171.315,3.512 171.669,3.477C172.022,3.439 172.37,3.424 172.712,3.424C173.989,3.351 175.274,3.317 176.572,3.317C178.108,3.317 179.625,3.336 181.119,3.37C182.612,3.405 184.131,3.424 185.671,3.424C186.698,3.424 187.704,3.405 188.695,3.37C189.691,3.336 190.698,3.317 191.724,3.317C191.967,3.317 192.357,3.323 192.881,3.336C193.405,3.348 193.936,3.394 194.459,3.477C194.983,3.559 195.45,3.694 195.855,3.88C196.256,4.069 196.462,4.351 196.462,4.726C196.462,5.292 196.239,5.773 195.799,6.173C195.36,6.572 194.788,6.906 194.093,7.176C193.393,7.447 192.616,7.669 191.763,7.847C190.905,8.024 190.059,8.158 189.229,8.252C188.397,8.347 187.629,8.409 186.916,8.444C186.209,8.479 185.659,8.51 185.266,8.532ZM219.542,11.14C220.447,13.089 221.037,14.93 221.305,16.656C221.573,18.383 221.564,19.945 221.282,21.343C221.002,22.74 220.476,23.939 219.708,24.935C218.937,25.935 217.959,26.669 216.769,27.141C215.582,27.61 214.212,27.779 212.661,27.65C211.107,27.522 209.427,27.022 207.613,26.153C206.466,25.612 205.442,25.055 204.549,24.479C203.658,23.904 202.882,23.164 202.221,22.259C201.56,21.356 201.003,20.199 200.553,18.787C200.095,17.378 199.737,15.568 199.469,13.361C199.686,10.941 200.176,8.856 200.936,7.107C201.697,5.355 202.626,3.981 203.727,2.983C204.826,1.983 206.047,1.38 207.397,1.169C208.739,0.958 210.121,1.174 211.541,1.819C212.96,2.468 214.363,3.558 215.745,5.097C217.127,6.635 218.39,8.65 219.542,11.14ZM206.44,18.258C207.691,19.881 208.846,21.019 209.908,21.678C210.97,22.334 211.922,22.652 212.754,22.63C213.583,22.605 214.307,22.318 214.916,21.765C215.527,21.215 216.004,20.538 216.35,19.739C216.693,18.941 216.911,18.082 217.008,17.166C217.106,16.25 217.06,15.416 216.862,14.665C216.838,14.665 216.748,14.471 216.586,14.084C216.426,13.696 216.202,13.219 215.908,12.655C215.617,12.093 215.267,11.482 214.861,10.823C214.461,10.168 214.013,9.555 213.522,8.991C213.032,8.427 212.503,7.957 211.927,7.581C211.351,7.204 210.744,7.007 210.109,6.981C209.618,6.912 209.119,6.981 208.608,7.194C208.09,7.407 207.601,7.746 207.139,8.214C206.675,8.685 206.272,9.268 205.945,9.96C205.615,10.652 205.395,11.428 205.283,12.285C205.174,13.143 205.203,14.077 205.378,15.087C205.547,16.098 205.902,17.154 206.44,18.258ZM229.599,3.352C229.77,3.352 229.927,3.364 230.076,3.388C230.221,3.411 230.372,3.445 230.517,3.494C231.079,3.445 231.633,3.411 232.183,3.388C232.735,3.364 233.294,3.352 233.856,3.352C234.885,3.352 235.976,3.404 237.142,3.511C238.302,3.615 239.457,3.803 240.607,4.075C241.758,4.345 242.858,4.71 243.913,5.166C244.962,5.625 245.892,6.201 246.698,6.893C247.51,7.587 248.15,8.408 248.627,9.361C249.105,10.313 249.343,11.422 249.343,12.692C249.343,13.888 248.956,14.876 248.186,15.65C247.414,16.426 246.472,17.044 245.359,17.502C244.245,17.959 243.071,18.294 241.837,18.506C240.602,18.717 239.519,18.846 238.589,18.893C238.907,19.198 239.36,19.656 239.95,20.266C240.535,20.877 241.183,21.566 241.891,22.329C242.604,23.091 243.328,23.891 244.074,24.724C244.821,25.558 245.496,26.357 246.091,27.122C246.695,27.885 247.188,28.572 247.582,29.182C247.97,29.793 248.167,30.239 248.167,30.523C248.167,30.732 248.089,30.874 247.927,30.947C247.769,31.016 247.594,31.051 247.397,31.051C247.006,31.051 246.626,30.968 246.259,30.805C245.892,30.639 245.551,30.462 245.23,30.277C244.498,29.829 243.78,29.324 243.085,28.76C242.389,28.196 241.697,27.669 241.01,27.176C239.492,26.024 237.99,24.885 236.497,23.756C235.004,22.63 233.511,21.488 232.022,20.337C231.996,20.55 231.946,21.014 231.873,21.73C231.801,22.448 231.688,23.206 231.543,24.001C231.394,24.802 231.219,25.513 231.012,26.134C230.802,26.757 230.553,27.068 230.259,27.068C230.012,27.068 229.806,26.973 229.637,26.786C229.462,26.6 229.308,26.376 229.176,26.117C229.04,25.859 228.936,25.595 228.863,25.325C228.791,25.055 228.727,24.837 228.682,24.671C228.557,24.226 228.484,23.756 228.459,23.263C228.438,22.768 228.4,22.287 228.349,21.818C228.251,20.831 228.156,19.857 228.059,18.893C227.96,17.93 227.862,16.956 227.765,15.968L227.175,9.837L226.881,6.77C226.881,6.395 226.945,6.009 227.063,5.606C227.189,5.21 227.367,4.845 227.597,4.514C227.832,4.187 228.114,3.911 228.441,3.687C228.772,3.464 229.159,3.352 229.599,3.352ZM232.572,7.616C232.645,8.815 232.679,10.014 232.679,11.212C232.679,11.681 232.676,12.157 232.662,12.636C232.648,13.12 232.631,13.608 232.607,14.1C233.465,14.03 234.428,14.008 235.508,14.03C236.582,14.055 237.665,14.036 238.753,13.977C239.841,13.92 240.888,13.8 241.891,13.624C242.898,13.447 243.763,13.136 244.498,12.692C244.399,11.963 244.117,11.334 243.652,10.806C243.188,10.276 242.616,9.83 241.927,9.465C241.242,9.102 240.486,8.815 239.654,8.604C238.822,8.391 237.978,8.221 237.12,8.092C236.264,7.962 235.439,7.862 234.645,7.792C233.847,7.722 233.157,7.663 232.572,7.616ZM244.536,12.655L244.536,12.692L244.571,12.655L244.536,12.655ZM260.424,4.411C260.595,6.148 260.692,7.67 260.718,8.973C260.741,10.279 260.723,11.54 260.663,12.763C260.599,13.984 260.5,15.242 260.369,16.532C260.232,17.824 260.078,19.328 259.907,21.042C259.711,22.922 259.464,24.251 259.158,25.024C258.85,25.801 258.564,26.189 258.296,26.189C258.025,26.213 257.744,26.031 257.449,25.64C257.154,25.254 256.926,24.651 256.755,23.827C256.677,23.474 256.57,22.606 256.423,21.219C256.35,20.632 256.269,19.897 256.182,19.017C256.098,18.136 255.994,17.079 255.871,15.846C255.748,14.612 255.606,13.178 255.449,11.547C255.291,9.914 255.111,8.039 254.914,5.925C255.013,5.198 255.175,4.617 255.393,4.181C255.615,3.747 255.833,3.411 256.056,3.176C256.324,2.918 256.592,2.731 256.86,2.612C257.62,2.401 258.35,2.47 259.045,2.823C259.744,3.176 260.201,3.704 260.424,4.411ZM287.14,11.14C288.045,13.089 288.635,14.93 288.903,16.656C289.171,18.383 289.162,19.945 288.88,21.343C288.6,22.74 288.074,23.939 287.306,24.935C286.535,25.935 285.557,26.669 284.367,27.141C283.18,27.61 281.81,27.779 280.259,27.65C278.705,27.522 277.025,27.022 275.211,26.153C274.064,25.612 273.04,25.055 272.147,24.479C271.256,23.904 270.48,23.164 269.819,22.259C269.158,21.356 268.601,20.199 268.151,18.787C267.693,17.378 267.335,15.568 267.067,13.361C267.284,10.941 267.774,8.856 268.533,7.107C269.293,5.355 270.224,3.981 271.325,2.983C272.424,1.983 273.644,1.38 274.995,1.169C276.337,0.958 277.719,1.174 279.139,1.819C280.558,2.468 281.961,3.558 283.343,5.097C284.725,6.635 285.988,8.65 287.14,11.14ZM274.038,18.258C275.289,19.881 276.444,21.019 277.506,21.678C278.568,22.334 279.52,22.652 280.352,22.63C281.181,22.605 281.905,22.318 282.514,21.765C283.125,21.215 283.602,20.538 283.948,19.739C284.291,18.941 284.509,18.082 284.606,17.166C284.704,16.25 284.658,15.416 284.46,14.665C284.436,14.665 284.346,14.471 284.184,14.084C284.024,13.696 283.8,13.219 283.506,12.655C283.215,12.093 282.865,11.482 282.459,10.823C282.059,10.168 281.611,9.555 281.12,8.991C280.63,8.427 280.101,7.957 279.525,7.581C278.949,7.204 278.342,7.007 277.707,6.981C277.216,6.912 276.717,6.981 276.205,7.194C275.688,7.407 275.199,7.746 274.737,8.214C274.273,8.685 273.87,9.268 273.543,9.96C273.213,10.652 272.993,11.428 272.881,12.285C272.772,13.143 272.799,14.077 272.976,15.087C273.145,16.098 273.5,17.154 274.038,18.258ZM332.008,17.871C335.36,17.537 338.028,17.451 340.003,17.618C341.979,17.786 343.416,18.106 344.33,18.575C345.238,19.047 345.717,19.608 345.773,20.262C345.823,20.917 345.589,21.554 345.063,22.175C344.539,22.798 343.821,23.35 342.913,23.836C342.005,24.324 341.06,24.635 340.081,24.768C334.316,25.508 329.36,25.668 325.22,25.247C321.079,24.827 317.634,24.012 314.891,22.806C312.149,21.597 310.049,20.085 308.598,18.274C307.148,16.461 306.231,14.524 305.845,12.458C305.461,10.396 305.56,8.307 306.136,6.193C306.712,4.077 307.655,2.122 308.966,0.325C310.279,-1.469 311.891,-3.021 313.815,-4.33C315.737,-5.64 317.868,-6.512 320.212,-6.949C322.028,-7.283 323.687,-7.433 325.19,-7.401C326.697,-7.368 328.1,-7.124 329.415,-6.672C330.724,-6.217 331.958,-5.572 333.11,-4.731C334.262,-3.894 335.395,-2.837 336.518,-1.561C337.078,-0.924 337.338,-0.203 337.303,0.605C337.268,1.41 336.919,2.083 336.253,2.619C335.627,3.188 334.892,3.439 334.053,3.371C333.215,3.307 332.499,2.97 331.901,2.366C330.434,1.359 328.783,0.629 326.948,0.176C325.114,-0.279 323.329,-0.427 321.601,-0.279C319.869,-0.126 318.3,0.368 316.884,1.207C315.467,2.046 314.426,3.273 313.765,4.883C313.029,6.661 312.708,8.222 312.792,9.564C312.881,10.908 313.256,12.048 313.922,12.988C314.585,13.927 315.476,14.707 316.593,15.328C317.711,15.949 318.92,16.446 320.212,16.814C321.504,17.184 322.815,17.442 324.146,17.594C325.472,17.747 326.697,17.847 327.815,17.895C328.932,17.946 329.875,17.954 330.643,17.921C331.415,17.89 331.868,17.871 332.008,17.871ZM349.679,3.352C349.851,3.352 350.008,3.364 350.159,3.388C350.304,3.411 350.453,3.445 350.598,3.494C351.16,3.445 351.716,3.411 352.264,3.388C352.816,3.364 353.375,3.352 353.938,3.352C354.966,3.352 356.059,3.404 357.223,3.511C358.383,3.615 359.54,3.803 360.688,4.075C361.84,4.345 362.939,4.71 363.994,5.166C365.044,5.625 365.973,6.201 366.779,6.893C367.591,7.587 368.231,8.408 368.708,9.361C369.187,10.313 369.424,11.422 369.424,12.692C369.424,13.888 369.037,14.876 368.269,15.65C367.497,16.426 366.554,17.044 365.44,17.502C364.326,17.959 363.153,18.294 361.92,18.506C360.683,18.717 359.6,18.846 358.67,18.893C358.99,19.198 359.441,19.656 360.031,20.266C360.616,20.877 361.264,21.566 361.972,22.329C362.685,23.091 363.409,23.891 364.155,24.724C364.902,25.558 365.577,26.357 366.174,27.122C366.776,27.885 367.271,28.572 367.663,29.182C368.051,29.793 368.248,30.239 368.248,30.523C368.248,30.732 368.172,30.874 368.009,30.947C367.85,31.016 367.677,31.051 367.48,31.051C367.087,31.051 366.707,30.968 366.34,30.805C365.973,30.639 365.632,30.462 365.312,30.277C364.579,29.829 363.861,29.324 363.166,28.76C362.472,28.196 361.778,27.669 361.093,27.176C359.574,26.024 358.073,24.885 356.58,23.756C355.085,22.63 353.592,21.488 352.105,20.337C352.077,20.55 352.027,21.014 351.954,21.73C351.882,22.448 351.771,23.206 351.626,24.001C351.475,24.802 351.302,25.513 351.093,26.134C350.883,26.757 350.636,27.068 350.34,27.068C350.093,27.068 349.889,26.973 349.719,26.786C349.543,26.6 349.389,26.376 349.257,26.117C349.121,25.859 349.019,25.595 348.946,25.325C348.873,25.055 348.809,24.837 348.763,24.671C348.64,24.226 348.567,23.756 348.541,23.263C348.519,22.768 348.481,22.287 348.43,21.818C348.332,20.831 348.237,19.857 348.14,18.893C348.041,17.93 347.943,16.956 347.846,15.968L347.256,9.837L346.962,6.77C346.962,6.395 347.026,6.009 347.145,5.606C347.27,5.21 347.448,4.845 347.68,4.514C347.913,4.187 348.195,3.911 348.524,3.687C348.853,3.464 349.24,3.352 349.679,3.352ZM352.653,7.616C352.726,8.815 352.76,10.014 352.76,11.212C352.76,11.681 352.757,12.157 352.743,12.636C352.731,13.12 352.714,13.608 352.688,14.1C353.546,14.03 354.509,14.008 355.589,14.03C356.663,14.055 357.748,14.036 358.836,13.977C359.924,13.92 360.97,13.8 361.972,13.624C362.979,13.447 363.845,13.136 364.579,12.692C364.48,11.963 364.198,11.334 363.733,10.806C363.269,10.276 362.697,9.83 362.01,9.465C361.323,9.102 360.567,8.815 359.737,8.604C358.903,8.391 358.059,8.221 357.203,8.092C356.345,7.962 355.52,7.862 354.727,7.792C353.928,7.722 353.238,7.663 352.653,7.616ZM364.617,12.655L364.617,12.692L364.651,12.655L364.617,12.655ZM379.775,20.655C381.925,20.328 384.093,20.079 386.269,19.915C388.445,19.752 390.625,19.667 392.801,19.667C393.045,19.667 393.479,19.674 394.107,19.685C394.73,19.698 395.439,19.726 396.231,19.775C397.03,19.821 397.849,19.892 398.695,19.986C399.539,20.079 400.305,20.221 401.004,20.409C401.701,20.598 402.277,20.826 402.73,21.094C403.18,21.366 403.407,21.702 403.407,22.101C403.407,22.593 403.185,22.975 402.746,23.246C402.307,23.516 401.788,23.708 401.189,23.826C400.587,23.943 399.982,24.008 399.371,24.02C398.762,24.033 398.283,24.039 397.939,24.039C396.691,24.039 395.463,24.014 394.251,23.968C393.04,23.919 391.811,23.899 390.564,23.899C387.921,23.899 385.295,23.997 382.69,24.196C380.088,24.397 377.476,24.661 374.855,24.988C374.805,24.988 374.746,24.995 374.674,25.008C374.601,25.02 374.537,25.023 374.488,25.023C374.049,25.023 373.67,24.873 373.35,24.568C373.035,24.262 372.876,23.885 372.876,23.438C372.876,23.134 372.928,22.882 373.037,22.681C373.15,22.482 373.295,22.324 373.478,22.205C373.662,22.089 373.88,21.989 374.122,21.906C374.366,21.824 374.613,21.747 374.855,21.677C374.805,21.418 374.783,21.16 374.783,20.902L374.783,20.126C374.783,17.943 374.928,15.756 375.224,13.571C375.518,11.388 375.834,9.228 376.179,7.088C375.834,6.994 375.449,6.911 375.023,6.842C374.592,6.771 374.189,6.676 373.812,6.56C373.431,6.442 373.108,6.266 372.838,6.031C372.57,5.795 372.433,5.467 372.433,5.043C372.433,4.716 372.542,4.393 372.766,4.074C372.983,3.756 373.29,3.621 373.684,3.669L373.866,3.704C375.04,3.797 376.192,3.858 377.313,3.881C378.441,3.905 379.593,3.974 380.764,4.093C381.989,4.187 383.371,4.282 384.913,4.373C386.452,4.469 388.006,4.597 389.571,4.763C391.137,4.927 392.659,5.124 394.142,5.361C395.621,5.597 396.921,5.889 398.048,6.242C398.146,6.266 398.283,6.308 398.454,6.365C398.624,6.423 398.795,6.499 398.966,6.595C399.136,6.688 399.286,6.795 399.411,6.911C399.53,7.029 399.592,7.157 399.592,7.299C399.592,7.534 399.411,7.73 399.044,7.88C398.672,8.034 398.202,8.157 397.626,8.252C397.055,8.345 396.423,8.421 395.737,8.479C395.053,8.539 394.392,8.579 393.757,8.603C393.121,8.625 392.562,8.639 392.083,8.639L391.116,8.639C389.376,8.639 387.625,8.61 385.868,8.549C384.107,8.491 382.365,8.345 380.655,8.11C380.68,8.863 380.692,9.601 380.692,10.331C380.692,11.058 380.668,11.8 380.616,12.549C381.008,12.549 381.392,12.545 381.771,12.533C382.152,12.52 382.541,12.514 382.929,12.514C383.198,12.514 383.726,12.52 384.506,12.533C385.292,12.545 386.184,12.58 387.186,12.637C388.189,12.696 389.248,12.774 390.36,12.867C391.474,12.961 392.49,13.089 393.406,13.256C394.323,13.419 395.084,13.615 395.681,13.836C396.283,14.061 396.581,14.336 396.581,14.665C396.581,14.853 396.458,14.993 396.214,15.087C395.97,15.182 395.775,15.251 395.629,15.298C394.989,15.486 394.169,15.633 393.168,15.739C392.164,15.844 391.121,15.92 390.033,15.969C388.945,16.016 387.878,16.04 386.836,16.04L382.323,16.04C381.674,16.04 381.034,16.028 380.398,16.003C380.325,16.801 380.242,17.591 380.142,18.365C380.043,19.14 379.92,19.903 379.775,20.655ZM414.27,19.775C413.877,20.784 413.51,21.813 413.17,22.858C412.829,23.904 412.41,24.908 411.922,25.871C411.8,26.131 411.659,26.399 411.5,26.681C411.338,26.964 411.151,27.222 410.93,27.456C410.712,27.691 410.466,27.89 410.194,28.056C409.926,28.22 409.632,28.302 409.317,28.302C408.997,28.302 408.729,28.226 408.511,28.073C408.29,27.921 408.108,27.72 407.977,27.475C407.84,27.229 407.741,26.97 407.682,26.7C407.624,26.43 407.593,26.165 407.593,25.906C407.593,25.624 407.686,25.119 407.883,24.392C408.08,23.662 408.335,22.794 408.656,21.784C408.975,20.773 409.342,19.651 409.755,18.417C410.175,17.186 410.606,15.94 411.058,14.682C411.514,13.427 411.971,12.186 412.434,10.963C412.902,9.744 413.327,8.633 413.72,7.635C414.112,6.635 414.467,5.784 414.787,5.08C415.102,4.374 415.337,3.891 415.483,3.635C415.751,3.187 416.126,2.76 416.598,2.348C417.078,1.939 417.61,1.731 418.195,1.731C418.515,1.731 418.783,1.807 419.006,1.961C419.224,2.115 419.408,2.314 419.556,2.56C419.7,2.807 419.804,3.071 419.868,3.352C419.927,3.635 419.958,3.905 419.958,4.163C419.958,4.327 419.944,4.48 419.923,4.621C419.899,4.763 419.859,4.916 419.812,5.08C419.859,5.151 419.999,5.485 420.235,6.085C420.465,6.683 420.755,7.453 421.096,8.391C421.437,9.332 421.826,10.401 422.253,11.6C422.679,12.797 423.11,14.018 423.537,15.264C423.962,16.509 424.383,17.73 424.782,18.927C425.187,20.126 425.55,21.214 425.867,22.19C426.185,23.164 426.443,23.974 426.638,24.621C426.834,25.266 426.933,25.648 426.933,25.766C426.933,26.212 426.792,26.587 426.51,26.892C426.23,27.198 425.853,27.352 425.39,27.352C424.826,27.352 424.331,27.176 423.904,26.823C423.478,26.472 423.097,26.036 422.765,25.518C422.437,25.003 422.149,24.462 421.904,23.897C421.66,23.335 421.463,22.853 421.319,22.453C420.828,22.429 420.266,22.325 419.627,22.136C418.992,21.948 418.349,21.713 417.7,21.432C417.052,21.149 416.425,20.862 415.809,20.567C415.201,20.273 414.689,20.01 414.27,19.775ZM417.427,11.316C417.159,12.115 416.868,12.908 416.565,13.696C416.258,14.483 415.96,15.276 415.664,16.075C416.302,16.404 416.95,16.698 417.61,16.955C418.271,17.213 419.588,17.684 420.274,17.942C419.882,16.885 417.768,12.397 417.427,11.316ZM447.002,8.532C447.152,10.082 447.225,11.634 447.225,13.184C447.225,14.971 447.13,16.756 446.948,18.541C446.763,20.328 446.576,22.101 446.381,23.862C446.355,24.002 446.308,24.357 446.236,24.921C446.158,25.483 446.056,26.064 445.919,26.663C445.788,27.263 445.62,27.803 445.424,28.286C445.229,28.766 445.011,29.007 444.767,29.007C444.52,29.007 444.31,28.912 444.141,28.727C443.969,28.538 443.824,28.32 443.701,28.073C443.577,27.827 443.475,27.575 443.388,27.317C443.304,27.059 443.248,26.845 443.222,26.682C443.125,26.329 443.047,25.883 442.983,25.341C442.925,24.803 442.868,24.25 442.821,23.688C442.771,23.122 442.722,22.57 442.672,22.03C442.625,21.489 442.586,21.032 442.561,20.655C442.364,18.659 442.163,16.673 441.959,14.701C441.75,12.725 441.56,10.741 441.388,8.747C441.388,8.721 441.397,8.705 441.406,8.693C441.416,8.679 441.427,8.662 441.427,8.639C439.861,8.617 438.273,8.558 436.673,8.463C435.069,8.368 433.512,8.158 431.994,7.828C431.455,7.71 431.063,7.472 430.821,7.107C430.577,6.742 430.454,6.301 430.454,5.783C430.454,5.245 430.61,4.733 430.931,4.251C431.248,3.77 431.724,3.528 432.36,3.528C432.701,3.528 433.052,3.512 433.407,3.477C433.76,3.439 434.109,3.424 434.45,3.424C435.725,3.351 437.012,3.317 438.308,3.317C439.847,3.317 441.363,3.336 442.857,3.37C444.35,3.405 445.869,3.424 447.407,3.424C448.436,3.424 449.443,3.405 450.432,3.37C451.427,3.336 452.434,3.317 453.461,3.317C453.705,3.317 454.094,3.323 454.619,3.336C455.143,3.348 455.672,3.394 456.196,3.477C456.722,3.559 457.187,3.694 457.592,3.88C457.994,4.069 458.199,4.351 458.199,4.726C458.199,5.292 457.976,5.773 457.537,6.173C457.098,6.572 456.525,6.906 455.831,7.176C455.131,7.447 454.354,7.669 453.501,7.847C452.643,8.024 451.797,8.158 450.967,8.252C450.135,8.347 449.367,8.409 448.654,8.444C447.946,8.479 447.396,8.51 447.002,8.532ZM467.666,4.411C467.837,6.148 467.934,7.67 467.96,8.973C467.983,10.279 467.964,11.54 467.905,12.763C467.841,13.984 467.742,15.242 467.611,16.532C467.474,17.824 467.32,19.328 467.149,21.042C466.953,22.922 466.704,24.251 466.4,25.024C466.092,25.801 465.806,26.189 465.537,26.189C465.267,26.213 464.986,26.031 464.691,25.64C464.397,25.254 464.168,24.651 463.997,23.827C463.919,23.474 463.812,22.606 463.665,21.219C463.592,20.632 463.511,19.897 463.424,19.017C463.34,18.136 463.236,17.079 463.113,15.846C462.99,14.612 462.848,13.178 462.691,11.547C462.532,9.914 462.354,8.039 462.156,5.925C462.255,5.198 462.417,4.617 462.636,4.181C462.857,3.747 463.075,3.411 463.298,3.176C463.566,2.918 463.834,2.731 464.102,2.612C464.862,2.401 465.592,2.47 466.287,2.823C466.986,3.176 467.443,3.704 467.666,4.411ZM519.631,11.14C520.536,13.089 521.126,14.93 521.394,16.656C521.662,18.383 521.653,19.945 521.371,21.343C521.091,22.74 520.565,23.939 519.797,24.935C519.026,25.935 518.048,26.669 516.858,27.141C515.671,27.61 514.303,27.779 512.75,27.65C511.196,27.522 509.516,27.022 507.703,26.153C506.555,25.612 505.531,25.055 504.638,24.479C503.747,23.904 502.971,23.164 502.31,22.259C501.649,21.356 501.092,20.199 500.642,18.787C500.184,17.378 499.826,15.568 499.558,13.361C499.775,10.941 500.265,8.856 501.024,7.107C501.786,5.355 502.715,3.981 503.816,2.983C504.915,1.983 506.136,1.38 507.486,1.169C508.828,0.958 510.212,1.174 511.632,1.819C513.049,2.468 514.452,3.558 515.834,5.097C517.218,6.635 518.479,8.65 519.631,11.14ZM506.529,18.258C507.78,19.881 508.935,21.019 509.997,21.678C511.059,22.334 512.011,22.652 512.843,22.63C513.672,22.605 514.396,22.318 515.005,21.765C515.616,21.215 516.093,20.538 516.439,19.739C516.782,18.941 517,18.082 517.097,17.166C517.195,16.25 517.149,15.416 516.951,14.665C516.927,14.665 516.837,14.471 516.675,14.084C516.515,13.696 516.291,13.219 515.997,12.655C515.706,12.093 515.356,11.482 514.95,10.823C514.55,10.168 514.102,9.555 513.611,8.991C513.121,8.427 512.592,7.957 512.016,7.581C511.44,7.204 510.833,7.007 510.198,6.981C509.708,6.912 509.208,6.981 508.696,7.194C508.179,7.407 507.69,7.746 507.228,8.214C506.764,8.685 506.361,9.268 506.034,9.96C505.706,10.652 505.484,11.428 505.373,12.285C505.263,13.143 505.292,14.077 505.467,15.087C505.636,16.098 505.991,17.154 506.529,18.258Z" style="fill:rgb(0,168,169);"/>
                </g>
            </g>
        </g>
    </g>
</svg>
