<?xml version="1.0" encoding="UTF-8" standalone="no"?>
<!DOCTYPE svg PUBLIC "-//W3C//DTD SVG 1.1//EN" "http://www.w3.org/Graphics/SVG/1.1/DTD/svg11.dtd">
<svg width="100%" height="100%" viewBox="0 0 185 206" version="1.1" xmlns="http://www.w3.org/2000/svg" xmlns:xlink="http://www.w3.org/1999/xlink" xml:space="preserve" xmlns:serif="http://www.serif.com/" style="fill-rule:evenodd;clip-rule:evenodd;stroke-linejoin:round;stroke-miterlimit:2;">
    <g transform="matrix(1,0,0,1,-3492.668621,-7865.448893)">
        <g transform="matrix(1.683502,0,0,1.683502,-21.822759,-75.937766)">
            <g id="gemar-logo" transform="matrix(0.614401,0,0,0.614401,2087.60788,4716.875247)">
                <path d="M59.917,199.19C56.233,199.19 53.629,198.967 51.721,198.483C49.974,198.047 48.381,197.379 46.985,196.493L5.71,196.493L5.71,59.353C1.92,53.772 0,46.801 0,38.629C0,33.024 1.041,27.949 3.096,23.546C3.855,21.927 4.734,20.384 5.71,18.958L5.71,0.502L177.931,0.502L177.931,196.493L72.071,196.493C71.118,196.921 70.141,197.303 69.16,197.632C66.088,198.668 62.979,199.19 59.917,199.19Z" style="fill:white;fill-rule:nonzero;"/>
                <path d="M130.033,31.933C132.434,34.101 133.707,37.332 133.845,41.622L102.064,41.622C102.432,37.099 104.129,33.812 107.167,31.76C110.212,29.709 114.081,28.683 118.806,28.683C123.883,28.683 127.63,29.768 130.033,31.933ZM89.836,75.179C96.247,79.743 104.899,82.485 115.729,83.464C111.154,85.491 106.45,88.204 101.62,91.648C99.369,87.863 96.271,84.991 92.301,83.038C88.328,81.09 83.75,80.11 78.571,80.11C73.76,80.11 69.372,80.919 65.402,82.537C61.433,84.152 56.218,87.842 52.936,90.776L52.95,85.713C52.967,85.711 55.766,83.002 65.447,78.631C69.271,77.074 73.494,76.285 78.101,76.228L78.101,56.334C79.388,64.203 83.263,70.498 89.836,75.179ZM54.327,178.249C56.374,177.697 59.377,177.215 63.343,176.798C67.301,176.381 70.981,176.054 74.385,175.819L74.385,189.694C73.396,190.41 72.327,191.061 71.176,191.639L70.969,191.735L70.965,191.735C69.898,192.258 68.772,192.728 67.573,193.133C64.987,194.003 62.439,194.432 59.917,194.432C56.747,194.432 54.421,194.25 52.93,193.872C51.437,193.5 50.155,192.917 49.084,192.121C48.904,191.997 48.75,191.865 48.591,191.735L48.534,191.735C47.717,191.068 47.178,190.374 46.944,189.651C46.664,188.781 46.531,187.656 46.531,186.272C46.531,184.177 47.192,182.491 48.522,181.204C49.195,180.553 50.018,179.983 50.987,179.49C51.954,179 53.059,178.585 54.327,178.249ZM78.094,5.26L173.057,5.26L173.057,191.734L127.606,191.734L127.606,167.077C130.479,166.234 133.168,165.634 135.666,165.28C138.171,164.925 141.053,164.748 144.31,164.748C145.749,164.748 147.557,164.819 149.716,164.96C151.878,165.091 156.189,165.537 156.189,165.537L156.189,145.907C155.426,145.834 151.849,145.881 151.053,145.881C147.913,145.881 143.819,146.408 140.091,147.526C136.363,148.642 129.475,153.281 127.606,156.255L127.606,150.422L104.736,150.422L104.736,191.734L99.298,191.734L99.298,161.865C99.387,138.254 73.018,138.752 58.698,138.752C52.675,138.752 46.665,139.157 40.671,139.949C34.677,140.75 30.347,141.44 27.688,142.023L27.688,157.826C27.688,157.826 37.945,153.74 53.472,153.134C60.378,153.134 65.609,153.852 69.162,155.284C72.712,156.718 74.487,159.312 74.487,163.058L74.487,163.425C67.069,163.778 59.9,164.335 53,165.079C46.091,165.835 40.301,167.092 35.637,168.862C30.925,170.639 27.284,173.066 24.717,176.138C22.149,179.212 20.869,183.172 20.869,188.022C20.869,189.311 21.008,190.543 21.236,191.734L10.585,191.734L10.585,83.784C15.764,85.246 21.447,86.176 27.635,86.576L27.635,137.551C30.634,136.977 35.819,135.365 52.938,134.58L52.938,101.323C54.808,100.384 56.913,99.484 59.248,98.637C61.587,97.791 63.999,97.365 66.483,97.365C69.562,97.365 71.968,97.692 73.669,98.343C75.374,98.993 76.653,100.027 77.492,101.44C78.337,102.86 78.851,104.706 79.035,106.971C79.218,109.237 79.318,111.986 79.318,115.215L79.318,135.135C93.154,137.268 100.894,142.857 104.62,148.372L104.62,101.323C107.523,99.908 109.976,98.891 111.989,98.284C113.999,97.671 116.056,97.365 118.167,97.365C121.301,97.365 123.73,97.692 125.456,98.343C127.186,98.993 128.449,100.027 129.25,101.44C130.087,102.86 130.591,104.694 130.757,106.943C130.917,109.19 131.002,111.946 131.002,115.215L131.002,147.182C134.002,145.384 136.749,144.084 139.238,143.302C143.378,142.001 147.19,141.319 150.688,141.26C151.588,141.248 152.603,141.257 153.74,141.271C154.703,141.29 155.539,141.324 156.309,141.376L156.309,105.128C156.309,97.049 154.101,90.859 149.692,86.564C147.837,84.761 145.614,83.36 143.046,82.312C147.459,81.464 157.838,78.253 162.756,76.596L162.756,60.06C162.756,60.06 148.289,65.558 142.739,67.143C136.982,68.729 132.82,69.518 127.632,69.518C119.431,69.518 113.221,68.16 109.003,65.447C104.791,62.733 102.497,58.82 102.136,53.7L158.397,53.7L158.397,46.486C158.397,36.564 155.262,28.959 149.012,23.671C142.746,18.384 133.41,15.741 120.986,15.741C107.519,15.741 96.913,18.851 89.18,25.063C83.012,30.021 79.346,36.413 78.1,44.182L78.1,34.285L27.87,34.285L27.87,51.607L49.521,51.607L49.521,69.621C48.457,69.708 47.283,69.77 46.001,69.807C44.716,69.848 43.541,69.874 42.472,69.874C30.084,69.874 20.722,67.189 14.382,61.83C8.044,56.469 4.875,48.74 4.875,38.627C4.875,33.678 5.76,29.314 7.532,25.524C9.303,21.74 11.718,18.621 14.778,16.163C17.982,13.629 21.598,11.745 25.632,10.517C29.666,9.292 34.162,8.676 39.113,8.676C43.328,8.676 47.326,9.142 51.09,10.062C54.86,10.989 58.146,12.096 60.966,13.376C63.397,14.466 78.094,21.173 78.094,21.173L78.094,5.26Z" style="fill:rgb(0,168,169);"/>
            </g>
        </g>
    </g>
</svg>
