<?xml version="1.0" encoding="UTF-8" standalone="no"?>
<!DOCTYPE svg PUBLIC "-//W3C//DTD SVG 1.1//EN" "http://www.w3.org/Graphics/SVG/1.1/DTD/svg11.dtd">
<svg width="100%" height="100%" viewBox="0 0 1686 616" version="1.1" xmlns="http://www.w3.org/2000/svg" xmlns:xlink="http://www.w3.org/1999/xlink" xml:space="preserve" xmlns:serif="http://www.serif.com/" style="fill-rule:evenodd;clip-rule:evenodd;stroke-linejoin:round;stroke-miterlimit:2;">
    <g transform="matrix(1,0,0,1,-74.508333,-54.908333)">
        <g transform="matrix(4.166667,0,0,4.166667,0,0)">
            <g id="logo-TIPOLITOtecnica" transform="matrix(1,0,0,1,33.1433,147.9865)">
                <path d="M-15.261,12.8L-15.261,-134.808L132.347,-134.808L132.347,12.8L-15.261,12.8ZM-10.58,-130.128L-10.58,8.119L127.667,8.119L127.667,-130.128L-10.58,-130.128ZM6.891,-118.682L-6.176,-118.682L-6.176,-125.942L27.218,-125.942L27.218,-118.682L14.151,-118.682L14.151,-78.025L6.891,-78.025L6.891,-118.682ZM-0.473,-78.053L6.787,-78.053L6.787,-37.396L28.566,-37.396L28.566,-30.136L-0.473,-30.136L-0.473,-78.053ZM43.477,-1.573L45.861,0.68C43.644,2.849 40.977,3.932 37.869,3.932C34.689,3.932 31.982,2.813 29.745,0.576C27.509,-1.661 26.39,-4.367 26.39,-7.547C26.39,-10.707 27.509,-13.41 29.745,-15.647C31.982,-17.884 34.689,-18.998 37.869,-18.998C41.029,-18.998 43.732,-17.884 45.969,-15.647L43.636,-13.338C42.044,-14.93 40.122,-15.722 37.869,-15.722C35.596,-15.722 33.662,-14.922 32.066,-13.326C30.466,-11.726 29.666,-9.8 29.666,-7.547C29.666,-5.275 30.466,-3.34 32.066,-1.744C33.662,-0.144 35.596,0.656 37.869,0.656C40.034,0.656 41.905,-0.088 43.477,-1.573ZM95.838,-1.573L98.222,0.68C96.005,2.849 93.338,3.932 90.23,3.932C87.05,3.932 84.343,2.813 82.106,0.576C79.87,-1.661 78.751,-4.367 78.751,-7.547C78.751,-10.707 79.87,-13.41 82.106,-15.647C84.343,-17.884 87.05,-18.998 90.23,-18.998C93.394,-18.998 96.093,-17.884 98.33,-15.647L95.997,-13.338C94.405,-14.93 92.487,-15.722 90.23,-15.722C87.961,-15.722 86.023,-14.922 84.427,-13.326C82.827,-11.726 82.027,-9.8 82.027,-7.547C82.027,-5.275 82.827,-3.34 84.427,-1.744C86.023,-0.144 87.961,0.656 90.23,0.656C92.395,0.656 94.266,-0.088 95.838,-1.573ZM63.499,-3.617L63.499,-18.344L66.775,-18.344L66.775,3.277L64.625,3.277L53.015,-11.844L53.015,3.277L49.74,3.277L49.74,-18.344L52.179,-18.344L63.499,-3.617ZM0,-15.069L-5.899,-15.069L-5.899,-18.345L9.174,-18.345L9.174,-15.069L3.276,-15.069L3.276,3.276L0,3.276L0,-15.069ZM38.264,-30.138L31.004,-30.138L31.004,-125.945L38.264,-125.945L38.264,-30.138ZM117.616,0L105.194,0L103.673,3.276L100.055,3.276L110.145,-18.345L112.661,-18.345L122.806,3.276L119.136,3.276L117.616,0ZM116.096,-3.276L111.431,-13.262L106.766,-3.276L116.096,-3.276ZM75.057,-18.345L75.057,3.274L71.781,3.274L71.781,-18.345L75.057,-18.345ZM25.316,-18.345L25.316,-15.069L14.832,-15.069L14.832,-9.171L22.697,-9.171L22.697,-5.895L14.832,-5.895L14.832,-0L25.316,-0L25.316,3.275L11.557,3.275L11.557,-18.345L25.316,-18.345ZM49.419,-78.521L75.553,-78.521L75.553,-71.261L62.486,-71.261L62.486,-30.138L55.226,-30.138L55.226,-71.261L42.159,-71.261L42.159,-78.521L42.16,-78.521L42.16,-125.942L60.337,-125.942C65.332,-125.942 69.599,-124.171 73.145,-120.628C75.462,-118.312 77.021,-115.684 77.823,-112.746C78.95,-114.969 80.465,-117.032 82.367,-118.935C87.04,-123.608 92.699,-125.944 99.338,-125.944C105.945,-125.944 111.585,-123.608 116.258,-118.935C120.931,-114.262 123.267,-108.622 123.267,-102.019C123.267,-95.372 120.931,-89.717 116.258,-85.044C112.454,-81.239 108.008,-78.986 102.922,-78.28C108.008,-77.573 112.454,-75.318 116.258,-71.513C120.931,-66.84 123.267,-61.2 123.267,-54.597C123.267,-47.954 120.931,-42.295 116.258,-37.622C111.585,-32.949 105.945,-30.617 99.338,-30.617C92.699,-30.617 87.04,-32.949 82.367,-37.622C77.694,-42.295 75.362,-47.954 75.362,-54.597C75.362,-61.2 77.694,-66.84 82.367,-71.513C86.172,-75.318 90.63,-77.573 95.739,-78.28C90.63,-78.986 86.172,-81.239 82.367,-85.044C78.657,-88.754 76.422,-93.084 75.659,-98.038C74.954,-96.954 74.116,-95.927 73.145,-94.956C69.599,-91.414 65.332,-89.643 60.337,-89.643L49.419,-89.643L49.419,-78.521ZM49.419,-96.903L60.337,-96.903C63.318,-96.903 65.873,-97.965 68.003,-100.095C70.132,-102.224 71.199,-104.799 71.199,-107.82C71.199,-110.801 70.132,-113.357 68.003,-115.486C65.873,-117.615 63.318,-118.682 60.337,-118.682L49.419,-118.682L49.419,-96.903ZM99.338,-71.676C94.594,-71.676 90.554,-70.008 87.215,-66.669C83.875,-63.326 82.204,-59.306 82.204,-54.597C82.204,-49.849 83.875,-45.809 87.215,-42.47C90.554,-39.13 94.594,-37.459 99.338,-37.459C104.051,-37.459 108.075,-39.13 111.414,-42.47C114.754,-45.809 116.421,-49.849 116.421,-54.597C116.421,-59.306 114.754,-63.326 111.414,-66.669C108.075,-70.008 104.051,-71.676 99.338,-71.676ZM99.338,-119.098C94.594,-119.098 90.554,-117.431 87.215,-114.087C83.875,-110.748 82.204,-106.728 82.204,-102.019C82.204,-97.271 83.875,-93.231 87.215,-89.892C90.554,-86.552 94.594,-84.881 99.338,-84.881C104.051,-84.881 108.075,-86.552 111.414,-89.892C114.754,-93.231 116.421,-97.271 116.421,-102.019C116.421,-106.728 114.754,-110.748 111.414,-114.087C108.075,-117.431 104.051,-119.098 99.338,-119.098ZM257.922,-2.811L270.145,-29.799L274.086,-29.799L286.739,-1.942L282.56,-1.942L279.495,-8.907L264.693,-8.907L261.628,-1.942L253.982,-1.942L243.315,-14.32L238.22,-9.146L238.22,-1.942L234.244,-1.942L234.244,-29.799L238.22,-29.799L238.22,-14.241L253.345,-29.799L257.882,-29.799L245.982,-17.265L257.922,-2.811ZM266.086,-12.087L278.106,-12.087L272.096,-25.743L266.086,-12.087ZM160.651,-29.799C167.899,-29.799 172.269,-26.141 172.269,-20.091C172.269,-14.038 167.899,-10.38 160.651,-10.38L153.761,-10.38L153.761,-1.942L149.789,-1.942L149.789,-29.799L160.651,-29.799ZM160.532,-13.839C165.626,-13.839 168.297,-16.107 168.297,-20.091C168.297,-24.072 165.626,-26.34 160.532,-26.34L153.761,-26.34L153.761,-13.839L160.532,-13.839ZM197.543,-1.942L194.482,-8.907L179.676,-8.907L176.611,-1.942L172.516,-1.942L185.129,-29.799L189.069,-29.799L201.722,-1.942L197.543,-1.942ZM181.069,-12.087L193.089,-12.087L187.079,-25.743L181.069,-12.087ZM217.922,-1.623C209.484,-1.623 203.203,-7.629 203.203,-15.872C203.203,-24.111 209.484,-30.117 217.961,-30.117C222.26,-30.117 226.001,-28.649 228.549,-25.783L225.962,-23.276C223.812,-25.544 221.185,-26.579 218.121,-26.579C211.832,-26.579 207.175,-22.042 207.175,-15.872C207.175,-9.699 211.832,-5.162 218.121,-5.162C221.185,-5.162 223.812,-6.236 225.962,-8.505L228.549,-5.998C226.001,-3.136 222.26,-1.623 217.922,-1.623ZM309.788,-6.953L309.788,-16.032L313.605,-16.032L313.605,-5.162C310.823,-2.817 306.962,-1.623 303.061,-1.623C294.5,-1.623 288.215,-7.629 288.215,-15.872C288.215,-24.111 294.5,-30.117 303.141,-30.117C307.559,-30.117 311.3,-28.649 313.844,-25.819L311.38,-23.355C309.071,-25.584 306.445,-26.579 303.3,-26.579C296.848,-26.579 292.192,-22.081 292.192,-15.872C292.192,-9.739 296.848,-5.162 303.26,-5.162C305.609,-5.162 307.798,-5.679 309.788,-6.953ZM321.211,-1.942L321.211,-29.799L325.187,-29.799L325.187,-1.942L321.211,-1.942ZM353.53,-29.799L357.506,-29.799L357.506,-1.942L354.246,-1.942L337.526,-22.714L337.526,-1.942L333.549,-1.942L333.549,-29.799L336.809,-29.799L353.53,-9.027L353.53,-29.799ZM385.172,-6.953L385.172,-16.032L388.989,-16.032L388.989,-5.162C386.207,-2.817 382.346,-1.623 378.446,-1.623C369.884,-1.623 363.6,-7.629 363.6,-15.872C363.6,-24.111 369.884,-30.117 378.525,-30.117C382.943,-30.117 386.685,-28.649 389.228,-25.819L386.764,-23.355C384.456,-25.584 381.829,-26.579 378.685,-26.579C372.233,-26.579 367.576,-22.081 367.576,-15.872C367.576,-9.739 372.233,-5.162 378.645,-5.162C380.993,-5.162 383.182,-5.679 385.172,-6.953ZM169.092,-46.755L169.092,-55.834L172.909,-55.834L172.909,-44.965C170.127,-42.62 166.266,-41.426 162.366,-41.426C153.804,-41.426 147.519,-47.432 147.519,-55.675C147.519,-63.913 153.804,-69.92 162.445,-69.92C166.863,-69.92 170.604,-68.447 173.148,-65.621L170.68,-63.157C168.376,-65.386 165.749,-66.381 162.604,-66.381C156.152,-66.381 151.496,-61.884 151.496,-55.675C151.496,-49.541 156.152,-44.965 162.565,-44.965C164.913,-44.965 167.102,-45.481 169.092,-46.755ZM203.477,-41.744L199.142,-41.744L193.128,-50.301C192.571,-50.262 191.974,-50.222 191.377,-50.222L184.491,-50.222L184.491,-41.744L180.515,-41.744L180.515,-69.601L191.377,-69.601C198.625,-69.601 202.999,-65.943 202.999,-59.894C202.999,-55.591 200.77,-52.486 196.874,-51.097L203.477,-41.744ZM191.258,-53.601C196.356,-53.601 199.023,-55.909 199.023,-59.894C199.023,-63.874 196.356,-66.142 191.258,-66.142L184.491,-66.142L184.491,-53.601L191.258,-53.601ZM230.263,-41.744L227.198,-48.709L212.392,-48.709L209.331,-41.744L205.232,-41.744L217.845,-69.601L221.785,-69.601L234.442,-41.744L230.263,-41.744ZM213.785,-51.889L225.805,-51.889L219.795,-65.545L213.785,-51.889ZM258.24,-66.142L242.558,-66.142L242.558,-56.427L256.528,-56.427L256.528,-53.008L242.558,-53.008L242.558,-41.744L238.586,-41.744L238.586,-69.601L258.24,-69.601L258.24,-66.142ZM263.86,-41.744L263.86,-69.601L267.836,-69.601L267.836,-41.744L263.86,-41.744ZM288.648,-41.426C280.21,-41.426 273.93,-47.432 273.93,-55.675C273.93,-63.913 280.21,-69.92 288.688,-69.92C292.987,-69.92 296.728,-68.447 299.275,-65.585L296.688,-63.078C294.539,-65.346 291.912,-66.381 288.847,-66.381C282.559,-66.381 277.902,-61.844 277.902,-55.675C277.902,-49.501 282.559,-44.965 288.847,-44.965C291.912,-44.965 294.539,-46.039 296.688,-48.307L299.275,-45.8C296.728,-42.938 292.987,-41.426 288.648,-41.426ZM325.111,-41.744L322.046,-48.709L307.24,-48.709L304.175,-41.744L300.079,-41.744L312.692,-69.601L316.633,-69.601L329.286,-41.744L325.111,-41.744ZM308.633,-51.889L320.653,-51.889L314.643,-65.545L308.633,-51.889ZM157.905,-81.228C153.646,-81.228 149.467,-82.657 147.242,-84.727L148.711,-87.827C150.78,-85.956 154.323,-84.607 157.905,-84.607C162.721,-84.607 164.795,-86.474 164.795,-88.898C164.795,-95.696 147.919,-91.401 147.919,-101.754C147.919,-106.064 151.258,-109.722 158.582,-109.722C161.845,-109.722 165.232,-108.846 167.537,-107.258L166.224,-104.07C163.8,-105.626 161.049,-106.343 158.582,-106.343C153.845,-106.343 151.811,-104.349 151.811,-101.913C151.811,-95.099 168.687,-99.362 168.687,-89.137C168.687,-84.886 165.272,-81.228 157.905,-81.228ZM179.641,-81.546L179.641,-105.945L170.088,-105.945L170.088,-109.404L193.125,-109.404L193.125,-105.945L183.573,-105.945L183.573,-81.546L179.641,-81.546ZM216.891,-81.546L213.826,-88.512L199.02,-88.512L195.955,-81.546L191.86,-81.546L204.473,-109.404L208.413,-109.404L221.066,-81.546L216.891,-81.546ZM200.413,-91.692L212.433,-91.692L206.423,-105.348L200.413,-91.692ZM254.878,-81.546L251.065,-81.546L251.025,-101.841L240.943,-84.93L239.108,-84.93L229.027,-101.722L229.027,-81.546L225.214,-81.546L225.214,-109.404L228.469,-109.404L240.103,-89.825L251.578,-109.404L254.838,-109.404L254.878,-81.546ZM274.086,-109.404C281.33,-109.404 285.704,-105.746 285.704,-99.692C285.704,-93.642 281.33,-89.984 274.086,-89.984L267.196,-89.984L267.196,-81.546L263.22,-81.546L263.22,-109.404L274.086,-109.404ZM273.967,-93.443C279.061,-93.443 281.728,-95.712 281.728,-99.692C281.728,-103.676 279.061,-105.945 273.967,-105.945L267.196,-105.945L267.196,-93.443L273.967,-93.443ZM310.978,-81.546L307.914,-88.512L293.111,-88.512L290.047,-81.546L285.947,-81.546L298.564,-109.404L302.504,-109.404L315.157,-81.546L310.978,-81.546ZM294.504,-91.692L306.52,-91.692L300.514,-105.348L294.504,-91.692Z" style="fill:rgb(0,86,164);"/>
            </g>
        </g>
    </g>
</svg>
