<?xml version="1.0" encoding="UTF-8" standalone="no"?>
<!DOCTYPE svg PUBLIC "-//W3C//DTD SVG 1.1//EN" "http://www.w3.org/Graphics/SVG/1.1/DTD/svg11.dtd">
<svg width="100%" height="100%" viewBox="0 0 788 151" version="1.1" xmlns="http://www.w3.org/2000/svg" xmlns:xlink="http://www.w3.org/1999/xlink" xml:space="preserve" xmlns:serif="http://www.serif.com/" style="fill-rule:evenodd;clip-rule:evenodd;stroke-linejoin:round;stroke-miterlimit:2;">
    <g transform="matrix(1,0,0,1,-883.354167,-7894.125422)">
        <g transform="matrix(1.683502,0,0,1.683502,-21.822759,-75.937766)">
            <g transform="matrix(1.119443,0,0,1.119443,323.721563,4666.943491)">
                <g transform="matrix(1,0,0,1,315.272,76.942)">
                    <path d="M0,23.001C-2.102,21.871 -3.754,20.304 -4.957,18.299C-6.16,16.294 -6.761,14.029 -6.761,11.502C-6.761,8.974 -6.16,6.708 -4.957,4.704C-3.754,2.699 -2.102,1.132 0,0.002C2.102,-1.127 4.465,-1.693 7.089,-1.693C9.3,-1.693 11.299,-1.304 13.085,-0.526C14.871,0.252 16.371,1.369 17.586,2.827L13.796,6.326C12.07,4.334 9.932,3.337 7.38,3.337C5.801,3.337 4.392,3.683 3.153,4.376C1.913,5.068 0.948,6.034 0.255,7.273C-0.437,8.513 -0.784,9.922 -0.784,11.502C-0.784,13.081 -0.437,14.49 0.255,15.729C0.948,16.969 1.913,17.934 3.153,18.627C4.392,19.32 5.801,19.666 7.38,19.666C9.932,19.666 12.07,18.658 13.796,16.64L17.586,20.14C16.371,21.622 14.864,22.752 13.067,23.529C11.268,24.307 9.264,24.696 7.053,24.696C4.452,24.696 2.102,24.131 0,23.001ZM-25.331,23.001C-27.432,21.871 -29.085,20.304 -30.288,18.299C-31.49,16.294 -32.092,14.029 -32.092,11.502C-32.092,8.974 -31.49,6.708 -30.288,4.704C-29.085,2.699 -27.432,1.132 -25.331,0.002C-23.229,-1.127 -20.866,-1.693 -18.242,-1.693C-16.031,-1.693 -14.032,-1.304 -12.246,-0.526C-10.46,0.252 -8.96,1.369 -7.745,2.827L-11.535,6.326C-13.26,4.334 -15.398,3.337 -17.95,3.337C-19.53,3.337 -20.939,3.683 -22.178,4.376C-23.417,5.068 -24.383,6.034 -25.076,7.273C-25.768,8.513 -26.114,9.922 -26.114,11.502C-26.114,13.081 -25.768,14.49 -25.076,15.729C-24.383,16.969 -23.417,17.934 -22.178,18.627C-20.939,19.32 -19.53,19.666 -17.95,19.666C-15.398,19.666 -13.26,18.658 -11.535,16.64L-7.745,20.14C-8.96,21.622 -10.466,22.752 -12.264,23.529C-14.063,24.307 -16.067,24.696 -18.278,24.696C-20.878,24.696 -23.229,24.131 -25.331,23.001ZM-35.372,13.306C-34.546,14.387 -34.133,15.717 -34.133,17.297C-34.133,19.532 -35.002,21.251 -36.738,22.454C-38.476,23.657 -41.009,24.258 -44.338,24.258L-57.532,24.258L-57.532,-1.255L-45.067,-1.255C-41.957,-1.255 -39.57,-0.66 -37.905,0.531C-36.241,1.721 -35.409,3.337 -35.409,5.378C-35.409,6.618 -35.706,7.724 -36.302,8.695C-36.897,9.667 -37.729,10.432 -38.798,10.991C-37.34,11.453 -36.199,12.225 -35.372,13.306ZM-41.258,19.046C-40.469,18.536 -40.074,17.746 -40.074,16.677C-40.074,14.563 -41.641,13.506 -44.776,13.506L-51.664,13.506L-51.664,19.812L-44.776,19.812C-43.221,19.812 -42.048,19.556 -41.258,19.046ZM-51.664,3.192L-51.664,9.205L-45.796,9.205C-44.338,9.205 -43.233,8.95 -42.479,8.44C-41.727,7.93 -41.35,7.177 -41.35,6.18C-41.35,5.184 -41.727,4.437 -42.479,3.939C-43.233,3.441 -44.338,3.192 -45.796,3.192L-51.664,3.192ZM-80.703,19.222C-78.547,18.433 -76.819,17.459 -75.559,16.342C-73.411,17.036 -71.587,17.853 -70.216,18.779C-72.744,21.744 -76.858,23.971 -81.932,25.369C-84.31,33.993 -89.079,39.847 -95.8,39.847C-102.521,39.847 -107.291,33.993 -109.669,25.369C-118.293,22.991 -124.147,18.221 -124.147,11.5C-124.147,4.779 -118.293,0.01 -109.669,-2.368C-107.291,-10.992 -102.521,-16.846 -95.8,-16.846C-89.079,-16.846 -84.309,-10.992 -81.932,-2.368C-76.858,-0.97 -72.744,1.257 -70.216,4.222C-71.587,5.148 -73.411,5.965 -75.559,6.659C-76.819,5.542 -78.547,4.567 -80.703,3.779C-80.526,5.114 -80.396,6.489 -80.314,7.895C-82.086,8.263 -83.973,8.565 -85.933,8.799C-86.028,6.44 -86.249,4.262 -86.58,2.28C-89.298,1.826 -92.384,1.579 -95.8,1.579C-99.216,1.579 -102.302,1.826 -105.02,2.28C-105.474,4.998 -105.721,8.084 -105.721,11.5C-105.721,14.916 -105.474,18.003 -105.02,20.721C-102.302,21.175 -99.216,21.422 -95.8,21.422C-92.384,21.422 -89.298,21.175 -86.58,20.721C-86.249,18.739 -86.028,16.561 -85.933,14.202C-83.973,14.436 -82.086,14.738 -80.314,15.106C-80.396,16.512 -80.526,17.887 -80.703,19.222ZM-95.8,34.178C-92.609,34.178 -89.866,31.483 -88.079,26.598C-90.536,26.924 -93.126,27.091 -95.8,27.091C-98.474,27.091 -101.064,26.924 -103.521,26.598C-101.734,31.483 -98.992,34.178 -95.8,34.178ZM-110.898,19.222C-111.224,16.765 -111.391,14.174 -111.391,11.5C-111.391,8.826 -111.224,6.236 -110.898,3.779C-115.782,5.567 -118.477,8.309 -118.477,11.5C-118.477,14.692 -115.782,17.434 -110.898,19.222ZM-95.8,-11.177C-98.992,-11.177 -101.734,-8.482 -103.521,-3.597C-101.064,-3.923 -98.474,-4.09 -95.8,-4.09C-93.126,-4.09 -90.536,-3.923 -88.079,-3.597C-89.866,-8.482 -92.609,-11.177 -95.8,-11.177Z" style="fill:rgb(0,131,63);"/>
                </g>
                <g transform="matrix(1,0,0,1,373.1503,95.2287)">
                    <path d="M-8.882,-1.128L-8.882,5.97L-14.778,5.97L-14.778,-19.511L-3.749,-19.511C-1.469,-19.511 0.497,-19.14 2.147,-18.4C3.797,-17.659 5.071,-16.599 5.97,-15.215C6.867,-13.832 7.316,-12.182 7.316,-10.265C7.316,-8.372 6.867,-6.739 5.97,-5.369C5.071,-3.998 3.797,-2.948 2.147,-2.221C2.131,-2.213 2.112,-2.209 2.095,-2.201L7.789,5.97L1.419,5.97L-3.478,-1.139C-3.571,-1.138 -3.656,-1.128 -3.749,-1.128L-8.882,-1.128ZM0,-13.541C-0.898,-14.317 -2.257,-14.705 -4.077,-14.705L-8.882,-14.705L-8.882,-5.824L-4.077,-5.824C-2.257,-5.824 -0.898,-6.218 0,-7.007C0.897,-7.795 1.347,-8.882 1.347,-10.265C1.347,-11.672 0.897,-12.764 0,-13.541ZM11.612,-19.511L17.508,-19.511L17.508,5.969L11.612,5.969L11.612,-19.511ZM36.508,5.97L30.684,5.97L19.692,-19.51L26.061,-19.51L33.81,-1.312L41.677,-19.51L47.537,-19.51L36.508,5.97ZM53.411,0.509L51.14,5.969L45.098,5.969L56.455,-19.511L62.279,-19.511L73.672,5.969L67.484,5.969L65.222,0.509L53.411,0.509ZM59.328,-13.72L55.273,-3.968L63.368,-3.968L59.328,-13.72ZM81.862,-1.128L81.862,5.97L75.966,5.97L75.966,-19.511L86.995,-19.511C89.275,-19.511 91.241,-19.14 92.891,-18.4C94.541,-17.659 95.815,-16.599 96.714,-15.215C97.611,-13.832 98.06,-12.182 98.06,-10.265C98.06,-8.372 97.611,-6.739 96.714,-5.369C95.815,-3.998 94.541,-2.948 92.891,-2.221C92.875,-2.213 92.856,-2.209 92.839,-2.201L98.533,5.97L92.163,5.97L87.266,-1.139C87.173,-1.138 87.088,-1.128 86.995,-1.128L81.862,-1.128ZM90.744,-13.541C89.846,-14.317 88.487,-14.705 86.667,-14.705L81.862,-14.705L81.862,-5.824L86.667,-5.824C88.487,-5.824 89.846,-6.218 90.744,-7.007C91.641,-7.795 92.091,-8.882 92.091,-10.265C92.091,-11.672 91.641,-12.764 90.744,-13.541ZM104.702,2.657C103.452,1.469 102.481,0.073 101.79,-1.528C101.098,-3.13 100.753,-4.878 100.753,-6.77C100.753,-8.663 101.098,-10.41 101.79,-12.012C102.481,-13.613 103.458,-15.009 104.719,-16.198C105.981,-17.387 107.462,-18.309 109.161,-18.964C110.859,-19.619 112.704,-19.947 114.693,-19.947C116.708,-19.947 118.557,-19.619 120.245,-18.964C121.93,-18.309 123.399,-17.387 124.649,-16.198C125.898,-15.009 126.875,-13.619 127.579,-12.03C128.283,-10.44 128.635,-8.687 128.635,-6.77C128.635,-4.878 128.283,-3.124 127.579,-1.511C126.875,0.104 125.898,1.499 124.649,2.676C123.399,3.853 121.93,4.769 120.245,5.424C118.557,6.079 116.719,6.406 114.73,6.406C112.716,6.406 110.853,6.079 109.142,5.424C107.431,4.769 105.951,3.847 104.702,2.657ZM107.323,-10.083C106.923,-9.087 106.722,-7.983 106.722,-6.77C106.722,-5.581 106.923,-4.482 107.323,-3.476C107.723,-2.469 108.281,-1.602 108.997,-0.873C109.713,-0.145 110.555,0.413 111.527,0.801C112.497,1.189 113.552,1.384 114.693,1.384C115.834,1.384 116.884,1.189 117.843,0.801C118.801,0.413 119.644,-0.145 120.372,-0.873C121.1,-1.602 121.664,-2.463 122.064,-3.458C122.465,-4.452 122.665,-5.557 122.665,-6.77C122.665,-7.983 122.465,-9.087 122.064,-10.083C121.664,-11.077 121.105,-11.939 120.39,-12.667C119.675,-13.396 118.831,-13.953 117.86,-14.342C116.889,-14.729 115.834,-14.924 114.693,-14.924C113.552,-14.924 112.504,-14.729 111.545,-14.342C110.586,-13.953 109.743,-13.396 109.015,-12.667C108.287,-11.939 107.723,-11.077 107.323,-10.083ZM151.385,1.165L151.385,5.97L132.712,5.97L132.712,-19.511L138.609,-19.511L138.609,1.165L151.385,1.165ZM176.191,-16.198C177.44,-15.009 178.417,-13.619 179.121,-12.03C179.825,-10.44 180.176,-8.687 180.176,-6.771C180.176,-4.878 179.825,-3.124 179.121,-1.511C178.417,0.104 177.44,1.499 176.191,2.676C174.941,3.853 173.472,4.769 171.787,5.424C170.099,6.079 168.261,6.406 166.272,6.406C164.257,6.406 162.395,6.079 160.684,5.424C158.973,4.769 157.493,3.847 156.244,2.657C154.994,1.469 154.023,0.073 153.332,-1.528C152.64,-3.13 152.294,-4.878 152.294,-6.771C152.294,-8.663 152.64,-10.41 153.332,-12.012C154.023,-13.613 155,-15.009 156.261,-16.198C157.523,-17.387 159.003,-18.309 160.703,-18.964C162.401,-19.619 164.246,-19.947 166.235,-19.947C168.25,-19.947 170.099,-19.619 171.787,-18.964C173.472,-18.309 174.941,-17.387 176.191,-16.198ZM173.606,-3.458C174.006,-4.452 174.207,-5.557 174.207,-6.771C174.207,-7.983 174.006,-9.087 173.606,-10.083C173.206,-11.077 172.647,-11.939 171.932,-12.667C171.216,-13.396 170.373,-13.953 169.402,-14.342C168.431,-14.729 167.376,-14.924 166.235,-14.924C165.094,-14.924 164.045,-14.729 163.086,-14.342C162.127,-13.953 161.285,-13.396 160.557,-12.667C159.829,-11.939 159.265,-11.077 158.865,-10.083C158.464,-9.087 158.264,-7.983 158.264,-6.771C158.264,-5.581 158.464,-4.482 158.865,-3.476C159.265,-2.469 159.823,-1.602 160.539,-0.873C161.254,-0.145 162.097,0.413 163.069,0.801C164.039,1.189 165.094,1.384 166.235,1.384C167.376,1.384 168.425,1.189 169.384,0.801C170.342,0.413 171.186,-0.145 171.914,-0.873C172.642,-1.602 173.206,-2.463 173.606,-3.458ZM9.027,18.758L13.868,18.758L13.941,44.238L8.408,44.238L8.375,28.944L0.873,41.545L-1.785,41.545L-9.246,29.274L-9.246,44.238L-14.779,44.238L-14.779,18.758L-9.902,18.758L-0.357,34.58L9.027,18.758ZM27.627,18.758L33.451,18.758L44.844,44.239L38.656,44.239L36.395,38.779L24.583,38.779L22.313,44.239L16.271,44.239L27.627,18.758ZM26.445,34.301L34.54,34.301L30.5,24.549L26.445,34.301ZM64.683,34.218L64.683,18.759L70.506,18.759L70.506,44.239L65.665,44.239L52.961,28.773L52.961,44.239L47.138,44.239L47.138,18.759L52.015,18.759L64.683,34.218ZM73.309,23.564L73.309,18.758L95.513,18.758L95.513,23.564L87.36,23.564L87.36,44.239L81.462,44.239L81.462,23.564L73.309,23.564ZM120.247,22.071C121.496,23.26 122.473,24.65 123.177,26.239C123.881,27.829 124.232,29.582 124.232,31.498C124.232,33.391 123.881,35.145 123.177,36.758C122.473,38.373 121.496,39.768 120.247,40.945C118.997,42.122 117.528,43.038 115.843,43.693C114.155,44.348 112.317,44.675 110.328,44.675C108.313,44.675 106.451,44.348 104.74,43.693C103.029,43.038 101.549,42.116 100.3,40.926C99.05,39.738 98.079,38.342 97.388,36.741C96.696,35.139 96.35,33.391 96.35,31.498C96.35,29.606 96.696,27.859 97.388,26.257C98.079,24.656 99.056,23.26 100.317,22.071C101.579,20.882 103.059,19.96 104.759,19.305C106.457,18.65 108.302,18.322 110.291,18.322C112.306,18.322 114.155,18.65 115.843,19.305C117.528,19.96 118.997,20.882 120.247,22.071ZM117.662,34.811C118.062,33.817 118.263,32.712 118.263,31.498C118.263,30.286 118.062,29.182 117.662,28.186C117.262,27.192 116.703,26.33 115.988,25.602C115.272,24.873 114.429,24.316 113.458,23.927C112.487,23.54 111.432,23.345 110.291,23.345C109.15,23.345 108.101,23.54 107.142,23.927C106.183,24.316 105.341,24.873 104.613,25.602C103.885,26.33 103.321,27.192 102.921,28.186C102.52,29.182 102.32,30.286 102.32,31.498C102.32,32.688 102.52,33.787 102.921,34.793C103.321,35.8 103.879,36.667 104.595,37.396C105.31,38.124 106.153,38.682 107.125,39.07C108.095,39.458 109.15,39.653 110.291,39.653C111.432,39.653 112.481,39.458 113.44,39.07C114.398,38.682 115.242,38.124 115.97,37.396C116.698,36.667 117.262,35.806 117.662,34.811ZM146.108,18.758L151.968,18.758L140.939,44.238L135.115,44.238L124.123,18.758L130.492,18.758L138.241,36.956L146.108,18.758ZM160.887,18.758L166.711,18.758L178.104,44.239L171.916,44.239L169.655,38.779L157.843,38.779L155.573,44.239L149.531,44.239L160.887,18.758ZM159.705,34.301L167.8,34.301L163.76,24.549L159.705,34.301ZM197.942,34.218L197.942,18.759L203.765,18.759L203.765,44.239L198.924,44.239L186.22,28.773L186.22,44.239L180.397,44.239L180.397,18.759L185.274,18.759L197.942,34.218ZM234.669,26.239C235.373,27.829 235.724,29.582 235.724,31.498C235.724,33.391 235.373,35.145 234.669,36.758C233.965,38.373 232.988,39.768 231.739,40.945C230.489,42.122 229.02,43.038 227.335,43.693C225.647,44.348 223.809,44.675 221.82,44.675C219.805,44.675 217.943,44.348 216.232,43.693C214.521,43.038 213.041,42.116 211.792,40.926C210.542,39.738 209.571,38.342 208.88,36.741C208.188,35.139 207.842,33.391 207.842,31.498C207.842,29.606 208.188,27.859 208.88,26.257C209.571,24.656 210.548,23.26 211.809,22.071C213.071,20.882 214.551,19.96 216.251,19.305C217.949,18.65 219.794,18.322 221.783,18.322C223.798,18.322 225.647,18.65 227.335,19.305C229.02,19.96 230.489,20.882 231.739,22.071C232.988,23.26 233.965,24.65 234.669,26.239ZM229.154,34.811C229.554,33.817 229.755,32.712 229.755,31.498C229.755,30.286 229.554,29.182 229.154,28.186C228.754,27.192 228.195,26.33 227.48,25.602C226.764,24.873 225.921,24.316 224.95,23.927C223.979,23.54 222.924,23.345 221.783,23.345C220.642,23.345 219.593,23.54 218.634,23.927C217.675,24.316 216.833,24.873 216.105,25.602C215.377,26.33 214.813,27.192 214.413,28.186C214.012,29.182 213.812,30.286 213.812,31.498C213.812,32.688 214.012,33.787 214.413,34.793C214.813,35.8 215.371,36.667 216.087,37.396C216.802,38.124 217.645,38.682 218.617,39.07C219.587,39.458 220.642,39.653 221.783,39.653C222.924,39.653 223.973,39.458 224.932,39.07C225.89,38.682 226.734,38.124 227.462,37.396C228.19,36.667 228.754,35.806 229.154,34.811Z" style="fill:rgb(0,53,149);"/>
                </g>
            </g>
        </g>
    </g>
</svg>
