<?xml version="1.0" encoding="UTF-8" standalone="no"?><!DOCTYPE svg PUBLIC "-//W3C//DTD SVG 1.1//EN" "http://www.w3.org/Graphics/SVG/1.1/DTD/svg11.dtd"><svg width="100%" height="100%" viewBox="0 0 558 178" version="1.1" xmlns="http://www.w3.org/2000/svg" xmlns:xlink="http://www.w3.org/1999/xlink" xml:space="preserve" xmlns:serif="http://www.serif.com/" style="fill-rule:evenodd;clip-rule:evenodd;stroke-linejoin:round;stroke-miterlimit:2;"><path id="logo-Maximilian" d="M123.559,121.537c-7.751,6.929 -18.608,11.931 -35.558,11.931c-2.284,0 -5.11,-0.218 -6.092,-0.218c-0.867,0 -3.59,0.218 -5.981,0.218c-1.959,0 -2.937,-0.435 -2.937,-1.306c0,-0.978 0.76,-1.52 2.284,-1.52c2.284,0 4.896,0.76 8.269,1.302c7.18,-1.413 16.857,-16.644 23.167,-30.629c7.18,-15.859 18.714,-33.997 37.638,-43.559l-0.218,-0.218c-32.631,8.474 -45.578,43.017 -69.184,63.545c-5.763,4.994 -12.397,10.104 -19.47,13.255l-0.978,-0.871c20.234,-19.662 17.186,-54.312 53.953,-75.165l-0.218,-0.218c-21.101,7.94 -34.59,27.085 -45.685,40.899c-11.859,14.685 -25.89,35.572 -46.449,35.572c-7.402,0 -16.102,-4.35 -16.102,-12.508c0,-4.461 2.177,-8.162 6.962,-8.162c2.719,0 4.896,1.959 4.896,4.679c0,3.266 -1.742,5.114 -4.896,5.332c0.107,6.416 4.785,8.7 10.659,8.7c7.722,0 17.297,-4.132 27.085,-14.356c22.193,-22.953 36.985,-56.135 72.774,-64.181l0.653,0.871c-27.192,9.682 -28.827,51.558 -54.606,73.316l0.218,0.218c20.448,-13.383 33.177,-36.985 49.603,-53.629c12.836,-12.947 28.392,-19.905 39.593,-19.905c5.549,0 7.509,0.435 7.509,2.066c0,1.524 -2.502,1.524 -3.701,1.524c-1.848,0 -3.59,-0.435 -5.11,-0.764c-1.524,-0.324 -2.719,-0.649 -3.372,-0.649c-25.237,11.308 -26.543,61.782 -61.569,74.836l0,0.218l0.978,0c18.14,0 28.819,-5.517 36.171,-12.535c2.609,-13.047 18.093,-26.188 30.405,-26.188c5.003,0 7.722,2.177 9.571,6.745l2.719,-4.35l11.312,-0.653c-4.025,7.722 -19.47,26.974 -19.47,34.701c0,1.955 1.084,2.719 2.719,2.719c2.396,0 6.188,-2.116 10.449,-5.602c-0.099,-0.572 -0.149,-1.171 -0.149,-1.796c0,-3.479 2.177,-7.069 6.527,-7.069c0.865,0 1.654,0.17 2.337,0.482c4.519,-4.913 9.162,-10.594 11.457,-13.612l-0.198,-0.142c3.701,-5.221 8.922,-11.423 16.537,-11.423c6.092,0 9.677,3.808 10.877,9.357c4.892,-4.785 11.312,-8.922 18.381,-8.922c4.568,0 10.441,1.635 10.441,7.291c0,4.457 -4.35,6.745 -8.264,6.745c-0.653,0 -1.524,-0.111 -2.177,-0.329c0.653,-2.502 1.306,-4.461 1.306,-7.505c0,-3.048 -1.195,-4.896 -3.697,-4.896c-7.509,0 -20.669,14.578 -20.669,27.628c0,5.66 3.479,8.269 8.704,8.269c7.837,0 17.434,-8.191 24.759,-16.103c2.655,-4.489 6.555,-10.522 12.081,-19.251l11.206,-0.546c-13.6,21.434 -19.474,29.809 -19.474,34.266c0,1.742 0.653,2.941 1.959,2.941c2.83,0 8.158,-3.048 16.098,-11.099c0.644,-0.655 1.285,-1.316 1.919,-1.979c4.96,-8.039 9.856,-16.126 14.58,-24.342l12.73,-0.653l-14.471,19.799l0.218,0.218c6.092,-7.069 15.338,-20.887 26.872,-20.887c4.025,0 7.287,2.177 7.287,6.527c0,4.025 -3.261,9.464 -5.656,13.054l0.218,0.218c5.545,-6.962 15.555,-19.799 25.237,-19.799c4.674,0 7.722,3.483 7.722,7.18c0,9.788 -15.449,21.212 -15.449,29.152c0,1.635 0.764,2.83 2.284,2.83c3.048,0 7.833,-3.372 14.578,-10.117c2.069,-2.067 4.137,-4.271 6.12,-6.487c2.656,-4.587 6.723,-10.864 12.68,-20.274l11.206,-0.546c-13.6,21.434 -19.474,29.809 -19.474,34.266c0,1.742 0.653,2.941 1.959,2.941c2.83,0 8.158,-3.048 16.098,-11.099c2.27,-2.308 4.499,-4.697 6.548,-6.957c1.082,-1.923 2.332,-4.052 3.753,-6.422l30.351,-49.821l12.076,-0.653l-33.612,53.518c-5.66,9.028 -9.25,15.013 -9.25,18.71c0,1.848 0.764,2.937 2.395,2.937c3.044,0 8.704,-3.59 14.578,-9.464c2.542,-2.542 5.083,-5.297 7.592,-8.188c2.655,-4.486 6.55,-10.512 12.062,-19.222l11.206,-0.546c-13.6,21.434 -19.474,29.809 -19.474,34.266c0,1.742 0.653,2.941 1.959,2.941c2.83,0 8.158,-3.048 16.098,-11.099c1.329,-1.352 2.645,-2.731 3.918,-4.096c3.893,-12.196 18.227,-23.749 29.771,-23.749c5.003,0 7.722,2.177 9.571,6.745l2.719,-4.35l11.312,-0.653c-4.025,7.722 -19.47,26.974 -19.47,34.701c0,1.955 1.084,2.719 2.719,2.719c3.479,0 9.899,-4.461 16.426,-11.095c0.63,-0.642 1.272,-1.316 1.921,-2.009c4.906,-8.017 9.83,-16.057 14.578,-24.317l12.401,-0.435l-14.143,19.799l0.218,0.218c4.132,-5.221 16.098,-21.323 27.41,-21.323c4.79,0 7.291,3.048 7.291,6.962c0,9.788 -15.013,21.216 -15.013,29.263c0,1.742 0.871,2.937 2.83,2.937c2.066,0 6.634,-2.502 14.574,-10.984c6.203,-6.638 11.859,-13.711 14.471,-16.866l1.089,0.546c-3.808,4.461 -9.575,11.748 -15.773,18.275c-7.616,7.94 -12.183,10.988 -17.844,10.988c-5.545,0 -8.047,-3.59 -8.047,-7.509c0,-9.788 15.009,-21.536 15.009,-28.281c0,-1.524 -1.089,-2.719 -3.044,-2.719c-8.593,0 -28.067,26.326 -33.506,37.092l-10.988,0.329c1.909,-3.19 3.838,-6.367 5.776,-9.542c-6.665,6.651 -13.32,11.283 -19.769,11.283c-4.572,0 -7.291,-2.723 -7.291,-6.203c0,-1.089 0.111,-2.284 0.435,-2.83l-0.218,0c-4.461,5.007 -10.335,9.033 -16.751,9.033c-7.069,0 -9.682,-5.767 -9.682,-11.859c0,-1.178 0.12,-2.368 0.348,-3.559c-1.145,1.204 -2.275,2.366 -3.357,3.448c-8.375,8.375 -14.032,11.312 -19.146,11.312c-4.785,0 -7.505,-2.937 -7.505,-7.069c0,-2.279 0.654,-4.559 2.282,-7.807c-0.684,0.748 -1.363,1.468 -2.03,2.151c-8.486,8.593 -14.253,12.725 -21.212,12.725c-4.896,0 -7.398,-2.173 -7.398,-6.527c0,-2.301 0.96,-5.17 2.939,-9.135c-1.436,1.525 -2.861,2.999 -4.211,4.35c-8.375,8.375 -14.032,11.312 -19.146,11.312c-4.785,0 -7.505,-2.937 -7.505,-7.069c0,-2.249 0.635,-4.497 2.215,-7.675c-1.141,1.238 -2.313,2.466 -3.499,3.654c-8.269,8.264 -12.73,11.095 -18.057,11.095c-5.114,0 -8.051,-3.155 -8.051,-7.509c0,-9.353 15.444,-22.3 15.444,-27.845c0,-2.066 -1.413,-3.155 -2.937,-3.155c-9.353,0 -27.739,27.956 -32.742,36.985l-11.53,0.435c9.899,-15.555 19.688,-28.609 19.688,-33.941c0,-1.742 -0.978,-3.479 -3.155,-3.479c-9.135,0 -28.063,27.956 -33.177,36.985l-10.984,0.435c1.909,-3.06 3.817,-6.12 5.72,-9.184c-7.799,7.577 -13.191,10.268 -18.087,10.268c-4.785,0 -7.505,-2.937 -7.505,-7.069c0,-2.525 0.801,-5.05 2.841,-8.892c-8.486,8.832 -18.906,16.619 -30.003,16.619c-6.634,0 -10.659,-3.919 -11.201,-9.575c-5.549,4.679 -12.947,8.922 -20.994,8.922c-6.278,0 -10.25,-2.306 -11.58,-6.19c-5.037,4.183 -10.042,6.843 -14.93,6.843c-4.572,0 -7.291,-2.723 -7.291,-6.203c0,-1.089 0.111,-2.284 0.435,-2.83l-0.218,0c-4.461,5.007 -10.335,9.033 -16.751,9.033c-7.069,0 -9.682,-5.767 -9.682,-11.859c0,-0.604 0.032,-1.21 0.093,-1.818Zm10.349,2.143c0,4.136 0.978,7.833 5.438,7.833c9.246,-0.653 21.216,-22.411 21.216,-30.569c0,-3.914 -1.2,-6.198 -5.332,-6.198c-10.01,0 -21.323,20.123 -21.323,28.934Zm47.326,-4.475c1.066,0.848 1.701,2.148 1.701,3.715c0,2.83 -2.395,5.003 -4.785,5.003c0,3.266 2.284,5.332 5.549,5.332c12.29,0 25.779,-19.252 25.779,-30.458c0,-3.59 -1.413,-6.309 -5.332,-6.309c-4.611,0 -8.822,4.744 -11.551,8.5l0.162,0.093c-3.035,3.988 -6.692,8.807 -11.524,14.125Zm264.642,4.475c0,4.136 0.982,7.833 5.438,7.833c9.246,-0.653 21.212,-22.411 21.212,-30.569c0,-3.914 -1.195,-6.198 -5.327,-6.198c-10.01,0 -21.323,20.123 -21.323,28.934Zm-211.13,-97.713c1.614,3.125 0.205,5.528 -1.477,7.598c-5.259,6.476 1.819,11.53 7.884,10.113c4.79,-1.118 5.865,-5.255 4.247,-8.495c-1.618,-3.236 -3.031,-9.703 4.854,-9.703c4.606,0 7.026,4.175 5.648,6.992c-0.444,1.392 -1.801,3.505 -2.412,4.333c-2.83,3.842 0.623,6.847 7.278,7.278c12.537,0.807 14.855,-12.025 7.278,-12.943c-3.052,-0.371 -4.837,-3.031 -5.02,-5.959c-0.41,-4.094 2.595,-7.462 6.638,-8.196c-1.11,-2.442 -1.609,-4.824 -1.554,-6.997c-0.862,-5.891 5.118,-9.989 11.06,-9.989c9.502,0 13.545,8.089 9.502,16.986c8.896,1.618 8.29,13.344 1.618,14.155c-7.577,0.918 -5.259,13.75 7.278,12.943c6.655,-0.431 10.113,-3.436 7.278,-7.278c-2.143,-2.916 -4.892,-11.325 3.236,-11.325c5.157,0 7.33,3.611 6.083,6.284c-0.239,0.896 -0.879,2.723 -1.229,3.419c-1.618,3.24 -0.546,7.376 4.247,8.495c6.066,1.417 13.144,-3.637 7.884,-10.113c-2.006,-2.467 -3.056,-3.769 -1.767,-7.351c1.853,-2.95 6.775,-4.474 8.239,-1.545l13.75,-9.908l-13.989,33.6l-7.598,18.249l-5.105,12.251l-78.862,0l-26.688,-64.1l13.75,9.908c1.52,-3.039 6.241,-1.934 7.948,1.298Zm33.638,-0.892c0,3.159 4.738,5.72 10.582,5.72c5.844,0 10.582,-2.561 10.582,-5.72c0,-3.159 -4.738,-5.72 -10.582,-5.72c-5.17,0 -10.732,1.597 -10.582,5.72Zm57.898,2.689c0,1.315 0.935,3.287 2.472,3.287c1.537,0 2.779,-1.067 2.779,-2.382c0,-1.315 -1.242,-2.382 -2.779,-2.382c-0.888,0 -1.964,0.922 -2.472,1.477Zm-93.883,-0.034c-0.465,-0.756 -1.716,-1.443 -2.779,-1.443c-1.537,0 -2.783,1.067 -2.783,2.382c0,1.315 1.246,2.382 2.783,2.382c1.229,0 3.091,-0.414 2.779,-3.321Zm95.25,20.187l2.275,-5.451c0,0 -4.043,5.66 -10.108,5.66c-8.252,0 -9.302,-1.212 -10.92,-3.637c-3.236,4.448 -10.113,4.043 -12.943,4.043c-2.83,0 -14.962,-1.618 -15.368,-14.155l-2.425,0c-0.406,12.537 -12.537,14.155 -15.368,14.155c-2.83,0 -9.707,0.406 -12.943,-4.043c-1.618,2.425 -2.672,3.637 -10.92,3.637c-6.066,0 -10.885,-5.865 -10.885,-5.865l5.225,12.973l91.326,0l3.052,-7.317Zm-15.995,-16.482c0.252,-1.921 -2.062,-3.12 -3.364,-3.12c-1.742,0 -3.146,1.537 -3.146,3.432c0,1.895 1.404,3.432 3.146,3.432c1.524,0 3.475,-0.751 3.364,-3.744Zm-39.832,-21.323c0,3.159 3.197,5.72 7.146,5.72c3.949,0 7.15,-2.561 7.15,-5.72c0,-3.159 -3.202,-5.72 -7.15,-5.72c-3.257,0 -7.223,1.532 -7.146,5.72Zm48.997,54.615l2.262,-5.11l-88.125,0l6.403,15.602l74.815,0l4.644,-10.493Zm-67.673,-32.985c0.064,-2.087 -1.994,-3.428 -3.296,-3.428c-1.737,0 -3.146,1.537 -3.146,3.432c0,1.895 1.409,3.432 3.146,3.432c1.426,0 3.36,-1.029 3.296,-3.436Zm-29.237,134.953c0.592,-2.752 4.225,-5.392 6.915,-5.392c1.337,0 2.135,0.539 2.135,1.481c0,2.275 -5.118,3.262 -6.764,3.612c-0.07,0.284 -0.115,0.564 -0.115,0.848c0,1.337 0.798,2.275 2.135,2.275c1.317,0 2.958,-0.819 4.558,-2.3c0.626,-0.59 1.24,-1.237 1.803,-1.873c0.672,-1.2 1.305,-2.317 1.903,-3.244l-2.255,0l0.235,-0.424l2.3,0c1.81,-3.147 5.003,-8.076 9.207,-8.076c1.292,0 2.584,0.609 2.584,1.925c0,1.127 -0.942,1.691 -2.045,1.691c-0.165,0 -0.304,-0.025 -0.424,-0.049c0.284,-0.564 0.494,-1.173 0.494,-1.901c0,-0.893 -0.424,-1.386 -1.033,-1.386c-2.394,0 -5.542,6.105 -6.529,7.796l6.06,0l-0.259,0.424l-6.056,0c-3.641,5.965 -7.023,15.119 -15.403,15.119c-1.905,0 -4.489,-0.704 -4.489,-3.073c0,-1.81 1.716,-2.793 3.406,-2.793c0.424,0 0.798,0.045 1.082,0.091l0,0.189c-1.506,0.095 -2.514,1.152 -2.514,2.654c0,1.621 0.868,2.654 2.888,2.654c4.167,0 7.494,-5.613 10.213,-10.463c-0.399,0.421 -0.834,0.848 -1.314,1.285c-2.16,1.946 -4.18,2.559 -5.916,2.559c-1.786,0 -2.888,-1.177 -2.888,-2.868c0,-0.117 0.006,-0.234 0.018,-0.352c-0.199,0.216 -0.4,0.429 -0.602,0.636c-1.691,1.736 -2.748,2.44 -3.991,2.44c-1.127,0 -1.621,-0.773 -1.621,-1.621c0,-2.16 3.287,-4.6 3.287,-6.011c0,-0.444 -0.304,-0.679 -0.613,-0.679c-2.016,0 -6.105,5.682 -7.278,8.006l-2.419,0.07l9.841,-16.222l2.559,-0.119l-7.796,12.305l0.045,0.045c1.386,-1.642 3.501,-4.649 5.941,-4.649c0.987,0 1.596,0.518 1.596,1.551c0,1.711 -3.287,4.814 -3.287,6.34c0,0.399 0.189,0.564 0.494,0.564c0.814,0 2.462,-1.507 3.909,-3.063Zm7.17,-4.499c0,-0.424 -0.255,-0.613 -0.634,-0.613c-1.572,0 -3.801,3.007 -4.201,4.583c2.559,-0.518 4.834,-2.444 4.834,-3.97Zm34.27,4.975c-2.019,1.968 -4.468,3.151 -7.981,3.151c-1.617,0 -4.015,-0.329 -5.587,-0.753c-1.033,0.329 -2.793,0.609 -3.896,0.609c-1.341,0 -2.888,-0.374 -2.888,-1.033c0,-0.374 0.42,-0.564 1.173,-0.564c2.065,0 4.369,0.798 5.167,0.798c5.447,-0.749 6.151,-11.927 14.461,-15.942l0,-0.049c-0.704,-0.185 -1.666,-0.304 -2.958,-0.304c-4.46,0 -11.836,3.476 -11.836,9.088c0,1.247 0.473,2.654 1.93,2.654c2.37,0 3.801,-2.983 3.801,-4.53c0,-0.284 0,-0.728 -0.045,-1.057l0.28,0c0.025,0.304 0.049,0.564 0.049,0.983c0,2.164 -1.761,5.167 -5.048,5.167c-1.786,0 -2.843,-1.572 -2.843,-3.242c0,-4.978 8.36,-9.343 13.762,-9.343c1.362,0 2.324,0.14 3.402,0.399c0.963,-0.374 2.324,-0.798 3.312,-0.893l0.025,0.189c-0.942,0.14 -1.855,0.469 -2.703,0.913c1.621,0.683 2.748,1.95 2.748,3.781c0,2.724 -3.003,4.369 -5.402,4.369c-1.197,0 -2.065,-0.634 -2.065,-1.456c0,-0.613 0.494,-1.152 1.292,-1.152c0.469,0 0.773,0.095 1.008,0.259c-0.584,0.304 -0.938,0.773 -0.938,1.292c0,0.514 0.378,0.773 0.773,0.773c1.691,0 3.361,-3.003 3.361,-4.929c0,-1.177 -0.329,-2.115 -1.222,-2.629c-5.447,3.756 -6.739,13.873 -14.301,15.683l0,0.045c0.963,0.214 2.654,0.448 3.641,0.448c3.723,0 7.033,-1.116 9.719,-3.518c0.864,-2.614 3.932,-5.076 6.408,-5.076c1.078,0 1.666,0.469 2.065,1.456l0.588,-0.938l2.44,-0.14c-0.868,1.666 -4.201,5.821 -4.201,7.488c0,0.424 0.23,0.588 0.584,0.588c0.603,0 1.614,-0.618 2.716,-1.601c-0.014,-0.111 -0.021,-0.227 -0.021,-0.349c0,-0.987 0.588,-2.135 1.691,-2.135c0.228,0 0.424,0.048 0.585,0.131c0.401,-0.464 0.78,-0.919 1.095,-1.311c-0.054,-0.172 -0.084,-0.35 -0.084,-0.536c0,-1.761 1.786,-2.654 3.452,-2.654c1.506,0 2.654,0.683 2.654,1.855c0,0.893 -0.679,1.551 -1.572,1.551c-0.284,0 -0.539,-0.07 -0.683,-0.119c0.329,-0.609 0.473,-1.242 0.473,-1.831c0,-0.634 -0.354,-1.173 -1.082,-1.173c-0.868,0 -1.362,0.609 -1.362,1.432c0,0.868 0.469,1.502 0.938,2.135c0.469,0.613 0.942,1.267 0.942,2.209c0,1.222 -0.893,2.255 -1.81,2.464l0,0.045c2.012,-0.443 3.614,-1.707 5.024,-3.241c0.603,-1.157 1.599,-2.557 2.744,-4.531l-1.761,0l0.165,-0.424l1.806,0l1.761,-2.958l2.538,-0.095l-1.95,3.053l2.983,0l-0.21,0.424l-3.032,0c-2.818,4.649 -3.781,6.056 -3.781,6.973c0,0.399 0.239,0.683 0.634,0.683c0.778,0 2.164,-0.848 3.616,-2.255c0.508,-0.495 1.08,-1.109 1.654,-1.769c0.568,-0.945 1.371,-2.191 2.476,-3.937l2.419,-0.115c-2.937,4.624 -4.205,6.43 -4.205,7.393c0,0.378 0.144,0.634 0.424,0.634c0.609,0 1.761,-0.654 3.476,-2.394c0.289,-0.294 0.575,-0.594 0.852,-0.892c0.659,-2.679 4.119,-5.119 6.932,-5.119c1.432,0 2.349,0.658 2.349,1.502c0,1.222 -1.008,1.925 -1.971,1.925c-0.235,0 -0.424,-0.025 -0.543,-0.045c0.214,-0.728 0.543,-1.481 0.543,-2.23c0,-0.543 -0.284,-0.872 -0.708,-0.872c-1.642,0 -4.46,2.818 -4.46,5.801c0,1.197 0.773,2.135 2.045,2.135c1.889,0 3.797,-1.463 5.347,-3.021c0.612,-2.709 4.111,-5.194 6.95,-5.194c1.432,0 2.349,0.658 2.349,1.502c0,1.222 -1.008,1.925 -1.971,1.925c-0.235,0 -0.424,-0.025 -0.543,-0.045c0.214,-0.728 0.543,-1.481 0.543,-2.23c0,-0.543 -0.284,-0.872 -0.708,-0.872c-1.642,0 -4.46,2.818 -4.46,5.801c0,1.197 0.773,2.135 2.045,2.135c2.104,0 4.231,-1.814 5.861,-3.554c0.573,-0.97 1.417,-2.276 2.614,-4.168l2.419,-0.115c-2.937,4.624 -4.205,6.43 -4.205,7.393c0,0.378 0.14,0.634 0.424,0.634c0.609,0 1.761,-0.654 3.476,-2.394c0.264,-0.269 0.526,-0.543 0.78,-0.815c0.717,-2.68 4.241,-5.196 6.868,-5.196c1.337,0 2.135,0.539 2.135,1.481c0,2.275 -5.118,3.262 -6.764,3.612c-0.07,0.284 -0.115,0.564 -0.115,0.848c0,1.337 0.798,2.275 2.135,2.275c1.317,0 2.958,-0.819 4.554,-2.3c0.253,-0.237 0.503,-0.484 0.75,-0.736c0.948,-1.591 1.902,-3.186 2.842,-4.806l2.678,-0.095l-3.102,4.369l0.045,0.049c2.349,-2.913 3.711,-3.431 4.18,-3.9c0.683,-0.683 1.082,-0.753 2.843,-0.798c-0.588,0.843 -1.197,1.761 -1.197,2.818c0,0.704 0.329,1.008 1.008,1.008c0.179,0 0.354,-0.033 0.524,-0.09c1.328,-2.067 4.063,-3.736 6.202,-3.736c1.337,0 2.135,0.539 2.135,1.481c0,2.275 -5.118,3.262 -6.764,3.612c-0.07,0.284 -0.115,0.564 -0.115,0.848c0,1.337 0.798,2.275 2.135,2.275c1.317,0 2.958,-0.819 4.554,-2.3c1.222,-1.148 2.394,-2.514 3.242,-3.592l0.165,0.165c-0.963,1.292 -2.02,2.584 -3.546,3.97c-2.16,1.946 -4.18,2.559 -5.916,2.559c-1.786,0 -2.888,-1.177 -2.888,-2.868c0,-0.687 0.213,-1.382 0.576,-2.044c-0.454,0.182 -0.94,0.284 -1.451,0.284c-1.247,0 -2.02,-0.679 -2.02,-1.946c0,-0.399 0.14,-0.823 0.354,-1.152l-0.049,-0.049c-2.654,1.765 -4.719,4.768 -6.105,7.327l-2.37,0.07c0.474,-0.816 0.954,-1.629 1.437,-2.443l-0.285,0.263c-2.16,1.946 -4.18,2.559 -5.916,2.559c-1.786,0 -2.888,-1.177 -2.888,-2.868c0,-0.146 0.01,-0.291 0.028,-0.437c-0.24,0.252 -0.476,0.494 -0.703,0.721c-1.81,1.81 -3.028,2.444 -4.135,2.444c-1.033,0 -1.617,-0.634 -1.617,-1.526c0,-0.525 0.16,-1.05 0.565,-1.829c-1.889,1.901 -4.14,3.491 -6.765,3.491c-1.88,0 -2.913,-1.053 -2.913,-3.003c0,-0.128 0.007,-0.256 0.021,-0.384c-1.868,1.854 -4.084,3.387 -6.661,3.387c-1.88,0 -2.913,-1.053 -2.913,-3.003c0,-0.129 0.007,-0.257 0.021,-0.386c-0.268,0.283 -0.533,0.556 -0.786,0.809c-1.81,1.81 -3.028,2.444 -4.135,2.444c-1.033,0 -1.617,-0.634 -1.617,-1.526c0,-0.569 0.188,-1.138 0.672,-2.03c-0.275,0.302 -0.562,0.604 -0.857,0.899c-1.456,1.456 -3.098,2.654 -4.534,2.654c-0.983,0 -1.876,-0.399 -1.876,-1.526c0,-0.415 0.097,-0.836 0.274,-1.286c-1.706,1.727 -3.704,2.956 -6.561,2.956c-1.418,0 -2.927,-0.469 -3.283,-1.859c-1.236,1.12 -2.465,1.859 -3.666,1.859c-0.983,0 -1.572,-0.588 -1.572,-1.341c0,-0.235 0.025,-0.49 0.095,-0.609l-0.049,0c-0.963,1.082 -2.23,1.95 -3.612,1.95c-1.53,0 -2.09,-1.247 -2.09,-2.559c0,-0.196 0.015,-0.394 0.045,-0.592Zm65.876,-4.975c0,-0.424 -0.255,-0.613 -0.634,-0.613c-1.572,0 -3.801,3.007 -4.201,4.583c2.559,-0.518 4.834,-2.444 4.834,-3.97Zm-63.67,5.636c0,0.893 0.214,1.691 1.177,1.691c1.995,-0.14 4.579,-4.838 4.579,-6.599c0,-0.843 -0.259,-1.337 -1.152,-1.337c-2.16,0 -4.604,4.345 -4.604,6.245Zm82.389,-5.636c0,-0.424 -0.255,-0.613 -0.634,-0.613c-1.572,0 -3.801,3.007 -4.201,4.583c2.559,-0.518 4.834,-2.444 4.834,-3.97Zm-71.355,3.734c0.229,0.192 0.35,0.468 0.35,0.751c0,0.658 -0.444,1.012 -0.938,1.012c-0.189,0 -0.354,-0.025 -0.518,-0.119c-0.165,0.284 -0.28,0.609 -0.28,0.963c0,0.868 0.773,1.502 1.691,1.502c1.148,0 2.394,-0.798 2.394,-2.016c0,-0.823 -0.469,-1.481 -0.938,-2.09c-0.298,-0.406 -0.599,-0.8 -0.777,-1.221c-0.299,0.383 -0.624,0.791 -0.984,1.219Zm-69.199,-9.629l0.235,0.07c-0.14,0.284 -0.235,0.753 -0.235,1.082c0,0.983 0.704,1.617 1.666,1.617c2.02,0 3.806,-2.23 3.806,-4.155c0,-1.362 -1.386,-1.642 -2.139,-1.642c-4.883,0 -11.692,6.871 -11.692,12.82c0,2.3 1.103,3.945 3.147,3.945c2.674,0 5.377,-2.584 5.377,-5.501c0,-1.279 -0.448,-2.296 -1.831,-2.296c-1.436,0 -2.703,1.703 -3.382,2.699l-0.235,-0.115c1.078,-1.613 2.419,-3.147 4.554,-3.147c1.621,0 2.773,1.086 2.773,2.695c0,3.81 -4.25,5.945 -7.87,5.945c-3.123,0 -4.929,-1.925 -4.929,-4.999c0,-6.035 8.171,-12.33 14.111,-12.33c1.831,0 3.522,0.658 3.522,2.798c0,2.32 -2.534,3.707 -4.6,3.707c-1.292,0.025 -2.563,-0.609 -2.563,-2.041c0,-0.424 0.165,-0.942 0.284,-1.152Zm90.416,0.165c0.588,0 1.127,0.518 1.127,1.107c0,0.634 -0.588,1.242 -1.222,1.242c-0.679,0 -1.267,-0.35 -1.267,-1.078c0,-0.728 0.658,-1.271 1.362,-1.271Zm25.183,0c0.584,0 1.127,0.518 1.127,1.107c0,0.634 -0.588,1.242 -1.222,1.242c-0.679,0 -1.267,-0.35 -1.267,-1.078c0,-0.728 0.658,-1.271 1.362,-1.271Z" style="fill:#1d1d1b;"/></svg>