<?xml version="1.0" encoding="UTF-8" standalone="no"?><!DOCTYPE svg PUBLIC "-//W3C//DTD SVG 1.1//EN" "http://www.w3.org/Graphics/SVG/1.1/DTD/svg11.dtd"><svg width="100%" height="100%" viewBox="0 0 283 248" version="1.1" xmlns="http://www.w3.org/2000/svg" xmlns:xlink="http://www.w3.org/1999/xlink" xml:space="preserve" xmlns:serif="http://www.serif.com/" style="fill-rule:evenodd;clip-rule:evenodd;stroke-linecap:round;stroke-linejoin:round;stroke-miterlimit:1.5;"><g id="ArtiGraficheParma"><path d="M281.917,37.452l0,172.443c0,20.394 -16.558,36.952 -36.952,36.952l-207.513,0c-20.394,0 -36.952,-16.558 -36.952,-36.952l0,-172.443c0,-20.394 16.558,-36.952 36.952,-36.952l207.513,0c20.394,0 36.952,16.558 36.952,36.952Z" style="fill:#fff;stroke:#808080;stroke-width:1px;"/><g><path d="M55.962,111.349c-0.685,0 -1.455,-0.154 -2.311,-0.462c-0.856,-0.308 -1.541,-0.736 -2.054,-1.284c-0.514,-0.548 -0.77,-1.164 -0.77,-1.849c0,-0.274 0.034,-0.548 0.103,-0.822l21.055,-68.3c0.274,-1.027 0.924,-1.78 1.951,-2.26c1.027,-0.479 2.123,-0.719 3.287,-0.719c1.232,0 2.362,0.257 3.389,0.77c1.027,0.514 1.678,1.25 1.951,2.208l20.952,68.3c0.137,0.274 0.205,0.514 0.205,0.719c0,0.685 -0.291,1.301 -0.873,1.849c-0.582,0.548 -1.284,0.993 -2.105,1.335c-0.822,0.342 -1.609,0.514 -2.362,0.514c-0.753,0 -1.404,-0.154 -1.951,-0.462c-0.548,-0.308 -0.924,-0.805 -1.13,-1.489l-4.622,-15.303l-27.012,0l-4.416,15.303c-0.205,0.685 -0.599,1.181 -1.181,1.489c-0.582,0.308 -1.284,0.462 -2.105,0.462Zm9.757,-24.341l23.006,0l-11.503,-38.618l-11.503,38.618Zm86.787,24.547c-0.822,0 -1.558,-0.342 -2.208,-1.027c-0.65,-0.685 -1.215,-1.472 -1.695,-2.362l-15.406,-30.093l-11.914,0l0,30.196c0,1.027 -0.445,1.797 -1.335,2.311c-0.89,0.514 -1.883,0.77 -2.978,0.77c-1.027,0 -2.003,-0.257 -2.927,-0.77c-0.924,-0.514 -1.387,-1.284 -1.387,-2.311l0,-69.019c0,-0.822 0.291,-1.506 0.873,-2.054c0.582,-0.548 1.318,-0.856 2.208,-0.924l18.795,0c4.177,0 7.994,0.633 11.452,1.9c3.458,1.267 6.214,3.389 8.268,6.368c2.054,2.978 3.081,7.07 3.081,12.273c0,4.177 -0.668,7.635 -2.003,10.373c-1.335,2.739 -3.167,4.879 -5.495,6.419c-2.328,1.541 -4.93,2.619 -7.806,3.235l15.201,28.861c0.137,0.274 0.24,0.531 0.308,0.77c0.068,0.24 0.103,0.462 0.103,0.668c0,0.753 -0.257,1.472 -0.77,2.157c-0.514,0.685 -1.164,1.232 -1.951,1.643c-0.787,0.411 -1.592,0.616 -2.414,0.616Zm-31.223,-40.672l13.249,0c4.245,0 7.669,-1.027 10.271,-3.081c2.602,-2.054 3.903,-5.512 3.903,-10.373c0,-4.861 -1.301,-8.302 -3.903,-10.322c-2.602,-2.02 -6.025,-3.03 -10.271,-3.03l-13.249,0l0,26.806Zm63.575,40.466c-1.096,0 -2.088,-0.257 -2.978,-0.77c-0.89,-0.514 -1.335,-1.284 -1.335,-2.311l0,-63.986l-16.638,0c-0.89,0 -1.609,-0.411 -2.157,-1.232c-0.548,-0.822 -0.822,-1.78 -0.822,-2.876c0,-0.959 0.24,-1.849 0.719,-2.67c0.479,-0.822 1.232,-1.232 2.26,-1.232l41.904,0c1.027,0 1.78,0.411 2.26,1.232c0.479,0.822 0.719,1.712 0.719,2.67c0,1.027 -0.24,1.969 -0.719,2.824c-0.479,0.856 -1.232,1.284 -2.26,1.284l-16.638,0l0,63.986c0,1.027 -0.445,1.797 -1.335,2.311c-0.89,0.514 -1.883,0.77 -2.978,0.77Zm36.769,0c-1.027,0 -2.003,-0.257 -2.927,-0.77c-0.924,-0.514 -1.387,-1.284 -1.387,-2.311l0,-69.019c0,-1.027 0.462,-1.78 1.387,-2.26c0.924,-0.479 1.9,-0.719 2.927,-0.719c1.096,0 2.088,0.24 2.978,0.719c0.89,0.479 1.335,1.232 1.335,2.26l0,69.019c0,1.027 -0.445,1.797 -1.335,2.311c-0.89,0.514 -1.883,0.77 -2.978,0.77Zm-159.18,47.688c-1.77,0 -3.374,-0.332 -4.811,-0.995c-1.438,-0.664 -2.576,-1.714 -3.413,-3.152c-0.837,-1.438 -1.256,-3.358 -1.256,-5.759l0,-15.122c0,-2.402 0.419,-4.322 1.256,-5.759c0.837,-1.438 1.975,-2.489 3.413,-3.152c1.438,-0.664 3.042,-0.995 4.811,-0.995c1.991,0 3.697,0.348 5.12,1.043c1.422,0.695 2.52,1.651 3.295,2.868c0.774,1.217 1.161,2.583 1.161,4.1c0,0.442 -0.111,0.758 -0.332,0.948c-0.221,0.19 -0.506,0.284 -0.853,0.284c-0.316,0 -0.585,-0.079 -0.806,-0.237c-0.221,-0.158 -0.348,-0.411 -0.379,-0.758c-0.158,-1.327 -0.537,-2.433 -1.138,-3.318c-0.6,-0.885 -1.414,-1.549 -2.441,-1.991c-1.027,-0.442 -2.236,-0.664 -3.626,-0.664c-2.244,0 -3.998,0.624 -5.262,1.872c-1.264,1.248 -1.896,3.168 -1.896,5.759l0,15.122c0,2.591 0.632,4.511 1.896,5.759c1.264,1.248 3.018,1.872 5.262,1.872c2.244,0 4.006,-0.624 5.285,-1.872c1.28,-1.248 1.92,-3.168 1.92,-5.759l0,-6.399l-6.968,0c-0.316,0 -0.561,-0.111 -0.735,-0.332c-0.174,-0.221 -0.261,-0.474 -0.261,-0.758c0,-0.284 0.087,-0.537 0.261,-0.758c0.174,-0.221 0.419,-0.332 0.735,-0.332l8.39,0c0.284,0 0.514,0.103 0.687,0.308c0.174,0.205 0.261,0.45 0.261,0.735l0,7.537c0,2.402 -0.419,4.322 -1.256,5.759c-0.837,1.438 -1.983,2.489 -3.437,3.152c-1.454,0.664 -3.081,0.995 -4.883,0.995Zm34.13,-0.237c-0.348,0 -0.64,-0.198 -0.877,-0.593l-0.64,-1.067l-7.442,-14.553l-6.542,0l0,15.169c0,0.316 -0.126,0.561 -0.379,0.735c-0.253,0.174 -0.521,0.261 -0.806,0.261c-0.316,0 -0.593,-0.087 -0.83,-0.261c-0.237,-0.174 -0.356,-0.419 -0.356,-0.735l0,-32.708c0,-0.253 0.087,-0.466 0.261,-0.64c0.174,-0.174 0.419,-0.277 0.735,-0.308l8.153,0c1.77,0 3.413,0.277 4.93,0.83c1.517,0.553 2.734,1.501 3.65,2.844c0.916,1.343 1.375,3.184 1.375,5.522c0,1.991 -0.34,3.618 -1.019,4.883c-0.679,1.264 -1.596,2.22 -2.749,2.868c-1.153,0.648 -2.457,1.082 -3.911,1.304l7.584,14.695c0.063,0.095 0.103,0.19 0.119,0.284c0.016,0.095 0.024,0.174 0.024,0.237c0,0.221 -0.063,0.419 -0.19,0.593c-0.126,0.174 -0.284,0.324 -0.474,0.45c-0.19,0.126 -0.395,0.19 -0.616,0.19Zm-15.501,-18.392l6.779,0c2.244,0 4.069,-0.545 5.475,-1.635c1.406,-1.09 2.109,-2.899 2.109,-5.428c0,-2.497 -0.703,-4.282 -2.109,-5.357c-1.406,-1.074 -3.231,-1.612 -5.475,-1.612l-6.779,0l0,14.031Zm20.763,18.345c-0.19,0 -0.387,-0.047 -0.593,-0.142c-0.205,-0.095 -0.371,-0.213 -0.498,-0.356c-0.126,-0.142 -0.19,-0.324 -0.19,-0.545c0,-0.095 0.016,-0.19 0.047,-0.284l10.097,-32.756c0.095,-0.316 0.269,-0.537 0.521,-0.664c0.253,-0.126 0.521,-0.19 0.806,-0.19c0.284,0 0.561,0.071 0.83,0.213c0.269,0.142 0.45,0.356 0.545,0.64l10.002,32.756c0.032,0.095 0.047,0.19 0.047,0.284c0,0.158 -0.071,0.324 -0.213,0.498c-0.142,0.174 -0.316,0.308 -0.521,0.403c-0.205,0.095 -0.419,0.142 -0.64,0.142c-0.221,0 -0.419,-0.055 -0.593,-0.166c-0.174,-0.111 -0.292,-0.292 -0.356,-0.545l-2.323,-7.537l-13.652,0l-2.275,7.537c-0.063,0.253 -0.19,0.435 -0.379,0.545c-0.19,0.111 -0.411,0.166 -0.664,0.166Zm3.982,-10.429l12.325,0l-6.115,-20.241l-6.21,20.241Zm23.702,10.429c-0.316,0 -0.593,-0.079 -0.83,-0.237c-0.237,-0.158 -0.356,-0.411 -0.356,-0.758l0,-32.661c0,-0.316 0.111,-0.561 0.332,-0.735c0.221,-0.174 0.474,-0.261 0.758,-0.261l16.828,0c0.348,0 0.6,0.119 0.758,0.356c0.158,0.237 0.237,0.482 0.237,0.735c0,0.284 -0.087,0.553 -0.261,0.806c-0.174,0.253 -0.419,0.379 -0.735,0.379l-15.548,0l0,13.937l7.537,0c0.284,0 0.514,0.111 0.687,0.332c0.174,0.221 0.261,0.49 0.261,0.806c0,0.253 -0.079,0.49 -0.237,0.711c-0.158,0.221 -0.395,0.332 -0.711,0.332l-7.537,0l0,15.264c0,0.348 -0.126,0.6 -0.379,0.758c-0.253,0.158 -0.521,0.237 -0.806,0.237Zm23.322,0c-0.316,0 -0.593,-0.087 -0.83,-0.261c-0.237,-0.174 -0.356,-0.419 -0.356,-0.735l0,-32.708c0,-0.316 0.119,-0.553 0.356,-0.711c0.237,-0.158 0.514,-0.237 0.83,-0.237c0.284,0 0.553,0.079 0.806,0.237c0.253,0.158 0.379,0.395 0.379,0.711l0,32.708c0,0.316 -0.126,0.561 -0.379,0.735c-0.253,0.174 -0.521,0.261 -0.806,0.261Zm17.918,0.284c-1.738,0 -3.334,-0.332 -4.788,-0.995c-1.454,-0.664 -2.607,-1.714 -3.46,-3.152c-0.853,-1.438 -1.28,-3.358 -1.28,-5.759l0,-15.122c0,-2.402 0.442,-4.322 1.327,-5.759c0.885,-1.438 2.054,-2.489 3.508,-3.152c1.454,-0.664 3.05,-0.995 4.788,-0.995c2.054,0 3.776,0.363 5.167,1.09c1.39,0.727 2.449,1.675 3.176,2.844c0.727,1.169 1.09,2.418 1.09,3.745c0,0.632 -0.095,1.051 -0.284,1.256c-0.19,0.205 -0.49,0.308 -0.901,0.308c-0.474,0 -0.79,-0.111 -0.948,-0.332c-0.158,-0.221 -0.237,-0.442 -0.237,-0.664c-0.032,-0.537 -0.142,-1.146 -0.332,-1.825c-0.19,-0.679 -0.529,-1.335 -1.019,-1.967c-0.49,-0.632 -1.193,-1.153 -2.109,-1.564c-0.916,-0.411 -2.117,-0.616 -3.603,-0.616c-2.37,0 -4.179,0.624 -5.428,1.872c-1.248,1.248 -1.872,3.168 -1.872,5.759l0,15.122c0,2.623 0.632,4.551 1.896,5.783c1.264,1.232 3.129,1.849 5.594,1.849c1.485,0 2.67,-0.198 3.555,-0.593c0.885,-0.395 1.549,-0.901 1.991,-1.517c0.442,-0.616 0.751,-1.28 0.924,-1.991c0.174,-0.711 0.308,-1.351 0.403,-1.92c0.032,-0.284 0.134,-0.521 0.308,-0.711c0.174,-0.19 0.466,-0.284 0.877,-0.284c0.411,0 0.711,0.111 0.901,0.332c0.19,0.221 0.284,0.648 0.284,1.28c0,1.296 -0.363,2.536 -1.09,3.721c-0.727,1.185 -1.801,2.141 -3.223,2.868c-1.422,0.727 -3.16,1.09 -5.214,1.09Zm16.544,-0.284c-0.316,0 -0.593,-0.087 -0.83,-0.261c-0.237,-0.174 -0.356,-0.419 -0.356,-0.735l0,-32.708c0,-0.316 0.119,-0.553 0.356,-0.711c0.237,-0.158 0.514,-0.237 0.83,-0.237c0.284,0 0.553,0.079 0.806,0.237c0.253,0.158 0.379,0.395 0.379,0.711l0,14.648l14.458,0l0,-14.648c0,-0.316 0.119,-0.553 0.356,-0.711c0.237,-0.158 0.514,-0.237 0.83,-0.237c0.284,0 0.553,0.079 0.806,0.237c0.253,0.158 0.379,0.395 0.379,0.711l0,32.708c0,0.316 -0.126,0.561 -0.379,0.735c-0.253,0.174 -0.521,0.261 -0.806,0.261c-0.316,0 -0.593,-0.087 -0.83,-0.261c-0.237,-0.174 -0.356,-0.419 -0.356,-0.735l0,-15.88l-14.458,0l0,15.88c0,0.316 -0.126,0.561 -0.379,0.735c-0.253,0.174 -0.521,0.261 -0.806,0.261Zm26.641,0c-0.284,0 -0.537,-0.087 -0.758,-0.261c-0.221,-0.174 -0.332,-0.419 -0.332,-0.735l0,-32.661c0,-0.316 0.111,-0.561 0.332,-0.735c0.221,-0.174 0.474,-0.261 0.758,-0.261l16.876,0c0.348,0 0.6,0.119 0.758,0.356c0.158,0.237 0.237,0.482 0.237,0.735c0,0.284 -0.087,0.553 -0.261,0.806c-0.174,0.253 -0.419,0.379 -0.735,0.379l-15.596,0l0,13.937l7.49,0c0.316,0 0.561,0.111 0.735,0.332c0.174,0.221 0.261,0.49 0.261,0.806c0,0.253 -0.079,0.49 -0.237,0.711c-0.158,0.221 -0.411,0.332 -0.758,0.332l-7.49,0l0,13.984l15.596,0c0.316,0 0.561,0.119 0.735,0.356c0.174,0.237 0.261,0.514 0.261,0.83c0,0.253 -0.079,0.498 -0.237,0.735c-0.158,0.237 -0.411,0.356 -0.758,0.356l-16.876,0Z" style="fill:#988e00;"/><path d="M57.021,214.055c-0.548,0 -1.032,-0.137 -1.454,-0.411c-0.421,-0.274 -0.632,-0.685 -0.632,-1.232l0,-43.042c0,-0.421 0.158,-0.769 0.474,-1.043c0.316,-0.274 0.748,-0.432 1.296,-0.474l11.63,0c2.444,0 4.656,0.442 6.636,1.327c1.98,0.885 3.539,2.307 4.677,4.266c1.138,1.959 1.707,4.561 1.707,7.806l0,0.632c0,3.287 -0.579,5.91 -1.738,7.869c-1.159,1.959 -2.739,3.381 -4.74,4.266c-2.001,0.885 -4.224,1.327 -6.668,1.327l-9.101,0l0,17.065c0,0.548 -0.221,0.959 -0.664,1.232c-0.442,0.274 -0.916,0.411 -1.422,0.411Zm2.086,-22.311l9.101,0c2.823,0 5.025,-0.79 6.605,-2.37c1.58,-1.58 2.37,-4.013 2.37,-7.3l0,-0.758c0,-3.287 -0.79,-5.709 -2.37,-7.268c-1.58,-1.559 -3.782,-2.339 -6.605,-2.339l-9.101,0l0,20.036Zm27.367,22.311c-0.337,0 -0.695,-0.074 -1.074,-0.221c-0.379,-0.147 -0.695,-0.358 -0.948,-0.632c-0.253,-0.274 -0.379,-0.579 -0.379,-0.916c0,-0.169 0.021,-0.316 0.063,-0.442l13.21,-42.916c0.169,-0.506 0.485,-0.874 0.948,-1.106c0.463,-0.232 0.969,-0.348 1.517,-0.348c0.59,0 1.127,0.126 1.612,0.379c0.485,0.253 0.79,0.611 0.916,1.074l13.146,42.916c0.042,0.126 0.063,0.253 0.063,0.379c0,0.337 -0.126,0.643 -0.379,0.916c-0.253,0.274 -0.569,0.495 -0.948,0.664c-0.379,0.169 -0.78,0.253 -1.201,0.253c-0.337,0 -0.653,-0.084 -0.948,-0.253c-0.295,-0.169 -0.485,-0.442 -0.569,-0.822l-2.971,-9.733l-17.444,0l-2.907,9.733c-0.126,0.379 -0.337,0.653 -0.632,0.822c-0.295,0.169 -0.653,0.253 -1.074,0.253Zm5.625,-14.411l15.359,0l-7.648,-25.471l-7.711,25.471Zm55.62,14.474c-0.463,0 -0.885,-0.232 -1.264,-0.695c-0.379,-0.463 -0.674,-0.948 -0.885,-1.454l-9.797,-18.961l-8.027,0l0,19.404c0,0.548 -0.221,0.959 -0.664,1.232c-0.442,0.274 -0.916,0.411 -1.422,0.411c-0.548,0 -1.032,-0.137 -1.454,-0.411c-0.421,-0.274 -0.632,-0.685 -0.632,-1.232l0,-43.042c0,-0.421 0.147,-0.769 0.442,-1.043c0.295,-0.274 0.674,-0.432 1.138,-0.474l11.187,0c2.486,0 4.761,0.379 6.826,1.138c2.065,0.758 3.719,2.033 4.962,3.824c1.243,1.791 1.865,4.287 1.865,7.49c0,2.612 -0.432,4.761 -1.296,6.447c-0.864,1.685 -2.044,2.981 -3.539,3.887c-1.496,0.906 -3.171,1.527 -5.025,1.865l9.733,18.708c0.126,0.126 0.2,0.263 0.221,0.411c0.021,0.147 0.032,0.284 0.032,0.411c0,0.337 -0.116,0.674 -0.348,1.011c-0.232,0.337 -0.537,0.6 -0.916,0.79c-0.379,0.19 -0.758,0.284 -1.138,0.284Zm-19.973,-24.713l8.596,0c2.823,0 5.109,-0.685 6.858,-2.054c1.749,-1.369 2.623,-3.655 2.623,-6.858c0,-3.16 -0.874,-5.414 -2.623,-6.763c-1.749,-1.348 -4.035,-2.023 -6.858,-2.023l-8.596,0l0,17.697Zm33.245,24.65c-0.548,0 -1.032,-0.137 -1.454,-0.411c-0.421,-0.274 -0.632,-0.685 -0.632,-1.232l0,-42.536c0,-0.758 0.211,-1.285 0.632,-1.58c0.421,-0.295 0.906,-0.442 1.454,-0.442c0.506,0 0.959,0.137 1.359,0.411c0.4,0.274 0.769,0.632 1.106,1.074c0.337,0.442 0.632,0.916 0.885,1.422c0,0 7.247,20.984 10.871,20.984c3.624,0 10.871,-20.984 10.871,-20.984c0.295,-0.506 0.6,-0.98 0.916,-1.422c0.316,-0.442 0.685,-0.801 1.106,-1.074c0.421,-0.274 0.864,-0.411 1.327,-0.411c0.59,0 1.085,0.147 1.485,0.442c0.4,0.295 0.6,0.822 0.6,1.58l0,42.536c0,0.548 -0.211,0.959 -0.632,1.232c-0.421,0.274 -0.906,0.411 -1.454,0.411c-0.506,0 -0.98,-0.137 -1.422,-0.411c-0.442,-0.274 -0.664,-0.685 -0.664,-1.232l0,-35.521l-10.492,19.846c-0.253,0.463 -0.527,0.801 -0.822,1.011c-0.295,0.211 -0.59,0.316 -0.885,0.316c-0.253,0 -0.527,-0.095 -0.822,-0.284c-0.295,-0.19 -0.569,-0.537 -0.822,-1.043l-10.429,-20.036l0,35.71c0,0.548 -0.221,0.959 -0.664,1.232c-0.442,0.274 -0.916,0.411 -1.422,0.411Zm40.956,0c-0.337,0 -0.695,-0.074 -1.074,-0.221c-0.379,-0.147 -0.695,-0.358 -0.948,-0.632c-0.253,-0.274 -0.379,-0.579 -0.379,-0.916c0,-0.169 0.021,-0.316 0.063,-0.442l13.21,-42.916c0.169,-0.506 0.485,-0.874 0.948,-1.106c0.463,-0.232 0.969,-0.348 1.517,-0.348c0.59,0 1.127,0.126 1.612,0.379c0.485,0.253 0.79,0.611 0.916,1.074l13.146,42.916c0.042,0.126 0.063,0.253 0.063,0.379c0,0.337 -0.126,0.643 -0.379,0.916c-0.253,0.274 -0.569,0.495 -0.948,0.664c-0.379,0.169 -0.78,0.253 -1.201,0.253c-0.337,0 -0.653,-0.084 -0.948,-0.253c-0.295,-0.169 -0.485,-0.442 -0.569,-0.822l-2.971,-9.733l-17.444,0l-2.907,9.733c-0.126,0.379 -0.337,0.653 -0.632,0.822c-0.295,0.169 -0.653,0.253 -1.074,0.253Zm5.625,-14.411l15.359,0l-7.648,-25.471l-7.711,25.471Z" style="fill:#1d1d1b;"/></g></g></svg>