<?xml version="1.0" encoding="UTF-8" standalone="no"?>
<!DOCTYPE svg PUBLIC "-//W3C//DTD SVG 1.1//EN" "http://www.w3.org/Graphics/SVG/1.1/DTD/svg11.dtd">
<svg width="100%" height="100%" viewBox="0 0 477 463" version="1.1" xmlns="http://www.w3.org/2000/svg" xmlns:xlink="http://www.w3.org/1999/xlink" xml:space="preserve" xmlns:serif="http://www.serif.com/" style="fill-rule:evenodd;clip-rule:evenodd;stroke-linejoin:round;stroke-miterlimit:2;">
    <g transform="matrix(1,0,0,1,-103.165417,-65.884583)">
        <g id="logo-formesa" transform="matrix(4.166667,0,0,4.166667,0,0)">
            <g transform="matrix(-1,0,0,1,81.8081,92.2971)">
                <path d="M0,-76.109C-20.973,-76.109 -38.033,-59.001 -38.033,-38.033C-38.033,-17.094 -20.973,0 0,0C20.928,0 38.033,-17.094 38.033,-38.033C38.033,-59.001 20.928,-76.109 0,-76.109" style="fill:white;fill-rule:nonzero;"/>
            </g>
            <g transform="matrix(1,0,0,1,81.8081,16.5573)">
                <path d="M27.168,10.533C34.119,17.524 38.4,27.128 38.4,37.702C38.4,58.864 21.162,76.118 0,76.118C-10.579,76.118 -20.178,71.79 -27.133,64.84C-34.073,57.885 -38.4,48.286 -38.4,37.702C-38.4,16.545 -21.163,-0.745 0,-0.745C10.578,-0.745 20.183,3.59 27.168,10.533ZM0,75.373C20.744,75.373 37.712,58.44 37.712,37.702C37.712,27.312 33.476,17.902 26.612,11.094C19.81,4.239 10.395,-0.002 0,-0.002C-20.744,-0.002 -37.666,16.922 -37.666,37.702C-37.666,48.056 -33.42,57.466 -26.607,64.329C-19.76,71.138 -10.35,75.373 0,75.373ZM25.795,11.84C32.414,18.515 36.564,27.64 36.564,37.707C36.564,57.839 20.106,74.25 -0.025,74.25C-10.094,74.25 -19.228,70.159 -25.847,63.535C-32.466,56.911 -36.564,47.776 -36.564,37.707C-36.564,17.57 -20.158,1.121 -0.025,1.121C10.042,1.121 19.177,5.219 25.795,11.84ZM-0.025,73.515C19.698,73.515 35.814,57.431 35.814,37.707C35.814,27.827 31.767,18.872 25.281,12.401C18.805,5.874 9.855,1.868 -0.025,1.868C-19.739,1.868 -35.819,17.943 -35.819,37.707C-35.819,47.54 -31.812,56.493 -25.332,63.024C-18.857,69.504 -9.859,73.515 -0.025,73.515Z" style="fill:rgb(19,35,57);"/>
            </g>
            <g transform="matrix(1,0,0,1,31.7827,105.0788)">
                <path d="M0,-0.461L0,8.063C0,8.743 -0.187,9.31 -0.562,9.763C-0.938,10.216 -1.456,10.442 -2.117,10.442C-2.773,10.442 -3.294,10.213 -3.682,9.752C-4.068,9.292 -4.262,8.729 -4.262,8.063L-4.262,-0.461L-4.871,-0.461C-5.479,-0.461 -5.991,-0.632 -6.404,-0.974C-6.817,-1.316 -7.023,-1.794 -7.023,-2.407C-7.023,-2.998 -6.817,-3.464 -6.404,-3.806C-5.991,-4.149 -5.479,-4.319 -4.871,-4.319L-4.262,-4.319L-4.262,-6.437C-4.262,-7.824 -3.79,-8.936 -2.846,-9.771C-2.001,-10.526 -0.996,-10.903 0.17,-10.903C1.95,-10.903 2.839,-10.267 2.839,-8.992C2.839,-8.468 2.693,-8.03 2.4,-7.679C2.108,-7.327 1.704,-7.135 1.189,-7.102C0.765,-7.073 0.46,-6.98 0.276,-6.818C0.092,-6.658 0,-6.368 0,-5.948L0,-4.319L1.189,-4.319C1.799,-4.319 2.309,-4.15 2.719,-3.814C3.13,-3.476 3.335,-3.007 3.335,-2.407C3.335,-1.809 3.127,-1.334 2.712,-0.984C2.296,-0.636 1.789,-0.461 1.189,-0.461L0,-0.461ZM2.636,2.902C2.636,1.892 2.795,0.923 3.113,-0.004C3.432,-0.932 3.91,-1.743 4.547,-2.437C5.217,-3.164 6.012,-3.732 6.93,-4.143C7.848,-4.553 8.795,-4.759 9.773,-4.759C10.736,-4.759 11.682,-4.552 12.612,-4.139C13.541,-3.726 14.334,-3.159 14.99,-2.437C15.628,-1.733 16.101,-0.923 16.41,-0.008C16.719,0.908 16.874,1.877 16.874,2.902C16.874,3.907 16.719,4.864 16.41,5.773C16.101,6.681 15.628,7.492 14.99,8.205C14.339,8.927 13.552,9.495 12.629,9.908C11.706,10.321 10.764,10.527 9.801,10.527C8.814,10.527 7.857,10.322 6.93,9.911C6.002,9.501 5.208,8.932 4.547,8.205C3.273,6.85 2.636,5.083 2.636,2.902ZM6.841,2.898C6.841,3.475 6.951,4.046 7.171,4.614C7.39,5.18 7.716,5.646 8.148,6.009C8.579,6.374 9.091,6.555 9.68,6.555C10.299,6.555 10.836,6.376 11.291,6.017C11.747,5.658 12.095,5.195 12.335,4.627C12.576,4.061 12.696,3.484 12.696,2.898C12.696,2.308 12.577,1.725 12.339,1.152C12.101,0.578 11.753,0.111 11.295,-0.248C10.837,-0.607 10.299,-0.787 9.68,-0.787C8.793,-0.787 8.098,-0.406 7.595,0.358C7.092,1.121 6.841,1.967 6.841,2.898ZM21.717,-3.13C22.737,-4.196 23.693,-4.73 24.584,-4.73C25.198,-4.73 25.724,-4.534 26.163,-4.143C26.602,-3.751 26.821,-3.26 26.821,-2.67C26.821,-2.052 26.644,-1.608 26.287,-1.339C25.931,-1.069 25.382,-0.817 24.641,-0.581C23.603,-0.232 22.85,0.127 22.383,0.495C21.939,0.845 21.717,1.425 21.717,2.237L21.717,8.063C21.717,8.743 21.527,9.309 21.147,9.763C20.767,10.216 20.242,10.442 19.571,10.442C18.925,10.442 18.41,10.213 18.029,9.752C17.646,9.292 17.455,8.729 17.455,8.063L17.455,-2.202C17.455,-2.972 17.627,-3.543 17.972,-3.916C18.397,-4.398 18.908,-4.638 19.508,-4.638C20.504,-4.638 21.24,-4.136 21.717,-3.13ZM24.962,8.354C24.962,7.716 25.197,7.166 25.667,6.701C26.136,6.236 26.694,6.002 27.341,6.002C27.756,6.002 28.145,6.109 28.505,6.322C28.867,6.534 29.154,6.823 29.369,7.189C29.584,7.554 29.691,7.943 29.691,8.354C29.691,9 29.462,9.558 29.001,10.028C28.541,10.498 27.987,10.733 27.341,10.733C26.69,10.733 26.13,10.499 25.663,10.032C25.196,9.564 24.962,9.004 24.962,8.354ZM35.435,-3.253C36.511,-4.237 37.778,-4.73 39.237,-4.73C40.341,-4.73 41.288,-4.497 42.076,-4.03C42.5,-3.795 42.897,-3.408 43.265,-2.871C44.016,-3.488 44.748,-3.953 45.46,-4.264C46.173,-4.574 46.959,-4.73 47.818,-4.73C48.729,-4.73 49.573,-4.518 50.349,-4.093C51.125,-3.668 51.739,-3.08 52.19,-2.33C52.641,-1.579 52.866,-0.744 52.866,0.177L52.866,8.063C52.866,8.753 52.68,9.321 52.31,9.77C51.94,10.219 51.419,10.442 50.748,10.442C50.31,10.442 49.93,10.335 49.609,10.12C49.288,9.905 49.045,9.616 48.879,9.252C48.715,8.889 48.632,8.492 48.632,8.062L48.632,1.127C48.632,0.466 48.422,-0.067 48.002,-0.471C47.582,-0.875 47.039,-1.077 46.373,-1.077C45.746,-1.077 45.226,-0.864 44.812,-0.44C44.399,-0.014 44.193,0.508 44.193,1.127L44.193,8.062C44.193,8.747 44.004,9.315 43.626,9.766C43.249,10.217 42.732,10.442 42.076,10.442C41.42,10.442 40.898,10.213 40.511,9.752C40.124,9.291 39.931,8.728 39.931,8.062L39.931,1.559C39.931,0.784 39.75,0.151 39.389,-0.34C39.028,-0.831 38.475,-1.077 37.729,-1.077C37.115,-1.077 36.595,-0.865 36.167,-0.442C35.74,-0.02 35.527,0.503 35.527,1.127L35.527,8.062C35.527,8.742 35.337,9.31 34.957,9.763C34.577,10.216 34.052,10.442 33.381,10.442C32.735,10.442 32.22,10.213 31.838,9.752C31.456,9.292 31.265,8.729 31.265,8.063L31.265,-2.202C31.265,-2.84 31.439,-3.398 31.789,-3.877C32.138,-4.356 32.619,-4.609 33.233,-4.638C34.054,-4.638 34.788,-4.177 35.435,-3.253ZM58.028,4.296C58.326,5.149 58.75,5.765 59.303,6.146C59.898,6.593 60.566,6.817 61.307,6.817C62.137,6.817 62.94,6.624 63.713,6.238L64.932,5.631C65.135,5.528 65.406,5.459 65.746,5.426C66.048,5.426 66.343,5.506 66.631,5.666C66.918,5.828 67.148,6.044 67.317,6.319C67.487,6.591 67.572,6.874 67.572,7.166C67.572,7.963 67.001,8.688 65.859,9.338C64.467,10.131 62.871,10.527 61.072,10.527C59.893,10.527 58.777,10.295 57.728,9.833C56.678,9.371 55.781,8.694 55.041,7.801C53.979,6.512 53.447,4.849 53.447,2.81C53.447,1.451 53.77,0.19 54.414,-0.971C55.059,-2.132 55.943,-3.053 57.068,-3.736C58.195,-4.418 59.433,-4.759 60.783,-4.759C62.076,-4.759 63.263,-4.438 64.344,-3.795C65.425,-3.153 66.272,-2.284 66.885,-1.188C67.499,-0.091 67.807,1.089 67.807,2.355C67.807,3.031 67.666,3.523 67.385,3.832C67.104,4.142 66.635,4.296 65.979,4.296L58.028,4.296ZM63.629,1.394C63.176,-0.385 62.208,-1.275 60.727,-1.275C59.418,-1.275 58.473,-0.385 57.887,1.394L63.629,1.394ZM69.365,8.354C69.365,7.716 69.599,7.166 70.069,6.701C70.539,6.236 71.097,6.002 71.744,6.002C72.159,6.002 72.547,6.109 72.908,6.322C73.269,6.534 73.556,6.823 73.771,7.189C73.986,7.554 74.094,7.943 74.094,8.354C74.094,9 73.864,9.558 73.404,10.028C72.943,10.498 72.39,10.733 71.744,10.733C71.092,10.733 70.533,10.499 70.065,10.032C69.598,9.564 69.365,9.004 69.365,8.354ZM75.604,-0.001C75.604,-1.214 76.022,-2.237 76.858,-3.073C77.919,-4.196 79.282,-4.759 80.944,-4.759C82.44,-4.759 83.698,-4.409 84.717,-3.71C85.529,-3.135 85.934,-2.517 85.934,-1.855C85.934,-1.384 85.763,-0.951 85.421,-0.56C85.079,-0.168 84.661,0.028 84.165,0.028C83.895,0.004 83.334,-0.189 82.478,-0.553C81.775,-0.841 81.196,-0.984 80.737,-0.984C80.086,-0.942 79.748,-0.711 79.725,-0.291C79.725,-0.026 79.853,0.205 80.112,0.403C80.369,0.602 80.686,0.774 81.062,0.924C81.441,1.072 81.739,1.188 81.956,1.274C83.513,1.864 84.596,2.473 85.206,3.101C85.904,3.87 86.252,4.722 86.252,5.656C86.252,6.341 86.116,6.999 85.838,7.632C85.562,8.265 85.167,8.805 84.653,9.253C83.671,10.103 82.366,10.527 80.737,10.527C80.043,10.527 79.264,10.42 78.397,10.205C77.532,9.99 76.778,9.648 76.135,9.179C75.494,8.709 75.172,8.115 75.172,7.398C75.172,6.954 75.35,6.533 75.704,6.135C76.056,5.735 76.46,5.536 76.915,5.536C77.094,5.536 77.284,5.56 77.484,5.606C77.685,5.654 77.864,5.71 78.022,5.773C78.18,5.837 78.365,5.919 78.575,6.018C78.785,6.116 78.975,6.209 79.145,6.294C79.834,6.601 80.394,6.754 80.831,6.754C81.13,6.754 81.42,6.67 81.694,6.503C81.966,6.335 82.103,6.109 82.103,5.826C82.103,5.478 81.969,5.226 81.7,5.072C81.432,4.919 81.014,4.736 80.448,4.523L79.293,4.092C78.114,3.634 77.204,3.102 76.564,2.495C75.924,1.889 75.604,1.057 75.604,-0.001ZM96.576,8.758C96.06,9.381 95.533,9.831 94.994,10.111C94.453,10.389 93.791,10.528 93.008,10.528C91.465,10.528 90.072,9.988 88.83,8.907C87.15,7.411 86.31,5.4 86.31,2.874C86.31,0.542 87.052,-1.352 88.539,-2.811C89.838,-4.109 91.299,-4.758 92.922,-4.758C93.701,-4.758 94.365,-4.626 94.912,-4.362C95.459,-4.098 96.023,-3.67 96.603,-3.076C97.039,-4.117 97.724,-4.637 98.664,-4.637C99.273,-4.637 99.787,-4.427 100.207,-4.007C100.629,-3.588 100.838,-3.073 100.838,-2.464L100.838,7.915C100.838,8.614 100.638,9.21 100.24,9.703C99.842,10.197 99.306,10.443 98.636,10.443C97.658,10.443 96.972,9.881 96.576,8.758ZM90.572,2.807C90.572,3.809 90.806,4.684 91.277,5.433C91.746,6.182 92.447,6.556 93.383,6.556C94.01,6.556 94.558,6.388 95.029,6.053C95.498,5.717 95.855,5.278 96.097,4.735C96.342,4.192 96.463,3.618 96.463,3.012C96.463,1.911 96.211,1.003 95.705,0.287C95.199,-0.428 94.426,-0.786 93.383,-0.786C92.504,-0.786 91.816,-0.417 91.318,0.324C90.82,1.063 90.572,1.89 90.572,2.807ZM102.404,8.354C102.404,7.716 102.638,7.166 103.109,6.701C103.578,6.236 104.136,6.002 104.783,6.002C105.199,6.002 105.586,6.109 105.947,6.322C106.308,6.534 106.597,6.823 106.812,7.189C107.027,7.554 107.134,7.943 107.134,8.354C107.134,9 106.904,9.558 106.443,10.028C105.982,10.498 105.429,10.733 104.783,10.733C104.133,10.733 103.572,10.499 103.105,10.032C102.638,9.564 102.404,9.004 102.404,8.354Z" style="fill:rgb(19,35,57);"/>
            </g>
            <g transform="matrix(1,0,0,1,26.7012,117.9807)">
                <path d="M0,8.684L-0.829,8.684L-0.829,4.581L-1.285,4.581L-1.285,3.815L-0.829,3.815L-0.829,1.876C-0.829,1.472 -0.829,0.965 -0.612,0.612C-0.342,0.177 0.145,0 0.643,0C0.839,0 1.036,0.042 1.233,0.104L1.233,0.945C1.046,0.882 0.881,0.83 0.673,0.83C0,0.83 0,1.307 0,2.167L0,3.815L1.233,3.815L1.233,4.581L0,4.581L0,8.684ZM1.501,6.259C1.501,4.829 2.631,3.68 4.06,3.68C5.49,3.68 6.62,4.829 6.62,6.259C6.62,7.689 5.48,8.818 4.06,8.818C2.642,8.818 1.501,7.689 1.501,6.259ZM2.331,6.249C2.331,7.243 3.036,8.052 4.06,8.052C5.086,8.052 5.791,7.243 5.791,6.249C5.791,5.264 5.086,4.445 4.06,4.445C3.036,4.445 2.331,5.264 2.331,6.249ZM8.547,4.342L8.567,4.342C8.858,3.959 9.106,3.68 9.645,3.68C9.924,3.68 10.152,3.773 10.391,3.907L9.997,4.664C9.831,4.549 9.717,4.446 9.5,4.446C8.588,4.446 8.547,5.616 8.547,6.249L8.547,8.684L7.717,8.684L7.717,3.815L8.547,3.815L8.547,4.342ZM12.142,4.405L12.163,4.405C12.504,3.938 12.95,3.68 13.551,3.68C14.898,3.68 15.209,4.654 15.209,5.794L15.209,8.684L14.38,8.684L14.38,5.939C14.38,5.15 14.317,4.446 13.354,4.446C12.215,4.446 12.142,5.504 12.142,6.373L12.142,8.684L11.313,8.684L11.313,3.815L12.142,3.815L12.142,4.405ZM17.767,8.684L16.938,8.684L16.938,3.815L17.767,3.815L17.767,8.684ZM17.943,1.981C17.943,2.312 17.674,2.57 17.352,2.57C17.031,2.57 16.762,2.312 16.762,1.981C16.762,1.659 17.031,1.39 17.352,1.39C17.674,1.39 17.943,1.659 17.943,1.981ZM20.367,8.684L19.538,8.684L19.538,4.581L19.03,4.581L19.03,3.815L19.538,3.815L19.538,2.063L20.367,2.063L20.367,3.815L21.237,3.815L21.237,4.581L20.367,4.581L20.367,8.684ZM22.75,6.53C22.75,7.348 22.843,8.052 23.848,8.052C24.853,8.052 24.946,7.348 24.946,6.53L24.946,3.815L25.775,3.815L25.775,6.622C25.775,7.918 25.289,8.819 23.848,8.819C22.408,8.819 21.921,7.918 21.921,6.622L21.921,3.815L22.75,3.815L22.75,6.53ZM28.075,4.342L28.096,4.342C28.386,3.959 28.634,3.68 29.173,3.68C29.452,3.68 29.681,3.773 29.919,3.907L29.526,4.664C29.359,4.549 29.245,4.446 29.029,4.446C28.117,4.446 28.075,5.616 28.075,6.249L28.075,8.684L27.246,8.684L27.246,3.815L28.075,3.815L28.075,4.342ZM31.172,6.425C31.183,7.326 31.824,8.052 32.767,8.052C33.472,8.052 33.928,7.627 34.249,7.046L34.954,7.45C34.488,8.322 33.7,8.819 32.706,8.819C31.255,8.819 30.322,7.71 30.322,6.312C30.322,4.871 31.162,3.68 32.685,3.68C34.249,3.68 35.078,4.975 34.996,6.425L31.172,6.425ZM34.125,5.721C34.011,5.016 33.42,4.446 32.696,4.446C31.98,4.446 31.317,5.016 31.214,5.721L34.125,5.721ZM40.154,4.342L40.175,4.342C40.434,3.938 40.848,3.68 41.345,3.68C41.915,3.68 42.433,3.98 42.693,4.488C42.982,3.948 43.563,3.68 44.154,3.68C45.397,3.68 45.708,4.696 45.708,5.721L45.708,8.684L44.879,8.684L44.879,5.855C44.879,5.223 44.837,4.446 43.987,4.446C43.035,4.446 42.931,5.368 42.931,6.104L42.931,8.684L42.102,8.684L42.102,5.917C42.102,5.317 42.029,4.446 41.232,4.446C40.257,4.446 40.154,5.431 40.154,6.165L40.154,8.684L39.325,8.684L39.325,3.815L40.154,3.815L40.154,4.342ZM47.695,6.425C47.705,7.326 48.348,8.052 49.291,8.052C49.996,8.052 50.451,7.627 50.773,7.046L51.478,7.45C51.011,8.322 50.224,8.819 49.229,8.819C47.778,8.819 46.846,7.71 46.846,6.312C46.846,4.871 47.685,3.68 49.209,3.68C50.773,3.68 51.602,4.975 51.519,6.425L47.695,6.425ZM50.648,5.721C50.534,5.016 49.943,4.446 49.218,4.446C48.503,4.446 47.841,5.016 47.737,5.721L50.648,5.721ZM56.275,8.012L56.254,8.012C55.851,8.539 55.239,8.819 54.575,8.819C53.145,8.819 52.244,7.606 52.244,6.259C52.244,4.872 53.124,3.68 54.585,3.68C55.239,3.68 55.86,3.991 56.254,4.51L56.275,4.51L56.275,0.137L57.102,0.137L57.102,8.684L56.275,8.684L56.275,8.012ZM53.094,6.197C53.094,7.152 53.653,8.052 54.689,8.052C55.757,8.052 56.316,7.193 56.316,6.209C56.316,5.235 55.704,4.446 54.677,4.446C53.716,4.446 53.094,5.286 53.094,6.197ZM59.62,8.684L58.792,8.684L58.792,3.815L59.62,3.815L59.62,8.684ZM59.797,1.981C59.797,2.312 59.527,2.57 59.207,2.57C58.884,2.57 58.616,2.312 58.616,1.981C58.616,1.659 58.884,1.39 59.207,1.39C59.527,1.39 59.797,1.659 59.797,1.981ZM64.966,5.264L64.945,5.264C64.562,4.778 64.085,4.446 63.432,4.446C62.428,4.446 61.712,5.276 61.712,6.249C61.712,7.212 62.374,8.052 63.39,8.052C64.085,8.052 64.572,7.742 64.976,7.212L64.997,7.212L64.997,8.322C64.52,8.643 64.033,8.819 63.453,8.819C61.982,8.819 60.863,7.72 60.863,6.249C60.863,4.798 62.033,3.68 63.462,3.68C63.991,3.68 64.53,3.857 64.966,4.166L64.966,5.264ZM65.846,6.259C65.846,4.829 66.976,3.68 68.404,3.68C69.834,3.68 70.965,4.829 70.965,6.259C70.965,7.689 69.824,8.818 68.404,8.818C66.986,8.818 65.846,7.689 65.846,6.259ZM66.675,6.249C66.675,7.243 67.379,8.052 68.404,8.052C69.431,8.052 70.135,7.243 70.135,6.249C70.135,5.264 69.431,4.445 68.404,4.445C67.379,4.445 66.675,5.264 66.675,6.249ZM77.263,4.943C77.149,4.685 76.9,4.446 76.598,4.446C76.31,4.446 75.997,4.675 75.997,4.985C75.997,5.431 76.558,5.596 77.128,5.835C77.697,6.073 78.256,6.415 78.256,7.234C78.256,8.156 77.51,8.819 76.609,8.819C75.79,8.819 75.148,8.352 74.89,7.587L75.625,7.274C75.832,7.732 76.071,8.052 76.62,8.052C77.066,8.052 77.407,7.752 77.407,7.307C77.407,6.218 75.211,6.591 75.211,5.057C75.211,4.239 75.874,3.68 76.661,3.68C77.222,3.68 77.74,4.074 77.956,4.582L77.263,4.943ZM83.872,8.684L83.043,8.684L83.043,8.012L83.022,8.012C82.597,8.551 82.028,8.819 81.342,8.819C79.914,8.819 79.013,7.606 79.013,6.259C79.013,4.872 79.892,3.68 81.355,3.68C82.017,3.68 82.619,3.991 83.022,4.51L83.043,4.51L83.043,3.815L83.872,3.815L83.872,8.684ZM79.862,6.197C79.862,7.152 80.423,8.052 81.459,8.052C82.525,8.052 83.086,7.193 83.086,6.209C83.086,5.235 82.474,4.446 81.448,4.446C80.483,4.446 79.862,5.286 79.862,6.197ZM86.233,4.405L86.254,4.405C86.596,3.938 87.042,3.68 87.643,3.68C88.989,3.68 89.3,4.654 89.3,5.794L89.3,8.684L88.472,8.684L88.472,5.939C88.472,5.15 88.409,4.446 87.447,4.446C86.306,4.446 86.233,5.504 86.233,6.373L86.233,8.684L85.405,8.684L85.405,3.815L86.233,3.815L86.233,4.405ZM91.858,8.684L91.028,8.684L91.028,3.815L91.858,3.815L91.858,8.684ZM92.034,1.981C92.034,2.312 91.766,2.57 91.444,2.57C91.123,2.57 90.854,2.312 90.854,1.981C90.854,1.659 91.123,1.39 91.444,1.39C91.766,1.39 92.034,1.659 92.034,1.981ZM94.458,8.684L93.629,8.684L93.629,4.581L93.121,4.581L93.121,3.815L93.629,3.815L93.629,2.063L94.458,2.063L94.458,3.815L95.328,3.815L95.328,4.581L94.458,4.581L94.458,8.684ZM100.518,8.684L99.69,8.684L99.69,8.012L99.668,8.012C99.243,8.551 98.675,8.819 97.989,8.819C96.56,8.819 95.659,7.606 95.659,6.259C95.659,4.872 96.539,3.68 98.002,3.68C98.664,3.68 99.264,3.991 99.668,4.51L99.69,4.51L99.69,3.815L100.518,3.815L100.518,8.684ZM96.51,6.197C96.51,7.152 97.069,8.052 98.105,8.052C99.172,8.052 99.732,7.193 99.732,6.209C99.732,5.235 99.12,4.446 98.094,4.446C97.131,4.446 96.51,5.286 96.51,6.197ZM102.837,4.342L102.859,4.342C103.149,3.959 103.398,3.68 103.936,3.68C104.216,3.68 104.444,3.773 104.683,3.907L104.289,4.664C104.123,4.549 104.008,4.446 103.791,4.446C102.88,4.446 102.837,5.616 102.837,6.249L102.837,8.684L102.009,8.684L102.009,3.815L102.837,3.815L102.837,4.342ZM106.506,8.684L105.678,8.684L105.678,3.815L106.506,3.815L106.506,8.684ZM106.682,1.981C106.682,2.312 106.412,2.57 106.091,2.57C105.771,2.57 105.501,2.312 105.501,1.981C105.501,1.659 105.771,1.39 106.091,1.39C106.412,1.39 106.682,1.659 106.682,1.981ZM108.65,6.425C108.661,7.326 109.303,8.052 110.246,8.052C110.95,8.052 111.405,7.627 111.729,7.046L112.432,7.45C111.965,8.322 111.178,8.819 110.183,8.819C108.733,8.819 107.801,7.71 107.801,6.312C107.801,4.871 108.64,3.68 110.164,3.68C111.729,3.68 112.557,4.975 112.474,6.425L108.65,6.425ZM111.603,5.721C111.49,5.016 110.898,4.446 110.172,4.446C109.459,4.446 108.794,5.016 108.691,5.721L111.603,5.721Z" style="fill:rgb(19,35,57);"/>
            </g>
            <g transform="matrix(1,0,0,1,87.3589,68.6051)">
                <path d="M0,-42.413C7.222,-42.596 14.851,-37.927 15.58,-27.083C15.601,-26.725 15.341,-26.41 14.983,-26.389C14.636,-26.378 14.309,-26.634 14.295,-26.991C13.615,-36.983 6.654,-41.295 0.031,-41.116C-6.587,-40.953 -13.359,-36.376 -13.502,-27.96L-13.502,-7.829C-13.502,-7.65 -13.574,-7.477 -13.711,-7.355C-13.844,-7.232 -14.022,-7.171 -14.207,-7.191C-20.023,-7.686 -24.187,-5.333 -26.617,-0.195C-26.724,0.045 -26.953,0.183 -27.199,0.183C-27.291,0.183 -27.383,0.157 -27.475,0.116C-27.801,-0.031 -27.938,-0.424 -27.785,-0.741C-25.197,-6.216 -20.835,-8.834 -14.793,-8.528L-14.793,-27.965C-14.646,-37.212 -7.235,-42.229 0,-42.413ZM-14.375,1.402C-14.022,1.402 -13.736,1.694 -13.727,2.045L-13.691,11.047C-13.691,11.394 -13.971,11.699 -14.334,11.699C-14.691,11.699 -14.981,11.415 -14.981,11.047L-15.023,2.698C-20.876,2.8 -24.555,5.041 -26.602,9.72C-26.744,10.048 -27.133,10.2 -27.459,10.048C-27.785,9.915 -27.934,9.526 -27.791,9.205C-25.475,3.903 -21.096,1.371 -14.375,1.402ZM-4.184,-25.236C1.588,-24.577 9.283,-21.011 9.385,-16.325C9.385,-16.315 9.381,-16.306 9.381,-16.295C9.381,-16.274 9.385,-16.269 9.385,-16.249C9.385,-16.101 9.354,-15.969 9.339,-15.815L9.293,-5.64C9.293,-5.599 9.293,-5.559 9.283,-5.518C8.241,-0.22 1.812,2.132 -4.082,2.607L-4.036,11.037C-4.036,11.395 -4.326,11.699 -4.679,11.699L-4.684,11.699C-5.036,11.699 -5.332,11.415 -5.332,11.047L-5.379,2.015C-5.383,1.663 -5.113,1.377 -4.766,1.357C0.771,1.035 7.021,-0.996 8.003,-5.711L8.022,-12.473C5.588,-9.171 0.23,-7.232 -4.836,-7.002L-4.873,-7.002C-5.036,-7.002 -5.199,-7.063 -5.316,-7.181C-5.449,-7.303 -5.521,-7.467 -5.521,-7.65L-5.47,-27.175C-5.5,-28.624 -4.889,-30.094 -3.796,-31.196C-2.73,-32.263 -1.331,-32.85 0.123,-32.813C3.567,-32.757 5.741,-29.869 5.844,-27.113C5.858,-26.746 5.573,-26.451 5.222,-26.44C4.858,-26.41 4.562,-26.705 4.553,-27.052C4.466,-29.221 2.782,-31.476 0.108,-31.513C-1.015,-31.543 -2.066,-31.094 -2.883,-30.277C-3.715,-29.44 -4.194,-28.288 -4.179,-27.185L-4.184,-25.236ZM-4.209,-14.275L-4.225,-8.334C-0.908,-8.589 2.471,-9.584 4.854,-11.202C2.287,-12.993 -0.627,-13.978 -4.209,-14.275ZM5.916,-12.039C7.103,-13.116 7.874,-14.387 8.044,-15.861L8.049,-16.361C8.049,-16.402 8.063,-16.437 8.069,-16.469C7.793,-19.949 1.378,-23.26 -4.184,-23.939L-4.209,-15.57C-0.178,-15.264 3.057,-14.131 5.916,-12.039Z" style="fill:rgb(0,159,227);"/>
            </g>
        </g>
    </g>
</svg>
