<?xml version="1.0" encoding="UTF-8" standalone="no"?><!DOCTYPE svg PUBLIC "-//W3C//DTD SVG 1.1//EN" "http://www.w3.org/Graphics/SVG/1.1/DTD/svg11.dtd"><svg width="100%" height="100%" viewBox="0 0 14659 3067" version="1.1" xmlns="http://www.w3.org/2000/svg" xmlns:xlink="http://www.w3.org/1999/xlink" xml:space="preserve" xmlns:serif="http://www.serif.com/" style="fill-rule:evenodd;clip-rule:evenodd;"><g><path d="M2398.583,1503.208c0,-596.333 -490.708,-1087.042 -1087.042,-1087.042c-596.333,0 -1087.042,490.708 -1087.042,1087.042c0,596.333 490.708,1087.042 1087.042,1087.042c596.333,0 1087.042,-490.708 1087.042,-1087.042" style="fill:none;fill-rule:nonzero;stroke:#9ddaa5;stroke-width:8.33px;"/><path d="M4428.5,893.708c-55.542,-43.708 -131.208,-56.542 -200.333,-46.583c-180.458,25.917 -268.375,185.583 -275.583,354c-0.917,21.611 -0.944,43.792 -0.083,66.542c6.167,164.542 85.708,323.625 263.125,350.083c83.458,12.417 173.375,-8.708 235.792,-66.875c0.137,-0.127 0.293,-0.232 0.463,-0.311c0.871,-0.404 1.912,-0.037 2.307,0.813c0.079,0.17 0.129,0.352 0.147,0.539l6.208,55.25c0.148,1.281 1.232,2.256 2.5,2.25l148.167,0c2.803,-0.001 5.488,-1.111 7.458,-3.083l19.375,-19.375c1.193,-1.221 1.815,-2.888 1.708,-4.583c-4.833,-73.958 -8.542,-135.625 -8.542,-212.333c0.028,-238.028 0.042,-501.778 0.042,-791.25c-0,-2.187 -0.87,-4.287 -2.417,-5.833l-18.125,-18.125c-1.764,-1.761 -4.148,-2.751 -6.625,-2.75l-146.625,0c-2.562,0.001 -5.022,1.021 -6.833,2.833l-18.333,18.333c-1.332,1.335 -2.081,3.149 -2.083,5.042l0,314.583c0,0.011 0.001,0.022 0.001,0.033c0,0.571 -0.47,1.042 -1.042,1.042c-0.244,0 -0.48,-0.086 -0.667,-0.242" style="fill:none;fill-rule:nonzero;stroke:#9d9d9d;stroke-width:8.33px;"/><path d="M10534.833,1207.75c49.667,2.167 98.681,-0.597 147.042,-8.292c147.875,-23.5 297.292,-110.208 320.542,-270.208c6.778,-46.583 5.25,-89.361 -4.583,-128.333c-43.708,-173.5 -224.167,-220.917 -380.208,-225.917c-97.5,-3.139 -193.167,4.028 -287,21.5c-1.444,0.261 -2.503,1.532 -2.5,3l-0,982.875c0.001,2.346 0.946,4.61 2.625,6.292l17.958,18c1.789,1.763 4.216,2.751 6.75,2.75l150.167,0c2.134,-0.001 4.188,-0.856 5.708,-2.375l18.208,-18.167c1.761,-1.761 2.751,-4.161 2.75,-6.667l0,-372c-0,-0 -0,-0.001 -0,-0.001c0,-1.349 1.11,-2.458 2.458,-2.458c0.028,0 0.056,0 0.083,0.001" style="fill:none;fill-rule:nonzero;stroke:#9d9d9d;stroke-width:8.33px;"/><path d="M3054.042,1333c-7.222,-29.861 -14.778,-59.597 -22.667,-89.208c-10.833,-40.667 -18.931,-70.306 -24.292,-88.917c-32.472,-112.472 -87.972,-303.736 -166.5,-573.792c-0.318,-1.135 -1.363,-1.923 -2.542,-1.917l-179.417,0c-2.455,-0 -4.767,1.179 -6.208,3.167l-17.542,24.25c-1.236,1.731 -1.591,3.939 -0.958,5.958l316.083,995.292c0.293,0.964 1.177,1.627 2.167,1.625l191.667,0c0.913,0.004 1.739,-0.603 2.042,-1.5l322.75,-996.875c0.338,-1.046 0.168,-2.178 -0.458,-3.042l-19.167,-26.5c-1.07,-1.487 -2.793,-2.372 -4.625,-2.375l-179.958,0c-1.529,-0 -2.881,1.027 -3.292,2.5c-3.722,13.528 -48.889,173 -135.5,478.417c-27.639,97.5 -51.097,188.472 -70.375,272.917c-0.072,0.273 -0.322,0.465 -0.604,0.465c-0.283,0 -0.532,-0.192 -0.604,-0.465" style="fill:none;fill-rule:nonzero;stroke:#9d9d9d;stroke-width:8.33px;"/><path d="M3550.333,697.875c0.25,65.125 57.75,96.167 116.583,95.958c58.833,-0.208 116.083,-31.708 115.833,-96.833c-0.25,-65.083 -57.75,-96.167 -116.583,-95.917c-58.833,0.208 -116.083,31.708 -115.833,96.792" style="fill:none;fill-rule:nonzero;stroke:#9d9d9d;stroke-width:8.33px;"/><path d="M5018.375,1266.625l447.292,0c1.43,-0.006 2.647,-1.062 2.833,-2.458c3.667,-27.139 5.014,-59.264 4.042,-96.375c-4.125,-154.667 -78.208,-291.25 -240.5,-318.458c-39.194,-6.583 -77.792,-7.194 -115.792,-1.833c-227,32.083 -316.458,235 -299,441.75c11.042,131.083 75.292,244.958 200.25,296.292c37.111,15.222 74.417,24.764 111.917,28.625c80.556,8.278 161.097,2.903 241.625,-16.125c21,-4.972 43.319,-12.556 66.958,-22.75c0.812,-0.359 1.241,-1.27 1,-2.125l-29.25,-99.917c-0.61,-2.065 -2.085,-3.768 -4.042,-4.667l-25.917,-11.792c-1.31,-0.613 -2.82,-0.688 -4.208,-0.208c-55.5,19.333 -112.958,27.417 -172.375,24.25c-128.958,-6.833 -180.542,-91.583 -187.625,-211.208c-0.002,-0.03 -0.003,-0.059 -0.004,-0.089c-0.043,-1.554 1.181,-2.867 2.711,-2.91c0.028,-0.001 0.056,-0.001 0.084,-0.001" style="fill:none;fill-rule:nonzero;stroke:#9d9d9d;stroke-width:8.33px;"/><path d="M5605.875,1216.417c-6.375,161.958 54.292,323.25 213.458,382.833c33.667,12.583 69.819,19.708 108.458,21.375c145.792,6.292 276.083,-62.333 334.625,-198.875c23.75,-55.417 32.708,-112.083 35.125,-172.792c6.375,-161.958 -54.292,-323.292 -213.5,-382.833c-33.639,-12.583 -69.778,-19.708 -108.417,-21.375c-145.792,-6.292 -276.083,62.333 -334.625,198.833c-23.75,55.458 -32.75,112.083 -35.125,172.833" style="fill:none;fill-rule:nonzero;stroke:#9d9d9d;stroke-width:8.33px;"/><path d="M6683.167,1574.167c39.139,29.111 83.653,44.583 133.542,46.417c87.667,3.25 171.208,-23.875 234,-84.167c63.667,-61.208 94.917,-146.375 105,-237.542c21.917,-198.083 -45.792,-438.875 -283.167,-454.208c-77.958,-5.042 -153.208,16.208 -211.333,69.375c-0.23,0.207 -0.528,0.322 -0.837,0.322c-0.65,0 -1.197,-0.507 -1.246,-1.155l-3.833,-54.292c-0.088,-1.491 -1.34,-2.669 -2.833,-2.667l-157.083,0c-1.975,0 -3.865,0.78 -5.25,2.167l-19.5,19.5c-1.034,1.032 -1.58,2.473 -1.5,3.958c5.278,92.972 7.917,149.361 7.917,169.167c0.139,260.639 0.153,531.292 0.042,811.958c0.001,2.08 0.841,4.09 2.333,5.583l19.333,19.375c1.042,1.013 2.448,1.581 3.917,1.583l150.875,0c2.212,-0.001 4.326,-0.871 5.875,-2.417l19.875,-19.875c1.254,-1.255 1.959,-2.95 1.958,-4.708l0,-287.417c0.011,-0.655 0.553,-1.188 1.208,-1.188c0.254,0 0.502,0.08 0.709,0.23" style="fill:none;fill-rule:nonzero;stroke:#9d9d9d;stroke-width:8.33px;"/><path d="M7523.208,924.792l-4.792,-67.292c-0.044,-0.677 -0.613,-1.21 -1.292,-1.208l-159.083,0.125c-1.571,-0.001 -3.086,0.629 -4.208,1.75l-20,20.042c-0.992,1.014 -1.508,2.409 -1.417,3.833c4,73 8.375,132.417 8.375,204.75c-0.056,78.306 0,243.722 0.167,496.25c-0.001,2.004 0.793,3.935 2.208,5.375l19.125,19.083c1.363,1.37 3.226,2.136 5.167,2.125l150.083,-0.125c2.346,-0.001 4.61,-0.945 6.292,-2.625l19.125,-19.125c1.023,-1.048 1.593,-2.471 1.583,-3.958c-0.139,-196.028 -0.167,-325.653 -0.083,-388.875c0,-23.917 1.681,-43.222 5.042,-57.917c13.056,-57.417 46.361,-96.708 99.917,-117.875c31.583,-12.5 63.208,-13.333 94.042,-11.333c2.009,0.134 3.97,-0.596 5.375,-2l19.75,-19.792c1.531,-1.556 2.385,-3.669 2.375,-5.875l-0.083,-105.542c0.001,-4.294 -1.694,-8.403 -4.708,-11.417l-12.208,-12.125c-3.686,-3.686 -8.595,-5.896 -13.792,-6.208c-84.917,-5.167 -156.681,21.694 -215.292,80.583c-0.083,0.077 -0.179,0.14 -0.283,0.187c-0.501,0.224 -1.089,0.013 -1.304,-0.466c-0.049,-0.109 -0.076,-0.226 -0.08,-0.345" style="fill:none;fill-rule:nonzero;stroke:#9d9d9d;stroke-width:8.33px;"/><path d="M8032.5,1266.708l447.292,-0.167c1.43,-0.006 2.647,-1.062 2.833,-2.458c3.667,-27.139 5,-59.264 4,-96.375c-4.167,-154.667 -78.333,-291.208 -240.625,-318.375c-39.194,-6.556 -77.792,-7.153 -115.792,-1.792c-226.958,32.208 -316.333,235.125 -298.792,441.875c11.083,131.083 75.375,244.917 200.375,296.208c37.111,15.194 74.417,24.722 111.917,28.583c80.556,8.25 161.083,2.833 241.583,-16.25c21,-4.972 43.319,-12.556 66.958,-22.75c0.812,-0.359 1.241,-1.27 1,-2.125l-29.292,-99.917c-0.61,-2.065 -2.085,-3.768 -4.042,-4.667l-25.917,-11.792c-1.315,-0.599 -2.826,-0.659 -4.208,-0.167c-55.5,19.333 -112.958,27.431 -172.375,24.292c-128.958,-6.792 -180.542,-91.5 -187.708,-211.125c-0.002,-0.03 -0.003,-0.059 -0.004,-0.089c-0.043,-1.554 1.181,-2.867 2.711,-2.91c0.028,-0.001 0.056,-0.001 0.084,-0.001" style="fill:none;fill-rule:nonzero;stroke:#9d9d9d;stroke-width:8.33px;"/><path d="M9052.458,1019.667c0.934,0.272 1.944,-0.189 2.375,-1.083l51.042,-102c0.35,-0.75 0.41,-1.598 0.167,-2.375l-9.125,-28.708c-0.503,-1.613 -1.693,-2.925 -3.25,-3.583c-128,-54.75 -311.042,-58.583 -418.5,45.083c-50.625,48.792 -73.167,120.625 -51.125,187.417c22.417,67.875 93,116.5 153.625,147.5c60.333,30.792 85.875,40.292 124.458,70.208c27.778,21.5 39.347,48.931 34.708,82.292c-8.25,59.583 -88.583,69.875 -134.833,66.583c-45.333,-3.25 -88.708,-14.264 -130.125,-33.042c-0.775,-0.372 -1.657,-0.432 -2.458,-0.167l-28.958,9.208c-1.243,0.371 -2.262,1.253 -2.792,2.417l-46.458,102c-0.455,0.991 -0.095,2.179 0.833,2.75c71,44.042 162.167,56.167 244.417,53.458c127.875,-4.167 272.667,-56.25 294.792,-200.917c21.667,-141.458 -102.167,-213.667 -208.792,-266.25c-42.917,-21.167 -106.667,-49.292 -112.417,-91.083c-7.5,-54.042 47.958,-75.083 91.083,-76.875c43.75,-1.806 85.097,6.458 124.042,24.792c16.444,7.778 25.542,11.903 27.292,12.375" style="fill:none;fill-rule:nonzero;stroke:#9d9d9d;stroke-width:8.33px;"/><path d="M9693,1019.667c0.934,0.272 1.944,-0.189 2.375,-1.083l51.042,-102c0.35,-0.75 0.41,-1.598 0.167,-2.375l-9.125,-28.708c-0.503,-1.613 -1.693,-2.925 -3.25,-3.583c-128,-54.75 -311.042,-58.542 -418.458,45.083c-50.625,48.792 -73.167,120.625 -51.125,187.417c22.417,67.875 93,116.5 153.625,147.5c60.333,30.792 85.875,40.25 124.417,70.167c27.778,21.5 39.361,48.931 34.75,82.292c-8.25,59.583 -88.583,69.875 -134.833,66.583c-45.333,-3.25 -88.708,-14.264 -130.125,-33.042c-0.775,-0.372 -1.657,-0.432 -2.458,-0.167l-28.958,9.208c-1.243,0.371 -2.262,1.253 -2.792,2.417l-46.458,102c-0.455,0.991 -0.095,2.179 0.833,2.75c71,44.042 162.167,56.167 244.417,53.458c127.875,-4.167 272.625,-56.25 294.75,-200.917c21.667,-141.458 -102.167,-213.625 -208.792,-266.208c-42.917,-21.167 -106.667,-49.292 -112.417,-91.083c-7.5,-54.042 47.958,-75.083 91.083,-76.875c43.75,-1.806 85.097,6.458 124.042,24.792c16.444,7.778 25.542,11.903 27.292,12.375" style="fill:none;fill-rule:nonzero;stroke:#9d9d9d;stroke-width:8.33px;"/><path d="M11486.458,1115.667c-20.611,1.25 -39.694,2.653 -57.25,4.208c-143.542,12.75 -332.542,75.208 -354.5,243c-31.917,244.083 277.417,328.083 435.458,196.583c0.139,-0.117 0.294,-0.214 0.461,-0.285c0.945,-0.407 2.064,0.053 2.48,1.019c0.071,0.165 0.119,0.339 0.143,0.517l5.125,45.833c0.19,1.637 1.581,2.884 3.208,2.875l156.375,0c3.475,0 6.749,-1.676 8.792,-4.5l17.042,-23.542c0.588,-0.829 0.827,-1.875 0.667,-2.917c-5.694,-37.806 -8.542,-66.736 -8.542,-86.792c0,-220.833 -0.125,-347.889 -0.375,-381.167c-0.278,-39.333 -7.069,-76.694 -20.375,-112.083c-40,-106.5 -143.708,-147.667 -249.125,-153.292c-71.028,-3.75 -140.778,3.819 -209.25,22.708c-30.722,8.5 -58.903,20.181 -84.542,35.042c-1.129,0.631 -1.585,2.053 -1.042,3.25l41.167,94.208c0.876,1.995 2.55,3.548 4.625,4.292l26.333,9.5c1.522,0.535 3.182,0.46 4.625,-0.208c47,-21.694 96.764,-32.819 149.292,-33.375c37.833,-0.375 81.083,6.833 106.667,36.625c19.875,23.125 26.833,64.708 25.5,95.5c-0.061,1.592 -1.347,2.896 -2.958,3" style="fill:none;fill-rule:nonzero;stroke:#9d9d9d;stroke-width:8.33px;"/><path d="M12102.417,924.667l-4.75,-67.333c-0.044,-0.677 -0.613,-1.21 -1.292,-1.208l-159.083,-0c-1.571,-0.001 -3.086,0.629 -4.208,1.75l-20,20c-1.007,1.007 -1.538,2.402 -1.458,3.833c3.958,73.042 8.292,132.458 8.208,204.792c-0.111,78.306 -0.208,243.722 -0.292,496.25c-0.001,2.004 0.793,3.935 2.208,5.375l19.125,19.083c1.356,1.385 3.22,2.167 5.167,2.167l150.083,-0c2.346,-0.001 4.61,-0.946 6.292,-2.625l19.125,-19.125c1.039,-1.041 1.623,-2.465 1.625,-3.958c0.028,-196.028 0.111,-325.653 0.25,-388.875c0.028,-23.917 1.722,-43.222 5.083,-57.917c13.111,-57.389 46.458,-96.653 100.042,-117.792c31.583,-12.458 63.208,-13.25 94.042,-11.25c2.009,0.134 3.97,-0.595 5.375,-2l19.75,-19.75c1.546,-1.549 2.416,-3.663 2.417,-5.875l0,-105.542c0.001,-4.294 -1.694,-8.403 -4.708,-11.417l-12.208,-12.167c-3.675,-3.677 -8.568,-5.886 -13.75,-6.208c-84.917,-5.25 -156.708,21.556 -215.375,80.417c-0.084,0.078 -0.18,0.141 -0.284,0.187c-0.501,0.223 -1.09,0.012 -1.303,-0.469c-0.048,-0.108 -0.075,-0.225 -0.079,-0.344" style="fill:none;fill-rule:nonzero;stroke:#9d9d9d;stroke-width:8.33px;"/><path d="M12657.042,913.583l-3.833,-54.25c-0.109,-1.726 -1.562,-3.087 -3.292,-3.083l-153.208,0c-1.624,-0.001 -3.184,0.644 -4.333,1.792l-19.458,19.458c-1.484,1.481 -2.26,3.518 -2.125,5.583c4.333,68.333 8.625,126.5 8.458,196c-0.139,48.972 -0.153,216.181 -0.042,501.625c-0.001,3.132 1.189,6.168 3.333,8.5c5.056,5.472 10.458,11 16.208,16.583c2.444,2.361 7.056,3.556 13.833,3.583c71.806,0.25 118.097,0.208 138.875,-0.125c9.125,-0.125 24.125,-17.667 28,-24.958c0.519,-0.956 0.791,-2.016 0.792,-3.083c-0.111,-16.639 -0.083,-162.458 0.083,-437.458c0,-23.167 1.458,-41.472 4.375,-54.917c16.667,-77.167 84.583,-113.625 158.833,-98.875c41.5,8.25 62.625,34.958 71.708,74.875c3.694,16.25 5.542,31.097 5.542,44.542c0.111,305.417 0.097,461.194 -0.042,467.333c-0.139,6.278 1.736,11.347 5.625,15.208c6.028,5.944 11.014,10.736 14.958,14.375c2.143,1.982 4.942,3.084 7.833,3.083c36.528,0.139 81.597,0.181 135.208,0.125c5.833,0 13.833,0.708 18,-3.083c7.167,-6.583 13.431,-12.903 18.792,-18.958c1.156,-1.316 1.793,-3.005 1.792,-4.75c-0.167,-155.083 -0.125,-310.764 0.125,-467.042c0.028,-18.833 2.125,-33.764 6.292,-44.792c18.583,-49.083 61.542,-82.583 114.042,-84.083c40.75,-1.125 80.875,9 99.375,45.667c12.861,25.5 19.347,54.625 19.458,87.375c0.361,121.583 0.417,274.861 0.167,459.833c-0.001,3.824 1.46,7.508 4.083,10.292c4.444,4.694 9.653,9.958 15.625,15.792c2.583,2.528 7.486,3.792 14.708,3.792c84.278,0 131.194,-0.056 140.75,-0.167c2.349,-0.026 4.605,-0.967 6.292,-2.625l19.042,-19.042c1.094,-1.091 1.709,-2.562 1.708,-4.083c-0.111,-198.083 -0.097,-346.944 0.042,-446.583c0.028,-31.417 -0.986,-55.361 -3.042,-71.833c-20.375,-163.5 -136.792,-231.417 -292.792,-219.625c-76.444,5.75 -141.069,35.778 -193.875,90.083c-0.33,0.348 -0.79,0.546 -1.27,0.546c-0.574,0 -1.112,-0.282 -1.439,-0.754c-52.083,-74.958 -145.917,-95.208 -232.458,-90.583c-69.028,3.667 -129.417,26.792 -181.167,69.375c-0.174,0.15 -0.397,0.233 -0.627,0.233c-0.504,0 -0.926,-0.397 -0.957,-0.9" style="fill:none;fill-rule:nonzero;stroke:#9d9d9d;stroke-width:8.33px;"/><path d="M14147.958,1115.667c-20.611,1.25 -39.694,2.653 -57.25,4.208c-143.542,12.75 -332.542,75.167 -354.5,242.958c-31.958,244.083 277.375,328.125 435.417,196.625c0.139,-0.117 0.294,-0.214 0.461,-0.285c0.945,-0.407 2.064,0.053 2.48,1.019c0.071,0.165 0.119,0.339 0.143,0.517l5.125,45.833c0.19,1.637 1.581,2.884 3.208,2.875l156.375,0c3.475,0 6.749,-1.676 8.792,-4.5l17.042,-23.5c0.588,-0.829 0.827,-1.875 0.667,-2.917c-5.694,-37.806 -8.542,-66.736 -8.542,-86.792c0.028,-220.833 -0.083,-347.889 -0.333,-381.167c-0.278,-39.333 -7.056,-76.708 -20.333,-112.125c-40,-106.5 -143.708,-147.667 -249.125,-153.292c-71.028,-3.75 -140.778,3.806 -209.25,22.667c-30.722,8.5 -58.903,20.181 -84.542,35.042c-1.129,0.631 -1.585,2.053 -1.042,3.25l41.167,94.208c0.876,1.995 2.55,3.548 4.625,4.292l26.333,9.5c1.522,0.535 3.182,0.46 4.625,-0.208c47,-21.667 96.764,-32.778 149.292,-33.333c37.833,-0.375 81.083,6.833 106.625,36.625c19.875,23.125 26.833,64.708 25.5,95.5c-0.061,1.592 -1.347,2.896 -2.958,3" style="fill:none;fill-rule:nonzero;stroke:#9d9d9d;stroke-width:8.33px;"/><path d="M3734.042,1609.208c19.612,-0 35.75,-16.138 35.75,-35.75l-0,-681.708c0,-19.612 -16.138,-35.75 -35.75,-35.75l-131.625,0c-19.612,0 -35.75,16.138 -35.75,35.75l0,681.708c-0,19.612 16.138,35.75 35.75,35.75l131.625,0" style="fill:none;fill-rule:nonzero;stroke:#9d9d9d;stroke-width:8.33px;"/><path d="M8289.375,2169.375c-25.75,-17.917 -54.778,-26.764 -87.083,-26.542c-57.861,0.389 -104.167,23.208 -138.917,68.458c-47.542,61.833 -53.417,156.042 -37.417,228.417c14.417,65.25 54.625,122.583 118.917,140.292c59.306,16.306 112.347,5.889 159.125,-31.25c0.195,-0.147 0.433,-0.226 0.677,-0.226c0.561,0 1.041,0.42 1.115,0.976l3.292,29.292c0.087,0.843 0.819,1.485 1.667,1.458c44.417,0 70.542,-0.028 78.375,-0.083c15.917,-0.042 23.25,-9.667 22.208,-26.208c-1.875,-29.917 -3.958,-59.292 -3.958,-88.625c-0.083,-272.028 -0.042,-427.5 0.125,-466.417c0.028,-10.528 -4.264,-17.819 -12.875,-21.875c-1.18,-0.576 -2.488,-0.889 -3.833,-0.917c-16.056,-0.194 -41.292,-0.264 -75.708,-0.208c-15.75,0.042 -23.833,8.542 -23.667,25.375c0.083,6.5 0.125,62.153 0.125,166.958c0,0 0,0.001 0,0.001c0,0.754 -0.621,1.375 -1.375,1.375c-0.283,0 -0.56,-0.088 -0.792,-0.251" style="fill:none;fill-rule:nonzero;"/><path d="M5934.708,2269.208c66.833,-38.417 135.417,-86.042 123.583,-173.917c-17.833,-132.292 -210.75,-138.333 -284.458,-59.917c-37.694,40.111 -47.889,87.639 -30.583,142.583c8.694,27.694 22.278,51.792 40.75,72.292c0.055,0.061 0.106,0.124 0.155,0.19c0.769,1.051 0.553,2.539 -0.48,3.295c-0.069,0.051 -0.141,0.098 -0.216,0.14c-49.75,29.542 -96.417,73.083 -107.708,132.583c-5.583,29.361 -3.542,57.514 6.125,84.458c24.167,67.208 87.25,103.792 155.625,113.292c72.542,10.125 150.208,-5.25 209.25,-49.25c1.17,-0.856 2.806,-0.731 3.833,0.292l42.583,42.583c1.52,1.519 3.604,2.373 5.792,2.375l99.208,0c2.999,-0.004 5.692,-1.911 6.708,-4.75l5.292,-14.583c0.662,-1.911 0.176,-4.047 -1.25,-5.5l-85.5,-85.5c-0.92,-0.886 -1.011,-2.354 -0.208,-3.375c43.833,-55.667 67.667,-124.083 76.917,-194.042c0.193,-1.565 0.05,-3.142 -0.417,-4.625c-1.833,-5.972 -6.194,-10.986 -13.083,-15.042c-0.955,-0.573 -2.049,-0.876 -3.167,-0.875l-85.708,-0c-1.44,-0.003 -2.642,1.126 -2.708,2.542c-2.917,50.917 -12.583,100.375 -35.042,146.208c-0.508,1.046 -1.573,1.713 -2.736,1.713c-0.801,0 -1.57,-0.316 -2.139,-0.879c-41.5,-41.278 -81.792,-84.5 -120.875,-129.667c-0.26,-0.314 -0.403,-0.709 -0.403,-1.117c0,-0.619 0.328,-1.193 0.861,-1.508" style="fill:none;fill-rule:nonzero;"/><path d="M10837,2013.25c-46.208,-26.667 -112.042,-30.625 -165.125,-25.042c-80.625,8.458 -168.375,52.083 -179.708,142.292c-7.375,58.792 28.292,103.375 75.542,138.333c19.472,14.389 37.958,26.083 55.458,35.083c34.833,17.875 68,35.167 94.083,61.208c32.792,32.75 33.458,85.542 -6.667,113.583c-51.167,35.792 -134.833,23.792 -190.667,1.75c-1.145,-0.454 -2.432,-0.439 -3.583,0.042l-13.917,6.083c-1.436,0.64 -2.551,1.845 -3.083,3.333l-22.25,61.833c-0.459,1.233 0.013,2.631 1.125,3.333c8.861,5.583 19.236,10.153 31.125,13.708c96.208,28.708 236,26.458 309.75,-53.958c29.306,-31.944 42.181,-70.181 38.625,-114.708c-5.25,-65.792 -59.208,-113 -112.708,-144.125c-23.208,-13.5 -75.167,-36.458 -108.208,-62.292c-14.972,-11.694 -24.014,-25.528 -27.125,-41.5c-10.875,-55.833 43.917,-80.167 90.333,-81.167c33.889,-0.722 63.611,4.417 89.167,15.417c1.372,0.576 2.854,0.832 4.333,0.75c6.556,-0.444 12.333,-2.472 17.333,-6.083c1.279,-0.926 2.263,-2.199 2.833,-3.667l24.375,-61.208c0.449,-1.115 0.001,-2.403 -1.042,-3" style="fill:none;fill-rule:nonzero;"/><path d="M2897.792,2325.25c29.278,-0.056 85.264,0.014 167.958,0.208c12.556,0.028 20.514,-5.736 23.875,-17.292c0.083,-0.304 0.125,-0.612 0.125,-0.917l-0.125,-46.417c-0,-0.579 -0.099,-1.143 -0.292,-1.667c-5.75,-17.208 -19.083,-15.458 -36.625,-15.5c-30.333,-0.028 -82.167,-0.014 -155.5,0.042c-1.28,0 -2.333,-1.053 -2.333,-2.333l0,-163.583c-0,-1.371 1.129,-2.5 2.5,-2.5c89.417,-0.111 150.028,-0.083 181.833,0.083c11.722,0.056 19.583,-5.153 23.583,-15.625c0.221,-0.578 0.334,-1.2 0.333,-1.833l0,-49.958c-0.001,-0.984 -0.244,-1.944 -0.708,-2.792c-3.472,-6.556 -8.139,-10.889 -14,-13c-1.075,-0.386 -2.203,-0.583 -3.333,-0.583c-104.778,0.028 -199.472,-0.028 -284.083,-0.167c-10.917,-0.028 -18.542,5 -22.875,15.083c-0.083,0.192 -0.125,0.391 -0.125,0.583l0,556.458c-0,0.74 0.171,1.48 0.5,2.167c2.889,6.5 7.194,11 12.917,13.5c1.264,0.577 2.639,0.889 4.042,0.917c18.833,0.222 45.319,0.208 79.458,-0.042c7.806,-0.056 13.514,-3.319 17.125,-9.792c2.028,-3.639 3.028,-10.375 3,-20.208c-0.167,-89.389 -0.264,-163.319 -0.292,-221.792c0,-1.669 1.373,-3.042 3.042,-3.042" style="fill:none;fill-rule:nonzero;"/><path d="M7087.958,2418.75c-10.028,-40.806 -20.833,-81.181 -32.417,-121.125c-54.889,-189 -84.097,-289.653 -87.625,-301.958c-0.689,-2.458 -2.947,-4.168 -5.5,-4.167c-57.944,0.056 -89.569,0 -94.875,-0.167c-9.5,-0.292 -16,9.417 -18.708,16.75c-0.513,1.402 -0.542,2.942 -0.083,4.375l179.417,565.083c0.522,1.592 2.009,2.673 3.667,2.667l106.917,0c1.513,-0.002 2.854,-0.986 3.292,-2.417c74.25,-229.778 134.347,-415.292 180.292,-556.542c4.278,-13.167 0.903,-22.819 -10.125,-28.958c-0.929,-0.52 -1.991,-0.792 -3.083,-0.792l-98.75,0c-1.891,0.002 -3.564,1.265 -4.083,3.083c-36.972,129.583 -67.819,239.069 -92.542,328.458c-10.222,36.889 -18.194,68.778 -23.917,95.667c-0.085,0.451 -0.483,0.782 -0.942,0.782c-0.444,0 -0.832,-0.308 -0.933,-0.74" style="fill:none;fill-rule:nonzero;"/><path d="M7714.666,2058.897c-0.161,-30.835 -30.764,-56.048 -67.793,-55.854c-0,0 -0,0 -0,0c-37.029,0.194 -67.366,25.726 -67.205,56.561c0.161,30.835 30.764,56.048 67.793,55.854c0,-0 0,-0 0,-0c37.029,-0.194 67.366,-25.726 67.205,-56.561" style="fill:none;fill-rule:nonzero;"/><path d="M13024.25,2059.056c-0.108,-30.835 -30.648,-56.102 -67.654,-55.973c-0,0 -0,0 -0,0c-37.006,0.129 -67.369,25.609 -67.262,56.443c0.108,30.835 30.648,56.102 67.654,55.973c0,-0 0,-0 0,-0c37.006,-0.129 67.369,-25.609 67.262,-56.443" style="fill:none;fill-rule:nonzero;"/><path d="M4087.667,2149.833l-48.083,0c-1.641,0 -3.26,0.416 -4.708,1.208c-4.639,2.528 -8.556,6.431 -11.75,11.708c-0.736,1.171 -1.126,2.529 -1.125,3.917l0,42.083c-0.001,1.423 0.343,2.824 1,4.083c2.694,5.389 6.833,9.528 12.417,12.417c0.93,0.492 1.96,0.75 3,0.75l49.917,-0c1.211,0 2.208,0.978 2.208,2.167c-0.194,113.361 -0.083,192.153 0.333,236.375c0.292,29.208 9.125,65.25 30.583,86.917c42.917,43.333 127.75,38.5 181.375,25.417c2.223,-0.523 3.751,-2.619 3.583,-4.917l-3.833,-54.667c-0.156,-2.294 -1.331,-4.415 -3.208,-5.792l-11.583,-8.333c-1.068,-0.772 -2.418,-1.087 -3.75,-0.875c-8.806,1.444 -20.583,2.014 -35.333,1.708c-38,-0.75 -41.292,-28.625 -41.25,-61.583c0.083,-48.472 0.069,-120.139 -0.042,-215c0,-0.754 0.602,-1.375 1.333,-1.375l89.125,0c0.853,-0 1.689,-0.17 2.458,-0.5c5.944,-2.583 10.444,-6.875 13.5,-12.875c0.63,-1.258 0.944,-2.631 0.917,-4c-0.083,-3.389 0.014,-15.361 0.292,-35.917c0.167,-10.694 -4.583,-18.167 -14.25,-22.417c-0.768,-0.357 -1.607,-0.542 -2.458,-0.542l-88.667,-0c-1.234,-0 -2.25,-0.997 -2.25,-2.208l0,-75.542c-0.002,-2.201 -1.04,-4.263 -2.792,-5.542l-12.542,-9.042c-1.578,-1.155 -3.613,-1.51 -5.5,-0.958l-93.917,27.5c-1.402,0.392 -2.377,1.693 -2.375,3.167l0,60.083c0,1.417 -1.185,2.583 -2.625,2.583" style="fill:none;fill-rule:nonzero;"/><path d="M11180.167,2149.75l-48.083,-0.042c-1.641,0 -3.26,0.416 -4.708,1.208c-4.667,2.528 -8.597,6.417 -11.792,11.667c-0.736,1.171 -1.126,2.529 -1.125,3.917l0,42.083c-0.001,1.423 0.343,2.824 1,4.083c2.667,5.417 6.792,9.569 12.375,12.458c0.93,0.492 1.96,0.75 3,0.75l49.917,0.042c1.211,0 2.208,0.978 2.208,2.167c-0.278,113.361 -0.222,192.153 0.167,236.375c0.292,29.208 9.083,65.25 30.542,86.958c42.875,43.333 127.708,38.583 181.375,25.542c2.223,-0.523 3.751,-2.619 3.583,-4.917l-3.792,-54.667c-0.156,-2.294 -1.331,-4.415 -3.208,-5.792l-11.583,-8.375c-1.068,-0.772 -2.418,-1.087 -3.75,-0.875c-8.806,1.444 -20.583,2.014 -35.333,1.708c-38,-0.792 -41.292,-28.667 -41.208,-61.625c0.111,-48.472 0.139,-120.139 0.083,-215c-0,-0.754 0.602,-1.375 1.333,-1.375l89.167,0.042c0.853,0 1.689,-0.17 2.458,-0.5c5.944,-2.583 10.444,-6.875 13.5,-12.875c0.63,-1.258 0.944,-2.631 0.917,-4c-0.083,-3.389 0.028,-15.361 0.333,-35.917c0.167,-10.694 -4.583,-18.167 -14.25,-22.417c-0.768,-0.357 -1.607,-0.542 -2.458,-0.542l-88.667,-0.042c-1.234,-0 -2.25,-0.997 -2.25,-2.208l0.042,-75.583c-0.001,-2.201 -1.04,-4.263 -2.792,-5.542l-12.542,-9.042c-1.578,-1.155 -3.613,-1.51 -5.5,-0.958l-93.917,27.458c-1.387,0.388 -2.359,1.667 -2.375,3.125l-0.042,60.125c0,1.417 -1.185,2.583 -2.625,2.583" style="fill:none;fill-rule:nonzero;"/><path d="M3363.125,2363.583c-0.292,46.083 7.25,92.083 30.208,132.625c40.667,71.875 119.25,100.917 199.333,88.458c114.375,-17.75 165.583,-110.208 166.25,-218c0.292,-46.083 -7.292,-92.125 -30.208,-132.625c-40.667,-71.875 -119.25,-100.917 -199.333,-88.5c-114.375,17.792 -165.625,110.208 -166.25,218.042" style="fill:none;fill-rule:nonzero;"/><path d="M4572.375,2363.667c-0.25,46.083 7.333,92.083 30.292,132.625c40.708,71.875 119.292,100.875 199.417,88.375c114.333,-17.833 165.5,-110.292 166.125,-218.083c0.25,-46.125 -7.333,-92.125 -30.292,-132.625c-40.708,-71.875 -119.292,-100.875 -199.417,-88.375c-114.333,17.792 -165.5,110.292 -166.125,218.083" style="fill:none;fill-rule:nonzero;"/><path d="M8837.292,2384.292l254.083,0c1.514,0.009 2.811,-1.144 3,-2.667c10.208,-84.042 -7.958,-184.75 -94.292,-223.625c-25.361,-11.417 -53.236,-16.486 -83.625,-15.208c-146.583,6.25 -209.958,130.75 -194.167,263.333c9.25,77.5 49.667,138.292 124.083,165c45.333,16.25 95.083,16.708 142.875,11.708c30.389,-3.222 58.792,-10.042 85.208,-20.458c1.75,-0.682 2.712,-2.588 2.208,-4.375c-0.889,-3.306 -5.181,-18.389 -12.875,-45.25c-3.625,-12.75 -8.25,-16.042 -19.042,-19.208c-2.169,-0.624 -4.465,-0.581 -6.583,0.125c-59.792,19.75 -155.708,27.667 -187.833,-42.917c-9.083,-19.972 -14.014,-41.528 -14.792,-64.667c-0,-0.014 -0,-0.028 -0,-0.042c0,-0.96 0.79,-1.75 1.75,-1.75c0,0 0,0 0,0" style="fill:none;fill-rule:nonzero;"/><path d="M9380.542,2363.625c-0.292,46.083 7.292,92.083 30.208,132.583c40.708,71.875 119.292,100.917 199.375,88.458c114.333,-17.792 165.542,-110.25 166.167,-218.042c0.292,-46.083 -7.292,-92.083 -30.208,-132.583c-40.708,-71.875 -119.292,-100.917 -199.375,-88.458c-114.333,17.792 -165.542,110.25 -166.167,218.042" style="fill:none;fill-rule:nonzero;"/><path d="M11664.708,2363.375c-0.292,46.083 7.208,92.125 30.083,132.667c40.625,71.917 119.167,101 199.292,88.667c114.375,-17.667 165.667,-110.083 166.417,-217.875c0.292,-46.083 -7.208,-92.083 -30.083,-132.625c-40.625,-71.917 -119.167,-101.042 -199.292,-88.667c-114.375,17.667 -165.667,110.042 -166.417,217.833" style="fill:none;fill-rule:nonzero;"/><path d="M12475.833,2186.583l-2.292,-32.958c-0.173,-2.157 -1.982,-3.839 -4.125,-3.833c-32.222,0.056 -57.833,-0.014 -76.833,-0.208c-10.139,-0.111 -17.389,2.514 -21.75,7.875c-3.222,3.944 -4.542,10.375 -3.958,19.292c2.444,37.194 3.667,61.264 3.667,72.208c0.056,109.611 0.097,213.389 0.125,311.333c0,8.417 4.736,14.792 14.208,19.125c1.071,0.494 2.251,0.75 3.458,0.75l81.458,0c1.321,-0 2.638,-0.269 3.875,-0.792c9.528,-4.028 14.278,-11.389 14.25,-22.083c-0.333,-104.861 -0.264,-178.458 0.208,-220.792c0.708,-64.667 46.5,-104.708 111.25,-100.083c1.257,0.081 2.506,-0.163 3.625,-0.708c17.125,-8.333 14.833,-17.583 14.875,-37.25c0.028,-17.833 -0.028,-30.278 -0.167,-37.333c-0.028,-1.346 -0.341,-2.654 -0.917,-3.833c-4.292,-8.833 -11.125,-13.958 -22.25,-14.375c-45.194,-1.694 -83.958,13.167 -116.292,44.583c-0.266,0.266 -0.627,0.416 -1.003,0.416c-0.745,0 -1.37,-0.588 -1.414,-1.332" style="fill:none;fill-rule:nonzero;"/><path d="M13445,2384.292l254.042,0.042c1.514,0.009 2.811,-1.144 3,-2.667c10.208,-84 -7.917,-184.708 -94.25,-223.583c-25.333,-11.417 -53.194,-16.486 -83.583,-15.208c-146.542,6.208 -209.958,130.667 -194.167,263.208c9.208,77.5 49.625,138.292 124,165c45.333,16.25 95.042,16.708 142.833,11.75c30.389,-3.222 58.792,-10.042 85.208,-20.458c1.75,-0.682 2.712,-2.588 2.208,-4.375c-0.889,-3.306 -5.181,-18.389 -12.875,-45.25c-3.625,-12.75 -8.25,-16.042 -19.042,-19.208c-2.169,-0.624 -4.465,-0.581 -6.583,0.125c-59.75,19.75 -155.667,27.625 -187.75,-42.917c-9.083,-19.972 -14.014,-41.528 -14.792,-64.667c-0,-0.014 -0,-0.028 -0,-0.042c0,-0.96 0.79,-1.75 1.75,-1.75c0,0 0,0 0,0" style="fill:none;fill-rule:nonzero;"/><path d="M13973.958,2555.5c38.542,24.042 87.583,30.833 134.417,29.917c54.875,-1.042 116.458,-17.25 149.833,-60.708c30.708,-39.917 33.208,-97.333 1.292,-137.458c-29.042,-36.5 -70.125,-55.917 -116.125,-78.5c-22.75,-11.208 -63.042,-35.167 -39.958,-67.083c13.833,-19.167 49.875,-21.542 71,-18.25c21.333,3.306 40.833,9.847 58.5,19.625c0.586,0.319 1.243,0.486 1.91,0.486c1.522,0 2.918,-0.869 3.59,-2.236c7.139,-14.778 15.292,-30.972 24.458,-48.583c4.722,-9.028 3.889,-17.792 -2.5,-26.292c-1.145,-1.528 -2.685,-2.722 -4.458,-3.458c-53.028,-21.639 -106.597,-25.972 -160.708,-13c-50.583,12.083 -100.042,47.875 -108.042,101.792c-11.458,77.083 61.792,118.083 121.042,145.458c27.792,12.833 65.042,33.583 61.5,68.542c-4.25,42 -62.625,44.75 -94.667,38.917c-23.556,-4.306 -41.875,-9.736 -54.958,-16.292c-1.442,-0.723 -3.102,-0.857 -4.625,-0.375l-13.417,4.25c-1.989,0.636 -3.637,2.103 -4.542,4.042l-24.917,54.708c-0.739,1.612 -0.146,3.55 1.375,4.5" style="fill:none;fill-rule:nonzero;"/><path d="M7706.167,2170.208c0,-11.223 -9.235,-20.458 -20.458,-20.458l-75.667,0c-11.223,0 -20.458,9.235 -20.458,20.458l0,389.5c-0,11.223 9.235,20.458 20.458,20.458l75.667,0c11.223,0 20.458,-9.235 20.458,-20.458l-0,-389.5" style="fill:none;fill-rule:nonzero;"/><path d="M13015.792,2169.875c0,-11.063 -9.104,-20.167 -20.167,-20.167l-76.5,0c-11.063,-0 -20.167,9.104 -20.167,20.167l0,390.083c0,11.063 9.104,20.167 20.167,20.167l76.5,0c11.063,0 20.167,-9.104 20.167,-20.167l0,-390.083" style="fill:none;fill-rule:nonzero;"/><path d="M1808.417,1503.208c0,-272.578 -224.297,-496.875 -496.875,-496.875c-272.578,0 -496.875,224.297 -496.875,496.875c0,272.578 224.297,496.875 496.875,496.875c272.578,0 496.875,-224.297 496.875,-496.875" style="fill:none;fill-rule:nonzero;stroke:#2a6632;stroke-width:8.33px;"/><path d="M4155.208,1233.25c-0.25,55.875 6.542,111.25 28.333,162.833c12.292,29 36.5,60.542 66.917,73.5c94.875,40.375 176.792,-38.5 179.083,-130c0.167,-6.944 0.389,-41.972 0.667,-105.083c0.306,-63.083 0.403,-98.097 0.292,-105.042c-1.458,-91.542 -82.667,-171.167 -177.917,-131.667c-30.5,12.708 -55,44 -67.542,72.875c-22.292,51.375 -29.583,106.708 -29.833,162.583" style="fill:none;fill-rule:nonzero;stroke:#9d9d9d;stroke-width:8.33px;"/><path d="M10532.292,719.875l0,345.083c-0.004,1.311 1.006,2.413 2.292,2.5c108.125,9.167 240.667,-20.875 264.417,-145.5c5.806,-30.444 5.236,-59.833 -1.708,-88.167c-28.833,-117.375 -163.792,-128.75 -262.583,-116.667c-1.367,0.167 -2.408,1.352 -2.417,2.75" style="fill:none;fill-rule:nonzero;stroke:#9d9d9d;stroke-width:8.33px;"/><path d="M5274.792,1134.25c-0.667,-28.75 -6.222,-55.333 -16.667,-79.75c-23.333,-54.667 -74.542,-86.583 -133.792,-71.417c-62.792,16.125 -95.833,93.042 -104.458,150.833c-0.007,0.055 -0.01,0.111 -0.01,0.167c0,0.731 0.602,1.333 1.333,1.333c0.003,0 0.007,-0 0.01,-0l252.458,0c0.617,0 1.125,-0.527 1.125,-1.167" style="fill:none;fill-rule:nonzero;stroke:#9d9d9d;stroke-width:8.33px;"/><path d="M5809.792,1233.542c0.167,90.542 18.042,250.958 141.625,250.667c123.583,-0.25 140.75,-160.75 140.583,-251.292c-0.208,-90.542 -18.083,-250.958 -141.667,-250.667c-123.542,0.25 -140.75,160.75 -140.542,251.292" style="fill:none;fill-rule:nonzero;stroke:#9d9d9d;stroke-width:8.33px;"/><path d="M6681.208,1234.833c0.139,50.611 0.25,81.597 0.333,92.958c0.194,24.25 1.833,41.681 4.917,52.292c18.833,64.708 72.958,108.25 140.458,98.958c111.333,-15.333 126.417,-159.833 126.208,-244.875c-0.208,-85.042 -16.042,-229.5 -127.417,-244.25c-67.542,-8.958 -121.458,34.833 -139.958,99.625c-3.028,10.639 -4.583,28.083 -4.667,52.333c-0.028,11.361 0.014,42.347 0.125,92.958" style="fill:none;fill-rule:nonzero;stroke:#9d9d9d;stroke-width:8.33px;"/><path d="M8288.958,1134.25c-0.667,-28.75 -6.222,-55.333 -16.667,-79.75c-23.333,-54.667 -74.542,-86.542 -133.792,-71.375c-62.792,16.125 -95.833,93.042 -104.458,150.833c-0.007,0.055 -0.01,0.111 -0.01,0.167c0,0.731 0.602,1.333 1.333,1.333c0.003,0 0.007,-0 0.01,-0l252.458,-0.042c0.617,0 1.125,-0.527 1.125,-1.167" style="fill:none;fill-rule:nonzero;stroke:#9d9d9d;stroke-width:8.33px;"/><path d="M11491.375,1245.375c-94.708,1 -233.292,29.708 -218.5,155.083c7.958,67.5 61.917,94.333 124.667,82.375c45.167,-8.611 75.569,-34.806 91.208,-78.583c3.417,-9.556 5.111,-23.097 5.083,-40.625c-0.056,-57.167 -0.111,-95.833 -0.167,-116c0,-0 0,-0 0,-0c0,-1.234 -1.016,-2.25 -2.25,-2.25c-0.014,0 -0.028,0 -0.042,0" style="fill:none;fill-rule:nonzero;stroke:#9d9d9d;stroke-width:8.33px;"/><path d="M14152.792,1245.375c-94.708,1 -233.292,29.75 -218.458,155.125c7.958,67.5 61.917,94.333 124.667,82.333c45.167,-8.611 75.569,-34.806 91.208,-78.583c3.417,-9.556 5.111,-23.097 5.083,-40.625c-0.056,-57.167 -0.125,-95.833 -0.208,-116c0,-0 0,-0 0,-0c0,-1.234 -1.016,-2.25 -2.25,-2.25c-0.014,0 -0.028,0 -0.042,0" style="fill:none;fill-rule:nonzero;stroke:#9d9d9d;stroke-width:8.33px;"/><path d="M1256.542,1275.333c0,-86.951 -71.549,-158.5 -158.5,-158.5c-86.951,0 -158.5,71.549 -158.5,158.5c0,86.951 71.549,158.5 158.5,158.5c86.951,0 158.5,-71.549 158.5,-158.5" style="fill:none;fill-rule:nonzero;stroke:#8c8b8d;stroke-width:8.33px;"/><path d="M8135.5,2365.417c-0.208,48.667 9.875,130.042 70.583,139.75c40.542,6.458 70.375,-19.792 81.917,-56.542c1.917,-6.167 3,-17.917 3.25,-35.25c0.111,-9.861 0.222,-25.611 0.333,-47.25c0.111,-21.611 0.139,-37.347 0.083,-47.208c-0.083,-17.333 -1.056,-29.097 -2.917,-35.292c-11.208,-36.833 -40.792,-63.375 -81.375,-57.292c-60.833,9.167 -71.667,90.417 -71.875,139.083" style="fill:none;fill-rule:nonzero;"/><path d="M5877.25,2208.208c1.5,0.361 3.139,0 4.917,-1.083c24.833,-15.583 43.083,-26.542 58.958,-51.125c22.167,-34.208 18.333,-83.75 -27.458,-95.083c-45.75,-11.292 -72.25,30.75 -68.583,71.333c2.583,29.167 13.625,47.375 28.375,72.708c1.028,1.806 2.292,2.889 3.792,3.25" style="fill:none;fill-rule:nonzero;"/><path d="M5989.208,2471.917c-54.806,-54.139 -104.083,-105.694 -147.833,-154.667c-0.698,-0.793 -1.902,-0.921 -2.75,-0.292c-25.875,19.375 -49.375,51.708 -51.833,84.375c-4.75,64.25 40.208,104.042 101.542,106.833c38.75,1.778 72.347,-9.375 100.792,-33.458c0.422,-0.356 0.666,-0.881 0.666,-1.433c0,-0.513 -0.211,-1.005 -0.583,-1.359" style="fill:none;fill-rule:nonzero;"/><path d="M3480.125,2365.667c0.167,50.75 10.5,143 80.917,142.792c70.375,-0.25 80.167,-92.542 80,-143.292c-0.167,-50.75 -10.5,-143.042 -80.917,-142.792c-70.417,0.208 -80.167,92.542 -80,143.292" style="fill:none;fill-rule:nonzero;"/><path d="M4689.375,2365.625c0.167,50.75 10.5,143.042 80.917,142.833c70.417,-0.25 80.167,-92.583 80,-143.333c-0.167,-50.75 -10.5,-143.042 -80.917,-142.792c-70.417,0.208 -80.167,92.542 -80,143.292" style="fill:none;fill-rule:nonzero;"/><path d="M8840.375,2309.25l140.667,0c0.001,0 0.001,0 0.002,0c0.891,0 1.625,-0.734 1.625,-1.625c0,-0.028 -0.001,-0.056 -0.002,-0.083c-1.167,-26.583 -10.333,-58.875 -32.542,-74.667c-22.708,-16.167 -55.208,-16.083 -75.25,1.75c-19.333,17.194 -31.625,41.125 -36.875,71.792c-0.024,0.138 -0.036,0.277 -0.036,0.417c0,1.324 1.088,2.414 2.411,2.417" style="fill:none;fill-rule:nonzero;"/><path d="M9497.458,2365.625c0.125,50.792 10.417,143.083 80.875,142.917c70.417,-0.167 80.25,-92.542 80.125,-143.333c-0.125,-50.75 -10.417,-143.083 -80.875,-142.875c-70.417,0.167 -80.25,92.5 -80.125,143.292" style="fill:none;fill-rule:nonzero;"/><path d="M11781.708,2365.583c0.125,50.75 10.417,143 80.792,142.792c70.417,-0.167 80.208,-92.5 80.083,-143.25c-0.167,-50.708 -10.458,-142.958 -80.833,-142.792c-70.417,0.208 -80.208,92.5 -80.042,143.25" style="fill:none;fill-rule:nonzero;"/><path d="M13448.167,2309.292l140.708,0.042c0.001,0 0.001,0 0.002,0c0.891,0 1.625,-0.734 1.625,-1.625c0,-0.028 -0.001,-0.056 -0.002,-0.083c-1.167,-26.583 -10.333,-58.917 -32.542,-74.708c-22.708,-16.167 -55.208,-16.083 -75.25,1.75c-19.361,17.194 -31.667,41.125 -36.917,71.792c-0.024,0.138 -0.036,0.277 -0.036,0.417c0,1.324 1.088,2.414 2.411,2.417" style="fill:none;fill-rule:nonzero;"/></g><g><path d="M2398.583,1503.208c0,596.333 -490.708,1087.042 -1087.042,1087.042c-596.333,0 -1087.042,-490.708 -1087.042,-1087.042c-0,-596.333 490.708,-1087.042 1087.042,-1087.042c596.333,-0 1087.042,490.708 1087.042,1087.042Zm-590.167,0c0,-272.578 -224.297,-496.875 -496.875,-496.875c-272.578,0 -496.875,224.297 -496.875,496.875c0,272.578 224.297,496.875 496.875,496.875c272.578,0 496.875,-224.297 496.875,-496.875Z" style="fill:#3ab54a;fill-rule:nonzero;"/><path d="M1808.417,1503.208c0,272.578 -224.297,496.875 -496.875,496.875c-272.578,0 -496.875,-224.297 -496.875,-496.875c0,-272.578 224.297,-496.875 496.875,-496.875c272.578,0 496.875,224.297 496.875,496.875Zm-551.875,-227.875c0,-86.951 -71.549,-158.5 -158.5,-158.5c-86.951,0 -158.5,71.549 -158.5,158.5c0,86.951 71.549,158.5 158.5,158.5c86.951,0 158.5,-71.549 158.5,-158.5Z" style="fill:#19171a;fill-rule:nonzero;"/><circle cx="1098.042" cy="1275.333" r="158.5" style="fill:#fff;"/></g><path d="M4428.5,893.708c0.187,0.156 0.423,0.242 0.667,0.242c0.571,0 1.042,-0.47 1.042,-1.042l-0.001,-0.033l-0,-314.583c0.002,-1.893 0.752,-3.707 2.083,-5.042l18.333,-18.333c1.811,-1.812 4.271,-2.832 6.833,-2.833l146.625,0c2.477,-0.001 4.861,0.989 6.625,2.75l18.125,18.125c1.547,1.546 2.417,3.646 2.417,5.833c0,289.472 -0.014,553.222 -0.042,791.25c0,76.708 3.708,138.375 8.542,212.333c0.106,1.695 -0.515,3.362 -1.708,4.583l-19.375,19.375c-1.97,1.972 -4.655,3.082 -7.458,3.083l-148.167,0c-1.268,0.006 -2.352,-0.969 -2.5,-2.25l-6.208,-55.25c-0.019,-0.187 -0.068,-0.369 -0.147,-0.539c-0.395,-0.85 -1.436,-1.217 -2.307,-0.813c-0.17,0.079 -0.326,0.184 -0.463,0.311c-62.417,58.167 -152.333,79.292 -235.792,66.875c-177.417,-26.458 -256.958,-185.542 -263.125,-350.083c-0.861,-22.75 -0.833,-44.931 0.083,-66.542c7.208,-168.417 95.125,-328.083 275.583,-354c69.125,-9.958 144.792,2.875 200.333,46.583Zm-273.292,339.542c-0.25,55.875 6.511,111.263 28.333,162.833c12.275,29.007 36.497,60.548 66.917,73.5c94.867,40.394 176.839,-38.499 179.083,-130c0.17,-6.944 0.375,-41.972 0.667,-105.083c0.292,-63.083 0.403,-98.097 0.292,-105.042c-1.461,-91.542 -82.667,-171.167 -177.917,-131.667c-30.5,12.708 -55.005,43.998 -67.542,72.875c-22.301,51.371 -29.583,106.708 -29.833,162.583Zm6377.083,-23.042l0,372.001c0.001,2.506 -0.989,4.906 -2.75,6.667l-18.208,18.167c-1.52,1.519 -3.575,2.374 -5.708,2.375l-150.167,-0c-2.534,0.001 -4.961,-0.987 -6.75,-2.75l-17.958,-18c-1.679,-1.682 -2.624,-3.946 -2.625,-6.292l0,-982.875c-0.003,-1.468 1.056,-2.739 2.5,-3c93.833,-17.472 189.5,-24.639 287,-21.5c156.042,5 336.5,52.417 380.208,225.917c9.833,38.972 11.361,81.75 4.583,128.333c-23.25,160 -172.667,246.708 -320.542,270.208c-48.361,7.694 -97.375,10.458 -147.042,8.292l-0.083,-0.001c-1.349,0 -2.458,1.11 -2.458,2.459Zm0,-490.333l0,345.083c-0.004,1.311 1.006,2.402 2.292,2.5c108.198,8.26 240.659,-20.876 264.417,-145.5c5.804,-30.445 5.244,-59.835 -1.708,-88.167c-28.803,-117.383 -163.791,-128.743 -262.583,-116.667c-1.367,0.167 -2.408,1.352 -2.417,2.75Zm-7478.25,613.125c0.072,0.273 0.322,0.465 0.604,0.465c0.283,0 0.532,-0.192 0.604,-0.465c19.278,-84.444 42.736,-175.417 70.375,-272.917c86.611,-305.417 131.778,-464.889 135.5,-478.417c0.41,-1.473 1.762,-2.5 3.292,-2.5l179.958,0c1.832,0.003 3.555,0.888 4.625,2.375l19.167,26.5c0.626,0.864 0.796,1.996 0.458,3.042l-322.75,996.875c-0.303,0.897 -1.129,1.504 -2.042,1.5l-191.667,-0c-0.99,0.002 -1.874,-0.661 -2.167,-1.625l-316.083,-995.292c-0.633,-2.019 -0.278,-4.228 0.958,-5.958l17.542,-24.25c1.441,-1.988 3.753,-3.167 6.208,-3.167l179.417,0c1.179,-0.006 2.224,0.782 2.542,1.917c78.528,270.056 134.028,461.319 166.5,573.792c5.361,18.611 13.458,48.25 24.292,88.917c7.889,29.611 15.444,59.347 22.667,89.208Zm612.125,-731.917c58.833,-0.25 116.333,30.833 116.583,95.917c0.25,65.125 -57,96.625 -115.833,96.833c-58.833,0.208 -116.333,-30.833 -116.583,-95.958c-0.25,-65.083 57,-96.583 115.833,-96.792Zm1349.417,668.542c7.083,119.625 58.667,204.375 187.625,211.208c59.417,3.167 116.875,-4.917 172.375,-24.25c1.388,-0.48 2.899,-0.405 4.208,0.208l25.917,11.792c1.957,0.898 3.432,2.601 4.042,4.667l29.25,99.917c0.241,0.855 -0.188,1.766 -1,2.125c-23.639,10.194 -45.958,17.778 -66.958,22.75c-80.528,19.028 -161.069,24.403 -241.625,16.125c-37.5,-3.861 -74.806,-13.403 -111.917,-28.625c-124.958,-51.333 -189.208,-165.208 -200.25,-296.292c-17.458,-206.75 72,-409.667 299,-441.75c38,-5.361 76.597,-4.75 115.792,1.833c162.292,27.208 236.375,163.792 240.5,318.458c0.972,37.111 -0.375,69.236 -4.042,96.375c-0.187,1.397 -1.404,2.453 -2.833,2.458l-447.292,0l-0.084,0.001c-1.531,0.043 -2.755,1.356 -2.711,2.91l0.004,0.089Zm259.208,-135.375c-0.667,-28.75 -6.222,-55.333 -16.667,-79.75c-23.333,-54.667 -74.542,-86.583 -133.792,-71.417c-62.792,16.125 -95.833,93.042 -104.458,150.833l-0.01,0.167c0,0.731 0.602,1.333 1.333,1.333l0.01,-0l252.458,0c0.617,0 1.125,-0.527 1.125,-1.167Zm1022.75,114.708c-2.417,60.708 -11.375,117.375 -35.125,172.792c-58.542,136.542 -188.833,205.167 -334.625,198.875c-38.639,-1.667 -74.792,-8.792 -108.458,-21.375c-159.167,-59.583 -219.833,-220.875 -213.458,-382.833c2.375,-60.75 11.375,-117.375 35.125,-172.833c58.542,-136.5 188.833,-205.125 334.625,-198.833c38.639,1.667 74.778,8.792 108.417,21.375c159.208,59.542 219.875,220.875 213.5,382.833Zm-487.75,-15.417c0.167,90.542 18.042,250.958 141.625,250.667c123.583,-0.25 140.75,-160.75 140.583,-251.292c-0.208,-90.542 -18.083,-250.958 -141.667,-250.667c-123.542,0.25 -140.75,160.75 -140.542,251.292Zm873.375,340.625c-0.206,-0.149 -0.454,-0.23 -0.709,-0.23c-0.655,0 -1.197,0.533 -1.208,1.188l0,287.417c0,1.758 -0.705,3.453 -1.958,4.708l-19.875,19.875c-1.549,1.546 -3.663,2.416 -5.875,2.417l-150.875,-0c-1.469,-0.002 -2.874,-0.57 -3.917,-1.583l-19.333,-19.375c-1.492,-1.494 -2.332,-3.503 -2.333,-5.583c0.111,-280.667 0.097,-551.319 -0.042,-811.958c0,-19.806 -2.639,-76.194 -7.917,-169.167c-0.08,-1.485 0.466,-2.926 1.5,-3.958l19.5,-19.5c1.385,-1.386 3.275,-2.166 5.25,-2.167l157.083,0c1.493,-0.003 2.745,1.176 2.833,2.667l3.833,54.292c0.049,0.648 0.596,1.155 1.246,1.155c0.309,0 0.607,-0.115 0.837,-0.322c58.125,-53.167 133.375,-74.417 211.333,-69.375c237.375,15.333 305.083,256.125 283.167,454.208c-10.083,91.167 -41.333,176.333 -105,237.542c-62.792,60.292 -146.333,87.417 -234,84.167c-49.889,-1.833 -94.403,-17.306 -133.542,-46.417Zm-1.958,-339.333c0.125,50.611 0.246,81.597 0.333,92.958c0.186,24.25 1.831,41.681 4.917,52.292c18.819,64.712 72.959,108.252 140.458,98.958c111.334,-15.329 126.417,-159.833 126.208,-244.875c-0.208,-85.042 -16.043,-229.489 -127.417,-244.25c-67.543,-8.952 -121.486,34.825 -139.958,99.625c-3.032,10.638 -4.595,28.083 -4.667,52.333c-0.033,11.361 0,42.347 0.125,92.958Zm842,-310.042c0.004,0.12 0.031,0.237 0.08,0.345c0.215,0.48 0.803,0.69 1.304,0.466c0.104,-0.047 0.2,-0.11 0.283,-0.187c58.611,-58.889 130.375,-85.75 215.292,-80.583c5.197,0.312 10.106,2.522 13.792,6.208l12.208,12.125c3.014,3.013 4.709,7.123 4.708,11.417l0.083,105.542c0.01,2.206 -0.844,4.319 -2.375,5.875l-19.75,19.792c-1.405,1.404 -3.366,2.134 -5.375,2c-30.833,-2 -62.458,-1.167 -94.042,11.333c-53.556,21.167 -86.861,60.458 -99.917,117.875c-3.361,14.694 -5.042,34 -5.042,57.917c-0.083,63.222 -0.056,192.847 0.083,388.875c0.009,1.487 -0.56,2.911 -1.583,3.958l-19.125,19.125c-1.682,1.68 -3.946,2.624 -6.292,2.625l-150.083,0.125c-1.941,0.011 -3.803,-0.755 -5.167,-2.125l-19.125,-19.083c-1.415,-1.44 -2.209,-3.371 -2.208,-5.375c-0.167,-252.528 -0.222,-417.944 -0.167,-496.25c0,-72.333 -4.375,-131.75 -8.375,-204.75c-0.091,-1.425 0.425,-2.819 1.417,-3.833l20,-20.042c1.123,-1.121 2.637,-1.751 4.208,-1.75l159.083,-0.125c0.678,-0.001 1.248,0.532 1.292,1.208l4.792,67.292Zm509.292,341.917l-0.084,0.001c-1.531,0.043 -2.755,1.356 -2.711,2.91l0.004,0.089c7.167,119.625 58.75,204.333 187.708,211.125c59.417,3.139 116.875,-4.958 172.375,-24.292c1.383,-0.492 2.893,-0.433 4.208,0.167l25.917,11.792c1.957,0.898 3.432,2.601 4.042,4.667l29.292,99.917c0.241,0.855 -0.188,1.766 -1,2.125c-23.639,10.194 -45.958,17.778 -66.958,22.75c-80.5,19.083 -161.028,24.5 -241.583,16.25c-37.5,-3.861 -74.806,-13.389 -111.917,-28.583c-125,-51.292 -189.292,-165.125 -200.375,-296.208c-17.542,-206.75 71.833,-409.667 298.792,-441.875c38,-5.361 76.597,-4.764 115.792,1.792c162.292,27.167 236.458,163.708 240.625,318.375c1,37.111 -0.333,69.236 -4,96.375c-0.187,1.397 -1.404,2.453 -2.833,2.458l-447.292,0.167Zm256.458,-132.458c-0.667,-28.75 -6.222,-55.333 -16.667,-79.75c-23.333,-54.667 -74.542,-86.542 -133.792,-71.375c-62.792,16.125 -95.833,93.042 -104.458,150.833l-0.01,0.167c0,0.731 0.602,1.333 1.333,1.333l0.01,-0l252.458,-0.042c0.617,0 1.125,-0.527 1.125,-1.167Zm763.5,-114.583c-1.75,-0.472 -10.847,-4.597 -27.292,-12.375c-38.944,-18.333 -80.292,-26.597 -124.042,-24.792c-43.125,1.792 -98.583,22.833 -91.083,76.875c5.75,41.792 69.5,69.917 112.417,91.083c106.625,52.583 230.458,124.792 208.792,266.25c-22.125,144.667 -166.917,196.75 -294.792,200.917c-82.25,2.708 -173.417,-9.417 -244.417,-53.458c-0.929,-0.571 -1.289,-1.759 -0.833,-2.75l46.458,-102c0.53,-1.164 1.549,-2.046 2.792,-2.417l28.958,-9.208c0.802,-0.265 1.684,-0.205 2.458,0.167c41.417,18.778 84.792,29.792 130.125,33.042c46.25,3.292 126.583,-7 134.833,-66.583c4.639,-33.361 -6.931,-60.792 -34.708,-82.292c-38.583,-29.917 -64.125,-39.417 -124.458,-70.208c-60.625,-31 -131.208,-79.625 -153.625,-147.5c-22.042,-66.792 0.5,-138.625 51.125,-187.417c107.458,-103.667 290.5,-99.833 418.5,-45.083c1.557,0.658 2.747,1.97 3.25,3.583l9.125,28.708c0.243,0.777 0.184,1.625 -0.167,2.375l-51.042,102c-0.431,0.894 -1.441,1.355 -2.375,1.083Zm640.542,0c-1.75,-0.472 -10.847,-4.597 -27.292,-12.375c-38.944,-18.333 -80.292,-26.597 -124.042,-24.792c-43.125,1.792 -98.583,22.833 -91.083,76.875c5.75,41.792 69.5,69.917 112.417,91.083c106.625,52.583 230.458,124.75 208.792,266.208c-22.125,144.667 -166.875,196.75 -294.75,200.917c-82.25,2.708 -173.417,-9.417 -244.417,-53.458c-0.929,-0.571 -1.289,-1.759 -0.833,-2.75l46.458,-102c0.53,-1.164 1.549,-2.046 2.792,-2.417l28.958,-9.208c0.802,-0.265 1.684,-0.205 2.458,0.167c41.417,18.778 84.792,29.792 130.125,33.042c46.25,3.292 126.583,-7 134.833,-66.583c4.611,-33.361 -6.972,-60.792 -34.75,-82.292c-38.542,-29.917 -64.083,-39.375 -124.417,-70.167c-60.625,-31 -131.208,-79.625 -153.625,-147.5c-22.042,-66.792 0.5,-138.625 51.125,-187.417c107.417,-103.625 290.458,-99.833 418.458,-45.083c1.557,0.658 2.747,1.97 3.25,3.583l9.125,28.708c0.243,0.777 0.184,1.625 -0.167,2.375l-51.042,102c-0.431,0.894 -1.441,1.355 -2.375,1.083Zm1796.417,93c1.333,-30.792 -5.625,-72.375 -25.5,-95.5c-25.583,-29.792 -68.833,-37 -106.667,-36.625c-52.528,0.556 -102.292,11.681 -149.292,33.375c-1.443,0.669 -3.103,0.743 -4.625,0.208l-26.333,-9.5c-2.075,-0.743 -3.749,-2.297 -4.625,-4.292l-41.167,-94.208c-0.543,-1.197 -0.087,-2.619 1.042,-3.25c25.639,-14.861 53.819,-26.542 84.542,-35.042c68.472,-18.889 138.222,-26.458 209.25,-22.708c105.417,5.625 209.125,46.792 249.125,153.292c13.306,35.389 20.097,72.75 20.375,112.083c0.25,33.278 0.375,160.333 0.375,381.167c0,20.056 2.847,48.986 8.542,86.792c0.16,1.041 -0.079,2.088 -0.667,2.917l-17.042,23.542c-2.043,2.824 -5.317,4.5 -8.792,4.5l-156.375,-0c-1.627,0.009 -3.018,-1.238 -3.208,-2.875l-5.125,-45.833c-0.024,-0.178 -0.072,-0.352 -0.143,-0.517c-0.416,-0.966 -1.536,-1.426 -2.48,-1.019c-0.167,0.072 -0.322,0.168 -0.461,0.285c-158.042,131.5 -467.375,47.5 -435.458,-196.583c21.958,-167.792 210.958,-230.25 354.5,-243c17.556,-1.556 36.639,-2.958 57.25,-4.208c1.611,-0.104 2.897,-1.408 2.958,-3Zm1.958,132.708c-94.708,1 -233.287,29.708 -218.5,155.083c7.961,67.5 61.917,94.336 124.667,82.375c45.167,-8.609 75.563,-34.808 91.208,-78.583c3.415,-9.556 5.106,-23.097 5.083,-40.625c-0.073,-57.167 -0.139,-95.833 -0.167,-116c-0.002,-1.234 -1.016,-2.25 -2.25,-2.25l-0.042,0Zm611.042,-320.708c0.004,0.119 0.031,0.236 0.079,0.344c0.214,0.48 0.802,0.692 1.303,0.469c0.105,-0.047 0.201,-0.11 0.284,-0.187c58.667,-58.861 130.458,-85.667 215.375,-80.417c5.182,0.322 10.075,2.531 13.75,6.208l12.208,12.167c3.015,3.013 4.71,7.123 4.708,11.417l0,105.542c-0.001,2.212 -0.871,4.326 -2.417,5.875l-19.75,19.75c-1.405,1.405 -3.366,2.134 -5.375,2c-30.833,-2 -62.458,-1.208 -94.042,11.25c-53.583,21.139 -86.931,60.403 -100.042,117.792c-3.361,14.694 -5.056,34 -5.083,57.917c-0.139,63.222 -0.222,192.847 -0.25,388.875c-0.002,1.493 -0.586,2.918 -1.625,3.958l-19.125,19.125c-1.682,1.679 -3.946,2.624 -6.292,2.625l-150.083,0c-1.947,-0 -3.81,-0.782 -5.167,-2.167l-19.125,-19.083c-1.415,-1.44 -2.209,-3.371 -2.208,-5.375c0.083,-252.528 0.181,-417.944 0.292,-496.25c0.083,-72.333 -4.25,-131.75 -8.208,-204.792c-0.08,-1.431 0.451,-2.826 1.458,-3.833l20,-20c1.123,-1.121 2.637,-1.751 4.208,-1.75l159.083,0c0.678,-0.001 1.248,0.532 1.292,1.208l4.75,67.333Zm554.625,-11.083c0.031,0.503 0.453,0.9 0.957,0.9c0.23,0 0.453,-0.083 0.627,-0.233c51.75,-42.583 112.139,-65.708 181.167,-69.375c86.542,-4.625 180.375,15.625 232.458,90.583c0.327,0.472 0.865,0.754 1.439,0.754c0.48,0 0.939,-0.197 1.27,-0.546c52.806,-54.306 117.431,-84.333 193.875,-90.083c156,-11.792 272.417,56.125 292.792,219.625c2.056,16.472 3.069,40.417 3.042,71.833c-0.139,99.639 -0.153,248.5 -0.042,446.583c0.001,1.522 -0.614,2.992 -1.708,4.083l-19.042,19.042c-1.686,1.658 -3.942,2.599 -6.292,2.625c-9.556,0.111 -56.472,0.167 -140.75,0.167c-7.222,0 -12.125,-1.264 -14.708,-3.792c-5.972,-5.833 -11.181,-11.097 -15.625,-15.792c-2.623,-2.783 -4.084,-6.467 -4.083,-10.292c0.25,-184.972 0.194,-338.25 -0.167,-459.833c-0.111,-32.75 -6.597,-61.875 -19.458,-87.375c-18.5,-36.667 -58.625,-46.792 -99.375,-45.667c-52.5,1.5 -95.458,35 -114.042,84.083c-4.167,11.028 -6.264,25.958 -6.292,44.792c-0.25,156.278 -0.292,311.958 -0.125,467.042c0.002,1.745 -0.636,3.434 -1.792,4.75c-5.361,6.056 -11.625,12.375 -18.792,18.958c-4.167,3.792 -12.167,3.083 -18,3.083c-53.611,0.056 -98.681,0.014 -135.208,-0.125c-2.891,0.001 -5.69,-1.101 -7.833,-3.083c-3.944,-3.639 -8.931,-8.431 -14.958,-14.375c-3.889,-3.861 -5.764,-8.931 -5.625,-15.208c0.139,-6.139 0.153,-161.917 0.042,-467.333c0,-13.444 -1.847,-28.292 -5.542,-44.542c-9.083,-39.917 -30.208,-66.625 -71.708,-74.875c-74.25,-14.75 -142.167,21.708 -158.833,98.875c-2.917,13.444 -4.375,31.75 -4.375,54.917c-0.167,275 -0.194,420.819 -0.083,437.458c-0,1.068 -0.272,2.128 -0.792,3.083c-3.875,7.292 -18.875,24.833 -28,24.958c-20.778,0.333 -67.069,0.375 -138.875,0.125c-6.778,-0.028 -11.389,-1.222 -13.833,-3.583c-5.75,-5.583 -11.153,-11.111 -16.208,-16.583c-2.144,-2.332 -3.334,-5.368 -3.333,-8.5c-0.111,-285.444 -0.097,-452.653 0.042,-501.625c0.167,-69.5 -4.125,-127.667 -8.458,-196c-0.135,-2.065 0.641,-4.102 2.125,-5.583l19.458,-19.458c1.149,-1.148 2.709,-1.793 4.333,-1.792l153.208,0c1.73,-0.003 3.182,1.357 3.292,3.083l3.833,54.25Zm1490.917,202.083c1.611,-0.104 2.897,-1.408 2.958,-3c1.333,-30.792 -5.625,-72.375 -25.5,-95.5c-25.542,-29.792 -68.792,-37 -106.625,-36.625c-52.528,0.556 -102.292,11.667 -149.292,33.333c-1.443,0.669 -3.103,0.743 -4.625,0.208l-26.333,-9.5c-2.075,-0.743 -3.749,-2.297 -4.625,-4.292l-41.167,-94.208c-0.543,-1.197 -0.087,-2.619 1.042,-3.25c25.639,-14.861 53.819,-26.542 84.542,-35.042c68.472,-18.861 138.222,-26.417 209.25,-22.667c105.417,5.625 209.125,46.792 249.125,153.292c13.278,35.417 20.056,72.792 20.333,112.125c0.25,33.278 0.361,160.333 0.333,381.167c0,20.056 2.847,48.986 8.542,86.792c0.16,1.041 -0.079,2.088 -0.667,2.917l-17.042,23.5c-2.043,2.824 -5.317,4.5 -8.792,4.5l-156.375,-0c-1.627,0.009 -3.018,-1.238 -3.208,-2.875l-5.125,-45.833c-0.024,-0.178 -0.072,-0.352 -0.143,-0.517c-0.416,-0.966 -1.536,-1.426 -2.48,-1.019c-0.167,0.072 -0.322,0.168 -0.461,0.285c-158.042,131.5 -467.375,47.458 -435.417,-196.625c21.958,-167.792 210.958,-230.208 354.5,-242.958c17.556,-1.556 36.639,-2.958 57.25,-4.208Zm4.833,129.708c-94.708,1 -233.292,29.75 -218.458,155.125c7.958,67.5 61.917,94.333 124.667,82.333c45.167,-8.611 75.569,-34.806 91.208,-78.583c3.417,-9.556 5.111,-23.097 5.083,-40.625c-0.056,-57.167 -0.125,-95.834 -0.208,-116c0,-1.234 -1.016,-2.25 -2.25,-2.25l-0.042,0Zm-10418.75,363.833l-131.625,0c-19.612,-0 -35.75,-16.138 -35.75,-35.75l0,-681.708c-0,-19.612 16.138,-35.75 35.75,-35.75l131.625,0c19.612,0 35.75,16.138 35.75,35.75l-0,681.708c0,19.612 -16.138,35.75 -35.75,35.75Z" style="fill:#3b3b3b;"/><path d="M8289.375,2169.375c0.232,0.163 0.508,0.251 0.792,0.251c0.754,0 1.375,-0.621 1.375,-1.375c0,-104.806 -0.042,-160.459 -0.125,-166.959c-0.167,-16.833 7.917,-25.333 23.667,-25.375c34.417,-0.056 59.653,0.014 75.708,0.208c1.346,0.028 2.654,0.341 3.833,0.917c8.611,4.056 12.903,11.347 12.875,21.875c-0.167,38.917 -0.208,194.389 -0.125,466.417c0,29.333 2.083,58.708 3.958,88.625c1.042,16.542 -6.292,26.167 -22.208,26.208c-7.833,0.056 -33.958,0.083 -78.375,0.083c-0.847,0.026 -1.58,-0.615 -1.667,-1.458l-3.292,-29.292c-0.074,-0.556 -0.554,-0.976 -1.115,-0.976c-0.244,0 -0.482,0.079 -0.677,0.226c-46.778,37.139 -99.819,47.556 -159.125,31.25c-64.292,-17.708 -104.5,-75.042 -118.917,-140.292c-16,-72.375 -10.125,-166.583 37.417,-228.417c34.75,-45.25 81.056,-68.069 138.917,-68.458c32.306,-0.222 61.333,8.625 87.083,26.542Zm-153.875,196.042c-0.208,48.667 9.872,130.06 70.583,139.75c40.54,6.471 70.429,-19.775 81.917,-56.542c1.926,-6.164 3.027,-17.916 3.25,-35.25c0.127,-9.861 0.222,-25.611 0.333,-47.25c0.111,-21.611 0.135,-37.347 0.083,-47.208c-0.09,-17.333 -1.045,-29.101 -2.917,-35.292c-11.143,-36.853 -40.794,-63.391 -81.375,-57.292c-60.837,9.143 -71.667,90.417 -71.875,139.083Zm-2200.792,-96.208c-0.533,0.314 -0.861,0.889 -0.861,1.508c0,0.408 0.143,0.803 0.403,1.117c39.083,45.167 79.375,88.389 120.875,129.667c0.569,0.563 1.338,0.879 2.139,0.879c1.163,0 2.228,-0.667 2.736,-1.713c22.458,-45.833 32.125,-95.292 35.042,-146.208c0.066,-1.416 1.269,-2.544 2.708,-2.542l85.708,-0c1.117,-0.001 2.212,0.302 3.167,0.875c6.889,4.056 11.25,9.069 13.083,15.042c0.467,1.483 0.609,3.06 0.417,4.625c-9.25,69.958 -33.083,138.375 -76.917,194.042c-0.802,1.021 -0.712,2.489 0.208,3.375l85.5,85.5c1.426,1.453 1.912,3.589 1.25,5.5l-5.292,14.583c-1.016,2.839 -3.71,4.746 -6.708,4.75l-99.208,-0c-2.188,-0.002 -4.272,-0.856 -5.792,-2.375l-42.583,-42.583c-1.027,-1.023 -2.663,-1.147 -3.833,-0.292c-59.042,44 -136.708,59.375 -209.25,49.25c-68.375,-9.5 -131.458,-46.083 -155.625,-113.292c-9.667,-26.944 -11.708,-55.097 -6.125,-84.458c11.292,-59.5 57.958,-103.042 107.708,-132.583c0.075,-0.043 0.147,-0.089 0.216,-0.14c1.033,-0.756 1.25,-2.243 0.48,-3.295l-0.155,-0.19c-18.472,-20.5 -32.056,-44.597 -40.75,-72.292c-17.306,-54.944 -7.111,-102.472 30.583,-142.583c73.708,-78.417 266.625,-72.375 284.458,59.917c11.833,87.875 -56.75,135.5 -123.583,173.917Zm54.5,202.708c-54.806,-54.139 -104.083,-105.694 -147.833,-154.667c-0.698,-0.793 -1.902,-0.921 -2.75,-0.292c-25.875,19.375 -49.375,51.708 -51.833,84.375c-4.75,64.25 40.208,104.042 101.542,106.833c38.75,1.778 72.347,-9.375 100.792,-33.458c0.422,-0.356 0.666,-0.881 0.666,-1.433c0,-0.513 -0.211,-1.005 -0.583,-1.359Zm-111.958,-263.708c1.5,0.361 3.146,0.012 4.917,-1.083c24.935,-15.42 43.064,-26.554 58.958,-51.125c22.14,-34.226 18.337,-83.765 -27.458,-95.083c-45.746,-11.306 -72.214,30.747 -68.583,71.333c2.609,29.164 13.749,47.303 28.375,72.708c1.037,1.801 2.292,2.889 3.792,3.25Zm4959.75,-194.958c1.043,0.597 1.49,1.885 1.042,3l-24.375,61.208c-0.57,1.468 -1.554,2.741 -2.833,3.667c-5,3.611 -10.778,5.639 -17.333,6.083c-1.48,0.082 -2.962,-0.174 -4.333,-0.75c-25.556,-11 -55.278,-16.139 -89.167,-15.417c-46.417,1 -101.208,25.333 -90.333,81.167c3.111,15.972 12.153,29.806 27.125,41.5c33.042,25.833 85,48.792 108.208,62.292c53.5,31.125 107.458,78.333 112.708,144.125c3.556,44.528 -9.319,82.764 -38.625,114.708c-73.75,80.417 -213.542,82.667 -309.75,53.958c-11.889,-3.556 -22.264,-8.125 -31.125,-13.708c-1.112,-0.703 -1.584,-2.101 -1.125,-3.333l22.25,-61.833c0.532,-1.488 1.647,-2.694 3.083,-3.333l13.917,-6.083c1.151,-0.481 2.438,-0.496 3.583,-0.042c55.833,22.042 139.5,34.042 190.667,-1.75c40.125,-28.042 39.458,-80.833 6.667,-113.583c-26.083,-26.042 -59.25,-43.333 -94.083,-61.208c-17.5,-9 -35.986,-20.694 -55.458,-35.083c-47.25,-34.958 -82.917,-79.542 -75.542,-138.333c11.333,-90.208 99.083,-133.833 179.708,-142.292c53.083,-5.583 118.917,-1.625 165.125,25.042Zm-7942.25,315.042c0.028,58.472 0.125,132.403 0.292,221.792c0.028,9.833 -0.972,16.569 -3,20.208c-3.611,6.472 -9.319,9.736 -17.125,9.792c-34.139,0.25 -60.625,0.264 -79.458,0.042c-1.402,-0.028 -2.778,-0.34 -4.042,-0.917c-5.722,-2.5 -10.028,-7 -12.917,-13.5c-0.329,-0.686 -0.5,-1.427 -0.5,-2.167l0,-556.458c-0,-0.193 0.042,-0.391 0.125,-0.583c4.333,-10.083 11.958,-15.111 22.875,-15.083c84.611,0.139 179.306,0.194 284.083,0.167c1.131,-0 2.258,0.197 3.333,0.583c5.861,2.111 10.528,6.444 14,13c0.464,0.848 0.708,1.808 0.708,2.792l0,49.958c0,0.634 -0.113,1.255 -0.333,1.833c-4,10.472 -11.861,15.681 -23.583,15.625c-31.806,-0.167 -92.417,-0.194 -181.833,-0.083c-1.371,0 -2.5,1.129 -2.5,2.5l0,163.583c0,1.28 1.053,2.333 2.333,2.333c73.333,-0.056 125.167,-0.069 155.5,-0.042c17.542,0.042 30.875,-1.708 36.625,15.5c0.193,0.524 0.292,1.088 0.292,1.667l0.125,46.417c0,0.304 -0.042,0.613 -0.125,0.917c-3.361,11.556 -11.319,17.319 -23.875,17.292c-82.694,-0.194 -138.681,-0.264 -167.958,-0.208c-1.669,0 -3.042,1.373 -3.042,3.042Zm4193.208,90.458c0.101,0.432 0.49,0.74 0.933,0.74c0.459,0 0.857,-0.33 0.942,-0.782c5.722,-26.889 13.694,-58.778 23.917,-95.667c24.722,-89.389 55.569,-198.875 92.542,-328.458c0.519,-1.818 2.192,-3.082 4.083,-3.083l98.75,0c1.092,-0.001 2.154,0.272 3.083,0.792c11.028,6.139 14.403,15.792 10.125,28.958c-45.944,141.25 -106.042,326.764 -180.292,556.542c-0.438,1.43 -1.778,2.414 -3.292,2.417l-106.917,-0c-1.658,0.006 -3.145,-1.075 -3.667,-2.667l-179.417,-565.083c-0.459,-1.433 -0.429,-2.973 0.083,-4.375c2.708,-7.333 9.208,-17.042 18.708,-16.75c5.306,0.167 36.931,0.222 94.875,0.167c2.553,-0.002 4.811,1.709 5.5,4.167c3.528,12.306 32.736,112.958 87.625,301.958c11.583,39.944 22.389,80.319 32.417,121.125Zm558.914,-415.708c37.254,-0.195 67.631,24.832 67.793,55.854c0.162,31.022 -29.951,56.366 -67.205,56.561c-37.254,0.195 -67.631,-24.832 -67.793,-55.854c-0.162,-31.022 29.951,-56.366 67.205,-56.561Zm5309.723,0.041c37.231,-0.13 67.546,24.95 67.654,55.973c0.108,31.022 -30.031,56.314 -67.262,56.443c-37.231,0.13 -67.546,-24.95 -67.654,-55.973c-0.108,-31.022 30.031,-56.314 67.262,-56.443Zm-8866.304,144.166l0,-60.083c-0.002,-1.474 0.973,-2.774 2.375,-3.167l93.917,-27.5c1.887,-0.551 3.922,-0.197 5.5,0.958l12.542,9.042c1.752,1.279 2.79,3.341 2.792,5.542l0,75.542c0,1.211 1.016,2.208 2.25,2.208l88.667,0c0.852,0 1.691,0.185 2.458,0.542c9.667,4.25 14.417,11.722 14.25,22.417c-0.278,20.556 -0.375,32.528 -0.292,35.917c0.028,1.369 -0.287,2.742 -0.917,4c-3.056,6 -7.556,10.292 -13.5,12.875c-0.769,0.33 -1.606,0.5 -2.458,0.5l-89.125,0c-0.731,-0 -1.333,0.621 -1.333,1.375c0.111,94.861 0.125,166.528 0.042,215c-0.042,32.958 3.25,60.833 41.25,61.583c14.75,0.306 26.528,-0.264 35.333,-1.708c1.332,-0.212 2.682,0.103 3.75,0.875l11.583,8.333c1.877,1.376 3.052,3.498 3.208,5.792l3.833,54.667c0.167,2.298 -1.361,4.394 -3.583,4.917c-53.625,13.083 -138.458,17.917 -181.375,-25.417c-21.458,-21.667 -30.292,-57.708 -30.583,-86.917c-0.417,-44.222 -0.528,-123.014 -0.333,-236.375c0,-1.189 -0.997,-2.167 -2.208,-2.167l-49.917,0c-1.04,-0 -2.07,-0.258 -3,-0.75c-5.583,-2.889 -9.722,-7.028 -12.417,-12.417c-0.657,-1.259 -1.001,-2.66 -1,-4.083l0,-42.083c-0.001,-1.387 0.389,-2.745 1.125,-3.917c3.194,-5.278 7.111,-9.181 11.75,-11.708c1.448,-0.792 3.068,-1.208 4.708,-1.208l48.083,-0c1.44,0 2.625,-1.166 2.625,-2.583Zm7089.875,2.5c1.44,0 2.625,-1.166 2.625,-2.583l0.042,-60.125c0.016,-1.458 0.988,-2.737 2.375,-3.125l93.917,-27.458c1.887,-0.551 3.922,-0.197 5.5,0.958l12.542,9.042c1.752,1.279 2.79,3.341 2.792,5.542l-0.042,75.583c0,1.211 1.016,2.208 2.25,2.208l88.667,0.042c0.852,0 1.691,0.185 2.458,0.542c9.667,4.25 14.417,11.722 14.25,22.417c-0.306,20.556 -0.417,32.528 -0.333,35.917c0.028,1.369 -0.287,2.742 -0.917,4c-3.056,6 -7.556,10.292 -13.5,12.875c-0.769,0.33 -1.606,0.5 -2.458,0.5l-89.167,-0.042c-0.731,-0 -1.333,0.621 -1.333,1.375c0.056,94.861 0.028,166.528 -0.083,215c-0.083,32.958 3.208,60.833 41.208,61.625c14.75,0.306 26.528,-0.264 35.333,-1.708c1.332,-0.212 2.682,0.103 3.75,0.875l11.583,8.375c1.877,1.376 3.052,3.498 3.208,5.792l3.792,54.667c0.167,2.298 -1.361,4.394 -3.583,4.917c-53.667,13.042 -138.5,17.792 -181.375,-25.542c-21.458,-21.708 -30.25,-57.75 -30.542,-86.958c-0.389,-44.222 -0.444,-123.014 -0.167,-236.375c0,-1.189 -0.997,-2.167 -2.208,-2.167l-49.917,-0.042c-1.04,-0 -2.07,-0.258 -3,-0.75c-5.583,-2.889 -9.708,-7.042 -12.375,-12.458c-0.657,-1.259 -1.001,-2.66 -1,-4.083l0,-42.083c-0.001,-1.387 0.389,-2.745 1.125,-3.917c3.194,-5.25 7.125,-9.139 11.792,-11.667c1.448,-0.792 3.068,-1.208 4.708,-1.208l48.083,0.042Zm-7421.25,216.917c-0.667,107.792 -51.875,200.25 -166.25,218c-80.083,12.458 -158.667,-16.583 -199.333,-88.458c-22.958,-40.542 -30.5,-86.542 -30.208,-132.625c0.625,-107.833 51.875,-200.25 166.25,-218.042c80.083,-12.417 158.667,16.625 199.333,88.5c22.917,40.5 30.5,86.542 30.208,132.625Zm-278.792,-1c0.167,50.75 10.5,143 80.917,142.792c70.375,-0.25 80.167,-92.542 80,-143.292c-0.167,-50.75 -10.5,-143.042 -80.917,-142.792c-70.417,0.208 -80.167,92.542 -80,143.292Zm1092.25,-2c0.625,-107.792 51.792,-200.292 166.125,-218.083c80.125,-12.5 158.708,16.5 199.417,88.375c22.958,40.5 30.542,86.5 30.292,132.625c-0.625,107.792 -51.792,200.25 -166.125,218.083c-80.125,12.5 -158.708,-16.5 -199.417,-88.375c-22.958,-40.542 -30.542,-86.542 -30.292,-132.625Zm117,1.958c0.167,50.75 10.5,143.042 80.917,142.833c70.417,-0.25 80.167,-92.583 80,-143.333c-0.167,-50.75 -10.5,-143.042 -80.917,-142.792c-70.417,0.208 -80.167,92.542 -80,143.292Zm4147.916,18.667c-0.96,0 -1.75,0.79 -1.75,1.75l0,0.042c0.778,23.139 5.708,44.694 14.792,64.667c32.125,70.583 128.042,62.667 187.833,42.917c2.119,-0.706 4.415,-0.749 6.583,-0.125c10.792,3.167 15.417,6.458 19.042,19.208c7.694,26.861 11.986,41.944 12.875,45.25c0.504,1.787 -0.458,3.693 -2.208,4.375c-26.417,10.417 -54.819,17.236 -85.208,20.458c-47.792,5 -97.542,4.542 -142.875,-11.708c-74.417,-26.708 -114.833,-87.5 -124.083,-165c-15.792,-132.583 47.583,-257.083 194.167,-263.333c30.389,-1.278 58.264,3.792 83.625,15.208c86.333,38.875 104.5,139.583 94.292,223.625c-0.189,1.523 -1.486,2.676 -3,2.667l-254.084,-0Zm3.084,-75.042l140.668,0c0.891,0 1.626,-0.734 1.626,-1.625l-0.002,-0.083c-1.167,-26.583 -10.333,-58.875 -32.542,-74.667c-22.708,-16.167 -55.208,-16.083 -75.25,1.75c-19.333,17.194 -31.625,41.125 -36.875,71.792c-0.024,0.138 -0.036,0.277 -0.036,0.417c0,1.324 1.088,2.414 2.411,2.417Zm540.167,54.375c0.625,-107.792 51.833,-200.25 166.167,-218.042c80.083,-12.458 158.667,16.583 199.375,88.458c22.917,40.5 30.5,86.5 30.208,132.583c-0.625,107.792 -51.833,200.25 -166.167,218.042c-80.083,12.458 -158.667,-16.583 -199.375,-88.458c-22.917,-40.5 -30.5,-86.5 -30.208,-132.583Zm116.917,2c0.125,50.792 10.417,143.083 80.875,142.917c70.417,-0.167 80.25,-92.542 80.125,-143.333c-0.125,-50.75 -10.417,-143.063 -80.875,-142.875c-70.417,0.187 -80.25,92.5 -80.125,143.292Zm2167.25,-2.25c0.75,-107.792 52.042,-200.167 166.417,-217.833c80.125,-12.375 158.667,16.75 199.292,88.667c22.875,40.542 30.375,86.542 30.083,132.625c-0.75,107.792 -52.042,200.208 -166.417,217.875c-80.125,12.333 -158.667,-16.75 -199.292,-88.667c-22.875,-40.542 -30.375,-86.583 -30.083,-132.667Zm117,2.208c0.125,50.75 10.417,143 80.792,142.792c70.417,-0.167 80.208,-92.5 80.083,-143.25c-0.167,-50.708 -10.458,-142.958 -80.833,-142.792c-70.417,0.208 -80.208,92.5 -80.042,143.25Zm694.125,-179c0.044,0.744 0.669,1.332 1.414,1.332c0.376,0 0.737,-0.15 1.003,-0.416c32.333,-31.417 71.097,-46.278 116.292,-44.583c11.125,0.417 17.958,5.542 22.25,14.375c0.576,1.18 0.889,2.488 0.917,3.833c0.139,7.056 0.194,19.5 0.167,37.333c-0.042,19.667 2.25,28.917 -14.875,37.25c-1.119,0.545 -2.368,0.79 -3.625,0.708c-64.75,-4.625 -110.542,35.417 -111.25,100.083c-0.472,42.333 -0.542,115.931 -0.208,220.792c0.028,10.694 -4.722,18.056 -14.25,22.083c-1.237,0.522 -2.554,0.791 -3.875,0.792l-81.458,0c-1.207,0 -2.387,-0.256 -3.458,-0.75c-9.472,-4.333 -14.208,-10.708 -14.208,-19.125c-0.028,-97.944 -0.069,-201.722 -0.125,-311.333c0,-10.944 -1.222,-35.014 -3.667,-72.208c-0.583,-8.917 0.736,-15.347 3.958,-19.292c4.361,-5.361 11.611,-7.986 21.75,-7.875c19,0.194 44.611,0.264 76.833,0.208c2.143,-0.005 3.952,1.676 4.125,3.833l2.292,32.958Zm969.166,197.708c-0.96,0 -1.75,0.79 -1.75,1.75l0,0.042c0.778,23.139 5.708,44.694 14.792,64.667c32.083,70.542 128,62.667 187.75,42.917c2.119,-0.706 4.415,-0.749 6.583,-0.125c10.792,3.167 15.417,6.458 19.042,19.208c7.694,26.861 11.986,41.944 12.875,45.25c0.504,1.787 -0.458,3.693 -2.208,4.375c-26.417,10.417 -54.819,17.236 -85.208,20.458c-47.792,4.958 -97.5,4.5 -142.833,-11.75c-74.375,-26.708 -114.792,-87.5 -124,-165c-15.792,-132.542 47.625,-257 194.167,-263.208c30.389,-1.278 58.25,3.792 83.583,15.208c86.333,38.875 104.458,139.583 94.25,223.583c-0.189,1.523 -1.486,2.676 -3,2.667l-254.042,-0.042Zm3.167,-75l140.709,0.042c0.891,0 1.626,-0.734 1.626,-1.625l-0.002,-0.083c-1.167,-26.583 -10.333,-58.917 -32.542,-74.708c-22.708,-16.167 -55.208,-16.083 -75.25,1.75c-19.361,17.194 -31.667,41.125 -36.917,71.792c-0.024,0.138 -0.036,0.277 -0.036,0.417c0,1.324 1.088,2.414 2.411,2.417Zm524.417,241.708l24.917,-54.708c0.905,-1.939 2.552,-3.405 4.542,-4.042l13.417,-4.25c1.523,-0.482 3.183,-0.348 4.625,0.375c13.083,6.556 31.403,11.986 54.958,16.292c32.042,5.833 90.417,3.083 94.667,-38.917c3.542,-34.958 -33.708,-55.708 -61.5,-68.542c-59.25,-27.375 -132.5,-68.375 -121.042,-145.458c8,-53.917 57.458,-89.708 108.042,-101.792c54.111,-12.972 107.681,-8.639 160.708,13c1.774,0.736 3.314,1.931 4.458,3.458c6.389,8.5 7.222,17.264 2.5,26.292c-9.167,17.611 -17.319,33.806 -24.458,48.583c-0.672,1.366 -2.067,2.236 -3.59,2.236c-0.667,0 -1.324,-0.167 -1.91,-0.486c-17.667,-9.778 -37.167,-16.319 -58.5,-19.625c-21.125,-3.292 -57.167,-0.917 -71,18.25c-23.083,31.917 17.208,55.875 39.958,67.083c46,22.583 87.083,42 116.125,78.5c31.917,40.125 29.417,97.542 -1.292,137.458c-33.375,43.458 -94.958,59.667 -149.833,60.708c-46.833,0.917 -95.875,-5.875 -134.417,-29.917c-1.521,-0.95 -2.114,-2.888 -1.375,-4.5Zm-6266.417,-380.792l0,389.5c0,11.291 -9.167,20.458 -20.458,20.458l-75.667,0c-11.291,0 -20.458,-9.167 -20.458,-20.458l0,-389.5c0,-11.291 9.167,-20.458 20.458,-20.458l75.667,0c11.291,0 20.458,9.167 20.458,20.458Zm5309.625,-0.333l0,390.083c0,11.13 -9.036,20.167 -20.167,20.167l-76.5,0c-11.13,0 -20.167,-9.036 -20.167,-20.167l0,-390.083c0,-11.13 9.036,-20.167 20.167,-20.167l76.5,0c11.13,0 20.167,9.036 20.167,20.167Z" style="fill:#3ab54a;"/></svg>