<?xml version="1.0" encoding="UTF-8" standalone="no"?>
<!DOCTYPE svg PUBLIC "-//W3C//DTD SVG 1.1//EN" "http://www.w3.org/Graphics/SVG/1.1/DTD/svg11.dtd">
<svg width="100%" height="100%" viewBox="0 0 256 256" version="1.1" xmlns="http://www.w3.org/2000/svg" xmlns:xlink="http://www.w3.org/1999/xlink" xml:space="preserve" xmlns:serif="http://www.serif.com/" style="fill-rule:evenodd;clip-rule:evenodd;stroke-linejoin:round;stroke-miterlimit:2;">
    <g transform="matrix(1,0,0,1,-5435.832168,-7835.909829)">
        <g transform="matrix(1.683502,0,0,1.683502,-21.822759,-75.937766)">
            <g id="logo-eProject" transform="matrix(0.962581,0,0,0.962581,208.566602,181.188332)">
                <g transform="matrix(0.722793,0,0,0.722793,3271.489937,4694.098427)">
                    <path d="M0,217.778L-115.082,217.778C-143.441,217.778 -166.43,194.789 -166.43,166.43L-166.43,51.348C-166.43,22.989 -143.441,0 -115.082,0L0,0C28.359,0 51.348,22.989 51.348,51.348L51.348,166.43C51.348,194.789 28.359,217.778 0,217.778" style="fill:rgb(24,50,175);fill-rule:nonzero;"/>
                </g>
                <g transform="matrix(0.748157,0,0,0.748157,3242.552543,4731.775398)">
                    <path d="M0,104.003C0.47,104.482 0.705,105.071 0.705,105.773C0.705,106.473 0.47,107.065 0,107.543C-0.471,108.024 -1.094,108.262 -1.868,108.262C-2.643,108.262 -3.266,108.024 -3.736,107.543C-4.206,107.065 -4.442,106.473 -4.442,105.773C-4.442,105.071 -4.206,104.482 -3.736,104.003C-3.266,103.522 -2.643,103.282 -1.868,103.282C-1.094,103.282 -0.471,103.522 0,104.003M0.304,110.546C0.423,110.831 0.483,111.206 0.483,111.666L0.483,122.706C0.483,123.481 0.391,124.181 0.208,124.808C0.022,125.435 -0.24,125.975 -0.581,126.428C-0.923,126.88 -1.338,127.229 -1.827,127.479C-2.316,127.729 -2.864,127.854 -3.473,127.854C-4.285,127.854 -4.921,127.608 -5.382,127.118C-5.843,126.63 -6.083,126.017 -6.101,125.28L-5.382,124.837C-4.977,124.577 -4.681,124.224 -4.497,123.771C-4.312,123.319 -4.22,122.817 -4.22,122.263L-4.22,109.702C-4.017,109.665 -3.718,109.615 -3.321,109.549C-2.924,109.485 -2.523,109.452 -2.118,109.452C-1.711,109.452 -1.347,109.481 -1.024,109.535C-0.701,109.592 -0.429,109.702 -0.209,109.867C0.013,110.035 0.184,110.261 0.304,110.546M-2.846,98.048C-4.206,98.048 -5.525,97.74 -6.665,97.161L-68.128,65.761C-71.545,64.019 -73.242,59.841 -71.99,56.257L-45.591,-19.212C-44.605,-22.03 -42.065,-23.851 -39.123,-23.851C-37.99,-23.851 -36.847,-23.567 -35.816,-23.029L34.901,13.677C37.075,14.808 38.356,16.771 38.335,18.93C38.312,21.09 36.99,23.026 34.798,24.11L-15.89,49.216C-19.848,50.83 -22.603,46.073 -22.603,46.073C-22.603,46.073 -24.267,43.347 -25.709,39.523C-28.053,33.305 -23.749,31.156 -23.749,31.156L2.869,18.249L-31.209,0.87L-42.82,35.305C-43.889,38.326 -45.044,41.62 -46.129,44.919C-48.993,53.63 -42.292,56.614 -42.292,56.614L-36.614,59.481L-36.635,59.492L-4.341,75.889C-4.215,75.851 -4.088,75.81 -4.053,75.789L12.606,60.029C14.616,58.128 16.485,56.918 19.317,56.918L29.104,56.962C33.036,56.962 34.726,59.269 35.01,60.621C35.574,63.3 34.774,64.704 32.944,66.499L3.251,95.66C1.706,97.176 -0.516,98.048 -2.846,98.048M40.7,120.092C40.82,120.339 40.88,120.641 40.88,120.99C40.88,121.692 40.617,122.263 40.092,122.706C39.566,123.149 38.639,123.371 37.31,123.371C35.688,123.371 34.437,123.001 33.562,122.263C32.685,121.525 32.248,120.328 32.248,118.666L32.248,106.824C32.45,106.768 32.74,106.709 33.118,106.645C33.497,106.579 33.897,106.549 34.323,106.549C35.134,106.549 35.765,106.69 36.218,106.975C36.669,107.263 36.896,107.866 36.896,108.788L36.896,110.56L40.521,110.56C40.631,110.763 40.737,111.015 40.839,111.319C40.94,111.626 40.991,111.963 40.991,112.33C40.991,112.976 40.847,113.443 40.562,113.728C40.276,114.013 39.892,114.157 39.414,114.157L36.896,114.157L36.896,118.334C36.896,118.815 37.048,119.156 37.353,119.359C37.657,119.562 38.086,119.663 38.639,119.663C38.916,119.663 39.202,119.639 39.496,119.592C39.791,119.547 40.05,119.489 40.271,119.413C40.437,119.616 40.58,119.842 40.7,120.092M7.235,114.958C7.253,114.664 7.313,114.374 7.414,114.086C7.515,113.801 7.667,113.544 7.871,113.313C8.074,113.082 8.337,112.894 8.66,112.745C8.983,112.599 9.366,112.524 9.808,112.524C10.49,112.524 11.007,112.707 11.357,113.077C11.707,113.448 11.911,113.815 11.967,114.183L7.235,114.958ZM14.553,110.753C13.972,110.237 13.281,109.832 12.478,109.535C11.676,109.24 10.786,109.092 9.808,109.092C8.94,109.092 8.093,109.226 7.262,109.495C6.432,109.761 5.695,110.176 5.049,110.739C4.403,111.303 3.882,112.022 3.486,112.899C3.089,113.773 2.891,114.819 2.891,116.038C2.891,117.273 3.089,118.353 3.486,119.274C3.882,120.198 4.427,120.964 5.118,121.572C5.81,122.18 6.621,122.638 7.553,122.942C8.484,123.246 9.494,123.399 10.583,123.399C11.228,123.399 11.919,123.342 12.658,123.232C13.395,123.121 14.06,122.909 14.65,122.595C15.424,122.19 15.812,121.572 15.812,120.743C15.812,120.373 15.711,120.021 15.508,119.691C15.304,119.359 15.055,119.1 14.761,118.916C14.337,119.175 13.787,119.399 13.115,119.592C12.44,119.788 11.726,119.885 10.97,119.885C10.158,119.885 9.439,119.731 8.812,119.427C8.185,119.123 7.77,118.666 7.567,118.058L14.401,117.035C15.028,116.943 15.517,116.729 15.867,116.399C16.218,116.066 16.393,115.585 16.393,114.958C16.393,114.11 16.232,113.327 15.909,112.606C15.586,111.887 15.134,111.27 14.553,110.753M-12.202,118.805C-12.617,119.413 -13.212,119.717 -13.986,119.717C-14.762,119.717 -15.366,119.418 -15.799,118.819C-16.233,118.221 -16.45,117.358 -16.45,116.231C-16.45,115.126 -16.237,114.273 -15.813,113.671C-15.389,113.073 -14.789,112.774 -14.015,112.774C-13.24,112.774 -12.641,113.073 -12.216,113.671C-11.792,114.273 -11.58,115.126 -11.58,116.231C-11.58,117.339 -11.787,118.197 -12.202,118.805M-8.772,111.044C-9.408,110.426 -10.168,109.947 -11.054,109.606C-11.939,109.264 -12.927,109.092 -14.015,109.092C-15.104,109.092 -16.09,109.259 -16.975,109.592C-17.86,109.924 -18.621,110.398 -19.258,111.015C-19.894,111.635 -20.388,112.385 -20.738,113.271C-21.089,114.157 -21.264,115.142 -21.264,116.231C-21.264,117.339 -21.089,118.334 -20.738,119.22C-20.388,120.106 -19.894,120.858 -19.258,121.476C-18.621,122.093 -17.86,122.567 -16.975,122.899C-16.09,123.232 -15.104,123.399 -14.015,123.399C-12.927,123.399 -11.939,123.241 -11.054,122.928C-10.168,122.614 -9.408,122.152 -8.772,121.544C-8.135,120.936 -7.641,120.184 -7.291,119.288C-6.941,118.395 -6.766,117.377 -6.766,116.231C-6.766,115.161 -6.941,114.183 -7.291,113.299C-7.641,112.413 -8.135,111.661 -8.772,111.044M29.563,119.899C29.747,120.203 29.84,120.566 29.84,120.99C29.84,121.747 29.48,122.334 28.76,122.748C28.041,123.163 27.046,123.371 25.773,123.371C24.611,123.371 23.558,123.199 22.618,122.859C21.677,122.517 20.87,122.039 20.197,121.419C19.523,120.801 19.002,120.059 18.633,119.192C18.265,118.324 18.081,117.365 18.081,116.314C18.081,115.097 18.279,114.032 18.676,113.12C19.072,112.205 19.612,111.453 20.294,110.864C20.976,110.273 21.765,109.832 22.659,109.535C23.554,109.24 24.5,109.092 25.496,109.092C26.824,109.092 27.848,109.332 28.567,109.813C29.286,110.292 29.646,110.909 29.646,111.666C29.646,112.017 29.563,112.345 29.397,112.649C29.23,112.953 29.037,113.217 28.816,113.438C28.502,113.29 28.124,113.146 27.682,113.009C27.239,112.87 26.759,112.802 26.243,112.802C25.781,112.802 25.344,112.875 24.929,113.021C24.513,113.17 24.153,113.386 23.849,113.671C23.545,113.959 23.3,114.313 23.116,114.737C22.931,115.161 22.839,115.661 22.839,116.231C22.839,117.377 23.167,118.232 23.822,118.805C24.476,119.378 25.274,119.663 26.215,119.663C26.769,119.663 27.248,119.597 27.654,119.47C28.059,119.34 28.42,119.201 28.733,119.055C29.102,119.312 29.379,119.592 29.563,119.899M-49.501,114.819C-49.381,115.152 -49.32,115.503 -49.32,115.873C-49.32,116.554 -49.477,117.047 -49.791,117.353C-50.105,117.657 -50.511,117.808 -51.008,117.808L-56.93,117.808C-57.059,117.605 -57.179,117.339 -57.29,117.007C-57.4,116.674 -57.456,116.323 -57.456,115.955C-57.456,115.272 -57.299,114.779 -56.985,114.475C-56.672,114.171 -56.265,114.018 -55.767,114.018L-49.846,114.018C-49.735,114.221 -49.621,114.489 -49.501,114.819M-68.273,114.958C-68.255,114.664 -68.195,114.374 -68.094,114.086C-67.993,113.801 -67.841,113.544 -67.637,113.313C-67.434,113.082 -67.171,112.894 -66.848,112.745C-66.526,112.599 -66.142,112.524 -65.701,112.524C-65.018,112.524 -64.501,112.707 -64.151,113.077C-63.801,113.448 -63.597,113.815 -63.542,114.183L-68.273,114.958ZM-60.955,110.753C-61.536,110.237 -62.227,109.832 -63.03,109.535C-63.833,109.24 -64.722,109.092 -65.701,109.092C-66.568,109.092 -67.415,109.226 -68.246,109.495C-69.076,109.761 -69.813,110.176 -70.459,110.739C-71.105,111.303 -71.626,112.022 -72.022,112.899C-72.419,113.773 -72.617,114.819 -72.617,116.038C-72.617,117.273 -72.419,118.353 -72.022,119.274C-71.626,120.198 -71.082,120.964 -70.39,121.572C-69.698,122.18 -68.887,122.638 -67.955,122.942C-67.024,123.246 -66.014,123.399 -64.925,123.399C-64.28,123.399 -63.589,123.342 -62.85,123.232C-62.113,123.121 -61.448,122.909 -60.858,122.595C-60.084,122.19 -59.696,121.572 -59.696,120.743C-59.696,120.373 -59.797,120.021 -60,119.691C-60.204,119.359 -60.453,119.1 -60.747,118.916C-61.172,119.175 -61.721,119.399 -62.394,119.592C-63.068,119.788 -63.782,119.885 -64.538,119.885C-65.35,119.885 -66.069,119.731 -66.696,119.427C-67.323,119.123 -67.738,118.666 -67.941,118.058L-61.107,117.035C-60.48,116.943 -59.991,116.729 -59.641,116.399C-59.291,116.066 -59.115,115.585 -59.115,114.958C-59.115,114.11 -59.276,113.327 -59.599,112.606C-59.922,111.887 -60.374,111.27 -60.955,110.753M-22.093,111.307C-22.093,111.564 -22.131,111.819 -22.204,112.066C-22.278,112.316 -22.37,112.543 -22.481,112.745C-22.869,112.745 -23.265,112.764 -23.67,112.802C-24.077,112.837 -24.473,112.894 -24.86,112.967C-25.248,113.04 -25.612,113.12 -25.953,113.202C-26.295,113.285 -26.586,113.382 -26.825,113.492L-26.825,122.928C-27.01,122.982 -27.3,123.038 -27.696,123.092C-28.093,123.149 -28.503,123.177 -28.928,123.177C-29.334,123.177 -29.698,123.149 -30.021,123.092C-30.344,123.038 -30.615,122.928 -30.837,122.763C-31.058,122.595 -31.229,122.369 -31.349,122.084C-31.47,121.798 -31.528,121.424 -31.528,120.964L-31.528,112.663C-31.528,112.238 -31.451,111.873 -31.294,111.569C-31.137,111.265 -30.911,110.994 -30.615,110.753C-30.321,110.513 -29.956,110.296 -29.523,110.103C-29.089,109.91 -28.624,109.74 -28.125,109.592C-27.628,109.443 -27.111,109.327 -26.577,109.245C-26.041,109.162 -25.506,109.12 -24.971,109.12C-24.086,109.12 -23.385,109.292 -22.869,109.632C-22.353,109.973 -22.093,110.532 -22.093,111.307M-38.627,113.424C-39.042,113.782 -39.637,113.964 -40.411,113.964L-41.878,113.964L-41.878,109.674C-41.676,109.636 -41.476,109.615 -41.283,109.606C-41.09,109.596 -40.845,109.592 -40.55,109.592C-39.719,109.592 -39.088,109.78 -38.655,110.157C-38.221,110.537 -38.004,111.076 -38.004,111.776C-38.004,112.514 -38.212,113.063 -38.627,113.424M-35.099,107.35C-36.445,106.261 -38.392,105.717 -40.937,105.717C-41.749,105.717 -42.556,105.768 -43.358,105.87C-44.161,105.971 -44.875,106.131 -45.502,106.353C-45.872,106.482 -46.162,106.655 -46.374,106.867C-46.586,107.079 -46.692,107.378 -46.692,107.765L-46.692,120.797C-46.692,121.278 -46.637,121.664 -46.526,121.959C-46.415,122.253 -46.249,122.484 -46.028,122.652C-45.807,122.817 -45.535,122.932 -45.212,122.996C-44.889,123.062 -44.516,123.092 -44.091,123.092C-43.667,123.092 -43.238,123.066 -42.805,123.01C-42.372,122.956 -42.054,122.899 -41.85,122.845L-41.85,117.754L-39.885,117.754C-38.761,117.754 -37.769,117.61 -36.911,117.325C-36.054,117.04 -35.343,116.632 -34.781,116.106C-34.218,115.581 -33.794,114.954 -33.508,114.225C-33.222,113.497 -33.079,112.681 -33.079,111.776C-33.079,109.914 -33.752,108.439 -35.099,107.35" style="fill:white;fill-rule:nonzero;"/>
                </g>
            </g>
        </g>
    </g>
</svg>
