<svg class="logo js-logo" role="img" aria-labelledby="69e5f829a30fc_description" width="278" height="100" viewBox="0 0 278 100" tofill="" fill="none" xmlns="http://www.w3.org/2000/svg">
<description id="69e5f829a30fc_description">Cavarretta Assicurazioni | Vai alla homepage</description><g clip-path="url(#clip0_1441_1470)">
<path d="M119.385 23.3751C120.979 24.6294 122.005 26.2258 122.46 28.3922H118.473C118.018 27.366 117.448 26.5678 116.537 25.9977C115.625 25.4276 114.6 25.0855 113.461 25.0855C112.436 25.0855 111.524 25.3136 110.727 25.8837C109.93 26.3398 109.246 27.138 108.904 28.0502C108.449 28.9624 108.221 30.1026 108.221 31.3569C108.221 32.6112 108.449 33.6374 108.904 34.5496C109.36 35.4618 109.93 36.146 110.727 36.7161C111.524 37.1722 112.436 37.5143 113.461 37.5143C114.714 37.5143 115.739 37.1722 116.537 36.602C117.448 36.0319 118.018 35.2337 118.473 34.2075H122.46C122.005 36.26 120.979 37.9704 119.385 39.2246C117.79 40.4789 115.853 41.049 113.461 41.049C111.638 41.049 110.043 40.5929 108.676 39.7948C107.309 38.9966 106.17 37.8563 105.487 36.374C104.689 34.8917 104.348 33.2953 104.348 31.3569C104.348 29.5325 104.689 27.8221 105.487 26.3398C106.284 24.8575 107.309 23.7172 108.676 22.919C110.043 22.1209 111.638 21.6648 113.461 21.6648C115.853 21.5507 117.79 22.1209 119.385 23.3751Z" tofill="" fill="#01466D"></path>
<path d="M136.927 36.8301H129.295L127.928 40.5929H123.94L130.889 21.8928H135.218L142.167 40.5929H138.18L136.927 36.8301ZM135.902 33.9795L133.168 25.9977L130.434 33.9795H135.902Z" tofill="" fill="#01466D"></path>
<path d="M146.952 21.6648L151.964 36.602L157.09 21.6648H161.191L154.47 40.5929H149.572L142.965 21.6648H146.952Z" tofill="" fill="#01466D"></path>
<path d="M174.861 36.8301H167.229L165.862 40.5929H161.875L168.824 21.8928H173.153L180.102 40.5929H176.115L174.861 36.8301ZM173.836 33.9795L171.102 25.9977L168.368 33.9795H173.836Z" tofill="" fill="#01466D"></path>
<path d="M192.062 40.707L187.62 33.2953H185.911V40.707H182.266V21.6648H189.442C191.607 21.6648 193.316 22.2349 194.455 23.2611C195.594 24.2873 196.163 25.7697 196.163 27.48C196.163 28.9624 195.822 30.1026 195.024 31.1288C194.227 32.041 193.088 32.7252 191.607 33.0673L196.277 40.5929H192.062V40.707ZM186.025 30.6727H189.101C191.265 30.6727 192.29 29.7605 192.29 27.8221C192.29 26.9099 192.062 26.2258 191.493 25.6556C190.923 25.1995 190.126 24.8575 188.987 24.8575H185.911V30.6727H186.025Z" tofill="" fill="#01466D"></path>
<path d="M208.695 40.707L204.252 33.2953H202.543V40.707H198.784V21.6648H205.961C208.125 21.6648 209.834 22.2349 210.973 23.2611C212.112 24.2873 212.682 25.7697 212.682 27.48C212.682 28.9624 212.34 30.1026 211.543 31.1288C210.745 32.041 209.606 32.7252 208.125 33.0673L212.796 40.5929H208.695V40.707ZM202.657 30.6727H205.733C207.897 30.6727 208.922 29.7605 208.922 27.8221C208.922 26.9099 208.695 26.2258 208.125 25.6556C207.556 25.1995 206.758 24.8575 205.619 24.8575H202.543V30.6727H202.657Z" tofill="" fill="#01466D"></path>
<path d="M219.175 24.7434V29.6465H225.896V32.4971H219.175V37.6283H226.693V40.707H215.416V21.6648H226.693V24.6294H219.175V24.7434Z" tofill="" fill="#01466D"></path>
<path d="M242.414 21.6648V24.6294H237.174V40.5929H233.415V24.6294H228.175V21.6648H242.414Z" tofill="" fill="#01466D"></path>
<path d="M257.45 21.6648V24.6294H252.21V40.5929H248.451V24.6294H243.211V21.6648H257.45Z" tofill="" fill="#01466D"></path>
<path d="M271.121 36.8301H263.489L262.122 40.5929H258.135L265.084 21.8928H269.413L276.361 40.5929H272.374L271.121 36.8301ZM270.096 33.9795L267.362 25.9977L264.628 33.9795H270.096Z" tofill="" fill="#01466D"></path>
<path d="M114.6 58.4949H108.106L106.967 61.8016H103.55L109.473 45.7241H113.119L119.042 61.8016H115.625L114.6 58.4949ZM113.688 55.9863L111.296 49.1448L108.904 55.9863H113.688Z" tofill="" fill="#01466D"></path>
<path d="M131.459 59.6351C131.004 60.3193 130.434 60.8894 129.637 61.3455C128.839 61.8016 127.814 62.0296 126.675 62.0296C125.536 62.0296 124.511 61.8016 123.599 61.4595C122.688 61.1174 122.004 60.5473 121.435 59.7491C120.865 59.065 120.637 58.1528 120.523 57.1266H123.941C124.055 57.8107 124.283 58.3808 124.738 58.7229C125.194 59.065 125.764 59.4071 126.561 59.4071C127.245 59.4071 127.7 59.179 128.156 58.8369C128.498 58.4949 128.725 58.0388 128.725 57.4686C128.725 57.0125 128.612 56.5564 128.27 56.2144C127.928 55.8723 127.586 55.6442 127.131 55.4162C126.675 55.1881 126.105 54.9601 125.308 54.732C124.283 54.39 123.485 54.0479 122.802 53.7058C122.118 53.3637 121.663 52.9076 121.207 52.2235C120.751 51.5393 120.523 50.7412 120.523 49.7149C120.523 48.3466 120.979 47.2064 122.004 46.4082C123.03 45.61 124.283 45.1539 125.991 45.1539C127.7 45.1539 129.067 45.61 130.092 46.4082C131.118 47.2064 131.687 48.3466 131.801 49.7149H128.27C128.156 49.1448 127.928 48.6887 127.586 48.2326C127.245 47.7765 126.675 47.6625 125.991 47.6625C125.422 47.6625 124.966 47.7765 124.511 48.1186C124.169 48.4607 123.941 48.9168 123.941 49.4869C123.941 49.943 124.055 50.3991 124.397 50.6271C124.738 50.8552 125.08 51.1973 125.422 51.4253C125.764 51.6534 126.447 51.8814 127.245 52.1095C128.27 52.4515 129.181 52.7936 129.751 53.1357C130.434 53.4778 131.004 53.9339 131.459 54.618C131.915 55.3022 132.143 56.1003 132.143 57.1266C132.143 58.1528 131.915 58.8369 131.459 59.6351Z" tofill="" fill="#01466D"></path>
<path d="M145.015 59.6351C144.559 60.3193 143.99 60.8894 143.192 61.3455C142.395 61.8016 141.37 62.0296 140.231 62.0296C139.091 62.0296 138.066 61.8016 137.155 61.4595C136.244 61.1174 135.56 60.5473 134.99 59.7491C134.421 59.065 134.193 58.1528 134.079 57.1266H137.497C137.611 57.8107 137.838 58.3808 138.294 58.7229C138.75 59.065 139.319 59.4071 140.117 59.4071C140.8 59.4071 141.256 59.179 141.712 58.8369C142.053 58.4949 142.281 58.0388 142.281 57.4686C142.281 57.0125 142.167 56.5564 141.825 56.2144C141.484 55.8723 141.142 55.6442 140.686 55.4162C140.231 55.1881 139.661 54.9601 138.864 54.732C137.838 54.39 137.041 54.0479 136.357 53.7058C135.674 53.3637 135.218 52.9076 134.763 52.2235C134.307 51.5393 134.079 50.7412 134.079 49.7149C134.079 48.3466 134.535 47.2064 135.56 46.4082C136.585 45.61 137.838 45.1539 139.547 45.1539C141.256 45.1539 142.623 45.61 143.648 46.4082C144.673 47.2064 145.243 48.3466 145.357 49.7149H141.825C141.712 49.1448 141.484 48.6887 141.142 48.2326C140.8 47.7765 140.231 47.6625 139.547 47.6625C138.978 47.6625 138.522 47.7765 138.066 48.1186C137.724 48.4607 137.497 48.9168 137.497 49.4869C137.497 49.943 137.611 50.3991 137.952 50.6271C138.294 50.8552 138.636 51.1973 138.978 51.4253C139.319 51.6534 140.003 51.8814 140.8 52.1095C141.825 52.4515 142.737 52.7936 143.306 53.1357C143.99 53.4778 144.559 53.9339 145.015 54.618C145.471 55.3022 145.699 56.1003 145.699 57.1266C145.699 58.1528 145.471 58.8369 145.015 59.6351Z" tofill="" fill="#01466D"></path>
<path d="M151.394 45.496V61.6876H148.091V45.496H151.394Z" tofill="" fill="#01466D"></path>
<path d="M166.773 46.8643C168.14 47.8905 168.938 49.3729 169.393 51.0832H165.976C165.634 50.171 165.065 49.4869 164.381 49.0308C163.584 48.5747 162.786 48.2326 161.761 48.2326C160.85 48.2326 160.166 48.4607 159.483 48.9168C158.799 49.3729 158.23 49.943 157.888 50.7412C157.546 51.5393 157.204 52.5656 157.204 53.5918C157.204 54.618 157.432 55.5302 157.774 56.3284C158.116 57.1266 158.685 57.6967 159.369 58.1528C160.052 58.6089 160.85 58.8369 161.647 58.8369C162.672 58.8369 163.584 58.6089 164.267 58.0388C165.065 57.5827 165.52 56.8985 165.862 55.9863H169.28C168.824 57.8107 167.913 59.179 166.659 60.2052C165.292 61.2315 163.698 61.8016 161.647 61.8016C160.052 61.8016 158.685 61.4595 157.546 60.7754C156.407 60.0912 155.496 59.065 154.812 57.8107C154.129 56.5564 153.787 55.0741 153.787 53.4778C153.787 51.8814 154.129 50.3991 154.812 49.1448C155.496 47.8905 156.407 46.8643 157.546 46.1802C158.685 45.496 160.052 45.1539 161.647 45.1539C163.698 45.382 165.406 45.8381 166.773 46.8643Z" tofill="" fill="#01466D"></path>
<path d="M174.975 45.496V54.9601C174.975 56.2144 175.203 57.2406 175.773 57.8107C176.342 58.4949 177.14 58.7229 178.165 58.7229C179.19 58.7229 179.988 58.3809 180.557 57.8107C181.127 57.1266 181.355 56.2144 181.355 54.9601V45.496H184.544V54.9601C184.544 56.4424 184.317 57.6967 183.747 58.7229C183.177 59.7492 182.38 60.5473 181.469 61.0034C180.443 61.4595 179.304 61.8016 178.051 61.8016C176.115 61.8016 174.52 61.2315 173.381 60.0912C172.241 58.951 171.672 57.2406 171.672 54.9601V45.496H174.975Z" tofill="" fill="#01466D"></path>
<path d="M196.05 61.6876L192.291 55.4162H190.924V61.6876H187.734V45.496H193.886C195.822 45.496 197.189 45.9521 198.215 46.8643C199.24 47.7765 199.696 49.0308 199.696 50.5131C199.696 51.7674 199.354 52.7936 198.67 53.5918C197.987 54.39 196.962 54.9601 195.709 55.3022L199.696 61.8016H196.05V61.6876ZM190.924 53.1357H193.544C195.367 53.1357 196.278 52.3375 196.278 50.6271C196.278 49.829 196.05 49.2588 195.595 48.8027C195.139 48.3466 194.455 48.1186 193.544 48.1186H190.924V53.1357Z" tofill="" fill="#01466D"></path>
<path d="M211.77 58.4949H205.277L204.138 61.8016H200.721L206.644 45.7241H210.29L216.213 61.8016H212.796L211.77 58.4949ZM210.859 55.9863L208.467 49.1448L206.075 55.9863H210.859Z" tofill="" fill="#01466D"></path>
<path d="M221.226 59.065H228.744V61.6876H217.58V59.2931L224.985 48.1186H217.694V45.496H228.63V48.0046L221.226 59.065Z" tofill="" fill="#01466D"></path>
<path d="M234.554 45.496V61.6876H231.364V45.496H234.554Z" tofill="" fill="#01466D"></path>
<path d="M249.249 46.2942C250.502 46.9783 251.413 48.0046 252.21 49.2588C252.894 50.5131 253.236 51.9954 253.236 53.5918C253.236 55.1881 252.894 56.6705 252.21 57.9247C251.527 59.179 250.502 60.2053 249.249 60.8894C247.996 61.5736 246.629 61.9156 245.148 61.9156C243.667 61.9156 242.3 61.5736 241.047 60.8894C239.794 60.2053 238.882 59.179 238.085 57.9247C237.401 56.6705 237.06 55.1881 237.06 53.5918C237.06 51.9954 237.401 50.5131 238.085 49.2588C238.768 48.0046 239.794 46.9783 241.047 46.2942C242.3 45.61 243.667 45.268 245.148 45.268C246.742 45.268 248.109 45.61 249.249 46.2942ZM242.641 48.9168C241.958 49.3729 241.388 49.943 240.933 50.7412C240.477 51.5393 240.363 52.4515 240.363 53.5918C240.363 54.618 240.591 55.6442 240.933 56.4424C241.388 57.2406 241.958 57.8107 242.641 58.2668C243.325 58.7229 244.236 58.951 245.148 58.951C246.059 58.951 246.97 58.7229 247.654 58.2668C248.337 57.8107 248.907 57.2406 249.363 56.4424C249.818 55.6442 249.932 54.732 249.932 53.5918C249.932 52.5656 249.704 51.5393 249.363 50.7412C248.907 49.943 248.337 49.3729 247.654 48.9168C246.97 48.4607 246.059 48.2326 245.148 48.2326C244.236 48.2326 243.439 48.4607 242.641 48.9168Z" tofill="" fill="#01466D"></path>
<path d="M269.526 61.6876H266.337L259.046 50.6271V61.6876H255.856V45.496H259.046L266.337 56.6705V45.496H269.526V61.6876Z" tofill="" fill="#01466D"></path>
<path d="M275.791 45.496V61.6876H272.602V45.496H275.791Z" tofill="" fill="#01466D"></path>
<path d="M104.234 81.756V73.6602C104.234 73.5462 104.234 73.4322 104.348 73.3181C104.461 73.2041 104.575 73.2041 104.689 73.2041H107.082C107.879 73.2041 108.562 73.4322 109.018 73.8883C109.474 74.3444 109.702 75.0285 109.702 75.9407V76.0547C109.702 76.9669 109.474 77.6511 108.904 78.1072C108.449 78.5633 107.765 78.7913 106.854 78.7913H105.373V81.87C105.373 81.984 105.259 82.0981 105.145 82.2121C105.031 82.3261 104.917 82.3261 104.689 82.3261C104.461 82.3261 104.348 82.3261 104.234 82.2121C104.348 81.984 104.234 81.87 104.234 81.756ZM105.601 77.6511H107.082C107.537 77.6511 107.879 77.5371 108.107 77.309C108.335 77.081 108.449 76.6249 108.449 76.1688V76.0547C108.449 75.4846 108.335 75.1425 108.107 74.9145C107.879 74.6864 107.537 74.5724 107.082 74.5724H105.601V77.6511Z" tofill="" fill="#00A8DD"></path>
<path d="M110.841 79.4755V75.9407C110.841 75.0285 111.069 74.3444 111.638 73.8883C112.094 73.4322 112.778 73.2041 113.689 73.2041C114.486 73.2041 115.17 73.4322 115.739 73.8883C116.195 74.3444 116.537 75.0285 116.537 75.9407V79.4755C116.537 80.3877 116.309 81.0718 115.739 81.5279C115.284 81.984 114.6 82.2121 113.689 82.2121C112.892 82.2121 112.208 81.984 111.638 81.5279C111.069 81.1859 110.841 80.3877 110.841 79.4755ZM112.094 79.4755C112.094 80.5017 112.55 81.0718 113.575 81.0718C114.031 81.0718 114.372 80.9578 114.6 80.7298C114.828 80.5017 114.942 80.0456 114.942 79.5895V76.0547C114.942 75.4846 114.828 75.1425 114.6 74.9145C114.372 74.6864 114.031 74.5724 113.575 74.5724C112.664 74.5724 112.094 75.1425 112.094 76.1688V79.4755Z" tofill="" fill="#00A8DD"></path>
<path d="M117.904 81.756V73.6602C117.904 73.5462 118.017 73.4322 118.131 73.3181C118.245 73.2041 118.359 73.2041 118.587 73.2041C118.815 73.2041 118.929 73.2041 119.043 73.3181C119.157 73.4322 119.271 73.5462 119.271 73.6602V80.9578H122.46C122.574 80.9578 122.688 81.0718 122.802 81.1859C122.916 81.2999 122.916 81.4139 122.916 81.642C122.916 81.756 122.916 81.984 122.802 82.0981C122.688 82.2121 122.688 82.3261 122.46 82.3261H118.473C118.359 82.3261 118.131 82.3261 118.017 82.2121C117.904 81.984 117.904 81.87 117.904 81.756Z" tofill="" fill="#00A8DD"></path>
<path d="M123.713 81.756V73.6602C123.713 73.5462 123.827 73.4322 123.941 73.3181C124.055 73.2041 124.169 73.2041 124.397 73.2041C124.625 73.2041 124.739 73.2041 124.853 73.3181C124.966 73.4322 125.08 73.5462 125.08 73.6602V81.756C125.08 81.87 124.966 81.984 124.853 82.0981C124.739 82.2121 124.625 82.2121 124.397 82.2121C124.169 82.2121 124.055 82.2121 123.941 82.0981C123.713 81.984 123.713 81.87 123.713 81.756Z" tofill="" fill="#00A8DD"></path>
<path d="M125.992 81.756C125.992 81.642 125.992 81.4139 126.106 81.2999L129.865 74.3443H126.561C126.447 74.3443 126.333 74.3443 126.22 74.2303C126.106 74.1163 126.106 74.0023 126.106 73.7742C126.106 73.6602 126.106 73.4322 126.22 73.3181C126.333 73.2041 126.447 73.0901 126.561 73.0901H131.118C131.346 73.0901 131.574 73.2041 131.574 73.4322C131.574 73.5462 131.574 73.7742 131.46 73.8883L127.7 80.8438H131.46C131.574 80.8438 131.688 80.9578 131.801 81.0718C131.915 81.1859 131.915 81.2999 131.915 81.4139C131.915 81.5279 131.915 81.642 131.801 81.756C131.688 81.87 131.574 81.984 131.46 81.984H126.447C126.106 82.2121 125.992 81.984 125.992 81.756Z" tofill="" fill="#00A8DD"></path>
<path d="M132.257 81.756C132.257 81.642 132.257 81.4139 132.371 81.2999L136.13 74.3443H132.827C132.713 74.3443 132.599 74.3443 132.485 74.2303C132.371 74.1163 132.371 74.0023 132.371 73.7742C132.371 73.6602 132.371 73.4322 132.485 73.3181C132.599 73.2041 132.713 73.0901 132.827 73.0901H137.383C137.611 73.0901 137.839 73.2041 137.839 73.4322C137.839 73.5462 137.839 73.7742 137.725 73.8883L133.966 80.8438H137.725C137.839 80.8438 137.953 80.9578 138.067 81.0718C138.181 81.1859 138.181 81.2999 138.181 81.4139C138.181 81.5279 138.181 81.642 138.067 81.756C137.953 81.87 137.839 81.984 137.725 81.984H132.713C132.371 82.2121 132.257 81.984 132.257 81.756Z" tofill="" fill="#00A8DD"></path>
<path d="M138.409 81.642C138.409 81.5279 138.409 81.5279 138.409 81.642L140.801 73.5462C140.915 73.2041 141.143 73.0901 141.712 73.0901C142.168 73.0901 142.51 73.2041 142.624 73.5462L145.016 81.5279V81.642C145.016 81.756 144.902 81.984 144.674 81.984C144.446 82.0981 144.332 82.0981 144.105 82.0981C143.877 82.0981 143.649 81.984 143.649 81.87L143.193 80.1596H140.117L139.662 81.87C139.662 82.0981 139.434 82.0981 139.206 82.0981C138.978 82.0981 138.864 82.0981 138.637 81.984C138.523 81.87 138.409 81.756 138.409 81.642ZM140.459 79.1334H142.851L141.598 74.9145L140.459 79.1334Z" tofill="" fill="#00A8DD"></path>
<path d="M148.32 79.4755V73.5462C148.32 73.4322 148.433 73.3181 148.547 73.2041C148.661 73.0901 148.775 73.0901 149.003 73.0901C149.231 73.0901 149.345 73.0901 149.459 73.2041C149.573 73.3181 149.687 73.4322 149.687 73.5462V79.4755C149.687 80.0456 149.8 80.3877 150.028 80.6157C150.256 80.8438 150.712 80.9578 151.167 80.9578C152.193 80.9578 152.648 80.3877 152.648 79.3615V73.4322C152.648 73.3181 152.762 73.2041 152.876 73.0901C152.99 72.9761 153.104 72.9761 153.332 72.9761C153.56 72.9761 153.674 72.9761 153.788 73.0901C153.901 73.2041 154.015 73.3181 154.015 73.4322V79.3615C154.015 80.2737 153.788 80.9578 153.218 81.4139C152.762 81.87 152.079 82.0981 151.167 82.0981C150.37 82.0981 149.687 81.87 149.117 81.4139C148.547 81.1859 148.32 80.3877 148.32 79.4755Z" tofill="" fill="#00A8DD"></path>
<path d="M155.496 81.756V73.6602C155.496 73.3181 155.724 73.2041 156.18 73.2041C156.408 73.2041 156.636 73.2041 156.749 73.3181C156.863 73.4322 156.977 73.6602 157.205 73.8883L159.939 79.2474V73.6602C159.939 73.5462 160.053 73.4322 160.167 73.3181C160.281 73.2041 160.395 73.2041 160.623 73.2041C160.85 73.2041 160.964 73.2041 161.078 73.3181C161.192 73.4322 161.306 73.5462 161.306 73.6602V81.756C161.306 81.87 161.192 81.984 161.078 82.0981C160.964 82.2121 160.85 82.2121 160.623 82.2121C160.281 82.2121 160.053 82.0981 159.825 81.756L156.863 76.1688V81.756C156.863 81.87 156.749 81.984 156.636 82.0981C156.522 82.2121 156.408 82.2121 156.18 82.2121C155.952 82.2121 155.838 82.2121 155.724 82.0981C155.61 81.984 155.496 81.87 155.496 81.756Z" tofill="" fill="#00A8DD"></path>
<path d="M162.786 81.756V73.6602C162.786 73.5462 162.9 73.4322 163.014 73.3181C163.128 73.2041 163.242 73.2041 163.47 73.2041C163.698 73.2041 163.812 73.2041 163.926 73.3181C164.039 73.4322 164.153 73.5462 164.153 73.6602V81.756C164.153 81.87 164.039 81.984 163.926 82.0981C163.812 82.2121 163.698 82.2121 163.47 82.2121C163.242 82.2121 163.128 82.2121 163.014 82.0981C162.786 81.984 162.786 81.87 162.786 81.756Z" tofill="" fill="#00A8DD"></path>
<path d="M165.635 79.4755V75.9407C165.635 75.0285 165.863 74.3444 166.432 73.8883C166.888 73.4322 167.572 73.2041 168.369 73.2041C169.166 73.2041 169.85 73.4322 170.42 73.7742C170.875 74.2303 171.217 74.6864 171.217 75.3706C171.217 75.5986 171.217 75.8267 171.103 75.9407C170.989 76.0547 170.875 76.0547 170.647 76.0547C170.192 76.0547 169.964 75.9407 169.964 75.5986C169.964 74.6864 169.394 74.2303 168.483 74.2303C167.458 74.2303 167.002 74.8005 167.002 75.8267V79.3615C167.002 80.3877 167.458 80.9578 168.483 80.9578C168.825 80.9578 169.053 80.9578 169.166 80.8438C169.394 80.7298 169.508 80.6157 169.622 80.5017C169.736 80.3877 169.736 80.1596 169.85 80.0456C169.85 79.9316 169.85 79.8176 169.964 79.5895C169.964 79.2474 170.192 79.1334 170.647 79.1334C170.875 79.1334 171.103 79.1334 171.103 79.2474C171.217 79.3615 171.217 79.4755 171.217 79.8176C171.217 80.5017 170.989 81.0718 170.42 81.5279C169.85 81.984 169.28 82.2121 168.369 82.2121C167.572 82.2121 166.888 81.984 166.432 81.5279C165.863 81.1859 165.635 80.3877 165.635 79.4755Z" tofill="" fill="#00A8DD"></path>
<path d="M171.672 81.642C171.672 81.5279 171.672 81.5279 171.672 81.642L174.064 73.5462C174.178 73.2041 174.406 73.0901 174.976 73.0901C175.431 73.0901 175.773 73.2041 175.887 73.5462L178.279 81.5279V81.642C178.279 81.756 178.165 81.984 177.938 81.984C177.71 82.0981 177.596 82.0981 177.368 82.0981C177.14 82.0981 176.912 81.984 176.912 81.87L176.457 80.1596H173.495L173.039 81.87C173.039 82.0981 172.811 82.0981 172.583 82.0981C172.356 82.0981 172.242 82.0981 172.014 81.984C171.786 81.87 171.672 81.756 171.672 81.642ZM173.723 79.1334H176.115L174.862 74.9145L173.723 79.1334Z" tofill="" fill="#00A8DD"></path>
<path d="M181.583 81.756V73.6602C181.583 73.5462 181.583 73.4322 181.697 73.3181C181.811 73.2041 181.925 73.2041 182.153 73.2041H184.317C185.115 73.2041 185.798 73.4322 186.368 73.8883C186.823 74.3444 187.165 75.0285 187.165 75.9407V79.4755C187.165 80.3877 186.937 81.0718 186.368 81.5279C185.912 81.984 185.229 82.2121 184.317 82.2121H182.267C182.153 82.2121 181.925 82.2121 181.811 82.0981C181.697 81.984 181.583 81.87 181.583 81.756ZM182.95 80.9578H184.431C185.456 80.9578 185.912 80.3877 185.912 79.3615V75.8267C185.912 74.8005 185.456 74.2303 184.431 74.2303H182.95V80.9578Z" tofill="" fill="#00A8DD"></path>
<path d="M188.646 81.756V73.6602C188.646 73.5462 188.646 73.4322 188.874 73.3181C188.987 73.2041 189.101 73.2041 189.329 73.2041H193.658C193.772 73.2041 193.886 73.2041 194 73.4322C194.114 73.5462 194.114 73.6602 194.114 73.7742C194.114 73.8883 194.114 74.1163 194 74.2303C193.886 74.3444 193.772 74.4584 193.658 74.4584H190.013V77.309H191.949C192.063 77.309 192.177 77.309 192.291 77.423C192.405 77.5371 192.405 77.6511 192.405 77.7651C192.405 77.8791 192.405 77.9932 192.291 78.1072C192.177 78.2212 192.063 78.2212 191.949 78.2212H190.013V80.9578H193.658C193.772 80.9578 193.886 81.0718 194 81.1859C194.114 81.2999 194.114 81.4139 194.114 81.642C194.114 81.756 194.114 81.87 194 81.984C193.886 82.0981 193.772 82.2121 193.658 82.2121H189.329C189.215 82.2121 188.987 82.2121 188.874 82.0981C188.76 81.984 188.646 81.87 188.646 81.756Z" tofill="" fill="#00A8DD"></path>
<path d="M195.139 81.756V73.6602C195.139 73.5462 195.253 73.4322 195.367 73.3181C195.481 73.2041 195.595 73.2041 195.823 73.2041C196.05 73.2041 196.164 73.2041 196.278 73.3181C196.392 73.4322 196.506 73.5462 196.506 73.6602V80.9578H199.696C199.81 80.9578 199.924 81.0718 200.037 81.1859C200.151 81.2999 200.151 81.4139 200.151 81.642C200.151 81.756 200.151 81.984 200.037 82.0981C199.924 82.2121 199.924 82.3261 199.696 82.3261H195.823C195.709 82.3261 195.481 82.3261 195.367 82.2121C195.139 81.984 195.139 81.87 195.139 81.756Z" tofill="" fill="#00A8DD"></path>
<path d="M202.772 73.7742C202.772 73.6602 202.886 73.5462 203 73.4322C203.227 73.3181 203.341 73.3181 203.569 73.3181C203.797 73.3181 203.911 73.4322 204.025 73.5462L206.075 80.5017L208.126 73.5462C208.126 73.3181 208.354 73.3181 208.581 73.3181C208.809 73.3181 208.923 73.3181 209.151 73.4322C209.379 73.5462 209.379 73.6602 209.379 73.7742V73.8883L206.987 81.87C206.987 81.984 206.873 82.0981 206.645 82.2121C206.531 82.3261 206.303 82.3261 206.075 82.3261C205.62 82.3261 205.392 82.2121 205.278 81.87L202.772 73.7742Z" tofill="" fill="#00A8DD"></path>
<path d="M210.29 79.4755V75.9407C210.29 75.0285 210.518 74.3444 211.088 73.8883C211.543 73.4322 212.227 73.2041 213.138 73.2041C213.936 73.2041 214.619 73.4322 215.189 73.8883C215.644 74.3444 215.986 75.0285 215.986 75.9407V79.4755C215.986 80.3877 215.758 81.0718 215.189 81.5279C214.733 81.984 214.05 82.2121 213.138 82.2121C212.341 82.2121 211.657 81.984 211.088 81.5279C210.518 81.1859 210.29 80.3877 210.29 79.4755ZM211.543 79.4755C211.543 80.5017 211.999 81.0718 213.024 81.0718C213.48 81.0718 213.822 80.9578 214.05 80.7298C214.277 80.5017 214.391 80.0456 214.391 79.5895V76.0547C214.391 75.4846 214.277 75.1425 214.05 74.9145C213.822 74.6864 213.48 74.5724 213.024 74.5724C212.113 74.5724 211.543 75.1425 211.543 76.1688V79.4755Z" tofill="" fill="#00A8DD"></path>
<path d="M217.239 81.756V73.6602C217.239 73.5462 217.352 73.4322 217.466 73.3181C217.58 73.2041 217.694 73.2041 217.922 73.2041C218.15 73.2041 218.264 73.2041 218.378 73.3181C218.492 73.4322 218.606 73.5462 218.606 73.6602V80.9578H221.795C221.909 80.9578 222.023 81.0718 222.137 81.1859C222.251 81.2999 222.251 81.4139 222.251 81.642C222.251 81.756 222.251 81.984 222.137 82.0981C222.023 82.2121 222.023 82.3261 221.795 82.3261H217.922C217.808 82.3261 217.58 82.3261 217.466 82.2121C217.352 81.984 217.239 81.87 217.239 81.756Z" tofill="" fill="#00A8DD"></path>
<path d="M222.935 79.4755V75.9407C222.935 75.0285 223.162 74.3444 223.732 73.8883C224.188 73.4322 224.871 73.2041 225.782 73.2041C226.58 73.2041 227.263 73.4322 227.833 73.8883C228.289 74.3444 228.63 75.0285 228.63 75.9407V79.4755C228.63 80.3877 228.403 81.0718 227.833 81.5279C227.377 81.984 226.694 82.2121 225.782 82.2121C224.985 82.2121 224.302 81.984 223.732 81.5279C223.162 81.1859 222.935 80.3877 222.935 79.4755ZM224.188 79.4755C224.188 80.5017 224.643 81.0718 225.669 81.0718C226.124 81.0718 226.466 80.9578 226.694 80.7298C226.922 80.5017 227.036 80.0456 227.036 79.5895V76.0547C227.036 75.4846 226.922 75.1425 226.694 74.9145C226.466 74.6864 226.124 74.5724 225.669 74.5724C224.757 74.5724 224.188 75.1425 224.188 76.1688V79.4755Z" tofill="" fill="#00A8DD"></path>
<path d="M229.997 81.756V73.6602C229.997 73.3181 230.225 73.2041 230.681 73.2041C230.909 73.2041 231.137 73.2041 231.251 73.3181C231.364 73.4322 231.478 73.6602 231.706 73.8883L234.44 79.2474V73.6602C234.44 73.5462 234.554 73.4322 234.668 73.3181C234.782 73.2041 234.896 73.2041 235.124 73.2041C235.351 73.2041 235.465 73.2041 235.579 73.3181C235.693 73.4322 235.807 73.5462 235.807 73.6602V81.756C235.807 81.87 235.693 81.984 235.579 82.0981C235.465 82.2121 235.351 82.2121 235.124 82.2121C234.782 82.2121 234.554 82.0981 234.326 81.756L231.364 76.1688V81.756C231.364 81.87 231.251 81.984 231.137 82.0981C231.023 82.2121 230.909 82.2121 230.681 82.2121C230.453 82.2121 230.339 82.2121 230.225 82.0981C229.997 81.984 229.997 81.87 229.997 81.756Z" tofill="" fill="#00A8DD"></path>
<path d="M236.605 73.7742C236.605 73.6602 236.605 73.4322 236.719 73.3181C236.832 73.2041 236.946 73.0901 237.06 73.0901H242.187C242.3 73.0901 242.414 73.2041 242.528 73.3181C242.642 73.4322 242.642 73.5462 242.642 73.7742C242.642 74.0023 242.642 74.1163 242.528 74.2303C242.414 74.3443 242.3 74.4584 242.187 74.4584H240.25V81.756C240.25 81.87 240.136 81.984 240.022 82.0981C239.908 82.2121 239.794 82.2121 239.566 82.2121C239.339 82.2121 239.225 82.2121 239.111 82.0981C238.997 81.984 238.883 81.87 238.883 81.756V74.4584H236.946C236.832 74.4584 236.719 74.3443 236.605 74.2303C236.605 74.1163 236.605 74.0023 236.605 73.7742Z" tofill="" fill="#00A8DD"></path>
<path d="M242.187 81.642C242.187 81.5279 242.187 81.5279 242.187 81.642L244.579 73.5462C244.693 73.2041 244.921 73.0901 245.49 73.0901C245.946 73.0901 246.288 73.2041 246.401 73.5462L248.794 81.5279V81.642C248.794 81.756 248.68 81.984 248.452 81.984C248.224 82.0981 248.11 82.0981 247.882 82.0981C247.655 82.0981 247.427 81.984 247.427 81.87L246.971 80.1596H244.009L243.554 81.87C243.554 82.0981 243.326 82.0981 243.098 82.0981C242.87 82.0981 242.756 82.0981 242.528 81.984C242.3 81.87 242.187 81.756 242.187 81.642ZM244.237 79.1334H246.629L245.376 74.9145L244.237 79.1334Z" tofill="" fill="#00A8DD"></path>
<path d="M249.705 81.756V73.6602C249.705 73.5462 249.705 73.4322 249.819 73.3181C249.933 73.2041 250.047 73.2041 250.161 73.2041H252.439C254.262 73.2041 255.287 74.0023 255.287 75.7127C255.287 76.3968 255.173 76.9669 254.832 77.309C254.49 77.6511 254.148 77.9932 253.578 78.1072L255.287 81.2999C255.287 81.2999 255.287 81.4139 255.287 81.5279C255.287 81.642 255.173 81.87 255.059 81.984C254.945 82.0981 254.718 82.2121 254.49 82.2121C254.262 82.2121 254.148 82.0981 253.92 81.87L252.098 78.3352H250.844V81.756C250.844 81.87 250.731 81.984 250.617 82.0981C250.503 82.2121 250.389 82.2121 250.161 82.2121C249.933 82.2121 249.819 82.2121 249.705 82.0981C249.819 81.984 249.705 81.87 249.705 81.756ZM251.072 77.309H252.553C253.578 77.309 254.034 76.8529 254.034 75.8267C254.034 74.8005 253.578 74.3444 252.553 74.3444H251.072V77.309Z" tofill="" fill="#00A8DD"></path>
<path d="M256.654 81.756V73.6602C256.654 73.5462 256.767 73.4322 256.881 73.3181C256.995 73.2041 257.109 73.2041 257.337 73.2041C257.565 73.2041 257.679 73.2041 257.793 73.3181C257.907 73.4322 258.021 73.5462 258.021 73.6602V81.756C258.021 81.87 257.907 81.984 257.793 82.0981C257.679 82.2121 257.565 82.2121 257.337 82.2121C257.109 82.2121 256.995 82.2121 256.881 82.0981C256.654 81.984 256.654 81.87 256.654 81.756Z" tofill="" fill="#00A8DD"></path>
<path d="M258.932 81.642C258.932 81.5279 258.932 81.5279 258.932 81.642L261.324 73.5462C261.438 73.2041 261.666 73.0901 262.235 73.0901C262.691 73.0901 263.033 73.2041 263.147 73.5462L265.539 81.5279V81.642C265.539 81.756 265.425 81.984 265.197 81.984C264.969 82.0981 264.856 82.0981 264.628 82.0981C264.4 82.0981 264.172 81.984 264.172 81.87L263.716 80.1596H260.755L260.299 81.87C260.299 82.0981 260.071 82.0981 259.843 82.0981C259.615 82.0981 259.501 82.0981 259.274 81.984C259.046 81.87 258.932 81.756 258.932 81.642ZM260.982 79.1334H263.375L262.122 74.9145L260.982 79.1334Z" tofill="" fill="#00A8DD"></path>
<path d="M265.083 73.7742C265.083 73.6602 265.083 73.4322 265.197 73.3181C265.311 73.2041 265.425 73.0901 265.539 73.0901H270.665C270.779 73.0901 270.893 73.2041 271.007 73.3181C271.121 73.4322 271.121 73.5462 271.121 73.7742C271.121 74.0023 271.121 74.1163 271.007 74.2303C270.893 74.3443 270.779 74.4584 270.665 74.4584H268.729V81.756C268.729 81.87 268.615 81.984 268.501 82.0981C268.387 82.2121 268.273 82.2121 268.045 82.2121C267.817 82.2121 267.703 82.2121 267.589 82.0981C267.475 81.984 267.362 81.87 267.362 81.756V74.4584H265.425C265.311 74.4584 265.197 74.3443 265.083 74.2303C265.197 74.1163 265.083 74.0023 265.083 73.7742Z" tofill="" fill="#00A8DD"></path>
<path d="M271.805 79.4755V75.9407C271.805 75.0285 272.033 74.3444 272.602 73.8883C273.058 73.4322 273.741 73.2041 274.653 73.2041C275.45 73.2041 276.134 73.4322 276.703 73.8883C277.159 74.3444 277.501 75.0285 277.501 75.9407V79.4755C277.501 80.3877 277.273 81.0718 276.703 81.5279C276.248 81.984 275.564 82.2121 274.653 82.2121C273.855 82.2121 273.172 81.984 272.602 81.5279C272.033 81.1859 271.805 80.3877 271.805 79.4755ZM273.172 79.4755C273.172 80.5017 273.627 81.0718 274.653 81.0718C275.108 81.0718 275.45 80.9578 275.678 80.7298C275.906 80.5017 276.02 80.0456 276.02 79.5895V76.0547C276.02 75.4846 275.906 75.1425 275.678 74.9145C275.45 74.6864 275.108 74.5724 274.653 74.5724C273.741 74.5724 273.172 75.1425 273.172 76.1688V79.4755Z" tofill="" fill="#00A8DD"></path>
<path d="M79.5137 85.2908C66.869 99.4299 47.3893 103.877 30.8714 96.3512C22.4416 92.5884 15.2648 85.9749 9.68293 77.9932C0.797446 65.2224 -2.16438 48.1186 1.59486 32.4972C1.70878 31.927 1.93661 31.2429 2.05053 30.6728C2.16444 30.3307 2.27836 29.9886 2.39228 29.6465C2.96186 27.8221 3.64536 25.8837 4.32886 24.1733C5.46802 21.5507 6.7211 19.0422 8.31593 16.6477C10.0247 14.0251 12.0752 11.6306 14.2396 9.57811C15.1509 8.77993 16.0623 7.98176 17.0875 7.18358C18.3406 6.15736 19.7076 5.35918 21.1885 4.44698C21.5302 4.21893 21.872 4.1049 22.2137 3.87685C22.3277 3.76283 22.4416 3.76283 22.5555 3.6488C23.1251 3.30673 23.6947 3.07868 24.2642 2.85063C24.7199 2.62258 25.2895 2.39453 25.7452 2.16648C26.0869 2.05245 26.4287 1.93843 26.6565 1.8244C27.1122 1.71038 27.4539 1.59635 27.9096 1.3683H28.0235C28.707 1.25428 29.1627 1.14025 29.6183 1.02623C30.6436 0.798176 31.6688 0.570126 32.808 0.342075C33.8332 0.22805 34.9724 0.114025 36.1116 0C36.6811 0 37.2507 0 37.8203 0C39.0734 0 40.3265 0.114025 41.4656 0.22805C35.4281 3.53478 29.8462 8.09578 25.5173 13.3409C24.8338 14.2531 24.1503 15.1653 23.4668 16.0775L23.3529 16.1916C23.1251 16.5336 22.8972 16.7617 22.6694 17.1038C22.5555 17.3318 22.4416 17.5599 22.2137 17.6739C13.67 30.7868 11.0499 47.7765 20.7328 63.9681C20.8468 64.1961 21.0746 64.4242 21.1885 64.6522C24.7199 70.4675 29.5044 75.3706 34.8585 78.1072C37.8203 79.7035 41.01 80.2737 44.1996 80.8438L44.3135 80.9578C44.3135 80.9578 44.3135 80.9578 44.4275 80.9578C45.111 81.0718 45.9084 81.0718 46.5919 81.0718C46.8197 81.0718 46.9336 81.1859 47.1615 81.1859C47.731 81.1859 48.4145 81.1859 48.9841 81.0718H49.212C51.946 80.9578 54.566 80.5017 57.0722 79.4755H57.1861C57.5279 79.3615 57.7557 79.2474 58.0974 79.2474C59.5784 78.7913 60.8314 78.2212 62.0845 77.423C74.1597 71.4937 81.4503 56.5565 78.9442 41.5051C75.7545 22.2349 56.8444 8.89396 41.2378 12.9989C41.2378 12.9989 41.2378 12.9989 41.3517 12.9989C45.9084 10.2623 51.1485 9.35006 56.2748 9.92018C66.9829 11.0604 79.5137 19.8404 85.6652 30.2167C85.7792 30.3307 85.8931 30.5587 85.8931 30.6728C87.8297 34.2075 89.4245 38.0844 90.3358 42.0753C90.7915 43.8997 91.1332 45.61 91.2471 47.4344C91.2471 47.6625 91.3611 47.8905 91.3611 48.1186C91.3611 48.2326 91.3611 48.3466 91.3611 48.4607C91.3611 48.5747 91.3611 48.6887 91.3611 48.9168C91.3611 49.4869 91.475 50.057 91.475 50.6271C91.475 50.9692 91.475 51.3113 91.475 51.6534C92.1585 64.0821 87.6018 76.2828 79.5137 85.2908Z" tofill="" fill="#01466D"></path>
<path d="M53.9968 68.9852C47.6175 71.0376 40.6686 67.1608 38.3903 60.2052C36.112 53.3637 39.4155 46.0661 45.7949 43.8997C52.1742 41.8472 59.1231 45.7241 61.4014 52.5656C63.6797 59.6351 60.3762 66.9327 53.9968 68.9852Z" tofill="" fill="#01466D"></path>
<path d="M48.1871 80.9578C48.5289 80.9578 48.8706 80.9578 49.2124 80.9578C49.0985 80.9578 49.0985 80.9578 48.9845 81.0718C45.4531 82.3261 41.3521 82.3261 37.3651 82.0981C17.6575 80.9578 1.93702 65.3364 0.797852 43.3295C0.797852 42.7594 0.797852 42.0753 0.797852 41.5051V41.2771C0.797852 38.4265 1.1396 35.5758 1.59527 32.9533C1.70918 32.2691 1.93702 31.4709 2.05093 30.7868C2.16485 30.3307 2.27877 29.9886 2.27877 29.5325C3.53185 24.7434 5.58235 20.4105 8.20243 16.5336C9.91117 13.9111 11.9617 11.6306 14.1261 9.57811C18.6827 5.4732 23.9229 2.50855 29.6187 1.02623C30.644 0.798176 31.6692 0.570125 32.8084 0.342075C33.8336 0.22805 34.9728 0.114025 36.112 0C36.6816 0 37.2511 0 37.8207 0C39.0738 0 40.3269 0.114025 41.466 0.22805C41.8078 0.22805 42.0356 0.342075 42.3774 0.342075C46.3645 0.912201 50.1237 2.16648 53.6551 3.99088C54.2247 4.21893 54.6804 4.561 55.2499 4.90308C52.9716 4.33295 50.6933 4.1049 48.415 4.1049C39.6434 4.1049 31.6692 7.86773 25.6317 13.9111C25.4038 14.2531 24.4925 15.0513 23.5812 16.0775L23.4672 16.1916C23.2394 16.5336 23.0116 16.7617 22.7837 17.1038C22.6698 17.3318 22.5559 17.5599 22.3281 17.6739C17.5436 25.1995 14.8096 32.7252 14.8096 42.1893V42.4173C15.0374 59.293 24.9482 71.9498 35.0867 77.5371C38.2764 79.3615 41.466 80.3877 44.4279 80.6157C45.1114 80.7298 45.9088 80.8438 46.5923 80.8438C46.8201 80.8438 47.048 80.8438 47.2758 80.8438C47.3897 80.8438 47.5036 80.8438 47.6175 80.8438C47.8454 80.9578 48.0732 80.9578 48.1871 80.9578Z" tofill="" fill="#06AFDD"></path>
</g>
<defs>
<clipPath id="clip0_1441_1470">
<rect width="277.273" height="100" tofill="" fill="white"></rect>
</clipPath>
</defs>
</svg>