<svg viewBox="0 0 661.78 61.08" xmlns="http://www.w3.org/2000/svg" id="design">
  <defs>
    <style>
      .cls-1 {
        fill: #010000;
      }

      .cls-2 {
        fill: #ff5777;
      }

      .cls-3 {
        fill: #ffb2d1;
      }
    </style>
  </defs>
  <path d="M173.72,29.32c-2.84-1.61-6.59-2.97-11.26-4.09-3.89-.89-6.5-1.85-7.84-2.88-1.33-1.03-2-2.32-2-3.88,0-1.67.65-2.96,1.96-3.88,1.31-.92,3.15-1.37,5.55-1.37,2,0,4.01.42,6.04,1.25,2.03.83,3.77,2.2,5.21,4.08l9.5-6.59c-2-3.06-4.66-5.53-7.96-7.42-3.31-1.89-7.35-2.84-12.13-2.84-4.22,0-7.87.75-10.92,2.25-3.06,1.5-5.41,3.54-7.04,6.13-1.64,2.58-2.46,5.54-2.46,8.88,0,2.84.55,5.41,1.67,7.71,1.11,2.31,3.01,4.29,5.71,5.96,2.7,1.67,6.35,3.06,10.96,4.17,2.84.67,5,1.36,6.5,2.08,1.5.72,2.54,1.49,3.13,2.29s.87,1.76.87,2.88c0,1.72-.64,3.11-1.92,4.17-1.28,1.06-3.17,1.58-5.67,1.58-2.89,0-5.5-.69-7.84-2.08-2.33-1.39-4.31-3.42-5.92-6.09l-9.5,5.92c1.56,3.11,3.46,5.66,5.71,7.63,2.25,1.97,4.81,3.45,7.67,4.42,2.86.97,5.93,1.46,9.21,1.46,4.28,0,7.98-.76,11.09-2.29,3.11-1.53,5.52-3.6,7.21-6.21,1.69-2.61,2.54-5.58,2.54-8.92s-.64-6.09-1.92-8.42c-1.28-2.33-3.34-4.31-6.17-5.92Z" class="cls-1"></path>
  <polygon points="192.98 59.67 229.08 59.67 229.08 48.08 205.15 48.08 205.15 36.99 224.49 36.99 224.49 25.4 205.15 25.4 205.15 14.48 229.08 14.48 229.08 2.89 192.98 2.89 192.98 59.67" class="cls-1"></polygon>
  <path d="M258.88,15.94c2.47-1.47,5.29-2.21,8.46-2.21,3.33,0,6.24.74,8.71,2.21,2.47,1.47,4.63,3.79,6.46,6.96l11.09-4.25c-2.28-5.34-5.56-9.45-9.84-12.34-4.28-2.89-9.76-4.34-16.42-4.34-4.22,0-8.1.71-11.63,2.13-3.53,1.42-6.57,3.45-9.13,6.09-2.56,2.64-4.54,5.75-5.96,9.34-1.42,3.58-2.13,7.52-2.13,11.8,0,5.73,1.18,10.8,3.54,15.22,2.36,4.42,5.7,7.88,10.01,10.38,4.31,2.5,9.41,3.75,15.3,3.75,6.67,0,12.14-1.45,16.42-4.34,4.28-2.89,7.56-7,9.84-12.34l-11.09-4.25c-1.83,3.17-3.99,5.47-6.46,6.92-2.47,1.45-5.38,2.17-8.71,2.17s-5.99-.72-8.46-2.17c-2.47-1.45-4.42-3.49-5.84-6.13-1.42-2.64-2.13-5.71-2.13-9.21s.71-6.64,2.13-9.25c1.42-2.61,3.36-4.65,5.84-6.13Z" class="cls-1"></path>
  <path d="M343.34,33.24c1.86-2.95,2.79-6.47,2.79-10.59s-.93-7.56-2.79-10.5c-1.86-2.95-4.39-5.22-7.59-6.84-3.2-1.61-6.82-2.42-10.88-2.42h-20.93v56.78h12.17v-17.26h8.22l9.03,17.26h13.34l-10.44-19.94c2.94-1.57,5.31-3.71,7.06-6.49ZM316.12,14.64h7.84c3.06,0,5.43.68,7.13,2.04,1.69,1.36,2.54,3.35,2.54,5.96s-.85,4.6-2.54,5.96c-1.7,1.36-4.07,2.04-7.13,2.04h-7.84V14.64Z" class="cls-1"></path>
  <polygon points="358.14 59.67 394.24 59.67 394.24 48.08 370.31 48.08 370.31 36.99 389.65 36.99 389.65 25.4 370.31 25.4 370.31 14.48 394.24 14.48 394.24 2.89 358.14 2.89 358.14 59.67" class="cls-1"></polygon>
  <polygon points="448.93 2.89 402.66 2.89 402.66 14.64 419.5 14.64 419.5 59.67 431.76 59.67 431.76 14.64 448.93 14.64 448.93 2.89" class="cls-1"></polygon>
  <path d="M474.07,15.94c2.47-1.47,5.29-2.21,8.46-2.21,3.34,0,6.24.74,8.71,2.21,2.47,1.47,4.63,3.79,6.46,6.96l11.09-4.25c-2.28-5.34-5.56-9.45-9.84-12.34-4.28-2.89-9.76-4.34-16.43-4.34-4.22,0-8.1.71-11.63,2.13-3.53,1.42-6.57,3.45-9.13,6.09-2.56,2.64-4.54,5.75-5.96,9.34-1.42,3.58-2.13,7.52-2.13,11.8,0,5.73,1.18,10.8,3.54,15.22,2.36,4.42,5.7,7.88,10,10.38,4.31,2.5,9.41,3.75,15.3,3.75,6.67,0,12.14-1.45,16.43-4.34,4.28-2.89,7.56-7,9.84-12.34l-11.09-4.25c-1.83,3.17-3.99,5.47-6.46,6.92s-5.38,2.17-8.71,2.17-5.99-.72-8.46-2.17-4.42-3.49-5.84-6.13c-1.42-2.64-2.13-5.71-2.13-9.21s.71-6.64,2.13-9.25c1.42-2.61,3.36-4.65,5.84-6.13Z" class="cls-2"></path>
  <path d="M533.06,2.89l-20.18,56.78h12.26l3.65-10.59h21.15l3.39,10.59h12.34l-19.18-56.78h-13.42ZM532.66,37.82l7.08-20.57,6.59,20.57h-13.67Z" class="cls-2"></path>
  <path d="M606.42,29.32c-2.83-1.61-6.59-2.97-11.25-4.09-3.89-.89-6.5-1.85-7.84-2.88-1.34-1.03-2-2.32-2-3.88,0-1.67.65-2.96,1.96-3.88,1.3-.92,3.15-1.37,5.54-1.37,2,0,4.01.42,6.05,1.25,2.03.83,3.76,2.2,5.21,4.08l9.5-6.59c-2-3.06-4.66-5.53-7.96-7.42-3.31-1.89-7.35-2.84-12.13-2.84-4.23,0-7.87.75-10.92,2.25-3.06,1.5-5.41,3.54-7.05,6.13-1.64,2.58-2.46,5.54-2.46,8.88,0,2.84.55,5.41,1.67,7.71,1.11,2.31,3.01,4.29,5.71,5.96,2.7,1.67,6.35,3.06,10.96,4.17,2.83.67,5,1.36,6.5,2.08,1.5.72,2.54,1.49,3.13,2.29.58.81.88,1.76.88,2.88,0,1.72-.64,3.11-1.92,4.17-1.28,1.06-3.17,1.58-5.67,1.58-2.89,0-5.5-.69-7.84-2.08-2.34-1.39-4.31-3.42-5.92-6.09l-9.5,5.92c1.56,3.11,3.46,5.66,5.71,7.63,2.25,1.97,4.81,3.45,7.67,4.42,2.86.97,5.93,1.46,9.21,1.46,4.28,0,7.98-.76,11.09-2.29,3.11-1.53,5.52-3.6,7.21-6.21,1.69-2.61,2.54-5.58,2.54-8.92s-.64-6.09-1.92-8.42c-1.28-2.33-3.34-4.31-6.17-5.92Z" class="cls-2"></path>
  <polygon points="661.78 14.48 661.78 2.89 625.68 2.89 625.68 59.67 661.78 59.67 661.78 48.08 637.86 48.08 637.86 36.99 657.2 36.99 657.2 25.4 637.86 25.4 637.86 14.48 661.78 14.48" class="cls-2"></polygon>
  <path d="M58.44,2.89h-10.92l-13.3,38.02L20.93,2.89h-10.92L0,59.67h12.17l3.92-25.35c.55-3.39,1.03-6.77,1.42-10.13.02-.15.03-.29.05-.44.05.2.11.41.16.61.86,3.2,1.87,6.46,3.04,9.8l8.67,24.84h9.59l8.67-24.84c1.17-3.28,2.18-6.53,3.04-9.76.06-.24.13-.48.19-.72.02.17.04.34.06.52.42,3.36.87,6.74,1.38,10.13l3.92,25.35h12.26L58.44,2.89Z" class="cls-2"></path>
  <g>
    <path d="M125.57,5.27c-3.27-3.7-7.9-5.6-12.78-5.23-3.87.29-7.45,2.19-10.19,5l-2.53,2.6c-.13.13-.3.19-.47.18-.17,0-.34-.05-.47-.18l-2.53-2.6c-2.74-2.81-6.33-4.7-10.19-5-4.88-.37-9.51,1.53-12.78,5.23-4.13,4.67-4.91,11.24-2.71,16.82h12.7l-1.98-2.03c-2.01-2.06-2.31-5.44-.44-7.64,1.16-1.36,2.84-2.03,4.6-1.84,1.28.14,2.45.81,3.36,1.74l6.78,6.95c1.01,1.04,2.34,1.55,3.67,1.54h0s0,0,0,0,0,0,0,0h0c1.33,0,2.65-.51,3.67-1.54l6.78-6.95c.91-.93,2.08-1.6,3.36-1.74,1.76-.19,3.44.49,4.6,1.84,1.87,2.2,1.58,5.58-.44,7.64l-1.98,2.03h12.7c2.2-5.58,1.42-12.15-2.71-16.82Z" class="cls-3"></path>
    <polygon points="109.23 28.6 99.62 38.46 90 28.6 75.44 28.6 94.21 47.85 94.21 59.78 105.02 59.78 105.02 47.84 123.79 28.6 109.23 28.6" class="cls-2"></polygon>
  </g>
</svg>