<?xml version="1.0" encoding="UTF-8" standalone="no"?>
<!DOCTYPE svg PUBLIC "-//W3C//DTD SVG 1.1//EN" "http://www.w3.org/Graphics/SVG/1.1/DTD/svg11.dtd">
<svg width="100%" height="100%" viewBox="0 0 1772 576" version="1.1" xmlns="http://www.w3.org/2000/svg" xmlns:xlink="http://www.w3.org/1999/xlink" xml:space="preserve" xmlns:serif="http://www.serif.com/" style="fill-rule:evenodd;clip-rule:evenodd;stroke-linejoin:round;stroke-miterlimit:2;">
    <g transform="matrix(1,0,0,1,-868.112614,-952.271042)">
        <g transform="matrix(4.166667,0,0,4.166667,0.00197,0.000625)">
            <g transform="matrix(1,0,0,1,538.46,247.5117)">
                <path d="M0,11.81C-0.524,11.186 -0.787,10.371 -0.787,9.364L-0.787,8.924C-0.787,8.797 -0.729,8.733 -0.615,8.733L0.223,8.733C0.336,8.733 0.394,8.797 0.394,8.924L0.394,9.307C0.394,9.982 0.547,10.527 0.854,10.941C1.162,11.355 1.562,11.561 2.052,11.561C2.53,11.561 2.93,11.364 3.249,10.969C3.566,10.575 3.728,10.052 3.728,9.402C3.728,8.97 3.65,8.596 3.496,8.284C3.343,7.972 3.144,7.698 2.897,7.462C2.652,7.227 2.245,6.867 1.675,6.382C1.105,5.911 0.655,5.506 0.324,5.169C-0.006,4.832 -0.276,4.428 -0.487,3.955C-0.698,3.484 -0.804,2.93 -0.804,2.293C-0.804,1.299 -0.547,0.513 -0.034,-0.067C0.479,-0.647 1.146,-0.937 1.966,-0.937C2.832,-0.937 3.524,-0.622 4.044,0.009C4.562,0.64 4.821,1.477 4.821,2.523L4.821,3C4.821,3.128 4.764,3.191 4.65,3.191L3.795,3.191C3.682,3.191 3.624,3.128 3.624,3L3.624,2.503C3.624,1.828 3.473,1.283 3.171,0.869C2.869,0.456 2.467,0.248 1.966,0.248C1.51,0.248 1.135,0.43 0.838,0.793C0.541,1.156 0.394,1.669 0.394,2.331C0.394,2.726 0.458,3.073 0.59,3.373C0.72,3.672 0.917,3.955 1.18,4.224C1.441,4.491 1.829,4.842 2.342,5.274C3.026,5.835 3.535,6.29 3.873,6.64C4.209,6.991 4.468,7.374 4.65,7.787C4.833,8.201 4.924,8.701 4.924,9.288C4.924,10.332 4.656,11.169 4.12,11.801C3.585,12.432 2.895,12.747 2.052,12.747C1.207,12.747 0.523,12.435 0,11.81ZM20.19,-0.784L21.079,-0.784C21.193,-0.784 21.25,-0.72 21.25,-0.593L21.25,12.403C21.25,12.53 21.193,12.594 21.079,12.594L20.208,12.594C20.092,12.594 20.037,12.53 20.037,12.403L20.037,2.159C20.037,2.122 20.028,2.102 20.01,2.102C19.994,2.102 19.974,2.115 19.951,2.14L18.172,6.268C18.138,6.357 18.082,6.403 18.002,6.403C17.911,6.403 17.848,6.357 17.814,6.268L16.036,2.159C16.012,2.134 15.993,2.122 15.976,2.122C15.959,2.122 15.95,2.14 15.95,2.179L15.95,12.403C15.95,12.53 15.892,12.594 15.779,12.594L14.908,12.594C14.793,12.594 14.736,12.53 14.736,12.403L14.736,-0.593C14.736,-0.72 14.793,-0.784 14.908,-0.784L15.796,-0.784C15.899,-0.784 15.967,-0.739 16.002,-0.65L17.951,3.765C17.961,3.791 17.978,3.802 18.002,3.802C18.024,3.802 18.042,3.791 18.052,3.765L19.985,-0.65C20.02,-0.739 20.087,-0.784 20.19,-0.784ZM35.936,12.422L35.508,10.052C35.508,10.026 35.5,10.008 35.484,9.995C35.466,9.982 35.446,9.975 35.423,9.975L32.329,9.975C32.306,9.975 32.287,9.982 32.268,9.995C32.251,10.008 32.244,10.026 32.244,10.052L31.816,12.422C31.804,12.536 31.742,12.594 31.627,12.594L30.755,12.594C30.699,12.594 30.656,12.575 30.628,12.536C30.599,12.498 30.59,12.448 30.602,12.384L33.166,-0.612C33.189,-0.727 33.252,-0.784 33.355,-0.784L34.38,-0.784C34.495,-0.784 34.557,-0.727 34.569,-0.612L37.166,12.384L37.166,12.422C37.166,12.536 37.116,12.594 37.013,12.594L36.124,12.594C36.022,12.594 35.959,12.536 35.936,12.422ZM32.517,8.867L35.218,8.867C35.251,8.867 35.27,8.841 35.27,8.791L33.902,1.281C33.89,1.242 33.878,1.223 33.867,1.223C33.856,1.223 33.844,1.242 33.833,1.281L32.465,8.791C32.465,8.841 32.482,8.867 32.517,8.867ZM51.135,12.441L49.391,6.535C49.379,6.498 49.357,6.478 49.323,6.478L47.834,6.478C47.789,6.478 47.767,6.504 47.767,6.555L47.767,12.402C47.767,12.53 47.709,12.594 47.596,12.594L46.723,12.594C46.61,12.594 46.553,12.53 46.553,12.402L46.553,-0.593C46.553,-0.72 46.61,-0.784 46.723,-0.784L49.545,-0.784C50.376,-0.784 51.05,-0.442 51.562,0.239C52.076,0.92 52.331,1.809 52.331,2.904C52.331,3.732 52.171,4.446 51.853,5.044C51.534,5.644 51.101,6.064 50.554,6.307C50.508,6.319 50.491,6.351 50.502,6.402L52.366,12.384L52.383,12.459C52.383,12.549 52.331,12.594 52.229,12.594L51.34,12.594C51.238,12.594 51.168,12.542 51.135,12.441ZM47.767,0.478L47.767,5.313C47.767,5.363 47.789,5.389 47.834,5.389L49.373,5.389C49.898,5.389 50.321,5.163 50.639,4.711C50.958,4.258 51.118,3.657 51.118,2.904C51.118,2.153 50.958,1.548 50.639,1.089C50.321,0.631 49.898,0.401 49.373,0.401L47.834,0.401C47.789,0.401 47.767,0.427 47.767,0.478ZM67.478,-0.593L67.478,0.21C67.478,0.337 67.42,0.401 67.308,0.401L65.05,0.401C65.005,0.401 64.981,0.427 64.981,0.478L64.981,12.402C64.981,12.53 64.925,12.594 64.81,12.594L63.939,12.594C63.826,12.594 63.768,12.53 63.768,12.402L63.768,0.478C63.768,0.427 63.745,0.401 63.701,0.401L61.58,0.401C61.466,0.401 61.409,0.337 61.409,0.21L61.409,-0.593C61.409,-0.72 61.466,-0.784 61.58,-0.784L67.308,-0.784C67.42,-0.784 67.478,-0.72 67.478,-0.593ZM5.338,18.327L6.258,18.327C6.376,18.327 6.436,18.391 6.436,18.518L6.436,31.514C6.436,31.64 6.376,31.705 6.258,31.705L5.357,31.705C5.237,31.705 5.179,31.64 5.179,31.514L5.179,21.27C5.179,21.233 5.17,21.213 5.151,21.213C5.135,21.213 5.114,21.225 5.09,21.251L3.249,25.379C3.214,25.468 3.155,25.514 3.072,25.514C2.979,25.514 2.913,25.468 2.878,25.379L1.037,21.27C1.014,21.245 0.993,21.233 0.976,21.233C0.957,21.233 0.948,21.251 0.948,21.29L0.948,31.514C0.948,31.64 0.889,31.705 0.772,31.705L-0.131,31.705C-0.249,31.705 -0.308,31.64 -0.308,31.514L-0.308,18.518C-0.308,18.391 -0.249,18.327 -0.131,18.327L0.79,18.327C0.896,18.327 0.967,18.372 1.002,18.461L3.02,22.876C3.031,22.902 3.049,22.913 3.072,22.913C3.096,22.913 3.113,22.902 3.125,22.876L5.126,18.461C5.161,18.372 5.232,18.327 5.338,18.327ZM15.528,30.94C14.967,30.328 14.688,29.52 14.688,28.513L14.688,21.518C14.688,20.512 14.967,19.703 15.528,19.091C16.089,18.479 16.823,18.173 17.732,18.173C18.653,18.173 19.396,18.479 19.962,19.091C20.529,19.703 20.812,20.512 20.812,21.518L20.812,28.513C20.812,29.507 20.529,30.313 19.962,30.93C19.396,31.548 18.653,31.857 17.732,31.857C16.823,31.857 16.089,31.551 15.528,30.94ZM19.051,30.09C19.387,29.7 19.555,29.201 19.555,28.589L19.555,21.461C19.555,20.837 19.387,20.33 19.051,19.942C18.714,19.553 18.274,19.359 17.732,19.359C17.201,19.359 16.771,19.553 16.44,19.942C16.11,20.33 15.944,20.837 15.944,21.461L15.944,28.589C15.944,29.201 16.11,29.7 16.44,30.09C16.771,30.478 17.201,30.672 17.732,30.672C18.274,30.672 18.714,30.478 19.051,30.09ZM30.957,31.533L28.391,18.536L28.391,18.499C28.391,18.384 28.444,18.326 28.551,18.326L29.541,18.326C29.658,18.326 29.725,18.384 29.736,18.499L31.647,29.181C31.659,29.207 31.671,29.22 31.683,29.22C31.695,29.22 31.707,29.207 31.719,29.181L33.612,18.499C33.635,18.384 33.701,18.326 33.807,18.326L34.763,18.326C34.893,18.326 34.945,18.396 34.922,18.536L32.355,31.533C32.343,31.647 32.278,31.704 32.16,31.704L31.151,31.704C31.046,31.704 30.98,31.647 30.957,31.533ZM42.855,31.513L42.855,18.518C42.855,18.391 42.913,18.326 43.031,18.326L43.934,18.326C44.051,18.326 44.111,18.391 44.111,18.518L44.111,31.513C44.111,31.64 44.051,31.704 43.934,31.704L43.031,31.704C42.913,31.704 42.855,31.64 42.855,31.513ZM57.832,18.327L58.717,18.327C58.834,18.327 58.894,18.391 58.894,18.518L58.894,31.514C58.894,31.64 58.834,31.705 58.717,31.705L57.673,31.705C57.578,31.705 57.514,31.654 57.478,31.552L54.026,21.671C54.015,21.634 53.997,21.618 53.974,21.623C53.949,21.63 53.938,21.653 53.938,21.691L53.956,31.514C53.956,31.64 53.896,31.705 53.778,31.705L52.876,31.705C52.758,31.705 52.699,31.64 52.699,31.514L52.699,18.518C52.699,18.391 52.758,18.327 52.876,18.327L53.903,18.327C53.997,18.327 54.061,18.378 54.098,18.48L57.566,28.379C57.578,28.418 57.596,28.434 57.619,28.427C57.643,28.421 57.654,28.399 57.654,28.361L57.654,18.518C57.654,18.391 57.714,18.327 57.832,18.327ZM67.995,30.988C67.453,30.408 67.182,29.634 67.182,28.666L67.182,21.365C67.182,20.397 67.453,19.624 67.995,19.044C68.537,18.464 69.264,18.174 70.172,18.174C71.08,18.174 71.809,18.467 72.358,19.053C72.907,19.639 73.182,20.417 73.182,21.385L73.182,22.206C73.182,22.333 73.122,22.397 73.004,22.397L72.101,22.397C71.983,22.397 71.924,22.333 71.924,22.206L71.924,21.346C71.924,20.748 71.766,20.266 71.446,19.904C71.128,19.541 70.703,19.359 70.172,19.359C69.653,19.359 69.23,19.543 68.907,19.913C68.582,20.282 68.42,20.761 68.42,21.346L68.42,28.684C68.42,29.271 68.582,29.748 68.907,30.118C69.23,30.488 69.653,30.672 70.172,30.672C70.703,30.672 71.128,30.491 71.446,30.127C71.766,29.764 71.924,29.284 71.924,28.684L71.924,26.238C71.924,26.188 71.9,26.162 71.853,26.162L70.332,26.162C70.214,26.162 70.154,26.098 70.154,25.971L70.154,25.169C70.154,25.042 70.214,24.977 70.332,24.977L73.004,24.977C73.122,24.977 73.182,25.042 73.182,25.169L73.182,28.666C73.182,29.634 72.907,30.408 72.358,30.988C71.809,31.568 71.08,31.857 70.172,31.857C69.264,31.857 68.537,31.568 67.995,30.988ZM0.023,50.031C-0.517,49.407 -0.787,48.592 -0.787,47.585L-0.787,47.145C-0.787,47.018 -0.728,46.954 -0.611,46.954L0.252,46.954C0.369,46.954 0.428,47.018 0.428,47.145L0.428,47.528C0.428,48.203 0.585,48.748 0.903,49.162C1.219,49.576 1.629,49.783 2.134,49.783C2.627,49.783 3.038,49.586 3.366,49.19C3.694,48.796 3.859,48.273 3.859,47.624C3.859,47.191 3.78,46.818 3.621,46.505C3.462,46.194 3.257,45.92 3.005,45.684C2.752,45.448 2.333,45.088 1.747,44.604C1.161,44.133 0.698,43.728 0.357,43.391C0.016,43.053 -0.261,42.649 -0.479,42.177C-0.696,41.705 -0.804,41.151 -0.804,40.514C-0.804,39.521 -0.539,38.734 -0.012,38.155C0.516,37.575 1.202,37.284 2.046,37.284C2.937,37.284 3.65,37.599 4.184,38.23C4.718,38.862 4.984,39.699 4.984,40.744L4.984,41.221C4.984,41.349 4.925,41.412 4.808,41.412L3.928,41.412C3.812,41.412 3.752,41.349 3.752,41.221L3.752,40.724C3.752,40.049 3.597,39.504 3.287,39.09C2.975,38.677 2.562,38.469 2.046,38.469C1.577,38.469 1.19,38.652 0.885,39.014C0.58,39.377 0.428,39.89 0.428,40.553C0.428,40.947 0.495,41.295 0.629,41.594C0.764,41.893 0.967,42.177 1.237,42.445C1.506,42.712 1.906,43.063 2.433,43.496C3.137,44.057 3.662,44.511 4.008,44.862C4.354,45.213 4.621,45.595 4.808,46.008C4.996,46.422 5.089,46.923 5.089,47.51C5.089,48.553 4.815,49.391 4.262,50.022C3.711,50.653 3.002,50.968 2.134,50.968C1.265,50.968 0.562,50.656 0.023,50.031ZM9.227,50.051C8.669,49.439 8.391,48.63 8.391,47.624L8.391,40.629C8.391,39.623 8.669,38.814 9.227,38.202C9.785,37.59 10.514,37.284 11.417,37.284C12.333,37.284 13.072,37.59 13.635,38.202C14.198,38.814 14.479,39.623 14.479,40.629L14.479,47.624C14.479,48.618 14.198,49.424 13.635,50.041C13.072,50.659 12.333,50.968 11.417,50.968C10.514,50.968 9.785,50.662 9.227,50.051ZM12.729,49.201C13.063,48.811 13.231,48.312 13.231,47.7L13.231,40.572C13.231,39.948 13.063,39.441 12.729,39.053C12.394,38.664 11.957,38.47 11.417,38.47C10.89,38.47 10.462,38.664 10.133,39.053C9.805,39.441 9.64,39.948 9.64,40.572L9.64,47.7C9.64,48.312 9.805,48.811 10.133,49.201C10.462,49.589 10.89,49.783 11.417,49.783C11.957,49.783 12.394,49.589 12.729,49.201ZM18.343,50.624L18.343,37.629C18.343,37.501 18.401,37.437 18.518,37.437L19.416,37.437C19.532,37.437 19.592,37.501 19.592,37.629L19.592,49.554C19.592,49.604 19.615,49.63 19.661,49.63L23.691,49.63C23.808,49.63 23.867,49.694 23.867,49.821L23.867,50.624C23.867,50.751 23.808,50.815 23.691,50.815L18.518,50.815C18.401,50.815 18.343,50.751 18.343,50.624ZM27.66,49.956C27.108,49.28 26.833,48.388 26.833,47.279L26.833,37.629C26.833,37.501 26.891,37.437 27.009,37.437L27.906,37.437C28.023,37.437 28.083,37.501 28.083,37.629L28.083,47.432C28.083,48.133 28.244,48.7 28.566,49.133C28.889,49.568 29.313,49.783 29.842,49.783C30.381,49.783 30.815,49.568 31.143,49.133C31.472,48.7 31.637,48.133 31.637,47.432L31.637,37.629C31.637,37.501 31.695,37.437 31.812,37.437L32.71,37.437C32.827,37.437 32.885,37.501 32.885,37.629L32.885,47.279C32.885,48.388 32.607,49.28 32.05,49.956C31.492,50.63 30.757,50.968 29.842,50.968C28.938,50.968 28.212,50.63 27.66,49.956ZM42.521,37.629L42.521,38.431C42.521,38.559 42.462,38.623 42.345,38.623L40.023,38.623C39.975,38.623 39.952,38.649 39.952,38.7L39.952,50.624C39.952,50.751 39.894,50.816 39.776,50.816L38.879,50.816C38.762,50.816 38.703,50.751 38.703,50.624L38.703,38.7C38.703,38.649 38.679,38.623 38.633,38.623L36.451,38.623C36.334,38.623 36.275,38.559 36.275,38.431L36.275,37.629C36.275,37.502 36.334,37.438 36.451,37.438L42.345,37.438C42.462,37.438 42.521,37.502 42.521,37.629ZM46.015,50.624L46.015,37.629C46.015,37.501 46.073,37.437 46.19,37.437L47.087,37.437C47.204,37.437 47.264,37.501 47.264,37.629L47.264,50.624C47.264,50.751 47.204,50.815 47.087,50.815L46.19,50.815C46.073,50.815 46.015,50.751 46.015,50.624ZM51.961,50.051C51.403,49.439 51.125,48.63 51.125,47.624L51.125,40.629C51.125,39.623 51.403,38.814 51.961,38.202C52.518,37.59 53.248,37.284 54.151,37.284C55.067,37.284 55.805,37.59 56.369,38.202C56.932,38.814 57.213,39.623 57.213,40.629L57.213,47.624C57.213,48.618 56.932,49.424 56.369,50.041C55.805,50.659 55.067,50.968 54.151,50.968C53.248,50.968 52.518,50.662 51.961,50.051ZM55.463,49.201C55.797,48.811 55.964,48.312 55.964,47.7L55.964,40.572C55.964,39.948 55.797,39.441 55.463,39.053C55.127,38.664 54.691,38.47 54.151,38.47C53.624,38.47 53.195,38.664 52.867,39.053C52.538,39.441 52.374,39.948 52.374,40.572L52.374,47.7C52.374,48.312 52.538,48.811 52.867,49.201C53.195,49.589 53.624,49.783 54.151,49.783C54.691,49.783 55.127,49.589 55.463,49.201ZM66.179,37.438L67.059,37.438C67.175,37.438 67.235,37.502 67.235,37.629L67.235,50.624C67.235,50.751 67.175,50.816 67.059,50.816L66.021,50.816C65.927,50.816 65.863,50.764 65.826,50.662L62.396,40.782C62.384,40.744 62.366,40.729 62.343,40.733C62.32,40.74 62.309,40.763 62.309,40.802L62.325,50.624C62.325,50.751 62.267,50.816 62.15,50.816L61.252,50.816C61.135,50.816 61.077,50.751 61.077,50.624L61.077,37.629C61.077,37.502 61.135,37.438 61.252,37.438L62.274,37.438C62.366,37.438 62.431,37.489 62.467,37.59L65.915,47.489C65.927,47.528 65.944,47.544 65.967,47.537C65.992,47.532 66.003,47.509 66.003,47.472L66.003,37.629C66.003,37.502 66.062,37.438 66.179,37.438ZM71.661,50.031C71.121,49.407 70.851,48.592 70.851,47.585L70.851,47.145C70.851,47.018 70.91,46.954 71.027,46.954L71.89,46.954C72.007,46.954 72.065,47.018 72.065,47.145L72.065,47.528C72.065,48.203 72.223,48.748 72.54,49.162C72.857,49.576 73.267,49.783 73.772,49.783C74.265,49.783 74.675,49.586 75.004,49.19C75.331,48.796 75.497,48.273 75.497,47.624C75.497,47.191 75.417,46.818 75.259,46.505C75.1,46.194 74.895,45.92 74.642,45.684C74.39,45.448 73.971,45.088 73.385,44.604C72.798,44.133 72.335,43.728 71.995,43.391C71.654,43.053 71.376,42.649 71.159,42.177C70.942,41.705 70.834,41.151 70.834,40.514C70.834,39.521 71.099,38.734 71.625,38.155C72.153,37.575 72.84,37.284 73.683,37.284C74.575,37.284 75.287,37.599 75.822,38.23C76.355,38.862 76.622,39.699 76.622,40.744L76.622,41.221C76.622,41.349 76.563,41.412 76.446,41.412L75.566,41.412C75.449,41.412 75.39,41.349 75.39,41.221L75.39,40.724C75.39,40.049 75.234,39.504 74.925,39.09C74.613,38.677 74.199,38.469 73.683,38.469C73.215,38.469 72.828,38.652 72.523,39.014C72.217,39.377 72.065,39.89 72.065,40.553C72.065,40.947 72.132,41.295 72.267,41.594C72.402,41.893 72.604,42.177 72.874,42.445C73.143,42.712 73.543,43.063 74.07,43.496C74.775,44.057 75.299,44.511 75.646,44.862C75.992,45.213 76.258,45.595 76.446,46.008C76.634,46.422 76.727,46.923 76.727,47.51C76.727,48.553 76.452,49.391 75.9,50.022C75.349,50.653 74.64,50.968 73.772,50.968C72.903,50.968 72.2,50.656 71.661,50.031ZM-196.191,48.258L-207.263,-4.082L-207.341,-4.392C-207.341,-4.857 -207.057,-5.089 -206.489,-5.089L-198.669,-5.089C-198.049,-5.089 -197.714,-4.805 -197.663,-4.238L-191.236,33.005C-191.185,33.159 -191.108,33.237 -191.004,33.237C-190.901,33.237 -190.823,33.159 -190.772,33.005L-184.5,-4.238C-184.449,-4.805 -184.112,-5.089 -183.493,-5.089L-175.905,-5.089C-175.235,-5.089 -174.977,-4.753 -175.131,-4.082L-186.28,48.258C-186.384,48.826 -186.72,49.11 -187.287,49.11L-195.185,49.11C-195.754,49.11 -196.088,48.826 -196.191,48.258ZM-142.032,2.382C-142.213,2.564 -142.432,2.653 -142.69,2.653L-159.414,2.653C-159.673,2.653 -159.802,2.783 -159.802,3.041L-159.802,17.674C-159.802,17.933 -159.673,18.061 -159.414,18.061L-149.504,18.061C-149.246,18.061 -149.027,18.152 -148.845,18.332C-148.665,18.513 -148.574,18.732 -148.574,18.989L-148.574,24.952C-148.574,25.211 -148.665,25.43 -148.845,25.61C-149.027,25.792 -149.246,25.882 -149.504,25.882L-159.414,25.882C-159.673,25.882 -159.802,26.01 -159.802,26.268L-159.802,40.979C-159.802,41.238 -159.673,41.367 -159.414,41.367L-142.69,41.367C-142.432,41.367 -142.213,41.457 -142.032,41.637C-141.851,41.819 -141.761,42.037 -141.761,42.295L-141.761,48.18C-141.761,48.439 -141.851,48.657 -142.032,48.839C-142.213,49.02 -142.432,49.109 -142.69,49.109L-167.854,49.109C-168.113,49.109 -168.332,49.02 -168.512,48.839C-168.693,48.657 -168.783,48.439 -168.783,48.18L-168.783,-4.16C-168.783,-4.418 -168.693,-4.637 -168.512,-4.818C-168.332,-4.999 -168.113,-5.09 -167.854,-5.09L-142.69,-5.09C-142.432,-5.09 -142.213,-4.999 -142.032,-4.818C-141.851,-4.637 -141.761,-4.418 -141.761,-4.16L-141.761,1.724C-141.761,1.983 -141.851,2.202 -142.032,2.382ZM-106.647,-4.818C-106.467,-4.637 -106.376,-4.418 -106.376,-4.16L-106.376,1.724C-106.376,1.983 -106.467,2.202 -106.647,2.382C-106.829,2.564 -107.047,2.654 -107.305,2.654L-117.139,2.654C-117.397,2.654 -117.525,2.783 -117.525,3.041L-117.525,48.18C-117.525,48.439 -117.616,48.658 -117.797,48.839C-117.978,49.02 -118.197,49.109 -118.455,49.109L-125.578,49.109C-125.837,49.109 -126.056,49.02 -126.236,48.839C-126.418,48.658 -126.507,48.439 -126.507,48.18L-126.507,3.041C-126.507,2.783 -126.636,2.654 -126.894,2.654L-136.186,2.654C-136.444,2.654 -136.664,2.564 -136.843,2.382C-137.025,2.202 -137.115,1.983 -137.115,1.724L-137.115,-4.16C-137.115,-4.418 -137.025,-4.637 -136.843,-4.818C-136.664,-4.999 -136.444,-5.089 -136.186,-5.089L-107.305,-5.089C-107.047,-5.089 -106.829,-4.999 -106.647,-4.818ZM-79.665,48.335L-86.246,26.113C-86.35,25.909 -86.478,25.804 -86.633,25.804L-90.737,25.804C-90.996,25.804 -91.124,25.934 -91.124,26.191L-91.124,48.18C-91.124,48.439 -91.215,48.658 -91.395,48.839C-91.576,49.02 -91.796,49.109 -92.054,49.109L-99.176,49.109C-99.436,49.109 -99.654,49.02 -99.834,48.839C-100.016,48.658 -100.105,48.439 -100.105,48.18L-100.105,-4.16C-100.105,-4.418 -100.016,-4.637 -99.834,-4.818C-99.654,-4.999 -99.436,-5.089 -99.176,-5.089L-84.62,-5.089C-81.885,-5.089 -79.472,-4.431 -77.381,-3.115C-75.29,-1.798 -73.664,0.059 -72.503,2.46C-71.342,4.86 -70.761,7.608 -70.761,10.706C-70.761,13.907 -71.38,16.668 -72.619,18.99C-73.857,21.313 -75.588,23.069 -77.807,24.255C-78.014,24.308 -78.091,24.462 -78.039,24.72L-70.451,48.025C-70.4,48.129 -70.373,48.258 -70.373,48.413C-70.373,48.877 -70.658,49.109 -71.225,49.109L-78.658,49.109C-79.175,49.109 -79.51,48.852 -79.665,48.335ZM-91.124,3.041L-91.124,18.449C-91.124,18.708 -90.996,18.836 -90.737,18.836L-86.014,18.836C-84.155,18.836 -82.645,18.113 -81.484,16.668C-80.323,15.223 -79.742,13.26 -79.742,10.783C-79.742,8.306 -80.323,6.331 -81.484,4.86C-82.645,3.389 -84.155,2.654 -86.014,2.654L-90.737,2.654C-90.996,2.654 -91.124,2.783 -91.124,3.041ZM-61.276,45.703C-63.986,43.019 -65.341,39.458 -65.341,35.017L-65.341,9.002C-65.341,4.563 -63.986,1.002 -61.276,-1.684C-58.566,-4.367 -54.992,-5.709 -50.553,-5.709C-46.114,-5.709 -42.526,-4.367 -39.79,-1.684C-37.055,1.002 -35.687,4.563 -35.687,9.002L-35.687,35.017C-35.687,39.458 -37.055,43.019 -39.79,45.703C-42.526,48.387 -46.114,49.729 -50.553,49.729C-54.992,49.729 -58.566,48.387 -61.276,45.703ZM-46.294,40.166C-45.21,38.954 -44.668,37.367 -44.668,35.404L-44.668,8.615C-44.668,6.654 -45.21,5.067 -46.294,3.853C-47.378,2.64 -48.799,2.034 -50.553,2.034C-52.308,2.034 -53.715,2.64 -54.773,3.853C-55.831,5.067 -56.359,6.654 -56.359,8.615L-56.359,35.404C-56.359,37.367 -55.831,38.954 -54.773,40.166C-53.715,41.38 -52.308,41.985 -50.553,41.985C-48.799,41.985 -47.378,41.38 -46.294,40.166ZM-222.993,11.683C-222.993,8.608 -224.214,5.659 -226.389,3.484C-228.563,1.31 -231.512,0.089 -234.587,0.089L-258.953,0.089C-258.182,-1.843 -257.41,-3.776 -256.639,-5.709L-234.587,-5.709C-232.304,-5.709 -230.043,-5.259 -227.934,-4.386C-225.823,-3.512 -223.905,-2.231 -222.289,-0.614C-220.674,1.001 -219.392,2.919 -218.518,5.03C-217.645,7.139 -217.195,9.4 -217.195,11.683L-217.195,101.828C-217.195,104.111 -217.645,106.371 -218.518,108.48C-219.392,110.591 -220.674,112.51 -222.289,114.125C-223.905,115.741 -225.823,117.022 -227.933,117.897C-230.043,118.77 -232.304,119.219 -234.587,119.219L-306.925,119.219C-310.713,119.219 -314.444,118.291 -317.791,116.516C-321.137,114.741 -323.998,112.172 -326.123,109.037C-328.248,105.9 -329.572,102.29 -329.979,98.524C-330.387,94.757 -329.865,90.949 -328.46,87.431C-323.725,75.573 -318.99,63.714 -314.255,51.857L-314.255,67.489C-317.195,74.853 -320.136,82.216 -323.077,89.58C-324.13,92.219 -324.521,95.076 -324.216,97.901C-323.91,100.726 -322.917,103.433 -321.323,105.785C-319.73,108.137 -317.584,110.064 -315.075,111.395C-312.564,112.726 -309.766,113.421 -306.925,113.421L-234.587,113.421C-231.512,113.421 -228.563,112.2 -226.389,110.026C-224.214,107.852 -222.993,104.903 -222.993,101.828L-222.993,11.683Z" style="fill:rgb(177,177,173);"/>
            </g>
            <g transform="matrix(1,0,0,1,356.8247,366.1115)">
                <path d="M0,-54.199L7.124,-54.199C7.381,-54.199 7.6,-54.108 7.782,-53.928C7.962,-53.747 8.053,-53.527 8.053,-53.27L8.053,-0.929C8.053,-0.671 7.962,-0.452 7.782,-0.27C7.6,-0.09 7.381,0 7.124,0L0,0C-0.259,0 -0.478,-0.09 -0.658,-0.27C-0.84,-0.452 -0.929,-0.671 -0.929,-0.929L-0.929,-37.474C-0.929,-37.68 -0.981,-37.784 -1.084,-37.784C-1.188,-37.784 -1.291,-37.707 -1.394,-37.553L-8.13,-25.318C-8.389,-24.905 -8.621,-24.699 -8.827,-24.699C-9.034,-24.699 -9.266,-24.905 -9.523,-25.318L-16.26,-37.553C-16.364,-37.707 -16.466,-37.784 -16.569,-37.784C-16.673,-37.784 -16.724,-37.68 -16.724,-37.474L-16.724,-0.929C-16.724,-0.671 -16.815,-0.452 -16.995,-0.27C-17.176,-0.09 -17.396,0 -17.653,0L-24.776,0C-25.036,0 -25.254,-0.09 -25.435,-0.27C-25.616,-0.452 -25.706,-0.671 -25.706,-0.929L-25.706,-53.27C-25.706,-53.527 -25.616,-53.747 -25.435,-53.928C-25.254,-54.108 -25.036,-54.199 -24.776,-54.199L-17.653,-54.199C-17.138,-54.199 -16.75,-53.992 -16.492,-53.579L-8.981,-40.34C-8.827,-40.133 -8.671,-40.133 -8.517,-40.34L-1.162,-53.579C-0.904,-53.992 -0.516,-54.199 0,-54.199ZM42.933,-46.727C42.752,-46.545 42.533,-46.456 42.275,-46.456L25.551,-46.456C25.292,-46.456 25.164,-46.326 25.164,-46.069L25.164,-31.436C25.164,-31.176 25.292,-31.047 25.551,-31.047L35.461,-31.047C35.719,-31.047 35.938,-30.956 36.12,-30.777C36.3,-30.596 36.391,-30.377 36.391,-30.12L36.391,-24.157C36.391,-23.898 36.3,-23.679 36.12,-23.499C35.938,-23.317 35.719,-23.228 35.461,-23.228L25.551,-23.228C25.292,-23.228 25.164,-23.098 25.164,-22.84L25.164,-8.13C25.164,-7.871 25.292,-7.742 25.551,-7.742L42.275,-7.742C42.533,-7.742 42.752,-7.652 42.933,-7.471C43.114,-7.29 43.204,-7.072 43.204,-6.814L43.204,-0.929C43.204,-0.67 43.114,-0.452 42.933,-0.27C42.752,-0.089 42.533,0.001 42.275,0.001L17.112,0.001C16.852,0.001 16.634,-0.089 16.454,-0.27C16.272,-0.452 16.183,-0.67 16.183,-0.929L16.183,-53.27C16.183,-53.527 16.272,-53.747 16.454,-53.927C16.634,-54.108 16.852,-54.199 17.112,-54.199L42.275,-54.199C42.533,-54.199 42.752,-54.108 42.933,-53.927C43.114,-53.747 43.204,-53.527 43.204,-53.27L43.204,-47.384C43.204,-47.126 43.114,-46.907 42.933,-46.727ZM52.92,-3.368C50.261,-6.026 48.933,-9.549 48.933,-13.936L48.933,-40.34C48.933,-44.778 50.261,-48.302 52.92,-50.908C55.578,-53.514 59.101,-54.818 63.489,-54.818C67.928,-54.818 71.489,-53.514 74.174,-50.908C76.857,-48.302 78.2,-44.778 78.2,-40.34L78.2,-39.41C78.2,-39.151 78.109,-38.92 77.929,-38.714C77.748,-38.507 77.528,-38.404 77.271,-38.404L70.07,-38.094C69.451,-38.094 69.141,-38.404 69.141,-39.023L69.141,-40.959C69.141,-42.764 68.625,-44.236 67.593,-45.372C66.56,-46.507 65.192,-47.076 63.489,-47.076C61.837,-47.076 60.495,-46.507 59.462,-45.372C58.429,-44.236 57.914,-42.764 57.914,-40.959L57.914,-13.24C57.914,-11.432 58.429,-9.962 59.462,-8.827C60.495,-7.69 61.837,-7.124 63.489,-7.124C65.192,-7.124 66.56,-7.69 67.593,-8.827C68.625,-9.962 69.141,-11.432 69.141,-13.24L69.141,-15.177C69.141,-15.434 69.231,-15.653 69.412,-15.834C69.592,-16.014 69.812,-16.104 70.07,-16.104L77.271,-15.795C77.528,-15.795 77.748,-15.705 77.929,-15.524C78.109,-15.343 78.2,-15.124 78.2,-14.866L78.2,-13.936C78.2,-9.549 76.857,-6.026 74.174,-3.368C71.489,-0.71 67.928,0.619 63.489,0.619C59.101,0.619 55.578,-0.71 52.92,-3.368ZM88.303,-3.368C85.645,-6.026 84.316,-9.549 84.316,-13.936L84.316,-40.34C84.316,-44.778 85.645,-48.302 88.303,-50.908C90.961,-53.514 94.485,-54.818 98.872,-54.818C103.311,-54.818 106.872,-53.514 109.557,-50.908C112.24,-48.302 113.583,-44.778 113.583,-40.34L113.583,-39.41C113.583,-39.151 113.492,-38.92 113.312,-38.714C113.131,-38.507 112.911,-38.404 112.654,-38.404L105.453,-38.094C104.834,-38.094 104.524,-38.404 104.524,-39.023L104.524,-40.959C104.524,-42.764 104.008,-44.236 102.976,-45.372C101.943,-46.507 100.575,-47.076 98.872,-47.076C97.22,-47.076 95.878,-46.507 94.846,-45.372C93.813,-44.236 93.297,-42.764 93.297,-40.959L93.297,-13.24C93.297,-11.432 93.813,-9.962 94.846,-8.827C95.878,-7.69 97.22,-7.124 98.872,-7.124C100.575,-7.124 101.943,-7.69 102.976,-8.827C104.008,-9.962 104.524,-11.432 104.524,-13.24L104.524,-15.177C104.524,-15.434 104.614,-15.653 104.795,-15.834C104.975,-16.014 105.195,-16.104 105.453,-16.104L112.654,-15.795C112.911,-15.795 113.131,-15.705 113.312,-15.524C113.492,-15.343 113.583,-15.124 113.583,-14.866L113.583,-13.936C113.583,-9.549 112.24,-6.026 109.557,-3.368C106.872,-0.71 103.311,0.619 98.872,0.619C94.485,0.619 90.961,-0.71 88.303,-3.368ZM140.993,-0.852L139.521,-8.982C139.521,-9.24 139.366,-9.369 139.056,-9.369L127.753,-9.369C127.442,-9.369 127.288,-9.24 127.288,-8.982L125.817,-0.852C125.764,-0.284 125.429,0 124.81,0L117.764,0C117.041,0 116.757,-0.336 116.913,-1.007L128.372,-53.348C128.474,-53.915 128.809,-54.199 129.378,-54.199L137.586,-54.199C138.153,-54.199 138.488,-53.915 138.592,-53.348L150.051,-1.007L150.051,-0.696C150.051,-0.232 149.767,0 149.2,0L141.999,0C141.38,0 141.044,-0.284 140.993,-0.852ZM129.069,-16.415L137.663,-16.415C137.972,-16.415 138.101,-16.543 138.05,-16.802L133.559,-41.269C133.507,-41.424 133.429,-41.501 133.327,-41.501C133.223,-41.501 133.146,-41.424 133.095,-41.269L128.681,-16.802C128.63,-16.543 128.758,-16.415 129.069,-16.415ZM177.576,-53.928C177.756,-54.109 177.975,-54.199 178.234,-54.199L185.28,-54.199C185.538,-54.199 185.757,-54.109 185.938,-53.928C186.118,-53.747 186.209,-53.528 186.209,-53.271L186.209,-0.93C186.209,-0.671 186.118,-0.452 185.938,-0.271C185.757,-0.09 185.538,0 185.28,0L177.15,0C176.634,0 176.299,-0.258 176.143,-0.775L164.607,-33.604C164.555,-33.758 164.465,-33.824 164.336,-33.797C164.207,-33.771 164.142,-33.681 164.142,-33.527L164.22,-0.93C164.22,-0.671 164.129,-0.452 163.949,-0.271C163.767,-0.09 163.549,0 163.291,0L156.245,0C155.986,0 155.766,-0.09 155.587,-0.271C155.405,-0.452 155.315,-0.671 155.315,-0.93L155.315,-53.271C155.315,-53.528 155.405,-53.747 155.587,-53.928C155.766,-54.109 155.986,-54.199 156.245,-54.199L164.22,-54.199C164.735,-54.199 165.072,-53.941 165.226,-53.425L176.841,-20.828C176.891,-20.673 176.982,-20.608 177.111,-20.635C177.24,-20.66 177.305,-20.751 177.305,-20.906L177.305,-53.271C177.305,-53.528 177.394,-53.747 177.576,-53.928ZM194.841,-0.27C194.659,-0.452 194.57,-0.67 194.57,-0.929L194.57,-53.27C194.57,-53.527 194.659,-53.747 194.841,-53.927C195.021,-54.108 195.239,-54.199 195.499,-54.199L202.622,-54.199C202.879,-54.199 203.099,-54.108 203.28,-53.927C203.46,-53.747 203.551,-53.527 203.551,-53.27L203.551,-0.929C203.551,-0.67 203.46,-0.452 203.28,-0.27C203.099,-0.089 202.879,0.001 202.622,0.001L195.499,0.001C195.239,0.001 195.021,-0.089 194.841,-0.27ZM214.972,-3.368C212.313,-6.026 210.984,-9.549 210.984,-13.936L210.984,-40.34C210.984,-44.778 212.313,-48.302 214.972,-50.908C217.629,-53.514 221.153,-54.818 225.54,-54.818C229.979,-54.818 233.541,-53.514 236.225,-50.908C238.909,-48.302 240.251,-44.778 240.251,-40.34L240.251,-39.41C240.251,-39.151 240.161,-38.92 239.981,-38.714C239.799,-38.507 239.58,-38.404 239.323,-38.404L232.121,-38.094C231.502,-38.094 231.193,-38.404 231.193,-39.023L231.193,-40.959C231.193,-42.764 230.676,-44.236 229.644,-45.372C228.611,-46.507 227.243,-47.076 225.54,-47.076C223.888,-47.076 222.546,-46.507 221.514,-45.372C220.481,-44.236 219.965,-42.764 219.965,-40.959L219.965,-13.24C219.965,-11.432 220.481,-9.962 221.514,-8.827C222.546,-7.69 223.888,-7.124 225.54,-7.124C227.243,-7.124 228.611,-7.69 229.644,-8.827C230.676,-9.962 231.193,-11.432 231.193,-13.24L231.193,-15.177C231.193,-15.434 231.282,-15.653 231.463,-15.834C231.644,-16.014 231.863,-16.104 232.121,-16.104L239.323,-15.795C239.58,-15.795 239.799,-15.705 239.981,-15.524C240.161,-15.343 240.251,-15.124 240.251,-14.866L240.251,-13.936C240.251,-9.549 238.909,-6.026 236.225,-3.368C233.541,-0.71 229.979,0.619 225.54,0.619C221.153,0.619 217.629,-0.71 214.972,-3.368ZM267.66,-0.852L266.189,-8.982C266.189,-9.24 266.034,-9.369 265.724,-9.369L254.421,-9.369C254.11,-9.369 253.956,-9.24 253.956,-8.982L252.485,-0.852C252.432,-0.284 252.097,0 251.478,0L244.432,0C243.709,0 243.425,-0.336 243.581,-1.007L255.04,-53.348C255.142,-53.915 255.477,-54.199 256.046,-54.199L264.254,-54.199C264.821,-54.199 265.156,-53.915 265.26,-53.348L276.718,-1.007L276.718,-0.696C276.718,-0.232 276.435,0 275.867,0L268.667,0C268.048,0 267.711,-0.284 267.66,-0.852ZM255.736,-16.415L264.331,-16.415C264.64,-16.415 264.768,-16.543 264.717,-16.802L260.227,-41.269C260.175,-41.424 260.097,-41.501 259.995,-41.501C259.89,-41.501 259.813,-41.424 259.762,-41.269L255.349,-16.802C255.298,-16.543 255.426,-16.415 255.736,-16.415ZM-126.822,-133.235C-126.822,-135.628 -124.883,-137.567 -122.49,-137.567L-82.047,-137.567C-78.984,-137.567 -76.888,-134.474 -78.024,-131.629L-121.252,-23.375C-122.432,-20.421 -126.822,-21.265 -126.822,-24.445L-126.822,-133.235Z" style="fill:rgb(54,80,150);"/>
            </g>
        </g>
    </g>
</svg>
