<?xml version="1.0" encoding="UTF-8" standalone="no"?>
<!DOCTYPE svg PUBLIC "-//W3C//DTD SVG 1.1//EN" "http://www.w3.org/Graphics/SVG/1.1/DTD/svg11.dtd">
<svg width="100%" height="100%" viewBox="0 0 595 166" version="1.1" xmlns="http://www.w3.org/2000/svg" xmlns:xlink="http://www.w3.org/1999/xlink" xml:space="preserve" xmlns:serif="http://www.serif.com/" style="fill-rule:evenodd;clip-rule:evenodd;stroke-linejoin:round;stroke-miterlimit:2;">
    <g transform="matrix(1,0,0,1,-2564.529388,-7886.346763)">
        <g transform="matrix(1.683502,0,0,1.683502,-21.822759,-75.937766)">
            <g transform="matrix(0.661619,0,0,0.661619,1366.73382,4608.46465)">
                <g transform="matrix(1,0,0,1,754.9025,183.0848)">
                    <path d="M0,149L-463.247,149C-482.785,149 -498.623,133.161 -498.623,113.623L-498.623,35.377C-498.623,15.839 -482.785,0 -463.247,0L0,0C19.538,0 35.377,15.839 35.377,35.377L35.377,113.623C35.377,133.161 19.538,149 0,149" style="fill:rgb(19,18,20);fill-rule:nonzero;"/>
                </g>
                <g transform="matrix(1,0,0,1,590.2867,299.7916)">
                    <path d="M0,-76.534L-15.356,-76.534C-16.285,-76.534 -17.038,-75.781 -17.038,-74.852L-17.038,-18.453C-17.038,-17.524 -17.791,-16.771 -18.72,-16.771L-40.678,-16.771C-41.607,-16.771 -42.36,-17.524 -42.36,-18.453L-42.36,-74.852C-42.36,-75.781 -43.113,-76.534 -44.042,-76.534L-59.394,-76.534C-60.323,-76.534 -61.076,-75.781 -61.076,-74.852L-61.076,-13.338C-61.046,-9.739 -57.732,-7.925 -51.136,-7.902L-8.254,-7.902C-1.666,-7.925 1.648,-9.739 1.682,-13.338L1.682,-74.852C1.682,-75.781 0.929,-76.534 0,-76.534M-88.369,-65.298C-88.369,-66.604 -89.428,-67.663 -90.734,-67.663L-111.724,-67.663C-113.031,-67.663 -114.09,-66.604 -114.09,-65.298L-114.09,-19.136C-114.09,-17.83 -113.031,-16.771 -111.724,-16.771L-90.734,-16.771C-89.428,-16.771 -88.369,-17.83 -88.369,-19.136L-88.369,-65.298ZM-69.653,-71.098L-69.653,-13.338C-69.687,-9.739 -72.997,-7.925 -79.589,-7.902L-122.87,-7.902C-129.464,-7.925 -132.777,-9.739 -132.804,-13.338L-132.804,-71.098C-132.777,-74.69 -129.464,-76.503 -122.87,-76.534L-79.589,-76.534C-72.997,-76.503 -69.687,-74.69 -69.653,-71.098M-155.75,-75.361L-168.103,-50.492C-168.876,-48.934 -171.096,-48.927 -171.88,-50.479L-184.45,-75.374C-184.809,-76.085 -185.538,-76.534 -186.335,-76.534L-204.32,-76.534C-204.374,-76.297 -204.374,-76.17 -204.32,-76.143L-187.811,-47.456C-187.598,-47.08 -186.076,-44.711 -183.242,-40.351C-181.733,-37.956 -180.552,-35.668 -179.705,-33.501C-179.603,-33.239 -179.557,-32.969 -179.557,-32.687L-179.557,-10.014C-179.557,-8.848 -178.611,-7.902 -177.444,-7.902L-162.76,-7.902C-161.594,-7.902 -160.648,-8.848 -160.648,-10.014L-160.648,-32.597C-160.648,-32.937 -160.559,-33.287 -160.403,-33.589C-157.083,-40.017 -154.438,-44.621 -152.462,-47.394C-152.431,-47.438 -152.405,-47.479 -152.378,-47.526L-135.883,-76.139L-135.883,-76.534L-153.858,-76.534C-154.66,-76.534 -155.393,-76.08 -155.75,-75.361M-240.596,-8.996L-235.403,-0.002L-235.405,0L-281.666,0L-304.797,-40.064L-304.796,-40.066L-294.411,-40.066L-276.473,-8.996L-240.596,-8.996Z" style="fill:rgb(235,90,62);fill-rule:nonzero;"/>
                </g>
                <g transform="matrix(1,0,0,1,299.736,281.3306)">
                    <path d="M0,-46.279L-5.194,-37.283L41.068,-37.283L64.199,2.781L69.393,-6.215L46.262,-46.279L0,-46.279ZM12.074,-67.192L3.853,-52.953L50.115,-52.953L73.246,-12.889L81.467,-27.128L58.336,-67.192L12.074,-67.192ZM-9.051,-30.602L-14.245,-21.605L32.016,-21.605L55.147,18.459L60.341,9.462L37.21,-30.602L-9.051,-30.602ZM463.978,-36.006C463.978,-37.385 463.581,-38.454 462.765,-39.269C461.948,-40.084 460.884,-40.479 459.501,-40.479C458.118,-40.479 457.055,-40.084 456.238,-39.269C455.425,-38.456 455.028,-37.389 455.028,-36.006C455.028,-34.625 455.425,-33.558 456.238,-32.745C457.055,-31.93 458.118,-31.535 459.501,-31.535C460.884,-31.535 461.948,-31.93 462.765,-32.745C463.581,-33.56 463.978,-34.627 463.978,-36.006M465.097,-36.006C465.097,-34.33 464.58,-32.978 463.555,-31.953C462.531,-30.928 461.182,-30.416 459.502,-30.416C457.827,-30.416 456.474,-30.928 455.449,-31.953C454.425,-32.978 453.912,-34.33 453.912,-36.006C453.912,-37.684 454.425,-39.036 455.449,-40.061C456.474,-41.086 457.827,-41.598 459.502,-41.598C461.182,-41.598 462.531,-41.086 463.555,-40.061C464.58,-39.036 465.097,-37.684 465.097,-36.006M460.534,-37.005C460.534,-37.25 460.463,-37.429 460.321,-37.543C460.179,-37.656 459.965,-37.713 459.681,-37.713L458.64,-37.713L458.64,-36.289L459.681,-36.289C459.965,-36.289 460.179,-36.345 460.321,-36.459C460.463,-36.573 460.534,-36.755 460.534,-37.005M460.872,-35.47L462.343,-33.192L460.722,-33.192L459.519,-35.247L458.64,-35.247L458.64,-33.192L457.199,-33.192L457.199,-38.822L459.886,-38.822C460.557,-38.822 461.079,-38.664 461.451,-38.349C461.824,-38.033 462.01,-37.613 462.01,-37.091C462.01,-36.516 461.825,-36.078 461.456,-35.776C461.292,-35.643 461.094,-35.545 460.872,-35.47M397.796,-37.267L392.563,-37.267C391.949,-37.267 391.452,-36.769 391.452,-36.156L391.452,8.219C391.452,8.833 391.949,9.33 392.563,9.33L397.796,9.33C398.41,9.33 398.907,8.833 398.907,8.219L398.907,-36.156C398.907,-36.769 398.41,-37.267 397.796,-37.267M444.569,-13.967C444.569,-19.311 443.313,-23.597 440.798,-26.83C438.278,-30.058 434.753,-31.676 430.218,-31.676C427.236,-31.676 424.628,-30.944 422.389,-29.486C420.155,-28.024 418.413,-25.974 417.173,-23.335C415.928,-20.692 415.308,-17.573 415.308,-13.967C415.308,-10.427 415.913,-7.321 417.123,-4.648C418.336,-1.978 420.043,0.087 422.251,1.548C424.454,3.008 427.016,3.74 429.937,3.74C434.537,3.74 438.124,2.122 440.701,-1.107C443.279,-4.339 444.569,-8.624 444.569,-13.967M449.135,-27.016C451.061,-23.412 452.024,-19.062 452.024,-13.967C452.024,-8.936 451.046,-4.601 449.089,-0.968C447.131,2.665 444.538,5.447 441.31,7.373C438.078,9.299 434.537,10.262 430.684,10.262C426.831,10.262 423.46,9.315 420.571,7.419C418.305,5.931 416.561,4.117 415.308,1.995L415.308,19.802C415.308,20.416 414.811,20.913 414.197,20.913L408.964,20.913C408.35,20.913 407.853,20.416 407.853,19.802L407.853,-36.156C407.853,-36.769 408.35,-37.267 408.964,-37.267L413.327,-37.267C413.915,-37.267 414.402,-36.807 414.436,-36.219L414.853,-28.925C415.597,-30.382 416.475,-31.75 417.635,-32.934C419.253,-34.579 421.21,-35.87 423.507,-36.8C425.807,-37.733 428.292,-38.199 430.965,-38.199C434.753,-38.199 438.247,-37.236 441.449,-35.309C444.646,-33.383 447.208,-30.619 449.135,-27.016M392.635,-42.803L397.724,-42.803C398.349,-42.803 398.855,-43.31 398.855,-43.934L398.855,-49.023C398.855,-49.648 398.349,-50.155 397.724,-50.155L392.635,-50.155C392.01,-50.155 391.504,-49.648 391.504,-49.023L391.504,-43.934C391.504,-43.31 392.01,-42.803 392.635,-42.803M325.004,-15.832L313.358,-18.255C310.807,-18.752 309.069,-19.575 308.137,-20.725C307.205,-21.873 306.739,-23.133 306.739,-24.499C306.739,-25.864 307.159,-27.093 307.998,-28.18C308.838,-29.266 310.048,-30.122 311.632,-30.744C313.219,-31.364 315.126,-31.676 317.364,-31.676C319.911,-31.676 322.365,-31.037 324.727,-29.765C326.731,-28.683 328.263,-27.077 329.327,-24.945C329.63,-24.336 330.363,-24.089 330.932,-24.463L335.241,-27.293C335.724,-27.61 335.906,-28.267 335.63,-28.775C334.086,-31.625 331.88,-33.865 329.015,-35.496C325.844,-37.297 321.961,-38.199 317.364,-38.199C313.697,-38.199 310.514,-37.561 307.813,-36.288C305.109,-35.015 303.028,-33.321 301.568,-31.21C300.108,-29.097 299.376,-26.766 299.376,-24.219C299.376,-20.989 300.355,-18.286 302.312,-16.109C304.269,-13.936 307.517,-12.384 312.051,-11.451L323.236,-9.121C325.598,-8.624 327.197,-7.834 328.036,-6.747C328.872,-5.657 329.292,-4.463 329.292,-3.157C329.292,-1.107 328.36,0.554 326.499,1.829C324.634,3.1 322.053,3.74 318.763,3.74C315.033,3.74 311.851,2.931 309.208,1.316C306.924,-0.081 305.116,-1.945 303.784,-4.275C303.453,-4.855 302.719,-5.05 302.177,-4.66L297.724,-1.452C297.241,-1.104 297.096,-0.416 297.42,0.084C299.431,3.188 302.181,5.615 305.668,7.373C309.489,9.299 313.666,10.262 318.204,10.262C321.868,10.262 325.101,9.669 327.894,8.49C330.691,7.311 332.864,5.62 334.42,3.412C335.973,1.209 336.747,-1.353 336.747,-4.278C336.747,-7.133 335.877,-9.556 334.139,-11.544C332.398,-13.532 329.354,-14.961 325.004,-15.832M380.503,-30.465C382.152,-27.854 382.972,-24.529 382.972,-20.492L382.972,8.219C382.972,8.833 382.475,9.33 381.861,9.33L376.628,9.33C376.014,9.33 375.517,8.833 375.517,8.219L375.517,-17.882C375.517,-23.038 374.415,-26.627 372.211,-28.646C370.004,-30.665 367.284,-31.676 364.055,-31.676C361.821,-31.676 359.582,-31.146 357.344,-30.091C355.109,-29.033 353.26,-27.309 351.8,-24.919C350.34,-22.526 349.612,-19.342 349.612,-15.366L349.612,8.219C349.612,8.833 349.114,9.33 348.501,9.33L343.267,9.33C342.654,9.33 342.157,8.833 342.157,8.219L342.157,-57.59C342.157,-58.204 342.654,-58.701 343.267,-58.701L348.501,-58.701C349.114,-58.701 349.612,-58.204 349.612,-57.59L349.612,-30.278C351.226,-33.073 353.368,-35.092 356.042,-36.334C358.712,-37.577 361.632,-38.199 364.803,-38.199C368.155,-38.199 371.198,-37.561 373.934,-36.288C376.669,-35.015 378.857,-33.073 380.503,-30.465" style="fill:white;fill-rule:nonzero;"/>
                </g>
            </g>
        </g>
    </g>
</svg>
