<?xml version="1.0" encoding="UTF-8" standalone="no"?>
<!DOCTYPE svg PUBLIC "-//W3C//DTD SVG 1.1//EN" "http://www.w3.org/Graphics/SVG/1.1/DTD/svg11.dtd">
<svg width="100%" height="100%" viewBox="0 0 360 301" version="1.1" xmlns="http://www.w3.org/2000/svg" xmlns:xlink="http://www.w3.org/1999/xlink" xml:space="preserve" xmlns:serif="http://www.serif.com/" style="fill-rule:evenodd;clip-rule:evenodd;stroke-linejoin:round;stroke-miterlimit:2;">
    <g transform="matrix(1,0,0,1,-2374.755906,-7813.982178)">
        <g transform="matrix(1.683502,0,0,1.683502,-21.822759,-75.937766)">
            <g id="youship-logo-verticale" transform="matrix(0.517422,0,0,0.517422,1122.261485,4444.554498)">
                <g transform="matrix(0.252925,0,0,0.286315,-5455.764061,-1979.845211)">
                    <path d="M25253.905,8548.828C25393.685,8548.828 25507,8648.928 25507,8772.408L25507,9531.42C25507,9654.9 25393.685,9755 25253.905,9755L24126.095,9755C23986.315,9755 23873,9654.9 23873,9531.42C23873,9315.02 23873,8988.808 23873,8772.408C23873,8648.928 23986.315,8548.828 24126.095,8548.828L25253.905,8548.828Z" style="fill:rgb(19,18,20);"/>
                </g>
                <g transform="matrix(0.796521,0,0,0.796521,348.389861,437.970791)">
                    <g transform="matrix(0.663956,0,0,0.663956,145.974508,64.202668)">
                        <g transform="matrix(1,0,0,1,642.3293,535.0943)">
                            <path d="M0,-121.522L-24.382,-121.522C-25.857,-121.522 -27.053,-120.326 -27.053,-118.851L-27.053,-29.3C-27.053,-27.825 -28.249,-26.629 -29.724,-26.629L-64.589,-26.629C-66.064,-26.629 -67.26,-27.825 -67.26,-29.3L-67.26,-118.851C-67.26,-120.326 -68.455,-121.522 -69.931,-121.522L-94.307,-121.522C-95.782,-121.522 -96.978,-120.326 -96.978,-118.851L-96.978,-21.178C-96.929,-15.464 -91.668,-12.583 -81.195,-12.546L-13.105,-12.546C-2.645,-12.583 2.616,-15.464 2.671,-21.178L2.671,-118.851C2.671,-120.326 1.475,-121.522 0,-121.522M-140.313,-103.681C-140.313,-105.755 -141.995,-107.437 -144.069,-107.437L-177.398,-107.437C-179.472,-107.437 -181.154,-105.755 -181.154,-103.681L-181.154,-30.385C-181.154,-28.31 -179.472,-26.629 -177.398,-26.629L-144.069,-26.629C-141.995,-26.629 -140.313,-28.31 -140.313,-30.385L-140.313,-103.681ZM-110.595,-112.89L-110.595,-21.178C-110.651,-15.464 -115.906,-12.583 -126.373,-12.546L-195.095,-12.546C-205.565,-12.583 -210.826,-15.464 -210.869,-21.178L-210.869,-112.89C-210.826,-118.595 -205.565,-121.473 -195.095,-121.522L-126.373,-121.522C-115.906,-121.473 -110.651,-118.595 -110.595,-112.89M-247.302,-119.66L-266.916,-80.172C-268.145,-77.698 -271.67,-77.687 -272.914,-80.152L-292.872,-119.68C-293.443,-120.809 -294.601,-121.522 -295.866,-121.522L-324.423,-121.522C-324.509,-121.146 -324.509,-120.944 -324.423,-120.901L-298.21,-75.351C-297.871,-74.754 -295.454,-70.992 -290.955,-64.07C-288.559,-60.266 -286.684,-56.634 -285.339,-53.194C-285.176,-52.777 -285.103,-52.348 -285.103,-51.901L-285.103,-15.901C-285.103,-14.048 -283.602,-12.546 -281.749,-12.546L-258.434,-12.546C-256.581,-12.546 -255.079,-14.048 -255.079,-15.901L-255.079,-51.758C-255.079,-52.297 -254.938,-52.854 -254.691,-53.333C-249.419,-63.539 -245.219,-70.849 -242.082,-75.253C-242.032,-75.323 -241.991,-75.388 -241.948,-75.463L-215.757,-120.895L-215.757,-121.522L-244.298,-121.522C-245.572,-121.522 -246.736,-120.801 -247.302,-119.66" style="fill:rgb(235,90,62);fill-rule:nonzero;"/>
                        </g>
                        <g transform="matrix(1,0,0,1,180.9877,505.7821)">
                            <path d="M736.713,-57.171C736.713,-59.361 736.083,-61.059 734.786,-62.353C733.489,-63.647 731.8,-64.274 729.604,-64.274C727.408,-64.274 725.72,-63.647 724.423,-62.353C723.132,-61.062 722.502,-59.367 722.502,-57.171C722.502,-54.978 723.132,-53.284 724.423,-51.993C725.72,-50.699 727.408,-50.072 729.604,-50.072C731.8,-50.072 733.489,-50.699 734.786,-51.993C736.083,-53.287 736.713,-54.981 736.713,-57.171M738.489,-57.171C738.489,-54.51 737.669,-52.363 736.042,-50.736C734.414,-49.108 732.273,-48.295 729.606,-48.295C726.945,-48.295 724.798,-49.108 723.17,-50.736C721.543,-52.363 720.73,-54.51 720.73,-57.171C720.73,-59.835 721.543,-61.983 723.17,-63.61C724.798,-65.237 726.945,-66.051 729.606,-66.051C732.273,-66.051 734.414,-65.237 736.042,-63.61C737.669,-61.983 738.489,-59.835 738.489,-57.171M731.245,-58.758C731.245,-59.146 731.131,-59.43 730.905,-59.611C730.68,-59.792 730.341,-59.882 729.89,-59.882L728.237,-59.882L728.237,-57.62L729.89,-57.62C730.341,-57.62 730.68,-57.71 730.905,-57.89C731.131,-58.071 731.245,-58.36 731.245,-58.758M731.781,-56.321L734.116,-52.703L731.542,-52.703L729.633,-55.967L728.237,-55.967L728.237,-52.703L725.948,-52.703L725.948,-61.643L730.215,-61.643C731.28,-61.643 732.109,-61.392 732.701,-60.891C733.292,-60.389 733.587,-59.724 733.587,-58.894C733.587,-57.981 733.294,-57.285 732.707,-56.807C732.448,-56.595 732.134,-56.439 731.781,-56.321M631.628,-59.173L623.318,-59.173C622.344,-59.173 621.554,-58.383 621.554,-57.409L621.554,13.051C621.554,14.025 622.344,14.814 623.318,14.814L631.628,14.814C632.602,14.814 633.391,14.025 633.391,13.051L633.391,-57.409C633.391,-58.383 632.602,-59.173 631.628,-59.173M705.895,-22.178C705.895,-30.663 703.901,-37.468 699.906,-42.601C695.905,-47.727 690.308,-50.296 683.108,-50.296C678.373,-50.296 674.231,-49.134 670.677,-46.819C667.129,-44.497 664.364,-41.243 662.394,-37.052C660.418,-32.856 659.433,-27.904 659.433,-22.178C659.433,-16.556 660.394,-11.625 662.314,-7.38C664.241,-3.14 666.952,0.138 670.457,2.457C673.956,4.775 678.024,5.938 682.661,5.938C689.965,5.938 695.66,3.368 699.753,-1.758C703.846,-6.89 705.895,-13.693 705.895,-22.178M713.144,-42.897C716.203,-37.175 717.732,-30.268 717.732,-22.178C717.732,-14.189 716.178,-7.306 713.071,-1.538C709.963,4.231 705.846,8.648 700.72,11.706C695.587,14.765 689.965,16.295 683.848,16.295C677.73,16.295 672.378,14.79 667.79,11.78C664.191,9.416 661.423,6.536 659.433,3.168L659.433,31.442C659.433,32.416 658.644,33.205 657.67,33.205L649.36,33.205C648.386,33.205 647.596,32.416 647.596,31.442L647.596,-57.409C647.596,-58.383 648.386,-59.173 649.36,-59.173L656.287,-59.173C657.222,-59.173 657.995,-58.443 658.048,-57.51L658.711,-45.929C659.892,-48.241 661.286,-50.414 663.128,-52.294C665.698,-54.906 668.805,-56.955 672.451,-58.433C676.103,-59.913 680.049,-60.653 684.294,-60.653C690.308,-60.653 695.856,-59.124 700.94,-56.065C706.017,-53.006 710.085,-48.617 713.144,-42.897M623.433,-67.964L631.513,-67.964C632.505,-67.964 633.309,-68.768 633.309,-69.76L633.309,-77.84C633.309,-78.832 632.505,-79.637 631.513,-79.637L623.433,-79.637C622.441,-79.637 621.636,-78.832 621.636,-77.84L621.636,-69.76C621.636,-68.768 622.441,-67.964 623.433,-67.964M516.047,-25.139L497.555,-28.986C493.505,-29.776 490.746,-31.082 489.265,-32.908C487.785,-34.731 487.045,-36.731 487.045,-38.9C487.045,-41.068 487.712,-43.02 489.045,-44.745C490.379,-46.47 492.3,-47.828 494.814,-48.816C497.334,-49.801 500.362,-50.296 503.917,-50.296C507.96,-50.296 511.857,-49.281 515.607,-47.262C518.789,-45.544 521.222,-42.993 522.911,-39.608C523.393,-38.641 524.556,-38.25 525.459,-38.843L532.301,-43.336C533.069,-43.84 533.357,-44.883 532.92,-45.69C530.468,-50.215 526.965,-53.772 522.416,-56.362C517.381,-59.222 511.215,-60.653 503.917,-60.653C498.093,-60.653 493.04,-59.641 488.752,-57.619C484.457,-55.597 481.154,-52.909 478.835,-49.556C476.517,-46.201 475.354,-42.5 475.354,-38.456C475.354,-33.327 476.908,-29.035 480.016,-25.579C483.124,-22.129 488.281,-19.664 495.481,-18.183L513.24,-14.482C516.99,-13.693 519.528,-12.439 520.862,-10.714C522.189,-8.983 522.856,-7.086 522.856,-5.012C522.856,-1.758 521.376,0.879 518.421,2.904C515.46,4.922 511.362,5.938 506.137,5.938C500.216,5.938 495.163,4.653 490.966,2.09C487.339,-0.128 484.469,-3.089 482.354,-6.788C481.828,-7.709 480.663,-8.019 479.802,-7.399L472.732,-2.306C471.965,-1.753 471.734,-0.66 472.248,0.133C475.442,5.061 479.808,8.916 485.344,11.706C491.413,14.765 498.044,16.295 505.25,16.295C511.068,16.295 516.2,15.352 520.635,13.481C525.077,11.609 528.527,8.923 530.998,5.418C533.464,1.919 534.693,-2.149 534.693,-6.793C534.693,-11.326 533.311,-15.173 530.552,-18.33C527.787,-21.487 522.954,-23.756 516.047,-25.139M604.169,-48.373C606.787,-44.228 608.09,-38.949 608.09,-32.538L608.09,13.051C608.09,14.025 607.3,14.814 606.326,14.814L598.016,14.814C597.042,14.814 596.253,14.025 596.253,13.051L596.253,-28.393C596.253,-36.581 594.503,-42.28 591.004,-45.485C587.499,-48.691 583.18,-50.296 578.053,-50.296C574.505,-50.296 570.951,-49.455 567.397,-47.779C563.849,-46.1 560.912,-43.362 558.594,-39.567C556.275,-35.768 555.119,-30.712 555.119,-24.398L555.119,13.051C555.119,14.025 554.33,14.814 553.356,14.814L545.046,14.814C544.072,14.814 543.282,14.025 543.282,13.051L543.282,-91.443C543.282,-92.417 544.072,-93.207 545.046,-93.207L553.356,-93.207C554.33,-93.207 555.119,-92.417 555.119,-91.443L555.119,-48.076C557.682,-52.514 561.084,-55.72 565.329,-57.692C569.569,-59.665 574.206,-60.653 579.24,-60.653C584.562,-60.653 589.395,-59.641 593.739,-57.619C598.082,-55.597 601.557,-52.514 604.169,-48.373" style="fill:white;fill-rule:nonzero;"/>
                        </g>
                    </g>
                    <g transform="matrix(2.540281,0,0,2.540281,-2012.467644,-46.94137)">
                        <g transform="matrix(1,0,0,1,1027.0551,106.0213)">
                            <path d="M0,21.161L-34.394,21.161L-51.592,-8.625L-61.548,-8.625L-61.549,-8.624L-39.374,29.786L4.977,29.786L4.978,29.784L0,21.161Z" style="fill:rgb(235,90,62);fill-rule:nonzero;"/>
                        </g>
                        <g transform="matrix(1,0,0,1,1035.0901,135.8054)">
                            <path d="M0,-82.113L-44.351,-82.113L-52.232,-68.462L-7.881,-68.462L14.294,-30.053L22.176,-43.704L0,-82.113ZM-64.604,-47.034L-69.583,-38.41L-25.232,-38.41L-3.057,0L1.923,-8.625L-20.253,-47.034L-64.604,-47.034ZM-11.575,-62.064L10.6,-23.655L5.621,-15.03L-16.555,-53.44L-60.906,-53.44L-55.926,-62.064L-11.575,-62.064Z" style="fill:white;fill-rule:nonzero;"/>
                        </g>
                    </g>
                </g>
            </g>
        </g>
    </g>
</svg>
